<svg width="16" height="16" viewBox="0 0 16 16" fill="none" xmlns="http://www.w3.org/2000/svg">
<path fill-rule="evenodd" clip-rule="evenodd" d="M1.23815 12.1259L0.143152 15.0459C0.101105 15.1583 0.0922908 15.2804 0.117764 15.3977C0.143236 15.5149 0.201919 15.6223 0.286803 15.7071C0.371687 15.7919 0.479185 15.8505 0.596458 15.8759C0.713731 15.9012 0.835823 15.8923 0.948152 15.8501L3.86732 14.7551C4.20144 14.63 4.5049 14.4348 4.75732 14.1826L13.2132 5.72677C13.2132 5.72677 12.9182 4.84261 12.0348 3.95844C11.1515 3.07511 10.2665 2.78011 10.2665 2.78011L1.81065 11.2359C1.5585 11.4884 1.36329 11.7918 1.23815 12.1259ZM11.4457 1.60094L12.5982 0.448442C12.8048 0.241775 13.0807 0.110108 13.369 0.158442C13.7748 0.225108 14.3957 0.426775 14.9807 1.01261C15.5665 1.59844 15.7682 2.21844 15.8348 2.62427C15.8832 2.91261 15.7515 3.18844 15.5448 3.39511L14.3915 4.54761C14.3915 4.54761 14.0973 3.66427 13.2132 2.78094C12.3298 1.89594 11.4457 1.60094 11.4457 1.60094Z" fill="url(#paint0_linear_557_42050)"/>
<defs>
<linearGradient id="paint0_linear_557_42050" x1="7.97417" y1="0.148437" x2="7.97417" y2="15.89" gradientUnits="userSpaceOnUse">
<stop stop-color="#34326A"/>
<stop offset="1" stop-color="#36328F"/>
</linearGradient>
</defs>
</svg>
