<svg width="20" height="20" viewBox="0 0 20 20" fill="none" xmlns="http://www.w3.org/2000/svg">
<path fill-rule="evenodd" clip-rule="evenodd" d="M10 19C5.02944 19 1 14.9706 1 10C1 5.02944 5.02944 1 10 1C14.9706 1 19 5.02944 19 10C19 14.9706 14.9706 19 10 19ZM8.1727 6.8227C7.9091 7.08631 7.9091 7.51369 8.1727 7.7773L10.3954 10L8.1727 12.2227C7.9091 12.4863 7.9091 12.9137 8.1727 13.1773C8.43631 13.4409 8.86369 13.4409 9.1273 13.1773L11.8273 10.4773C12.0909 10.2137 12.0909 9.78631 11.8273 9.5227L9.1273 6.8227C8.86369 6.5591 8.43631 6.5591 8.1727 6.8227Z" fill="white"/>
</svg>
