<svg width="270" height="271" viewBox="0 0 270 271" fill="none" xmlns="http://www.w3.org/2000/svg">
<path d="M219.998 169.755C219.998 168.082 221.345 166.727 223.014 166.718V164.105C221.345 164.1 219.998 162.741 219.998 161.068C219.998 159.395 221.345 158.041 223.014 158.032V155.4C221.345 155.395 219.998 154.036 219.998 152.364C219.998 150.691 221.345 149.336 223.014 149.327V146.327C217.064 146.327 212.243 141.495 212.243 135.532C212.243 129.568 217.064 124.736 223.014 124.736V121.373C221.345 121.368 219.998 120.009 219.998 118.336C219.998 116.664 221.345 115.309 223.014 115.3V112.686C221.345 112.682 219.998 111.323 219.998 109.65C219.998 107.977 221.345 106.623 223.014 106.614V103.982C221.345 103.977 219.998 102.618 219.998 100.945C219.998 99.2727 221.345 97.9182 223.014 97.9091V95H48.0137V97.9091C48.0182 97.9091 48.0227 97.9091 48.0273 97.9091C49.7006 97.9091 51.0566 99.2682 51.0566 100.945C51.0566 102.623 49.7006 103.982 48.0273 103.982C48.0227 103.982 48.0182 103.982 48.0137 103.982V106.614C48.0182 106.614 48.0227 106.614 48.0273 106.614C49.7006 106.614 51.0566 107.973 51.0566 109.65C51.0566 111.327 49.7006 112.686 48.0273 112.686C48.0227 112.686 48.0182 112.686 48.0137 112.686V115.3C48.0182 115.3 48.0227 115.3 48.0273 115.3C49.7006 115.3 51.0566 116.659 51.0566 118.336C51.0566 120.014 49.7006 121.373 48.0273 121.373C48.0227 121.373 48.0182 121.373 48.0137 121.373V124.736C53.9634 124.736 58.7839 129.568 58.7839 135.532C58.7839 141.495 53.9634 146.327 48.0137 146.327V149.327C48.0182 149.327 48.0227 149.327 48.0273 149.327C49.7006 149.327 51.0566 150.686 51.0566 152.364C51.0566 154.041 49.7006 155.4 48.0273 155.4C48.0227 155.4 48.0182 155.4 48.0137 155.4V158.032C48.0182 158.032 48.0227 158.032 48.0273 158.032C49.7006 158.032 51.0566 159.391 51.0566 161.068C51.0566 162.745 49.7006 164.105 48.0273 164.105C48.0227 164.105 48.0182 164.105 48.0137 164.105V166.718C48.0182 166.718 48.0227 166.718 48.0273 166.718C49.7006 166.718 51.0566 168.077 51.0566 169.755C51.0566 171.432 49.7006 172.791 48.0273 172.791C48.0227 172.791 48.0182 172.791 48.0137 172.791V176.018H223.014V172.791C221.345 172.782 219.998 171.423 219.998 169.755Z" fill="url(#paint0_linear_873_28040)"/>
<g filter="url(#filter0_b_873_28040)">
<rect x="69" y="117" width="133" height="38" fill="white" fill-opacity="0.7"/>
</g>
<path d="M102.152 136.16C102.835 136.363 103.357 136.693 103.72 137.152C104.083 137.611 104.264 138.176 104.264 138.848C104.264 139.84 103.885 140.613 103.128 141.168C102.381 141.723 101.309 142 99.912 142H94.392V130.8H99.608C100.909 130.8 101.923 131.051 102.648 131.552C103.373 132.053 103.736 132.768 103.736 133.696C103.736 134.251 103.597 134.741 103.32 135.168C103.043 135.584 102.653 135.915 102.152 136.16ZM96.968 135.44H99.384C99.9493 135.44 100.376 135.328 100.664 135.104C100.952 134.869 101.096 134.528 101.096 134.08C101.096 133.643 100.947 133.307 100.648 133.072C100.36 132.837 99.9387 132.72 99.384 132.72H96.968V135.44ZM99.816 140.08C101.032 140.08 101.64 139.6 101.64 138.64C101.64 137.712 101.032 137.248 99.816 137.248H96.968V140.08H99.816ZM111.738 134.48C113.103 134.48 114.149 134.784 114.874 135.392C115.61 136 115.978 136.901 115.978 138.096C115.978 139.365 115.573 140.336 114.762 141.008C113.962 141.669 112.831 142 111.37 142H106.314V130.8H108.89V134.48H111.738ZM111.226 140.08C111.898 140.08 112.421 139.915 112.794 139.584C113.178 139.253 113.37 138.773 113.37 138.144C113.37 136.981 112.655 136.4 111.226 136.4H108.89V140.08H111.226ZM117.402 130.8H119.978V142H117.402V130.8ZM122.767 130.8H131.807V132.864H125.343V135.168H128.447C129.802 135.168 130.831 135.451 131.535 136.016C132.25 136.581 132.607 137.397 132.607 138.464C132.607 139.584 132.212 140.453 131.423 141.072C130.634 141.691 129.519 142 128.079 142H122.767V130.8ZM127.935 140.08C128.596 140.08 129.103 139.952 129.455 139.696C129.807 139.429 129.983 139.045 129.983 138.544C129.983 137.563 129.3 137.072 127.935 137.072H125.343V140.08H127.935ZM139.428 130.8C140.42 130.8 141.278 130.965 142.003 131.296C142.74 131.627 143.305 132.096 143.7 132.704C144.094 133.312 144.292 134.032 144.292 134.864C144.292 135.685 144.094 136.405 143.7 137.024C143.305 137.632 142.74 138.101 142.003 138.432C141.278 138.752 140.42 138.912 139.428 138.912H137.172V142H134.58V130.8H139.428ZM139.284 136.8C140.062 136.8 140.654 136.635 141.06 136.304C141.465 135.963 141.668 135.483 141.668 134.864C141.668 134.235 141.465 133.755 141.06 133.424C140.654 133.083 140.062 132.912 139.284 132.912H137.172V136.8H139.284ZM153.023 139.6H147.823L146.831 142H144.175L149.167 130.8H151.727L156.735 142H154.015L153.023 139.6ZM152.207 137.632L150.431 133.344L148.655 137.632H152.207ZM166.218 132.912H162.634V142H160.074V132.912H156.506V130.8H166.218V132.912ZM173.269 134.48C174.634 134.48 175.68 134.784 176.405 135.392C177.141 136 177.509 136.901 177.509 138.096C177.509 139.365 177.104 140.336 176.293 141.008C175.493 141.669 174.362 142 172.901 142H167.845V130.8H170.421V134.48H173.269ZM172.757 140.08C173.429 140.08 173.952 139.915 174.325 139.584C174.709 139.253 174.901 138.773 174.901 138.144C174.901 136.981 174.186 136.4 172.757 136.4H170.421V140.08H172.757Z" fill="url(#paint1_linear_873_28040)"/>
<path d="M136 271C211.111 271 272 210.335 272 135.5C272 60.6654 211.111 0 136 0C60.8893 0 0 60.6654 0 135.5C0 210.335 60.8893 271 136 271Z" fill="url(#paint2_radial_873_28040)" style="mix-blend-mode:screen"/>
<g clip-path="url(#clip0_873_28040)">
<path d="M246.089 180.815C246.089 178.626 247.844 176.854 250.018 176.842V173.421C247.844 173.415 246.089 171.637 246.089 169.448C246.089 167.259 247.844 165.486 250.018 165.474V162.03C247.844 162.024 246.089 160.246 246.089 158.057C246.089 155.868 247.844 154.095 250.018 154.083V150.157C242.266 150.157 235.986 143.834 235.986 136.03C235.986 128.226 242.266 121.903 250.018 121.903V117.501C247.844 117.495 246.089 115.716 246.089 113.527C246.089 111.338 247.844 109.566 250.018 109.554V106.133C247.844 106.127 246.089 104.349 246.089 102.16C246.089 99.9709 247.844 98.1983 250.018 98.1864V94.7423C247.844 94.7363 246.089 92.9577 246.089 90.7687C246.089 88.5797 247.844 86.8071 250.018 86.7952V82.9883H22.0181V86.7952C22.024 86.7952 22.0299 86.7952 22.0358 86.7952C24.2159 86.7952 25.9825 88.5738 25.9825 90.7687C25.9825 92.9637 24.2159 94.7423 22.0358 94.7423C22.0299 94.7423 22.024 94.7423 22.0181 94.7423V98.1864C22.024 98.1864 22.0299 98.1864 22.0358 98.1864C24.2159 98.1864 25.9825 99.9649 25.9825 102.16C25.9825 104.355 24.2159 106.133 22.0358 106.133C22.0299 106.133 22.024 106.133 22.0181 106.133V109.554C22.024 109.554 22.0299 109.554 22.0358 109.554C24.2159 109.554 25.9825 111.332 25.9825 113.527C25.9825 115.722 24.2159 117.501 22.0358 117.501C22.0299 117.501 22.024 117.501 22.0181 117.501V121.903C29.7697 121.903 36.0502 128.226 36.0502 136.03C36.0502 143.834 29.7697 150.157 22.0181 150.157V154.083C22.024 154.083 22.0299 154.083 22.0358 154.083C24.2159 154.083 25.9825 155.862 25.9825 158.057C25.9825 160.252 24.2159 162.03 22.0358 162.03C22.0299 162.03 22.024 162.03 22.0181 162.03V165.474C22.024 165.474 22.0299 165.474 22.0358 165.474C24.2159 165.474 25.9825 167.253 25.9825 169.448C25.9825 171.643 24.2159 173.421 22.0358 173.421C22.0299 173.421 22.024 173.421 22.0181 173.421V176.842C22.024 176.842 22.0299 176.842 22.0358 176.842C24.2159 176.842 25.9825 178.62 25.9825 180.815C25.9825 183.01 24.2159 184.789 22.0358 184.789C22.0299 184.789 22.024 184.789 22.0181 184.789V189.012H250.018V184.789C247.844 184.777 246.089 182.998 246.089 180.815Z" fill="url(#paint3_linear_873_28040)"/>
<g filter="url(#filter1_b_873_28040)">
<rect x="51" y="112" width="171" height="49" fill="white" fill-opacity="0.7"/>
</g>
<path d="M90.584 135.97C91.5227 136.249 92.2413 136.703 92.74 137.334C93.2387 137.965 93.488 138.742 93.488 139.666C93.488 141.03 92.9673 142.093 91.926 142.856C90.8993 143.619 89.4253 144 87.504 144H79.914V128.6H87.086C88.8753 128.6 90.2687 128.945 91.266 129.634C92.2633 130.323 92.762 131.306 92.762 132.582C92.762 133.345 92.5713 134.019 92.19 134.606C91.8087 135.178 91.2733 135.633 90.584 135.97ZM83.456 134.98H86.778C87.5553 134.98 88.142 134.826 88.538 134.518C88.934 134.195 89.132 133.726 89.132 133.11C89.132 132.509 88.9267 132.047 88.516 131.724C88.12 131.401 87.5407 131.24 86.778 131.24H83.456V134.98ZM87.372 141.36C89.044 141.36 89.88 140.7 89.88 139.38C89.88 138.104 89.044 137.466 87.372 137.466H83.456V141.36H87.372ZM103.765 133.66C105.642 133.66 107.079 134.078 108.077 134.914C109.089 135.75 109.595 136.989 109.595 138.632C109.595 140.377 109.037 141.712 107.923 142.636C106.823 143.545 105.268 144 103.259 144H96.3066V128.6H99.8486V133.66H103.765ZM103.061 141.36C103.985 141.36 104.703 141.133 105.217 140.678C105.745 140.223 106.009 139.563 106.009 138.698C106.009 137.099 105.026 136.3 103.061 136.3H99.8486V141.36H103.061ZM111.553 128.6H115.095V144H111.553V128.6ZM118.93 128.6H131.36V131.438H122.472V134.606H126.74C128.602 134.606 130.018 134.995 130.986 135.772C131.968 136.549 132.46 137.671 132.46 139.138C132.46 140.678 131.917 141.873 130.832 142.724C129.746 143.575 128.214 144 126.234 144H118.93V128.6ZM126.036 141.36C126.945 141.36 127.642 141.184 128.126 140.832C128.61 140.465 128.852 139.937 128.852 139.248C128.852 137.899 127.913 137.224 126.036 137.224H122.472V141.36H126.036ZM141.838 128.6C143.202 128.6 144.382 128.827 145.38 129.282C146.392 129.737 147.169 130.382 147.712 131.218C148.254 132.054 148.526 133.044 148.526 134.188C148.526 135.317 148.254 136.307 147.712 137.158C147.169 137.994 146.392 138.639 145.38 139.094C144.382 139.534 143.202 139.754 141.838 139.754H138.736V144H135.172V128.6H141.838ZM141.64 136.85C142.71 136.85 143.524 136.623 144.082 136.168C144.639 135.699 144.918 135.039 144.918 134.188C144.918 133.323 144.639 132.663 144.082 132.208C143.524 131.739 142.71 131.504 141.64 131.504H138.736V136.85H141.64ZM160.531 140.7H153.381L152.017 144H148.365L155.229 128.6H158.749L165.635 144H161.895L160.531 140.7ZM159.409 137.994L156.967 132.098L154.525 137.994H159.409ZM178.674 131.504H173.746V144H170.226V131.504H165.32V128.6H178.674V131.504ZM188.37 133.66C190.247 133.66 191.685 134.078 192.682 134.914C193.694 135.75 194.2 136.989 194.2 138.632C194.2 140.377 193.643 141.712 192.528 142.636C191.428 143.545 189.873 144 187.864 144H180.912V128.6H184.454V133.66H188.37ZM187.666 141.36C188.59 141.36 189.309 141.133 189.822 140.678C190.35 140.223 190.614 139.563 190.614 138.698C190.614 137.099 189.631 136.3 187.666 136.3H184.454V141.36H187.666Z" fill="url(#paint4_linear_873_28040)"/>
</g>
<defs>
<filter id="filter0_b_873_28040" x="64" y="112" width="143" height="48" filterUnits="userSpaceOnUse" color-interpolation-filters="sRGB">
<feFlood flood-opacity="0" result="BackgroundImageFix"/>
<feGaussianBlur in="BackgroundImageFix" stdDeviation="2.5"/>
<feComposite in2="SourceAlpha" operator="in" result="effect1_backgroundBlur_873_28040"/>
<feBlend mode="normal" in="SourceGraphic" in2="effect1_backgroundBlur_873_28040" result="shape"/>
</filter>
<filter id="filter1_b_873_28040" x="46" y="107" width="181" height="59" filterUnits="userSpaceOnUse" color-interpolation-filters="sRGB">
<feFlood flood-opacity="0" result="BackgroundImageFix"/>
<feGaussianBlur in="BackgroundImageFix" stdDeviation="2.5"/>
<feComposite in2="SourceAlpha" operator="in" result="effect1_backgroundBlur_873_28040"/>
<feBlend mode="normal" in="SourceGraphic" in2="effect1_backgroundBlur_873_28040" result="shape"/>
</filter>
<linearGradient id="paint0_linear_873_28040" x1="199.466" y1="71.4129" x2="71.2619" y2="199.318" gradientUnits="userSpaceOnUse">
<stop stop-color="#E2C675"/>
<stop offset="0.2656" stop-color="#CDA349"/>
<stop offset="0.5063" stop-color="#F4E09C"/>
<stop offset="0.7606" stop-color="#FBCC34"/>
<stop offset="1" stop-color="#E2C675"/>
</linearGradient>
<linearGradient id="paint1_linear_873_28040" x1="135.5" y1="126" x2="135.5" y2="146" gradientUnits="userSpaceOnUse">
<stop stop-color="#34326A"/>
<stop offset="1" stop-color="#36328F"/>
</linearGradient>
<radialGradient id="paint2_radial_873_28040" cx="0" cy="0" r="1" gradientUnits="userSpaceOnUse" gradientTransform="translate(136 135.5) scale(136 135.5)">
<stop stop-color="#1D1C40" stop-opacity="0.5"/>
<stop offset="0.2" stop-color="#1D1C40" stop-opacity="0.5"/>
<stop offset="0.28" stop-color="#161526" stop-opacity="0.5"/>
<stop offset="0.33" stop-color="#23213C" stop-opacity="0.5"/>
<stop offset="0.37" stop-color="#323057" stop-opacity="0.5"/>
<stop offset="0.41" stop-color="#454278" stop-opacity="0.5"/>
<stop offset="0.44" stop-color="#5B579E" stop-opacity="0.5"/>
<stop offset="0.47" stop-color="#5B579E" stop-opacity="0.5"/>
<stop offset="0.5" stop-color="#5B579E" stop-opacity="0.5"/>
<stop offset="0.53" stop-color="#736EC7" stop-opacity="0.5"/>
<stop offset="0.581895" stop-color="#8680E8" stop-opacity="0.5"/>
<stop offset="0.64" stop-color="#5E5AA3" stop-opacity="0.5"/>
<stop offset="0.643084" stop-color="#5E5AA3" stop-opacity="0.5"/>
<stop offset="0.786982" stop-color="#3D3A69" stop-opacity="0.4"/>
<stop offset="0.89" stop-color="#23213C" stop-opacity="0.2"/>
<stop offset="0.96" stop-color="#1D1C40" stop-opacity="0"/>
<stop offset="1" stop-color="#1D1C40" stop-opacity="0"/>
</radialGradient>
<linearGradient id="paint3_linear_873_28040" x1="219.339" y1="52.1212" x2="51.569" y2="218.76" gradientUnits="userSpaceOnUse">
<stop stop-color="#E2C675"/>
<stop offset="0.2656" stop-color="#CDA349"/>
<stop offset="0.5063" stop-color="#F4E09C"/>
<stop offset="0.7606" stop-color="#FBCC34"/>
<stop offset="1" stop-color="#E2C675"/>
</linearGradient>
<linearGradient id="paint4_linear_873_28040" x1="136.5" y1="123" x2="136.5" y2="150" gradientUnits="userSpaceOnUse">
<stop stop-color="#6D63CF"/>
<stop offset="1" stop-color="#5244DF"/>
</linearGradient>
<clipPath id="clip0_873_28040">
<rect width="228" height="106" fill="white" transform="translate(22 83)"/>
</clipPath>
</defs>
</svg>
