<svg width="229" height="224" viewBox="0 0 229 224" fill="none" xmlns="http://www.w3.org/2000/svg">
<path d="M127.62 201.669C175.706 201.669 214.687 162.973 214.687 115.239C214.687 67.505 175.706 28.809 127.62 28.809C79.5335 28.809 40.552 67.505 40.552 115.239C40.552 162.973 79.5335 201.669 127.62 201.669Z" fill="url(#paint0_radial_822_27034)" style="mix-blend-mode:screen"/>
<path d="M59.635 36.5316L78.6669 24.0052L112.114 81.6384L104.509 86.4268L59.635 36.5316Z" fill="url(#paint1_linear_822_27034)" fill-opacity="0.5"/>
<path d="M0 31.168L4.13513 24.0052L95.4165 93.3903L93.5379 96.0301L0 31.168Z" fill="url(#paint2_linear_822_27034)" fill-opacity="0.8"/>
<path d="M82.1572 223.275L76.3337 221.493L112.299 148.849L114.5 149.751L82.1572 223.275Z" fill="url(#paint3_linear_822_27034)" fill-opacity="0.8"/>
<path d="M171.75 218.314L166.847 220.877L140.74 147.265L142.747 146.451L171.75 218.314Z" fill="url(#paint4_linear_822_27034)" fill-opacity="0.8"/>
<path d="M222.258 0L229 4.83831L150.346 88.8307L147.896 86.6932L222.258 0Z" fill="url(#paint5_linear_822_27034)" fill-opacity="0.8"/>
<path d="M35.3889 76.8198L45.2075 55.0549L97.4096 99.3989L93.3913 107.873L35.3889 76.8198Z" fill="url(#paint6_linear_822_27034)" fill-opacity="0.5"/>
<path d="M188.448 32.2171L171.147 19.2089L140.74 79.0565L147.653 84.0312L188.448 32.2171Z" fill="url(#paint7_linear_822_27034)" fill-opacity="0.5"/>
<path d="M219.458 71.6177L209.26 52.8207L155.052 91.1178L159.225 98.4365L219.458 71.6177Z" fill="url(#paint8_linear_822_27034)" fill-opacity="0.5"/>
<path d="M35.7812 156.467L45.6019 175.263L97.802 136.964L93.7836 129.647L35.7812 156.467Z" fill="url(#paint9_linear_822_27034)" fill-opacity="0.5"/>
<path d="M188.447 193.942L172.013 206.469L143.125 148.836L149.692 144.047L188.447 193.942Z" fill="url(#paint10_linear_822_27034)" fill-opacity="0.5"/>
<path d="M219.458 154.06L209.637 172.858L157.437 134.559L161.455 127.243L219.458 154.06Z" fill="url(#paint11_linear_822_27034)" fill-opacity="0.5"/>
<g clip-path="url(#clip0_822_27034)">
<path d="M224.089 154.815C224.089 152.626 225.844 150.854 228.018 150.842V147.421C225.844 147.415 224.089 145.637 224.089 143.448C224.089 141.259 225.844 139.486 228.018 139.474V136.03C225.844 136.024 224.089 134.246 224.089 132.057C224.089 129.868 225.844 128.095 228.018 128.083V124.157C220.266 124.157 213.986 117.834 213.986 110.03C213.986 102.226 220.266 95.9025 228.018 95.9025V91.5007C225.844 91.4948 224.089 89.7162 224.089 87.5272C224.089 85.3382 225.844 83.5656 228.018 83.5537V80.1334C225.844 80.1274 224.089 78.3489 224.089 76.1599C224.089 73.9709 225.844 72.1983 228.018 72.1864V68.7423C225.844 68.7363 224.089 66.9577 224.089 64.7687C224.089 62.5797 225.844 60.8071 228.018 60.7952V56.9883H0.0180664V60.7952C0.0239747 60.7952 0.0298822 60.7952 0.0357905 60.7952C2.21594 60.7952 3.98252 62.5738 3.98252 64.7687C3.98252 66.9637 2.21594 68.7423 0.0357905 68.7423C0.0298822 68.7423 0.0239747 68.7423 0.0180664 68.7423V72.1864C0.0239747 72.1864 0.0298822 72.1864 0.0357905 72.1864C2.21594 72.1864 3.98252 73.9649 3.98252 76.1599C3.98252 78.3548 2.21594 80.1334 0.0357905 80.1334C0.0298822 80.1334 0.0239747 80.1334 0.0180664 80.1334V83.5537C0.0239747 83.5537 0.0298822 83.5537 0.0357905 83.5537C2.21594 83.5537 3.98252 85.3323 3.98252 87.5272C3.98252 89.7222 2.21594 91.5007 0.0357905 91.5007C0.0298822 91.5007 0.0239747 91.5007 0.0180664 91.5007V95.9025C7.76971 95.9025 14.0502 102.226 14.0502 110.03C14.0502 117.834 7.76971 124.157 0.0180664 124.157V128.083C0.0239747 128.083 0.0298822 128.083 0.0357905 128.083C2.21594 128.083 3.98252 129.862 3.98252 132.057C3.98252 134.252 2.21594 136.03 0.0357905 136.03C0.0298822 136.03 0.0239747 136.03 0.0180664 136.03V139.474C0.0239747 139.474 0.0298822 139.474 0.0357905 139.474C2.21594 139.474 3.98252 141.253 3.98252 143.448C3.98252 145.643 2.21594 147.421 0.0357905 147.421C0.0298822 147.421 0.0239747 147.421 0.0180664 147.421V150.842C0.0239747 150.842 0.0298822 150.842 0.0357905 150.842C2.21594 150.842 3.98252 152.62 3.98252 154.815C3.98252 157.01 2.21594 158.789 0.0357905 158.789C0.0298822 158.789 0.0239747 158.789 0.0180664 158.789V163.012H228.018V158.789C225.844 158.777 224.089 156.998 224.089 154.815Z" fill="url(#paint12_linear_822_27034)"/>
<g filter="url(#filter0_b_822_27034)">
<rect x="29" y="86" width="171" height="49" fill="white" fill-opacity="0.7"/>
</g>
<path d="M68.584 109.97C69.5227 110.249 70.2413 110.703 70.74 111.334C71.2387 111.965 71.488 112.742 71.488 113.666C71.488 115.03 70.9673 116.093 69.926 116.856C68.8993 117.619 67.4253 118 65.504 118H57.914V102.6H65.086C66.8753 102.6 68.2687 102.945 69.266 103.634C70.2633 104.323 70.762 105.306 70.762 106.582C70.762 107.345 70.5713 108.019 70.19 108.606C69.8087 109.178 69.2733 109.633 68.584 109.97ZM61.456 108.98H64.778C65.5553 108.98 66.142 108.826 66.538 108.518C66.934 108.195 67.132 107.726 67.132 107.11C67.132 106.509 66.9267 106.047 66.516 105.724C66.12 105.401 65.5407 105.24 64.778 105.24H61.456V108.98ZM65.372 115.36C67.044 115.36 67.88 114.7 67.88 113.38C67.88 112.104 67.044 111.466 65.372 111.466H61.456V115.36H65.372ZM81.7646 107.66C83.6419 107.66 85.0792 108.078 86.0766 108.914C87.0886 109.75 87.5946 110.989 87.5946 112.632C87.5946 114.377 87.0372 115.712 85.9226 116.636C84.8226 117.545 83.2679 118 81.2586 118H74.3066V102.6H77.8486V107.66H81.7646ZM81.0606 115.36C81.9846 115.36 82.7032 115.133 83.2166 114.678C83.7446 114.223 84.0086 113.563 84.0086 112.698C84.0086 111.099 83.0259 110.3 81.0606 110.3H77.8486V115.36H81.0606ZM89.5526 102.6H93.0946V118H89.5526V102.6ZM96.9296 102.6H109.36V105.438H100.472V108.606H104.74C106.602 108.606 108.018 108.995 108.986 109.772C109.968 110.549 110.46 111.671 110.46 113.138C110.46 114.678 109.917 115.873 108.832 116.724C107.746 117.575 106.214 118 104.234 118H96.9296V102.6ZM104.036 115.36C104.945 115.36 105.642 115.184 106.126 114.832C106.61 114.465 106.852 113.937 106.852 113.248C106.852 111.899 105.913 111.224 104.036 111.224H100.472V115.36H104.036ZM119.838 102.6C121.202 102.6 122.382 102.827 123.38 103.282C124.392 103.737 125.169 104.382 125.712 105.218C126.254 106.054 126.526 107.044 126.526 108.188C126.526 109.317 126.254 110.307 125.712 111.158C125.169 111.994 124.392 112.639 123.38 113.094C122.382 113.534 121.202 113.754 119.838 113.754H116.736V118H113.172V102.6H119.838ZM119.64 110.85C120.71 110.85 121.524 110.623 122.082 110.168C122.639 109.699 122.918 109.039 122.918 108.188C122.918 107.323 122.639 106.663 122.082 106.208C121.524 105.739 120.71 105.504 119.64 105.504H116.736V110.85H119.64ZM138.531 114.7H131.381L130.017 118H126.365L133.229 102.6H136.749L143.635 118H139.895L138.531 114.7ZM137.409 111.994L134.967 106.098L132.525 111.994H137.409ZM156.674 105.504H151.746V118H148.226V105.504H143.32V102.6H156.674V105.504ZM166.37 107.66C168.247 107.66 169.685 108.078 170.682 108.914C171.694 109.75 172.2 110.989 172.2 112.632C172.2 114.377 171.643 115.712 170.528 116.636C169.428 117.545 167.873 118 165.864 118H158.912V102.6H162.454V107.66H166.37ZM165.666 115.36C166.59 115.36 167.309 115.133 167.822 114.678C168.35 114.223 168.614 113.563 168.614 112.698C168.614 111.099 167.631 110.3 165.666 110.3H162.454V115.36H165.666Z" fill="url(#paint13_linear_822_27034)"/>
</g>
<defs>
<filter id="filter0_b_822_27034" x="24" y="81" width="181" height="59" filterUnits="userSpaceOnUse" color-interpolation-filters="sRGB">
<feFlood flood-opacity="0" result="BackgroundImageFix"/>
<feGaussianBlur in="BackgroundImageFix" stdDeviation="2.5"/>
<feComposite in2="SourceAlpha" operator="in" result="effect1_backgroundBlur_822_27034"/>
<feBlend mode="normal" in="SourceGraphic" in2="effect1_backgroundBlur_822_27034" result="shape"/>
</filter>
<radialGradient id="paint0_radial_822_27034" cx="0" cy="0" r="1" gradientUnits="userSpaceOnUse" gradientTransform="translate(127.62 115.239) scale(87.0675 86.4299)">
<stop stop-color="#1D1C40" stop-opacity="0.5"/>
<stop offset="0.2" stop-color="#1D1C40" stop-opacity="0.5"/>
<stop offset="0.28" stop-color="#161526" stop-opacity="0.5"/>
<stop offset="0.33" stop-color="#23213C" stop-opacity="0.5"/>
<stop offset="0.37" stop-color="#323057" stop-opacity="0.5"/>
<stop offset="0.41" stop-color="#454278" stop-opacity="0.5"/>
<stop offset="0.44" stop-color="#5B579E" stop-opacity="0.5"/>
<stop offset="0.47" stop-color="#5B579E" stop-opacity="0.5"/>
<stop offset="0.5" stop-color="#5B579E" stop-opacity="0.5"/>
<stop offset="0.53" stop-color="#736EC7" stop-opacity="0.5"/>
<stop offset="0.581895" stop-color="#8680E8" stop-opacity="0.5"/>
<stop offset="0.64" stop-color="#5E5AA3" stop-opacity="0.5"/>
<stop offset="0.643084" stop-color="#5E5AA3" stop-opacity="0.5"/>
<stop offset="0.786982" stop-color="#3D3A69" stop-opacity="0.4"/>
<stop offset="0.89" stop-color="#23213C" stop-opacity="0.2"/>
<stop offset="0.96" stop-color="#1D1C40" stop-opacity="0"/>
<stop offset="1" stop-color="#1D1C40" stop-opacity="0"/>
</radialGradient>
<linearGradient id="paint1_linear_822_27034" x1="69.3376" y1="22.4607" x2="104.045" y2="77.7492" gradientUnits="userSpaceOnUse">
<stop stop-color="#1D1C40" stop-opacity="0"/>
<stop offset="0.13" stop-color="#1D1C40" stop-opacity="0"/>
<stop offset="0.35" stop-color="#272159"/>
<stop offset="0.52" stop-color="#403883"/>
<stop offset="0.61" stop-color="#5951A3"/>
</linearGradient>
<linearGradient id="paint2_linear_822_27034" x1="16.9042" y1="26.9334" x2="109.367" y2="91.4187" gradientUnits="userSpaceOnUse">
<stop stop-color="#1D1C40" stop-opacity="0"/>
<stop offset="0.12" stop-color="#1D1C40" stop-opacity="0"/>
<stop offset="0.441228" stop-color="#1E2153"/>
<stop offset="0.67" stop-color="#3442A6"/>
<stop offset="1" stop-color="#3F5BE2"/>
</linearGradient>
<linearGradient id="paint3_linear_822_27034" x1="81.0889" y1="228.944" x2="111.645" y2="155.487" gradientUnits="userSpaceOnUse">
<stop stop-color="#1D1C40" stop-opacity="0"/>
<stop offset="0.12" stop-color="#1D1C40" stop-opacity="0"/>
<stop offset="0.550687" stop-color="#1E2153"/>
<stop offset="0.67" stop-color="#3442A6"/>
<stop offset="1" stop-color="#3F5BE2"/>
</linearGradient>
<linearGradient id="paint4_linear_822_27034" x1="159.675" y1="209.731" x2="129.827" y2="139.005" gradientUnits="userSpaceOnUse">
<stop offset="0.199414" stop-color="#1D1C40" stop-opacity="0"/>
<stop offset="0.397908" stop-color="#3E59DE" stop-opacity="0.5"/>
<stop offset="0.606404" stop-color="#3442A6" stop-opacity="0.8"/>
<stop offset="0.775955" stop-color="#1D1C40" stop-opacity="0"/>
<stop offset="0.993301" stop-color="#1E2153"/>
</linearGradient>
<linearGradient id="paint5_linear_822_27034" x1="224.478" y1="-5.91801" x2="151.201" y2="80.2001" gradientUnits="userSpaceOnUse">
<stop stop-color="#1D1C40" stop-opacity="0"/>
<stop offset="0.25" stop-color="#1D1C40" stop-opacity="0"/>
<stop offset="0.5" stop-color="#1E2153"/>
<stop offset="0.75" stop-color="#3442A6"/>
<stop offset="1" stop-color="#3F5BE2"/>
</linearGradient>
<linearGradient id="paint6_linear_822_27034" x1="49.7933" y1="71.6293" x2="108.807" y2="99.29" gradientUnits="userSpaceOnUse">
<stop stop-color="#1D1C40" stop-opacity="0"/>
<stop offset="0.13" stop-color="#1D1C40" stop-opacity="0"/>
<stop offset="0.35" stop-color="#5951A3"/>
<stop offset="0.52" stop-color="#403883"/>
<stop offset="0.61" stop-color="#272159"/>
</linearGradient>
<linearGradient id="paint7_linear_822_27034" x1="179.519" y1="17.5817" x2="141.614" y2="70.4398" gradientUnits="userSpaceOnUse">
<stop stop-color="#1D1C40" stop-opacity="0"/>
<stop offset="0.13" stop-color="#1D1C40" stop-opacity="0"/>
<stop offset="0.35" stop-color="#272159"/>
<stop offset="0.52" stop-color="#403883"/>
<stop offset="0.61" stop-color="#5951A3"/>
</linearGradient>
<linearGradient id="paint8_linear_822_27034" x1="205.305" y1="68.3456" x2="148.577" y2="100.317" gradientUnits="userSpaceOnUse">
<stop stop-color="#1D1C40" stop-opacity="0"/>
<stop offset="0.13" stop-color="#1D1C40" stop-opacity="0"/>
<stop offset="0.35" stop-color="#5951A3"/>
<stop offset="0.52" stop-color="#403883"/>
<stop offset="0.61" stop-color="#272159"/>
</linearGradient>
<linearGradient id="paint9_linear_822_27034" x1="40.394" y1="170.383" x2="95.9966" y2="140.208" gradientUnits="userSpaceOnUse">
<stop stop-color="#1D1C40" stop-opacity="0"/>
<stop offset="0.13" stop-color="#1D1C40" stop-opacity="0"/>
<stop offset="0.35" stop-color="#272159"/>
<stop offset="0.52" stop-color="#403883"/>
<stop offset="0.61" stop-color="#5951A3"/>
</linearGradient>
<linearGradient id="paint10_linear_822_27034" x1="180.217" y1="199.765" x2="143.56" y2="149.334" gradientUnits="userSpaceOnUse">
<stop stop-color="#1D1C40" stop-opacity="0"/>
<stop offset="0.13" stop-color="#1D1C40" stop-opacity="0"/>
<stop offset="0.35" stop-color="#272159"/>
<stop offset="0.52" stop-color="#403883"/>
<stop offset="0.61" stop-color="#5951A3"/>
</linearGradient>
<linearGradient id="paint11_linear_822_27034" x1="215.585" y1="166.728" x2="159.983" y2="136.553" gradientUnits="userSpaceOnUse">
<stop stop-color="#1D1C40" stop-opacity="0"/>
<stop offset="0.13" stop-color="#1D1C40" stop-opacity="0"/>
<stop offset="0.35" stop-color="#272159"/>
<stop offset="0.52" stop-color="#403883"/>
<stop offset="0.61" stop-color="#5951A3"/>
</linearGradient>
<linearGradient id="paint12_linear_822_27034" x1="197.339" y1="26.1212" x2="29.569" y2="192.76" gradientUnits="userSpaceOnUse">
<stop stop-color="#E2C675"/>
<stop offset="0.2656" stop-color="#CDA349"/>
<stop offset="0.5063" stop-color="#F4E09C"/>
<stop offset="0.7606" stop-color="#FBCC34"/>
<stop offset="1" stop-color="#E2C675"/>
</linearGradient>
<linearGradient id="paint13_linear_822_27034" x1="114.5" y1="97" x2="114.5" y2="124" gradientUnits="userSpaceOnUse">
<stop stop-color="#6D63CF"/>
<stop offset="1" stop-color="#5244DF"/>
</linearGradient>
<clipPath id="clip0_822_27034">
<rect width="228" height="106" fill="white" transform="translate(0 57)"/>
</clipPath>
</defs>
</svg>
