<svg width="18" height="18" viewBox="0 0 18 18" fill="none" xmlns="http://www.w3.org/2000/svg">
<g clip-path="url(#clip0_557_44415)">
<path d="M11.3996 0H1.79961C1.48135 0 1.17612 0.126428 0.951081 0.351472C0.726038 0.576515 0.599609 0.88174 0.599609 1.2V15.6C0.599609 15.9183 0.726038 16.2235 0.951081 16.4485C1.17612 16.6736 1.48135 16.8 1.79961 16.8H11.3996C11.7179 16.8 12.0231 16.6736 12.2481 16.4485C12.4732 16.2235 12.5996 15.9183 12.5996 15.6V12H6.97761C6.81848 12 6.66587 11.9368 6.55335 11.8243C6.44082 11.7117 6.37761 11.5591 6.37761 11.4C6.37761 11.2409 6.44082 11.0883 6.55335 10.9757C6.66587 10.8632 6.81848 10.8 6.97761 10.8H12.5996V1.2C12.5996 0.88174 12.4732 0.576515 12.2481 0.351472C12.0231 0.126428 11.7179 0 11.3996 0Z" fill="#9897A8"/>
<path d="M14.4956 7.9724C14.3808 7.8741 14.2332 7.82274 14.0822 7.82857C13.9312 7.83441 13.7879 7.897 13.6811 8.00386C13.5742 8.11072 13.5116 8.25396 13.5058 8.40497C13.4999 8.55597 13.5513 8.70362 13.6496 8.8184L15.6776 10.8044H12.5996V12.0044H15.6776L13.6496 14.0804C13.5868 14.1342 13.5358 14.2004 13.4998 14.2748C13.4638 14.3493 13.4435 14.4303 13.4403 14.513C13.4371 14.5956 13.4511 14.678 13.4812 14.755C13.5114 14.832 13.5571 14.9019 13.6156 14.9604C13.6741 15.0189 13.744 15.0646 13.821 15.0948C13.898 15.1249 13.9804 15.1389 14.063 15.1357C14.1457 15.1325 14.2268 15.1122 14.3012 15.0762C14.3756 15.0402 14.4418 14.9892 14.4956 14.9264L17.9996 11.4464L14.4956 7.9724Z" fill="#9897A8"/>
</g>
<defs>
<clipPath id="clip0_557_44415">
<rect width="18" height="18" fill="white"/>
</clipPath>
</defs>
</svg>
