<svg width="13" height="9" viewBox="0 0 13 9" fill="none" xmlns="http://www.w3.org/2000/svg">
<path fill-rule="evenodd" clip-rule="evenodd" d="M4.19241 7.3121C4.89687 7.72179 5.6779 8 6.49999 8C8.78 8 10.7443 5.85993 11.6348 4.71047L11.6349 4.71033C11.8783 4.39622 12 4.23917 12 4C12 3.76083 11.8783 3.60378 11.6349 3.28967L11.6348 3.28953C11.4714 3.07863 11.2719 2.83438 11.0409 2.57612L8.33395 4.44808C8.14258 5.33693 7.39415 6 6.49999 6C6.3776 6 6.25794 5.98758 6.14206 5.96385L4.19241 7.3121ZM7.24381 2.16239C7.01567 2.05789 6.76419 2 6.49999 2C5.46798 2 4.63 2.88338 4.61876 3.97771L2.17983 5.66432C1.85357 5.31821 1.57853 4.9859 1.36513 4.71047L1.36503 4.71033C1.12168 4.39622 1 4.23917 1 4C1 3.76083 1.12168 3.60378 1.36503 3.28967L1.36513 3.28953C2.2557 2.14009 4.21996 0 6.49999 0C7.44083 0 8.32791 0.364411 9.10798 0.873251L7.24381 2.16239Z" fill="#9897A8"/>
<path d="M1 8L11.7324 0.578125" stroke="#9897A8" stroke-linecap="round"/>
</svg>
