<svg width="11" height="8" viewBox="0 0 11 8" fill="none" xmlns="http://www.w3.org/2000/svg">
<path fill-rule="evenodd" clip-rule="evenodd" d="M11 4C11 3.7608 10.8783 3.60373 10.6348 3.28953C9.74432 2.14009 7.78 0 5.49999 0C3.21996 0 1.2557 2.14009 0.365133 3.28953C0.121711 3.60373 0 3.7608 0 4C0 4.2392 0.121711 4.39627 0.365133 4.71047C1.2557 5.85993 3.21996 8 5.49999 8C7.78 8 9.74432 5.85993 10.6348 4.71047C10.8783 4.39627 11 4.2392 11 4ZM5.49999 6C6.53906 6 7.38134 5.1046 7.38134 4C7.38134 2.8954 6.53906 2 5.49999 2C4.46098 2 3.61865 2.8954 3.61865 4C3.61865 5.1046 4.46098 6 5.49999 6Z" fill="#9897A8"/>
</svg>
