<svg width="11" height="11" viewBox="0 0 11 11" fill="none" xmlns="http://www.w3.org/2000/svg">
<g clip-path="url(#clip0_587_37580)">
<path d="M1.03125 0.859375C1.03125 0.722623 1.08557 0.591472 1.18227 0.494773C1.27897 0.398075 1.41012 0.34375 1.54688 0.34375C1.68363 0.34375 1.81478 0.398075 1.91148 0.494773C2.00818 0.591472 2.0625 0.722623 2.0625 0.859375V2.13194C2.84319 1.33515 3.87643 0.83431 4.98555 0.715062C6.09466 0.595815 7.21075 0.865567 8.14298 1.47819C9.0752 2.09081 9.76565 3.00826 10.0963 4.07364C10.4269 5.13903 10.3771 6.28618 9.95551 7.31893C9.53389 8.35169 8.7666 9.20591 7.78483 9.73552C6.80306 10.2651 5.66781 10.4372 4.57318 10.2224C3.47856 10.0076 2.49256 9.41915 1.78379 8.55776C1.07502 7.69636 0.687503 6.6155 0.6875 5.5C0.6875 5.36325 0.741825 5.2321 0.838523 5.1354C0.935222 5.0387 1.06637 4.98438 1.20312 4.98438C1.33988 4.98438 1.47103 5.0387 1.56773 5.1354C1.66443 5.2321 1.71875 5.36325 1.71875 5.5C1.71876 6.37012 2.01886 7.21361 2.56843 7.8882C3.118 8.56279 3.88341 9.02721 4.73556 9.20312C5.58771 9.37903 6.47445 9.25566 7.24623 8.85383C8.018 8.452 8.62758 7.79629 8.97214 6.99731C9.3167 6.19832 9.37517 5.30495 9.13767 4.46787C8.90018 3.63079 8.38126 2.90123 7.66844 2.40225C6.95561 1.90326 6.09251 1.66538 5.2247 1.72873C4.35689 1.79208 3.53749 2.15278 2.90469 2.75H3.95312C4.08988 2.75 4.22103 2.80432 4.31773 2.90102C4.41443 2.99772 4.46875 3.12887 4.46875 3.26562C4.46875 3.40238 4.41443 3.53353 4.31773 3.63023C4.22103 3.72693 4.08988 3.78125 3.95312 3.78125H1.54688C1.41012 3.78125 1.27897 3.72693 1.18227 3.63023C1.08557 3.53353 1.03125 3.40238 1.03125 3.26562V0.859375Z" fill="white"/>
<path d="M5.67187 2.75C5.80863 2.75 5.93978 2.80432 6.03648 2.90102C6.13318 2.99772 6.1875 3.12887 6.1875 3.26562V5.85269L7.42844 6.40406C7.55046 6.46151 7.64512 6.56448 7.69212 6.69089C7.73912 6.81731 7.73472 6.9571 7.67986 7.08031C7.625 7.20352 7.52405 7.30033 7.39866 7.34998C7.27326 7.39964 7.1334 7.39819 7.00906 7.34594L5.46219 6.65844C5.37113 6.61791 5.29378 6.55185 5.23948 6.46827C5.18518 6.38469 5.15627 6.28717 5.15625 6.1875V3.26562C5.15625 3.12887 5.21057 2.99772 5.30727 2.90102C5.40397 2.80432 5.53512 2.75 5.67187 2.75Z" fill="white"/>
</g>
<defs>
<clipPath id="clip0_587_37580">
<rect width="11" height="11" fill="white"/>
</clipPath>
</defs>
</svg>
