<svg width="11" height="11" viewBox="0 0 11 11" fill="none" xmlns="http://www.w3.org/2000/svg">
<g clip-path="url(#clip0_563_44459)">
<path d="M0 8.943C0 9.515 0.201667 9.999 0.605 10.395C1.00833 10.791 1.496 10.9927 2.068 11H8.943C9.50767 11 9.99167 10.7983 10.395 10.395C10.7983 9.99167 11 9.50767 11 8.943V2.068C11 1.62067 10.8717 1.221 10.615 0.869C10.3583 0.517 10.0283 0.271333 9.625 0.132V1.034C9.625 1.32 9.526 1.56567 9.328 1.771C9.13 1.97633 8.88433 2.07533 8.591 2.068C8.29767 2.06067 8.05567 1.96167 7.865 1.771C7.67433 1.58033 7.57533 1.33467 7.568 1.034V0H3.443V1.034C3.443 1.32 3.34033 1.56567 3.135 1.771C2.92967 1.97633 2.68767 2.07533 2.409 2.068C2.13033 2.06067 1.88467 1.96167 1.672 1.771C1.45933 1.58033 1.36033 1.33467 1.375 1.034V0.132C0.971667 0.278667 0.641667 0.524333 0.385 0.869C0.128333 1.21367 0 1.61333 0 2.068L0 8.943ZM1.375 8.943V3.443H9.625V8.943C9.625 9.13367 9.559 9.295 9.427 9.427C9.295 9.559 9.13367 9.625 8.943 9.625H2.068C1.87733 9.625 1.71233 9.559 1.573 9.427C1.43367 9.295 1.36767 9.13367 1.375 8.943ZM2.068 1.034C2.068 1.12933 2.101 1.21 2.167 1.276C2.233 1.342 2.31367 1.375 2.409 1.375C2.50433 1.375 2.585 1.342 2.651 1.276C2.717 1.21 2.75 1.12933 2.75 1.034V0H2.068V1.034ZM2.75 8.25H4.125V6.875H2.75V8.25ZM2.75 6.193H4.125V4.818H2.75V6.193ZM4.818 8.25H6.193V6.875H4.818V8.25ZM4.818 6.193H6.193V4.818H4.818V6.193ZM6.875 8.25H8.25V6.875H6.875V8.25ZM6.875 6.193H8.25V4.818H6.875V6.193ZM8.25 1.034C8.25 1.12933 8.283 1.21 8.349 1.276C8.415 1.342 8.49567 1.375 8.591 1.375C8.68633 1.375 8.767 1.342 8.833 1.276C8.899 1.21 8.93567 1.12933 8.943 1.034V0H8.25V1.034Z" fill="#9897A8"/>
</g>
<defs>
<clipPath id="clip0_563_44459">
<rect width="11" height="11" fill="white"/>
</clipPath>
</defs>
</svg>
