<svg width="15" height="15" viewBox="0 0 15 15" fill="none" xmlns="http://www.w3.org/2000/svg">
<path fill-rule="evenodd" clip-rule="evenodd" d="M1.0812 11.4133L0.0377698 14.1957C-0.00229751 14.3028 -0.0106962 14.4192 0.013577 14.5309C0.0378502 14.6426 0.0937692 14.745 0.174656 14.8258C0.255542 14.9066 0.357978 14.9624 0.469728 14.9866C0.581478 15.0107 0.69782 15.0022 0.80486 14.962L3.58655 13.9186C3.90494 13.7994 4.19411 13.6133 4.43464 13.3731L12.4923 5.31556C12.4923 5.31556 12.2112 4.47304 11.3694 3.63053C10.5277 2.7888 9.68436 2.5077 9.68436 2.5077L1.62674 10.5652C1.38646 10.8057 1.20045 11.0949 1.0812 11.4133ZM10.808 1.38408L11.9062 0.285872C12.1032 0.0889407 12.366 -0.0365236 12.6408 0.00953285C13.0275 0.0730591 13.6191 0.265226 14.1765 0.823462C14.7348 1.3817 14.9269 1.97249 14.9905 2.35921C15.0365 2.63396 14.9111 2.8968 14.7141 3.09373L13.6151 4.19194C13.6151 4.19194 13.3348 3.35022 12.4923 2.50849C11.6505 1.66518 10.808 1.38408 10.808 1.38408Z" fill="white"/>
</svg>
