<svg width="28" height="25" viewBox="0 0 28 25" fill="none" xmlns="http://www.w3.org/2000/svg">
<rect width="28" height="25" rx="5" fill="url(#paint0_linear_563_44748)"/>
<path fill-rule="evenodd" clip-rule="evenodd" d="M8.0812 16.4133L7.03777 19.1957C6.9977 19.3028 6.9893 19.4192 7.01358 19.5309C7.03785 19.6426 7.09377 19.745 7.17466 19.8258C7.25554 19.9066 7.35798 19.9624 7.46973 19.9866C7.58148 20.0107 7.69782 20.0022 7.80486 19.962L10.5866 18.9186C10.9049 18.7994 11.1941 18.6133 11.4346 18.3731L19.4923 10.3156C19.4923 10.3156 19.2112 9.47304 18.3694 8.63053C17.5277 7.7888 16.6844 7.5077 16.6844 7.5077L8.62674 15.5652C8.38646 15.8057 8.20045 16.0949 8.0812 16.4133ZM17.808 6.38408L18.9062 5.28587C19.1032 5.08894 19.366 4.96348 19.6408 5.00953C20.0275 5.07306 20.6191 5.26523 21.1765 5.82346C21.7348 6.3817 21.9269 6.97249 21.9905 7.35921C22.0365 7.63396 21.9111 7.8968 21.7141 8.09373L20.6151 9.19194C20.6151 9.19194 20.3348 8.35022 19.4923 7.50849C18.6505 6.66518 17.808 6.38408 17.808 6.38408Z" fill="white"/>
<defs>
<linearGradient id="paint0_linear_563_44748" x1="14" y1="0" x2="14" y2="25" gradientUnits="userSpaceOnUse">
<stop stop-color="#34326A"/>
<stop offset="1" stop-color="#36328F"/>
</linearGradient>
</defs>
</svg>
