<svg width="12" height="11" viewBox="0 0 12 11" fill="none" xmlns="http://www.w3.org/2000/svg">
<path d="M10.1786 0H2.32143C1.45346 0 0.75 0.703459 0.75 1.57143V9.42857C0.75 10.2965 1.45346 11 2.32143 11H10.1786C11.0465 11 11.75 10.2965 11.75 9.42857V1.57143C11.75 0.703459 11.0465 0 10.1786 0ZM3.89286 8.64286C3.459 8.64286 3.10714 8.291 3.10714 7.85714C3.10714 7.42329 3.459 7.07143 3.89286 7.07143C4.32672 7.07143 4.67857 7.42329 4.67857 7.85714C4.67857 8.291 4.32672 8.64286 3.89286 8.64286ZM3.89286 3.92857C3.459 3.92857 3.10714 3.57672 3.10714 3.14286C3.10714 2.709 3.459 2.35714 3.89286 2.35714C4.32672 2.35714 4.67857 2.709 4.67857 3.14286C4.67857 3.57672 4.32672 3.92857 3.89286 3.92857ZM6.25 6.28571C5.81614 6.28571 5.46429 5.93386 5.46429 5.5C5.46429 5.06614 5.81614 4.71429 6.25 4.71429C6.68386 4.71429 7.03571 5.06614 7.03571 5.5C7.03571 5.93386 6.68386 6.28571 6.25 6.28571ZM8.60714 8.64286C8.17328 8.64286 7.82143 8.291 7.82143 7.85714C7.82143 7.42329 8.17328 7.07143 8.60714 7.07143C9.041 7.07143 9.39286 7.42329 9.39286 7.85714C9.39286 8.291 9.041 8.64286 8.60714 8.64286ZM8.60714 3.92857C8.17328 3.92857 7.82143 3.57672 7.82143 3.14286C7.82143 2.709 8.17328 2.35714 8.60714 2.35714C9.041 2.35714 9.39286 2.709 9.39286 3.14286C9.39286 3.57672 9.041 3.92857 8.60714 3.92857Z" fill="white"/>
</svg>
