<svg width="11" height="11" viewBox="0 0 11 11" fill="none" xmlns="http://www.w3.org/2000/svg">
<path fill-rule="evenodd" clip-rule="evenodd" d="M7.5625 5.84375H5.84375V7.5625C5.84375 7.75156 5.69009 7.90625 5.5 7.90625C5.30991 7.90625 5.15625 7.75156 5.15625 7.5625V5.84375H3.4375C3.24741 5.84375 3.09375 5.68906 3.09375 5.5C3.09375 5.31094 3.24741 5.15625 3.4375 5.15625H5.15625V3.4375C5.15625 3.24844 5.30991 3.09375 5.5 3.09375C5.69009 3.09375 5.84375 3.24844 5.84375 3.4375V5.15625H7.5625C7.75259 5.15625 7.90625 5.31094 7.90625 5.5C7.90625 5.68906 7.75259 5.84375 7.5625 5.84375ZM5.5 0C2.46228 0 0 2.46125 0 5.5C0 8.53875 2.46228 11 5.5 11C8.53772 11 11 8.53875 11 5.5C11 2.46125 8.53772 0 5.5 0Z" fill="white"/>
</svg>
