<svg width="11" height="13" viewBox="0 0 11 13" fill="none" xmlns="http://www.w3.org/2000/svg">
<path d="M4.47856 0.984457C4.40063 0.983312 4.31465 0.994032 4.20927 1.02825C3.9985 1.09646 3.90449 1.19901 3.79833 1.29942C3.69217 1.39971 3.59467 1.50811 3.50014 1.61624C3.31108 1.83258 3.08277 2.06907 3.10971 2.04954C3.13666 2.03017 2.8437 2.17269 2.57949 2.28529C2.4474 2.3415 2.30994 2.40303 2.1816 2.47259C2.05326 2.54238 1.92996 2.59806 1.79956 2.7773C1.66916 2.95647 1.65223 3.09306 1.6253 3.23669C1.59839 3.38031 1.58513 3.52693 1.57219 3.66999C1.54628 3.95612 1.49758 4.27657 1.50789 4.24493C1.51821 4.21327 1.36385 4.50264 1.21623 4.74905C1.14242 4.8723 1.06756 5.00386 1.0047 5.13576C0.941846 5.26765 0.879132 5.38468 0.878907 5.60633C0.878687 5.82798 0.943047 5.9458 1.00563 6.07784C1.06822 6.20992 1.1436 6.33652 1.21716 6.45989C1.36429 6.70659 1.51721 6.99661 1.50696 6.96494C1.4967 6.93333 1.54217 7.25929 1.56753 7.54547C1.58022 7.68845 1.59401 7.83509 1.62064 7.97877C1.64727 8.12256 1.66206 8.25964 1.7921 8.43909C1.92214 8.61857 2.04688 8.67468 2.17508 8.74473C2.30329 8.81467 2.44005 8.8728 2.57204 8.92923C2.83601 9.04233 3.13101 9.18926 3.10411 9.16965C3.07721 9.15033 3.3022 9.38168 3.49082 9.59829C3.58513 9.70665 3.68212 9.81735 3.78808 9.9179C3.89403 10.0186 3.98838 10.1195 4.19901 10.1881C4.40964 10.2569 4.54245 10.2309 4.68729 10.2124C4.83214 10.1935 4.97687 10.1651 5.11687 10.1332C5.39685 10.0694 5.71949 10.0102 5.68621 10.0102C5.65296 10.0101 5.97384 10.0669 6.2537 10.1313C6.39363 10.1635 6.53659 10.1962 6.68141 10.2152C6.82619 10.2348 6.95986 10.2591 7.17062 10.1909C7.38138 10.1227 7.4754 10.0238 7.58155 9.92349C7.68771 9.8232 7.78988 9.71096 7.8844 9.60295C8.07346 9.3866 8.29711 9.15475 8.27018 9.1743C8.24322 9.19367 8.53991 9.05115 8.80412 8.93855C8.93621 8.88234 9.06994 8.81988 9.19828 8.75032C9.32662 8.68053 9.44993 8.62576 9.58033 8.44655C9.71072 8.26738 9.72765 8.13078 9.75458 7.98715C9.78149 7.84353 9.79475 7.69692 9.80769 7.55385C9.8336 7.26772 9.8823 6.94262 9.87199 6.97425C9.86168 7.00592 10.016 6.71657 10.1637 6.47014C10.2375 6.34688 10.3123 6.21998 10.3752 6.08809C10.438 5.95619 10.5008 5.83918 10.501 5.61751C10.5012 5.39586 10.4368 5.27804 10.3742 5.14601C10.3117 5.01393 10.2372 4.88266 10.1637 4.7593C10.0165 4.51257 9.86267 4.2263 9.87292 4.25797C9.88318 4.28958 9.83771 3.96362 9.81235 3.67744C9.79971 3.53423 9.78588 3.38782 9.75924 3.24414C9.73262 3.10035 9.71783 2.96327 9.58778 2.78382C9.45775 2.60435 9.333 2.54918 9.2048 2.47911C9.07659 2.40918 8.93982 2.34661 8.80784 2.28995C8.54387 2.17685 8.24887 2.03472 8.27577 2.0542C8.30268 2.07351 8.07861 1.83666 7.88999 1.61996C7.79568 1.51161 7.69776 1.40186 7.5918 1.30128C7.48585 1.20063 7.3915 1.09968 7.18087 1.03105C6.97025 0.962256 6.83744 0.991736 6.69259 1.01055C6.54774 1.02936 6.40301 1.0587 6.26302 1.09069C5.98303 1.15443 5.66041 1.21345 5.69367 1.21369C5.72692 1.21372 5.40604 1.15226 5.12618 1.08789C4.98626 1.05571 4.84328 1.02671 4.69848 1.00775C4.62609 0.997929 4.55649 0.985606 4.47856 0.984457ZM5.70671 3.49387C5.78034 3.49446 5.85282 3.51219 5.91847 3.54566C5.98411 3.57913 6.04113 3.62743 6.08504 3.68676L6.63761 4.43502L7.56944 4.78725C7.63784 4.81317 7.69937 4.85455 7.74927 4.90819C7.79916 4.96184 7.83609 5.0263 7.85717 5.09658C7.87826 5.16686 7.88294 5.24108 7.87085 5.31348C7.85877 5.38588 7.83024 5.45452 7.78749 5.51408L7.24889 6.27445L7.20323 7.27337C7.19981 7.34631 7.17979 7.4175 7.14471 7.48147C7.10963 7.54545 7.06043 7.60051 7.00087 7.64243C6.94132 7.68435 6.87299 7.71202 6.80114 7.72332C6.72929 7.73462 6.65582 7.72924 6.58636 7.7076L5.6974 7.42712L4.73761 7.6899C4.66692 7.70998 4.59256 7.71336 4.52035 7.69978C4.44815 7.68621 4.38005 7.65604 4.3214 7.61164C4.26274 7.56725 4.21511 7.50982 4.18224 7.44386C4.14937 7.3779 4.13215 7.3052 4.13192 7.23144L4.12448 6.29681L3.58029 5.46189C3.5401 5.40089 3.51439 5.33144 3.50513 5.25888C3.49587 5.18633 3.50332 5.1126 3.52691 5.04338C3.55049 4.97416 3.58958 4.91129 3.64116 4.85962C3.69274 4.80795 3.75544 4.76884 3.82443 4.74532L4.71153 4.45179L5.33493 3.67185C5.37591 3.62075 5.42692 3.57866 5.48479 3.5482C5.54266 3.51775 5.60616 3.49957 5.67132 3.4948C5.6831 3.49405 5.69491 3.49375 5.70671 3.49387Z" fill="white"/>
<path d="M2.35156 9.46875V10.9932C2.35156 11.4024 2.50627 11.7783 2.76995 12.0751C2.90177 12.2235 3.06573 12.3559 3.2806 12.4273C3.49546 12.4987 3.76942 12.4876 3.99624 12.3742L5.69031 11.529L7.38437 12.3742C7.45099 12.4071 7.52438 12.424 7.59869 12.4236C8.38337 12.4236 9.02905 11.7779 9.02905 10.9932V9.47527C8.83732 9.56176 8.59634 9.67194 8.61718 9.65698C8.64776 9.6348 8.39375 9.89792 8.17922 10.1434C8.07199 10.2659 7.95583 10.393 7.83538 10.5068C7.71492 10.6206 7.60858 10.7332 7.36946 10.8106C7.13032 10.8879 6.97836 10.86 6.81409 10.8376C6.64979 10.816 6.4884 10.7792 6.32954 10.7426C6.01201 10.6695 5.64796 10.6055 5.68565 10.6056C5.72339 10.6056 5.35663 10.6721 5.03896 10.7444C4.88011 10.7807 4.71588 10.8135 4.55161 10.8348C4.38729 10.8559 4.23706 10.8849 3.9981 10.8069C3.75911 10.729 3.65153 10.6144 3.53126 10.5003C3.41102 10.3862 3.30087 10.2608 3.19394 10.1378C2.97993 9.89205 2.7255 9.62939 2.75598 9.65139C2.77645 9.6663 2.53858 9.55511 2.35156 9.46875Z" fill="white"/>
</svg>
