<svg width="12" height="11" viewBox="0 0 12 11" fill="none" xmlns="http://www.w3.org/2000/svg">
<path fill-rule="evenodd" clip-rule="evenodd" d="M9.64336 0.0554892L9.79301 0.0742044C10.1884 0.128882 10.7114 0.202133 11.008 0.498728C11.2506 0.741397 11.3438 1.13558 11.3996 1.48747L11.4325 1.71368C11.5063 2.24761 11.5256 2.94726 11.3997 3.7239C11.151 5.25692 10.3349 7.08598 8.2854 8.50213C8.27453 8.61258 8.27369 8.72376 8.2762 8.83515L8.28164 9.00232C8.29132 9.25858 8.30095 9.51448 8.2292 9.76364C8.11764 10.1511 7.72095 10.406 7.3498 10.5892L7.1678 10.6751L6.93315 10.7786C6.49419 10.9649 5.90159 11.1561 5.53006 10.7846C5.30754 10.5621 5.21556 10.2358 5.14101 9.9112L5.11364 9.78975C5.07815 9.63058 5.04342 9.475 4.99596 9.33567C4.9668 9.25013 4.93536 9.16295 4.90127 9.07483C4.86413 9.1203 4.82432 9.16436 4.78193 9.20672C4.57945 9.40923 4.27745 9.55056 4.02862 9.64941C3.75698 9.75724 3.44978 9.85123 3.16528 9.92843L3.01939 9.9671L2.73956 10.0367L2.4861 10.0951L2.18279 10.1597L1.99319 10.1969C1.82402 10.2284 1.61964 10.1873 1.46598 10.0337C1.31232 9.87997 1.27123 9.67564 1.30275 9.50644L1.35293 9.25363L1.44315 8.84418L1.51583 8.5455L1.57123 8.33434C1.6484 8.04987 1.74239 7.74269 1.85026 7.471C1.94906 7.2222 2.09043 6.92018 2.29291 6.71772L2.34006 6.67226L2.30221 6.65741C2.20721 6.62026 2.10448 6.58631 1.99781 6.55301L1.83532 6.50324C1.42833 6.37969 0.992986 6.24751 0.722122 5.97665C0.394331 5.64887 0.504649 5.14891 0.663062 4.73426L0.728067 4.57356L0.831631 4.33891L0.917506 4.15691C1.10067 3.78577 1.35565 3.38908 1.74307 3.2775C1.94848 3.21835 2.16211 3.21501 2.37673 3.22096L2.50556 3.22527C2.67333 3.23136 2.84082 3.23745 3.00456 3.22133C4.42076 1.17177 6.24978 0.355734 7.7828 0.107075C8.48883 -0.00744743 9.13124 -0.00193123 9.64336 0.0554892ZM3.88691 7.49095C3.69742 7.35005 3.44222 7.33818 3.24167 7.45538L3.17701 7.49923L3.12258 7.54739L3.04924 7.64046C2.8965 7.86079 2.80975 8.1659 2.74204 8.45106L2.67894 8.72568C2.6689 8.76905 2.65896 8.81089 2.64889 8.85073L2.76103 8.82368L3.00605 8.76757C3.34553 8.68843 3.72113 8.58523 3.95239 8.37693C4.16271 8.1666 4.17984 7.83645 4.00398 7.60643L3.956 7.55114L3.9422 7.53759L3.88691 7.49095ZM8.10066 3.39909C7.64241 2.94087 6.89952 2.94087 6.44127 3.39909C5.98308 3.8573 5.98308 4.60021 6.44127 5.05845C6.89952 5.51664 7.64241 5.51664 8.10066 5.05845C8.55884 4.60021 8.55884 3.8573 8.10066 3.39909Z" fill="white"/>
</svg>
