<svg width="43" height="43" viewBox="0 0 43 43" fill="none" xmlns="http://www.w3.org/2000/svg">
<path d="M35.5842 18.3371C35.2502 18.1461 34.7361 17.8329 33.9821 17.3279C33.9821 17.3279 29.2312 13.2685 21.9541 13.2685C13.9511 13.2685 9.67266 17.7696 9.67266 17.7696C8.98387 18.4873 8.38015 19.0648 8 19.3182C8.64718 16.2048 10.32 13.3984 12.7508 11.3481C15.1815 9.29775 18.2298 8.12202 21.4077 8.00898C24.5857 7.89595 27.7098 8.85215 30.2801 10.7246C32.8504 12.597 34.7183 15.2775 35.5851 18.3371H35.5842Z" fill="#302067" fill-opacity="0.8"/>
<path opacity="0.5" d="M8.01024 21.044C8.54607 20.1335 8.68908 15.7944 8.01024 15.4776C7.33141 15.1608 3.16246 15.4549 3.25569 16.609C3.34892 17.763 3.39417 20.1516 3.97978 20.4738C4.56539 20.796 7.64096 21.6731 8.01024 21.044Z" fill="#51385B"/>
<path d="M42.0668 29.9051C42.2478 29.4788 39.7579 24.85 38.7297 22.9692C38.773 22.2784 38.773 21.5855 38.7297 20.8947C39.7579 19.0139 42.0786 14.4358 42.0668 13.9588C42.0668 13.9145 42.103 13.1705 42.0668 13.0836C41.8912 12.6654 36.6216 11.1774 34.5236 10.6C33.9252 9.91287 33.2736 9.274 32.5749 8.68928C32.049 6.76772 30.4651 1.10806 30.0315 0.926133C29.5102 0.708001 22.7273 4.46421 22.3272 4.68597C22.0527 4.67269 21.7766 4.66605 21.499 4.66605C21.2215 4.66605 20.9451 4.67269 20.67 4.68597C20.2708 4.46421 13.487 0.708001 12.9666 0.926133C12.533 1.10716 10.9491 6.76772 10.4223 8.68928C9.72404 9.27425 9.07278 9.9131 8.47449 10.6C6.37554 11.1774 1.10597 12.6654 0.931288 13.0836C0.894178 13.1741 0.931288 13.9145 0.931288 13.9588C0.917711 14.5806 3.24023 19.0139 4.26753 20.8947C4.20344 21.5847 4.20344 22.2792 4.26753 22.9692C3.24023 24.8473 0.755696 29.4761 0.931288 29.9051C0.94758 29.9458 0.894178 30.6934 0.931288 30.7803C1.10597 31.1985 6.37554 32.6865 8.47449 33.264C9.07278 33.9508 9.72404 34.5897 10.4223 35.1746C10.9491 37.0962 12.533 42.7559 12.9666 42.9378C13.487 43.1559 20.2708 39.3997 20.67 39.178C20.9451 39.1918 21.2215 39.1985 21.499 39.1979C21.7766 39.1973 22.0527 39.1906 22.3272 39.178C22.7273 39.3997 29.5102 43.1604 30.0315 42.9378C30.4651 42.7568 32.049 37.0962 32.5749 35.1746C33.2736 34.5899 33.9252 33.951 34.5236 33.264C36.6216 32.6865 41.8912 31.1985 42.0668 30.7803C42.103 30.6907 42.0496 29.9431 42.0668 29.9051ZM34.5164 21.9292C34.5171 24.5031 33.7545 27.0194 32.3252 29.1599C30.8958 31.3004 28.8638 32.9689 26.4861 33.9546C24.1085 34.9402 21.4919 35.1986 18.9674 34.6972C16.4428 34.1958 14.1237 32.957 12.3032 31.1375C10.4826 29.318 9.24257 26.9995 8.73973 24.4753C8.23689 21.951 8.49388 19.3343 9.47819 16.9561C10.4625 14.5779 12.1299 12.5449 14.2696 11.1144C16.4093 9.68383 18.9252 8.91989 21.499 8.91918C23.208 8.9187 24.9004 9.25484 26.4794 9.9084C28.0585 10.562 29.4934 11.5201 30.7022 12.7282C31.9109 13.9363 32.8699 15.3707 33.5244 16.9494C34.1788 18.5281 34.5159 20.2203 34.5164 21.9292Z" fill="#71647E"/>
<mask id="mask0_759_29504" style="mask-type:luminance" maskUnits="userSpaceOnUse" x="0" y="0" width="43" height="43">
<path d="M42.0668 29.9051C42.2478 29.4788 39.7579 24.85 38.7297 22.9692C38.773 22.2784 38.773 21.5855 38.7297 20.8947C39.7579 19.0139 42.0786 14.4358 42.0668 13.9588C42.0668 13.9145 42.103 13.1705 42.0668 13.0836C41.8912 12.6654 36.6216 11.1774 34.5236 10.6C33.9252 9.91287 33.2736 9.274 32.5749 8.68928C32.049 6.76772 30.4651 1.10806 30.0315 0.926133C29.5102 0.708001 22.7273 4.46421 22.3272 4.68597C22.0527 4.67269 21.7766 4.66605 21.499 4.66605C21.2215 4.66605 20.9451 4.67269 20.67 4.68597C20.2708 4.46421 13.487 0.708001 12.9666 0.926133C12.533 1.10716 10.9491 6.76772 10.4223 8.68928C9.72404 9.27425 9.07278 9.9131 8.47449 10.6C6.37554 11.1774 1.10597 12.6654 0.931288 13.0836C0.894178 13.1741 0.931288 13.9145 0.931288 13.9588C0.917711 14.5806 3.24023 19.0139 4.26753 20.8947C4.20344 21.5847 4.20344 22.2792 4.26753 22.9692C3.24023 24.8473 0.755696 29.4761 0.931288 29.9051C0.94758 29.9458 0.894178 30.6934 0.931288 30.7803C1.10597 31.1985 6.37554 32.6865 8.47449 33.264C9.07278 33.9508 9.72404 34.5897 10.4223 35.1746C10.9491 37.0962 12.533 42.7559 12.9666 42.9378C13.487 43.1559 20.2708 39.3997 20.67 39.178C20.9451 39.1918 21.2215 39.1985 21.499 39.1979C21.7766 39.1973 22.0527 39.1906 22.3272 39.178C22.7273 39.3997 29.5102 43.1604 30.0315 42.9378C30.4651 42.7568 32.049 37.0962 32.5749 35.1746C33.2736 34.5899 33.9252 33.951 34.5236 33.264C36.6216 32.6865 41.8912 31.1985 42.0668 30.7803C42.103 30.6907 42.0496 29.9431 42.0668 29.9051ZM34.5164 21.9292C34.5171 24.5031 33.7545 27.0194 32.3252 29.1599C30.8958 31.3004 28.8638 32.9689 26.4861 33.9546C24.1085 34.9402 21.4919 35.1986 18.9674 34.6972C16.4428 34.1958 14.1237 32.957 12.3032 31.1375C10.4826 29.318 9.24257 26.9995 8.73973 24.4753C8.23689 21.951 8.49388 19.3343 9.47819 16.9561C10.4625 14.5779 12.1299 12.5449 14.2696 11.1144C16.4093 9.68383 18.9252 8.91989 21.499 8.91918C23.208 8.9187 24.9004 9.25484 26.4794 9.9084C28.0585 10.562 29.4934 11.5201 30.7022 12.7282C31.9109 13.9363 32.8699 15.3707 33.5244 16.9494C34.1788 18.5281 34.5159 20.2203 34.5164 21.9292Z" fill="white"/>
</mask>
<g mask="url(#mask0_759_29504)">
<path d="M37.3964 20.3671C37.6435 21.2261 44.9884 21.1301 44.9884 21.1301L44.9278 21.7357C44.9278 21.7357 38.592 20.654 37.5557 20.9944C36.5193 21.3347 38.2282 29.7866 38.2282 29.7866L37.4914 29.3793C37.4914 29.3793 37.1294 23.0082 36.8415 19.8114C36.8415 19.8114 36.6958 17.7061 36.5075 17.7215C36.1645 17.7495 28.9797 17.2988 28.9797 17.2988L29.0241 16.858C29.0241 16.858 34.4421 17.8247 36.4351 17.2146C37.0687 17.02 36.7583 9.02246 36.7583 9.02246L37.1656 9.39627C37.1656 9.39627 36.8623 18.5116 37.3964 20.3671Z" fill="#542C4A"/>
<path d="M25.4789 5.53765C26.3261 5.36477 26.7949 -1.72949 26.7949 -1.72949L27.3751 -1.6254C27.3751 -1.6254 25.8473 4.40807 26.0962 5.43447C26.3451 6.46086 34.6323 5.45709 34.6323 5.45709L34.1797 6.13683C34.1797 6.13683 28.0042 5.99744 24.8978 6.03365C24.8978 6.03365 22.855 6.01283 22.8559 6.19566C22.8559 6.52874 21.872 13.4275 21.872 13.4275L21.4512 13.3506C21.4512 13.3506 22.7971 8.19687 22.3608 6.22644C22.2214 5.60101 14.48 5.28874 14.48 5.28874L14.8719 4.9267C14.8719 4.9267 23.647 5.91236 25.4789 5.53765Z" fill="#542C4A"/>
<path d="M5.33918 17.6226C5.1844 16.8651 -1.15771 16.446 -1.15771 16.446L-1.0672 15.9283C-1.0672 15.9283 4.32636 17.2932 5.24142 17.0705C6.15649 16.8479 5.26224 9.44043 5.26224 9.44043L5.86957 9.8423C5.86957 9.8423 5.74557 15.3635 5.77906 18.1404C5.77906 18.1404 5.76096 19.9651 5.92388 19.9651C6.22166 19.9651 12.3882 20.8439 12.3882 20.8439L12.3203 21.2205C12.3203 21.2205 7.71238 20.0176 5.95193 20.4059C5.39258 20.5299 5.11381 27.4503 5.11381 27.4503L4.78796 27.1001C4.78796 27.1001 5.67316 19.26 5.33918 17.6226Z" fill="#542C4A"/>
<path d="M33.1586 30.2203C33.0427 29.6509 28.271 29.3351 28.271 29.3351L28.3416 28.9459C28.3416 28.9459 32.3983 29.9732 33.0871 29.8057C33.7759 29.6383 33.1025 24.0664 33.1025 24.0664L33.5596 24.3687C33.5596 24.3687 33.469 28.5205 33.4899 30.6095C33.4899 30.6095 33.4763 31.9825 33.5985 31.9825C33.822 31.9825 38.4607 32.6441 38.4607 32.6441L38.4101 32.9275C38.4101 32.9275 34.9444 32.0223 33.6193 32.3156C33.1993 32.4061 32.9857 37.6141 32.9857 37.6141L32.7404 37.3507C32.7404 37.3507 33.4111 31.4521 33.1586 30.2203Z" fill="#542C4A"/>
<path d="M22.3696 37.1678C23.2575 36.9289 23.2928 29.3604 23.2928 29.3604L23.9146 29.4346C23.9146 29.4346 22.6864 35.9432 23.0213 37.0149C23.3562 38.0865 32.0905 36.4827 32.0905 36.4827L31.6551 37.2348C31.6551 37.2348 25.0849 37.4892 21.7894 37.7299C21.7894 37.7299 19.6172 37.8412 19.6298 38.0358C19.6525 38.3888 19.0569 45.7818 19.0569 45.7818L18.6043 45.7284C18.6043 45.7284 19.6986 40.1647 19.1067 38.101C18.9184 37.4457 10.6729 37.6186 10.6729 37.6186L11.0657 37.2059C11.0657 37.2059 20.4471 37.6874 22.3696 37.1678Z" fill="#542C4A"/>
<path d="M9.04469 32.6911C9.16145 33.2614 15.4529 33.2342 15.4529 33.2342L15.7244 33.4858C15.7244 33.4858 9.76607 33.0668 9.07728 33.2342C8.38849 33.4016 9.09086 38.6567 9.09086 38.6567L8.63377 38.3544C8.63377 38.3544 8.72428 34.2018 8.70347 32.1091C8.70347 32.1091 8.71704 30.7361 8.59395 30.7361C8.37038 30.7361 3.73169 30.0754 3.73169 30.0754L3.78328 29.7921C3.78328 29.7921 7.24895 30.6972 8.57313 30.403C8.99401 30.3125 9.20671 25.1045 9.20671 25.1045L9.45109 25.3679C9.45109 25.3679 8.79398 31.4593 9.04469 32.6911Z" fill="#542C4A"/>
<path d="M12.0054 8.7527C11.7864 8.21416 7.03906 8.78076 7.03906 8.78076V8.38523C7.03906 8.38523 11.2152 8.64861 11.8615 8.35717C12.5077 8.06572 10.8215 2.71289 10.8215 2.71289L11.3266 2.9265C11.3266 2.9265 11.9973 7.02484 12.4055 9.07401C12.4055 9.07401 12.6444 10.4263 12.7675 10.4036C12.9875 10.362 17.6687 10.1592 17.6687 10.1592V10.4444C17.6687 10.4444 14.0962 10.1918 12.8481 10.724C12.448 10.8969 13.1993 16.056 13.1993 16.056L12.9096 15.8415C12.9096 15.8415 12.4788 9.91667 12.0054 8.7527Z" fill="#542C4A"/>
<path opacity="0.8" d="M21.4991 6.26562C18.6797 5.90358 13.049 5.26547 12.6869 6.44212C12.3249 7.61876 12.076 9.70052 12.9585 9.94943C13.8409 10.1983 21.4339 10.3794 21.7109 9.83629C21.9879 9.29322 22.7581 6.42854 21.4991 6.26562Z" fill="url(#paint0_linear_759_29504)"/>
<path opacity="0.5" d="M25.4651 5.12941C25.3592 5.62088 17.8196 5.21992 15.5578 4.66328C14.9695 4.51936 15.1505 0.242713 15.8972 -0.0514487C16.6439 -0.34561 26.2879 -0.458749 26.2969 0.106946C26.306 0.672641 25.6 4.51755 25.4651 5.12941Z" fill="#51385B"/>
<path opacity="0.8" d="M27.3949 0.0848605C26.4898 2.17748 26.0581 5.37705 26.4446 5.44312C26.8311 5.50919 32.373 5.86128 33.5044 5.17159C34.6358 4.48189 33.7533 0.541037 32.8709 0.337387C31.9884 0.133737 27.6248 -0.447345 27.3949 0.0848605Z" fill="url(#paint1_linear_759_29504)"/>
<path opacity="0.5" d="M11.4425 8.91854C9.86035 8.26777 6.50963 8.95384 6.30598 9.61005C6.10232 10.2663 5.87605 19.3853 6.12495 19.6115C6.37386 19.8378 11.9783 20.8787 12.3892 20.2677C12.8002 19.6568 12.7323 9.44894 11.4425 8.91854Z" fill="#51385B"/>
<path opacity="0.8" d="M6.1475 20.7886C5.72029 22.0748 4.97086 28.8215 5.084 29.2514C5.19714 29.6814 8.33335 30.7675 8.48541 30.0434C8.63747 29.3193 9.38328 21.4901 9.06649 20.9923C8.7497 20.4945 6.37469 20.1044 6.1475 20.7886Z" fill="url(#paint2_linear_759_29504)"/>
<path opacity="0.5" d="M4.90385 17.8465C4.48388 17.2754 1.07885 16.6156 0.581039 17.1224C0.0832272 17.6293 0.0379716 26.7664 0.807316 27.1511C1.57666 27.5357 4.6993 27.3366 4.75632 26.3048C4.81334 25.2729 5.49127 18.6466 4.90385 17.8465Z" fill="#51385B"/>
<path opacity="0.5" d="M9.14413 32.2158C9.57134 32.9743 13.5086 33.3065 13.6371 32.8494C13.7656 32.3923 14.3892 26.5815 13.9222 26.1742C13.4552 25.7669 9.87817 24.6826 9.58673 25.7669C9.29528 26.8512 8.9269 31.8312 9.14413 32.2158Z" fill="#51385B"/>
<path opacity="0.8" d="M9.47384 33.3435C8.79229 33.263 8.9525 36.0091 9.13352 36.5829C9.26928 37.0129 21.5625 37.1034 21.9789 36.5829C22.3952 36.0625 22.9166 33.7309 21.9644 33.7309C19.4753 33.7336 11.1908 33.5472 9.47384 33.3435Z" fill="url(#paint3_linear_759_29504)"/>
<path opacity="0.5" d="M9.14436 37.6166C8.87282 38.2393 9.36068 45.5255 10.4016 45.7825C11.4424 46.0396 18.4236 45.8595 18.4399 45.4069C18.4561 44.9544 19.1766 38.4249 18.7032 38.1823C18.2299 37.9397 9.28284 37.2944 9.14436 37.6166Z" fill="#51385B"/>
<path opacity="0.8" d="M19.9874 38.3781C19.8535 38.9212 18.7058 45.4308 19.6109 45.5891C20.516 45.7475 30.8488 46.1322 31.0108 43.9373C31.1728 41.7424 31.8182 37.702 30.6488 37.6178C29.4793 37.5337 20.125 37.8251 19.9874 38.3781Z" fill="url(#paint4_linear_759_29504)"/>
<path opacity="0.5" d="M23.3447 36.6242C23.6633 37.0622 32.6447 36.5834 32.69 36.13C32.7352 35.6765 33.2186 30.931 32.7805 30.5183C32.3424 30.1056 24.725 29.0746 24.2905 29.7833C23.8561 30.492 22.9148 36.0322 23.3447 36.6242Z" fill="#51385B"/>
<path opacity="0.8" d="M33.6474 31.6068C33.6347 31.8566 37.2434 32.0068 37.4145 31.3416C37.5855 30.6763 36.7175 18.336 36.3102 17.9676C35.9029 17.5993 33.5487 17.6861 33.3677 18.2292C33.1867 18.7723 34.0176 24.5704 33.6474 31.6068Z" fill="url(#paint5_linear_759_29504)"/>
<path opacity="0.5" d="M33.708 32.6002C33.173 33.5117 33.0291 37.8499 33.708 38.1667C34.3868 38.4835 38.5566 38.1893 38.4625 37.0353C38.3684 35.8813 38.324 33.4927 37.7384 33.1714C37.1528 32.8501 34.0773 31.9712 33.708 32.6002Z" fill="#51385B"/>
<path opacity="0.5" d="M37.6126 21.3055C37.485 22.0722 38.0815 28.9338 38.3467 29.361C38.6119 29.7882 44.1847 30.7703 44.5467 28.7546C44.9087 26.7389 45.2934 22.3039 44.2978 22.0323C43.3022 21.7608 37.7022 20.7679 37.6126 21.3055Z" fill="#51385B"/>
<path opacity="0.5" d="M37.6126 19.8393C37.9421 20.3208 43.4153 20.8123 43.8452 20.3824C44.2751 19.9524 44.0715 11.5575 43.4153 11.2181C42.7591 10.8787 37.7611 10.3601 37.4416 10.924C37.1221 11.4878 37.2397 19.2962 37.6126 19.8393Z" fill="#51385B"/>
<path d="M35.7048 21.2158C35.7048 21.2158 35.0224 21.9499 35.5645 23.9312C35.5645 23.9312 37.5521 22.8323 35.7048 21.2158Z" fill="#542C4A"/>
<path d="M7.79744 25.6885C7.79744 25.6885 6.95931 27.5195 8.58579 27.8535C8.58579 27.8535 8.57946 26.284 7.79744 25.6885Z" fill="#542C4A"/>
<path d="M18.4397 5.33348C18.4397 5.33348 19.0977 7.11383 21.165 5.49911C21.165 5.49911 19.0389 5.08457 18.4397 5.33348Z" fill="#542C4A"/>
</g>
<path d="M18.5184 38.9506L18.6994 38.9823C18.1943 39.3417 17.661 39.6595 17.1046 39.9327L17.0965 39.9372C16.7932 40.0875 16.4946 40.2214 16.2076 40.3409L16.1814 40.3508C15.3584 40.6933 14.5055 40.9587 13.6335 41.1437C13.0125 39.9185 12.5316 38.6272 12.1998 37.2943C12.1998 37.2898 12.1998 37.2861 12.1998 37.2816C12.1998 37.2771 12.1935 37.2536 12.1898 37.24C12.1084 36.9141 12.0432 36.6182 11.9907 36.3584C12.036 36.3892 12.0812 36.419 12.1283 36.4489C12.2034 36.4978 12.2785 36.5458 12.3546 36.5928C12.417 36.6326 12.4804 36.6716 12.5428 36.7096C14.3217 37.7911 16.2824 38.5401 18.3292 38.9199L18.5184 38.9506Z" fill="#51385B"/>
<path d="M18.4397 38.9369C17.5201 39.5397 15.7524 40.5407 13.7784 40.8376C13.7784 40.8376 12.9538 39.5442 12.3501 36.5908C12.4126 36.6306 12.4759 36.6696 12.5384 36.7076C14.3172 37.7891 16.2779 38.5381 18.3247 38.9179L18.4397 38.9369Z" fill="url(#paint6_linear_759_29504)"/>
<path opacity="0.5" d="M18.5187 38.9499C18.0875 39.3299 17.6144 39.6594 17.1085 39.9319L17.1003 39.9365C16.8113 40.0865 16.5147 40.2212 16.2115 40.3402L16.1853 40.3501C15.3545 40.6705 14.5033 40.9354 13.6374 41.143C13.5867 41.0525 12.7667 39.5618 12.2037 37.2935C12.2037 37.289 12.2037 37.2854 12.2037 37.2809C12.2037 37.2763 12.1974 37.2528 12.1937 37.2392C12.1444 36.9783 12.1238 36.7127 12.1322 36.4473C12.2073 36.4961 12.2824 36.5441 12.3585 36.5912C12.4209 36.631 12.4843 36.6699 12.5467 36.7079C12.8744 37.5596 13.412 38.7535 14.0963 39.5509C14.0963 39.5509 16.0649 39.8858 18.3331 38.9173L18.5187 38.9499Z" fill="#542C4A"/>
<path d="M31.011 36.3525C30.9594 36.6123 30.8933 36.9083 30.8119 37.2341C30.8119 37.2477 30.8055 37.2622 30.8019 37.2758V37.2884C30.4698 38.6212 29.9888 39.9125 29.3682 41.1379C28.4955 40.9521 27.6417 40.6864 26.8176 40.3441L26.795 40.335C26.5045 40.2146 26.2021 40.0789 25.8953 39.9259C25.34 39.6523 24.8076 39.3345 24.3032 38.9755C24.3648 38.9665 24.4263 38.9556 24.4842 38.9448L24.677 38.9095C26.7242 38.5297 28.6852 37.7807 30.4643 36.6992C30.5268 36.6612 30.5901 36.6223 30.6526 36.5824C30.715 36.5426 30.8037 36.4874 30.8789 36.4385C30.9205 36.4132 30.9658 36.3833 31.011 36.3525Z" fill="#51385B"/>
<path d="M30.6479 36.5869C30.0442 39.5403 29.2196 40.8337 29.2196 40.8337C27.2456 40.5395 25.477 39.5385 24.5574 38.933L24.6723 38.9112C26.7195 38.5314 28.6805 37.7825 30.4596 36.701C30.5221 36.6657 30.5854 36.6267 30.6479 36.5869Z" fill="url(#paint7_linear_759_29504)"/>
<path opacity="0.5" d="M30.8118 37.2371C30.8118 37.2507 30.8055 37.2651 30.8019 37.2787V37.2914C30.2389 39.5596 29.4188 41.0503 29.3682 41.1408C28.5013 40.9329 27.6493 40.6677 26.8175 40.347L26.7949 40.338C26.4916 40.2189 26.1946 40.0841 25.9052 39.9343L25.8952 39.9289C25.3904 39.6562 24.9183 39.327 24.4878 38.9477L24.6806 38.9124C26.9497 39.88 28.9183 39.546 28.9183 39.546C29.6026 38.7486 30.1402 37.5548 30.4679 36.7031C30.5303 36.665 30.5937 36.6261 30.6561 36.5863C30.7186 36.5465 30.8073 36.4913 30.8824 36.4424C30.8885 36.7091 30.8648 36.9756 30.8118 37.2371Z" fill="#542C4A"/>
<path d="M18.5184 4.92941L18.6994 4.89864C18.1946 4.53869 17.6612 4.22054 17.1046 3.94737L17.0965 3.94284C16.7932 3.79259 16.4946 3.65864 16.2076 3.54007L16.1814 3.5292C15.3584 3.18673 14.5055 2.9213 13.6335 2.73633V2.74085C13.0126 3.96612 12.5317 5.2574 12.1998 6.59029C12.1998 6.59482 12.1998 6.59934 12.1998 6.60296C12.1998 6.60658 12.1935 6.63102 12.1898 6.6455C12.1084 6.97044 12.0432 7.26641 11.9907 7.52618C12.036 7.49631 12.0812 7.46553 12.1283 7.43566C12.2034 7.38679 12.2785 7.33882 12.3546 7.29175L12.5428 7.17499C14.3217 6.09346 16.2824 5.34451 18.3292 4.96471L18.5184 4.92941Z" fill="#51385B"/>
<path d="M18.4397 4.94175C17.5201 4.33895 15.7524 3.33789 13.7784 3.04102C13.7784 3.04102 12.9538 4.33351 12.3501 7.28689L12.5384 7.17013C14.3172 6.0886 16.2779 5.33965 18.3247 4.95985L18.4397 4.94175Z" fill="url(#paint8_linear_759_29504)"/>
<path opacity="0.5" d="M18.5186 4.92941C18.0875 4.54942 17.6144 4.21994 17.1085 3.94737L17.1003 3.94284C16.8115 3.79277 16.5148 3.65832 16.2115 3.54007L16.1853 3.5292C15.3544 3.20883 14.5033 2.94395 13.6374 2.73633V2.74085C13.5867 2.83136 12.7667 4.32208 12.2037 6.59029C12.2037 6.59482 12.2037 6.59934 12.2037 6.60296C12.2037 6.60659 12.1973 6.63102 12.1937 6.6455C12.1445 6.90617 12.1238 7.17143 12.1322 7.43657C12.2073 7.3877 12.2824 7.33973 12.3585 7.29266L12.5467 7.1759C12.8744 6.32419 13.412 5.13125 14.0963 4.33294C14.0963 4.33294 16.0649 3.99805 18.3331 4.96652L18.5186 4.92941Z" fill="#542C4A"/>
<path style="mix-blend-mode:color-dodge" opacity="0.5" d="M16.7028 2.5561C14.9831 1.92253 13.1584 1.3514 13.1584 1.3514C12.5999 2.21307 11.3979 5.2995 11.3418 5.44341C11.9754 3.29739 12.6949 1.03823 12.9665 0.924188C13.219 0.81829 14.945 1.64828 16.701 2.55339L16.7028 2.5561Z" fill="url(#paint9_linear_759_29504)"/>
<path d="M24.4842 4.92941L24.3032 4.89864C24.8082 4.53888 25.3415 4.22074 25.898 3.94737L25.9062 3.94284C26.2094 3.79259 26.5081 3.65864 26.795 3.54007L26.8212 3.5292C27.6442 3.18673 28.4972 2.9213 29.3691 2.73633V2.74085C29.9909 3.96572 30.4727 5.2567 30.8055 6.58939C30.8058 6.59361 30.8058 6.59784 30.8055 6.60206C30.8055 6.61654 30.8119 6.63012 30.8155 6.6446C30.897 6.96953 30.963 7.26551 31.0146 7.52527C30.9694 7.4954 30.9241 7.46463 30.877 7.43476C30.8028 7.38589 30.7268 7.33791 30.6517 7.29085C30.5766 7.24378 30.5259 7.2121 30.4625 7.17409C28.6837 6.09256 26.723 5.34361 24.6761 4.96381L24.4842 4.92941Z" fill="#51385B"/>
<path d="M24.5601 4.94175C25.4797 4.33895 27.2482 3.33789 29.2214 3.04102C29.2214 3.04102 30.0459 4.33351 30.6506 7.28689C30.5872 7.24797 30.5247 7.20815 30.4614 7.17013C28.6826 6.0886 26.7219 5.33965 24.675 4.95985L24.5601 4.94175Z" fill="url(#paint10_linear_759_29504)"/>
<path opacity="0.5" d="M24.4841 4.92941C24.9156 4.54982 25.3886 4.22037 25.8943 3.94737L25.9024 3.94284C26.1913 3.79277 26.488 3.65832 26.7913 3.54007L26.8175 3.5292C27.6483 3.20883 28.4995 2.94395 29.3654 2.73633V2.74085C29.4161 2.83136 30.2361 4.32208 30.7991 6.59029C30.7994 6.59451 30.7994 6.59875 30.7991 6.60296C30.7991 6.61745 30.8054 6.63102 30.8091 6.6455C30.8588 6.90611 30.8794 7.17142 30.8706 7.43657C30.7964 7.3877 30.7203 7.33973 30.6452 7.29266C30.5701 7.24559 30.5194 7.21391 30.4561 7.1759C30.1284 6.32419 29.5908 5.13125 28.9065 4.33294C28.9065 4.33294 26.9379 3.99805 24.6697 4.96652L24.4841 4.92941Z" fill="#542C4A"/>
<path style="mix-blend-mode:color-dodge" opacity="0.5" d="M26.2998 2.5561C28.0195 1.92253 29.8443 1.3514 29.8443 1.3514C30.4027 2.21307 31.6047 5.2995 31.6608 5.44341C31.0272 3.29739 30.3031 1.03823 30.0316 0.924188C29.7791 0.81829 28.053 1.64828 26.2971 2.55339L26.2998 2.5561Z" fill="url(#paint11_linear_759_29504)"/>
<path d="M35.5644 11.9391C35.5291 11.8884 35.4929 11.8377 35.4558 11.7861C36.0674 11.8884 36.6697 12.0397 37.257 12.2387H37.2651C37.5855 12.3464 37.8924 12.4623 38.1802 12.5808L38.2055 12.5917C39.0298 12.9308 39.8212 13.345 40.5697 13.829C40.5699 13.8305 40.5699 13.832 40.5697 13.8335C40.1441 15.1396 39.5727 16.3935 38.8663 17.5716L38.859 17.5834L38.8373 17.6196C38.6653 17.9074 38.5024 18.1626 38.3558 18.3844C38.3449 18.331 38.3341 18.2767 38.3223 18.2242C38.3033 18.1337 38.2843 18.0495 38.2635 17.9626C38.2472 17.8902 38.23 17.8178 38.2128 17.7463C37.7173 15.7245 36.8586 13.8096 35.6785 12.0948L35.5644 11.9391Z" fill="#51385B"/>
<path d="M35.6106 12.0049C36.6877 12.2275 38.6463 12.767 40.2511 13.9527C40.2511 13.9527 39.9226 15.4506 38.2644 17.9687C38.2481 17.8963 38.2309 17.8238 38.2137 17.7523C37.7182 15.7306 36.8595 13.8156 35.6794 12.1008L35.6106 12.0049Z" fill="url(#paint12_linear_759_29504)"/>
<path opacity="0.5" d="M35.5645 11.9404C36.1382 11.9761 36.706 12.077 37.257 12.2409H37.2652C37.5761 12.3385 37.8815 12.4527 38.1802 12.5831L38.2056 12.5939C39.0201 12.9537 39.8099 13.367 40.5697 13.8312C40.5699 13.8327 40.5699 13.8342 40.5697 13.8357C40.5408 13.9362 40.0692 15.5699 38.8663 17.5738L38.8591 17.5856L38.8373 17.6218C38.688 17.8414 38.5154 18.0441 38.3223 18.2264C38.3033 18.1359 38.2843 18.0517 38.2635 17.9649C38.2472 17.8924 38.23 17.82 38.2128 17.7485C38.5812 16.914 39.0437 15.6894 39.1225 14.6422C39.1225 14.6422 37.9648 13.013 35.6758 12.097L35.5645 11.9404Z" fill="#542C4A"/>
<path style="mix-blend-mode:color-dodge" opacity="0.5" d="M38.4626 11.7314C40.0113 12.4311 41.5898 13.2339 41.5898 13.2339C41.4015 14.1662 40.1941 16.9883 40.1416 17.1205C41.1164 15.2903 42.1039 13.3272 41.998 13.0755C41.8994 12.8411 40.2195 12.2709 38.4681 11.7314H38.4626Z" fill="url(#paint13_linear_759_29504)"/>
<path d="M35.5644 31.9062C35.5291 31.9578 35.4929 32.0084 35.4558 32.0591C36.0673 31.9565 36.6696 31.8051 37.257 31.6066H37.2651C37.5855 31.4989 37.8924 31.3821 38.1802 31.2635L38.2055 31.2527C39.0298 30.9136 39.8212 30.4994 40.5697 30.0154C40.5699 30.0136 40.5699 30.0118 40.5697 30.01C40.1441 28.7039 39.5727 27.4499 38.8663 26.2718L38.859 26.261L38.8373 26.2239C38.6653 25.936 38.5024 25.6808 38.3558 25.46C38.3449 25.5125 38.3341 25.5668 38.3223 25.6202C38.3033 25.7107 38.2843 25.7949 38.2635 25.8817C38.2472 25.9532 38.23 26.0257 38.2128 26.0972C37.7173 28.1189 36.8586 30.0339 35.6785 31.7487L35.5644 31.9062Z" fill="#51385B"/>
<path d="M35.6106 31.8408C36.6877 31.6181 38.6463 31.0787 40.2511 29.893C40.2511 29.893 39.9226 28.395 38.2644 25.8779C38.2481 25.9494 38.2309 26.0218 38.2137 26.0933C37.7182 28.1151 36.8595 30.0301 35.6794 31.7449L35.6106 31.8408Z" fill="url(#paint14_linear_759_29504)"/>
<path opacity="0.5" d="M35.5645 31.9051C36.1381 31.8694 36.7059 31.7689 37.257 31.6055H37.2652C37.5761 31.5076 37.8815 31.3931 38.1802 31.2625L38.2056 31.2516C39.0201 30.8919 39.8099 30.4786 40.5697 30.0144C40.5699 30.0126 40.5699 30.0107 40.5697 30.0089C40.5408 29.9085 40.0692 28.2747 38.8663 26.2708L38.8591 26.26L38.8373 26.2228C38.6882 26.0034 38.5155 25.801 38.3223 25.6191C38.3033 25.7097 38.2843 25.7938 38.2635 25.8807C38.2472 25.9522 38.23 26.0246 38.2128 26.0961C38.5812 26.9306 39.0437 28.1553 39.1225 29.2034C39.1225 29.2034 37.9648 30.8326 35.6758 31.7476L35.5645 31.9051Z" fill="#542C4A"/>
<path style="mix-blend-mode:color-dodge" opacity="0.5" d="M38.4626 32.1136C40.0113 31.414 41.5898 30.6121 41.5898 30.6121C41.4015 29.6789 40.1941 26.8568 40.1416 26.7246C41.1164 28.5547 42.1039 30.5179 41.998 30.7696C41.8994 31.004 40.2195 31.5751 38.4681 32.1136H38.4626Z" fill="url(#paint15_linear_759_29504)"/>
<path d="M7.35308 11.9391C7.38838 11.8884 7.42458 11.8377 7.46169 11.7861C6.8501 11.8883 6.24775 12.0396 5.66052 12.2387H5.65147C5.33106 12.3464 5.02513 12.4623 4.7373 12.5808L4.71106 12.5917C3.88699 12.9307 3.0959 13.3449 2.34781 13.829C2.3476 13.8305 2.3476 13.832 2.34781 13.8335C2.77302 15.1397 3.34445 16.3937 4.05123 17.5716L4.05757 17.5834L4.08019 17.6196C4.25216 17.9074 4.41508 18.1626 4.56081 18.3844C4.57167 18.331 4.58344 18.2767 4.5952 18.2242C4.6133 18.1337 4.63322 18.0495 4.65313 17.9626L4.70472 17.7463C5.19979 15.7244 6.05854 13.8093 7.23903 12.0948L7.35308 11.9391Z" fill="#51385B"/>
<path d="M7.30604 12.0049C6.22986 12.2275 4.27029 12.767 2.66553 13.9527C2.66553 13.9527 2.99499 15.4506 4.65225 17.9687L4.70384 17.7523C5.1989 15.7304 6.05765 13.8154 7.23815 12.1008L7.30604 12.0049Z" fill="url(#paint16_linear_759_29504)"/>
<path opacity="0.5" d="M7.35308 11.9404C6.77933 11.9761 6.2115 12.077 5.66052 12.2409H5.65147C5.3409 12.3387 5.03575 12.4529 4.73731 12.5831L4.71106 12.5939C3.89693 12.9539 3.10747 13.3672 2.34781 13.8312C2.3476 13.8327 2.3476 13.8342 2.34781 13.8357C2.37587 13.9362 2.84743 15.5699 4.05123 17.5738L4.05757 17.5856L4.08019 17.6218C4.22923 17.8416 4.40193 18.0443 4.5952 18.2264C4.6133 18.1359 4.63322 18.0517 4.65313 17.9649L4.70472 17.7485C4.33544 16.914 3.87293 15.6894 3.79961 14.6422C3.79961 14.6422 4.95634 13.013 7.24537 12.097L7.35308 11.9404Z" fill="#542C4A"/>
<path style="mix-blend-mode:color-dodge" opacity="0.5" d="M4.45395 11.7314C2.90621 12.4311 1.32679 13.2339 1.32679 13.2339C1.51596 14.1662 2.72247 16.9883 2.77949 17.1205C1.80469 15.2903 0.817208 13.3272 0.923106 13.0755C1.02086 12.8411 2.70165 12.2709 4.45304 11.7314H4.45395Z" fill="url(#paint17_linear_759_29504)"/>
<path d="M7.35307 31.9062C7.38837 31.9578 7.42457 32.0084 7.46168 32.0591C6.85018 31.9566 6.24786 31.8052 5.66051 31.6066C5.65751 31.6061 5.65445 31.6061 5.65146 31.6066C5.33105 31.4989 5.02512 31.3821 4.73729 31.2635L4.71105 31.2527C3.88698 30.9137 3.09589 30.4995 2.3478 30.0154C2.34761 30.0136 2.34761 30.0118 2.3478 30.01C2.77301 28.7037 3.34444 27.4498 4.05122 26.2718L4.05755 26.261L4.08018 26.2239C4.25215 25.936 4.41507 25.6808 4.5608 25.46C4.57166 25.5125 4.58342 25.5668 4.59519 25.6202C4.61329 25.7107 4.63321 25.7949 4.65312 25.8817L4.70471 26.0972C5.19977 28.1191 6.05852 30.0341 7.23902 31.7487L7.35307 31.9062Z" fill="#51385B"/>
<path d="M7.30604 31.8408C6.22986 31.6181 4.27029 31.0787 2.66553 29.893C2.66553 29.893 2.99499 28.395 4.65225 25.8779L4.70384 26.0933C5.1989 28.1153 6.05765 30.0303 7.23815 31.7449L7.30604 31.8408Z" fill="url(#paint18_linear_759_29504)"/>
<path opacity="0.5" d="M7.35314 31.9062C6.77947 31.8704 6.21168 31.7699 5.66058 31.6066C5.65759 31.6061 5.65453 31.6061 5.65153 31.6066C5.34129 31.5088 5.03644 31.3946 4.73827 31.2645L4.71203 31.2536C3.8979 30.8936 3.10843 30.4803 2.34878 30.0163C2.34858 30.0145 2.34858 30.0127 2.34878 30.0109C2.37684 29.9104 2.8484 28.2767 4.0522 26.2728L4.05854 26.2619L4.08116 26.2248C4.22999 26.0051 4.40271 25.8027 4.59617 25.6211C4.61427 25.7116 4.63419 25.7958 4.6541 25.8827L4.70569 26.0981C4.33641 26.9326 3.87389 28.1572 3.80058 29.2053C3.80058 29.2053 4.95731 30.8345 7.24634 31.7496L7.35314 31.9062Z" fill="#542C4A"/>
<path style="mix-blend-mode:color-dodge" opacity="0.5" d="M4.45395 32.1136C2.90621 31.414 1.32679 30.6121 1.32679 30.6121C1.51596 29.6789 2.72247 26.8568 2.77949 26.7246C1.80469 28.5547 0.817208 30.5179 0.923106 30.7696C1.02086 31.004 2.70165 31.5751 4.45304 32.1136H4.45395Z" fill="url(#paint19_linear_759_29504)"/>
<path style="mix-blend-mode:multiply" opacity="0.5" d="M37.5521 28.2832C36.3122 31.4119 34.185 34.1101 31.4322 36.0461C28.6793 37.982 25.4207 39.0714 22.057 39.1801C18.6933 39.2889 15.3712 38.4123 12.499 36.6582C9.6268 34.9041 7.3298 32.349 5.89038 29.3069C12.2506 35.1702 25.1937 40.6461 37.5521 28.2832Z" fill="url(#paint20_linear_759_29504)"/>
<path opacity="0.7" d="M36.5294 32.6995C35.7501 32.9231 35.0405 33.1204 34.5237 33.2625C33.9253 33.9496 33.2737 34.5885 32.575 35.1732C32.4247 35.7235 32.1876 36.5788 31.9152 37.5265C29.8958 38.9683 27.5453 40.1142 25.2173 40.7423C23.7574 39.9694 22.4929 39.2697 22.3264 39.1774C22.0518 39.1913 21.7758 39.1979 21.4982 39.1973C21.2207 39.1967 20.9443 39.1904 20.6691 39.1783C20.5008 39.2688 19.201 39.9929 17.714 40.7767C15.3376 40.167 13.0996 39.109 11.1202 37.6595C10.8324 36.6639 10.5771 35.7498 10.4215 35.1741C9.72301 34.5894 9.07173 33.9505 8.47367 33.2634C8.04103 33.1448 7.47805 32.9874 6.84447 32.8109C6.28544 31.7235 5.95988 30.5313 5.88867 29.3108C10.4722 36.8902 25.8518 45.9151 37.5504 28.2871C37.7748 29.7317 37.3712 31.2423 36.5294 32.6995Z" fill="#451F47"/>
<path style="mix-blend-mode:color-dodge" opacity="0.5" d="M21.4989 4.66406C17.7847 4.66442 14.1696 5.86217 11.19 8.07958C8.21031 10.297 6.02491 13.4159 4.95801 16.9736C7.78286 10.7283 14.1974 7.72063 21.4989 7.72063C29.4639 7.72063 36.0884 11.5502 38.4625 18.7168C36.96 10.7174 29.9355 4.66406 21.4989 4.66406Z" fill="url(#paint21_linear_759_29504)"/>
<path opacity="0.7" d="M21.4991 7.72168C18.6898 7.72257 15.9439 8.55637 13.6085 10.1177C11.2731 11.6789 9.45297 13.8976 8.37834 16.4932C7.3037 19.0888 7.02276 21.9447 7.57104 24.6999C8.11931 27.4551 9.47218 29.9859 11.4586 31.9724C13.445 33.9588 15.9759 35.3117 18.7311 35.8599C21.4863 36.4082 24.3422 36.1273 26.9378 35.0526C29.5334 33.978 31.752 32.1579 33.3133 29.8225C34.8746 27.4871 35.7084 24.7412 35.7093 21.9319C35.7093 18.1631 34.2122 14.5487 31.5472 11.8838C28.8823 9.21883 25.2678 7.72168 21.4991 7.72168ZM21.4991 34.9411C18.9251 34.9406 16.4091 34.1768 14.2692 32.7464C12.1293 31.3159 10.4616 29.2831 9.47698 26.9049C8.49238 24.5267 8.23509 21.9099 8.73764 19.3855C9.24019 16.861 10.48 14.5423 12.3003 12.7225C14.1207 10.9027 16.4397 9.66351 18.9643 9.16166C21.4889 8.65981 24.1056 8.91784 26.4835 9.9031C28.8614 10.8884 30.8938 12.5566 32.3236 14.6969C33.7535 16.8372 34.5165 19.3534 34.5164 21.9274C34.5164 23.6367 34.1796 25.3292 33.5254 26.9084C32.8712 28.4875 31.9123 29.9223 30.7035 31.1308C29.4946 32.3392 28.0596 33.2977 26.4803 33.9515C24.901 34.6053 23.2083 34.9416 21.4991 34.9411Z" fill="#51385B"/>
<path opacity="0.8" d="M10.0649 30.3574C10.0649 30.3574 13.8718 34.94 21.4992 34.94C29.1266 34.94 32.9326 30.3574 32.9326 30.3574C32.9326 30.3574 29.2216 36.3375 21.4992 36.3375C13.7768 36.3375 10.0649 30.3574 10.0649 30.3574Z" fill="url(#paint22_linear_759_29504)"/>
<path d="M10.0649 30.3574C10.0649 30.3574 13.8718 36.1311 21.4992 36.1311C29.1266 36.1311 32.9326 30.3574 32.9326 30.3574C32.9326 30.3574 29.2216 36.3375 21.4992 36.3375C13.7768 36.3375 10.0649 30.3574 10.0649 30.3574Z" fill="url(#paint23_linear_759_29504)"/>
<path d="M20.4935 36.3032C20.1658 35.6949 23.7166 35.0822 24.2153 35.5275C24.714 35.9728 23.8252 36.1493 23.8252 36.1493L20.4935 36.3032Z" fill="white"/>
<path d="M26.4655 7.97488C26.365 7.29061 29.9112 7.92781 30.2289 8.51795C30.5466 9.10808 29.6487 8.9705 29.6487 8.9705L26.4655 7.97488Z" fill="white"/>
<path style="mix-blend-mode:color-dodge" opacity="0.8" d="M18.3847 38.3917C18.6666 37.3241 17.5822 36.1119 15.9626 35.6843C14.343 35.2567 12.8016 35.7756 12.5197 36.8432C12.2378 37.9109 13.3222 39.123 14.9418 39.5506C16.5614 39.9782 18.1029 39.4594 18.3847 38.3917Z" fill="url(#paint24_radial_759_29504)"/>
<path opacity="0.5" d="M42.0668 13.9568C42.0794 14.4338 39.7578 19.0118 38.7296 20.8926L38.6599 19.773C38.6599 19.773 41.5834 15.2285 41.9943 13.0752L42.0849 13.2562C42.0867 13.5033 42.0668 13.9233 42.0668 13.9568Z" fill="#542C4A"/>
<path style="mix-blend-mode:color-dodge" opacity="0.5" d="M42.0668 30.777C42.0545 30.8018 42.0365 30.8232 42.0142 30.8395C42.007 30.8168 42.0007 30.7933 41.9943 30.7698C41.2938 28.2128 38.6599 24.0783 38.6599 24.0783L38.7296 22.9668C39.7578 24.8467 42.246 29.4755 42.0668 29.9027C42.0496 29.9425 42.1039 30.691 42.0668 30.777Z" fill="url(#paint25_linear_759_29504)"/>
<path style="mix-blend-mode:color-dodge" opacity="0.5" d="M4.26857 22.9668V24.2539C4.26857 24.2539 2.22754 27.1747 0.925992 30.7598C0.899744 30.6177 0.947714 29.9407 0.931422 29.9027C0.755831 29.4755 3.24036 24.8467 4.26857 22.9668Z" fill="url(#paint26_linear_759_29504)"/>
<path opacity="0.5" d="M4.26836 19.537V20.8947C3.24015 19.0139 0.919449 14.5806 0.931216 13.9588C0.931216 13.9154 0.895917 13.2058 0.931216 13.0908C2.41831 17.2489 4.26836 19.537 4.26836 19.537Z" fill="#542C4A"/>
<path d="M19.9024 39.1152L20.67 39.1768C20.2708 39.3976 13.4879 43.1538 12.9665 42.9357C12.8398 42.8823 12.6172 42.3664 12.3511 41.6142C12.3809 41.6758 12.857 42.6533 13.1114 42.6533C13.3657 42.6533 19.9024 39.1152 19.9024 39.1152Z" fill="url(#paint27_radial_759_29504)"/>
<path d="M30.6451 41.6192C30.3799 42.3686 30.1573 42.8863 30.0315 42.9352C29.5101 43.1533 22.7272 39.3971 22.3271 39.1754L23.2893 39.0957C23.2893 39.0957 27.861 41.9613 29.7219 42.5351C30.1935 42.679 30.6098 41.7042 30.6451 41.6192Z" fill="url(#paint28_radial_759_29504)"/>
<defs>
<linearGradient id="paint0_linear_759_29504" x1="12.3557" y1="7.97719" x2="22.1978" y2="7.97719" gradientUnits="userSpaceOnUse">
<stop stop-color="#A3849F"/>
<stop offset="1" stop-color="#9A95A5"/>
</linearGradient>
<linearGradient id="paint1_linear_759_29504" x1="35.1409" y1="47.8214" x2="29.7102" y2="0.121968" gradientUnits="userSpaceOnUse">
<stop stop-color="#A3849F"/>
<stop offset="1" stop-color="#9A95A5"/>
</linearGradient>
<linearGradient id="paint2_linear_759_29504" x1="9.99785" y1="50.6827" x2="4.56718" y2="2.98328" gradientUnits="userSpaceOnUse">
<stop stop-color="#A3849F"/>
<stop offset="1" stop-color="#9A95A5"/>
</linearGradient>
<linearGradient id="paint3_linear_759_29504" x1="17.4271" y1="49.8365" x2="11.9964" y2="2.13712" gradientUnits="userSpaceOnUse">
<stop stop-color="#A3849F"/>
<stop offset="1" stop-color="#9A95A5"/>
</linearGradient>
<linearGradient id="paint4_linear_759_29504" x1="26.0942" y1="48.8512" x2="20.6636" y2="1.15088" gradientUnits="userSpaceOnUse">
<stop stop-color="#A3849F"/>
<stop offset="1" stop-color="#9A95A5"/>
</linearGradient>
<linearGradient id="paint5_linear_759_29504" x1="37.6308" y1="47.5367" x2="32.2001" y2="-0.162653" gradientUnits="userSpaceOnUse">
<stop stop-color="#A3849F"/>
<stop offset="1" stop-color="#9A95A5"/>
</linearGradient>
<linearGradient id="paint6_linear_759_29504" x1="15.3949" y1="40.8584" x2="15.3949" y2="34.2086" gradientUnits="userSpaceOnUse">
<stop stop-color="#A3849F"/>
<stop offset="1" stop-color="#9A95A5"/>
</linearGradient>
<linearGradient id="paint7_linear_759_29504" x1="27.6022" y1="40.8572" x2="27.6022" y2="34.2074" gradientUnits="userSpaceOnUse">
<stop stop-color="#A3849F"/>
<stop offset="1" stop-color="#9A95A5"/>
</linearGradient>
<linearGradient id="paint8_linear_759_29504" x1="12.3501" y1="5.16712" x2="18.4397" y2="5.16712" gradientUnits="userSpaceOnUse">
<stop stop-color="#A3849F"/>
<stop offset="1" stop-color="#9A95A5"/>
</linearGradient>
<linearGradient id="paint9_linear_759_29504" x1="12.3646" y1="-0.782853" x2="14.488" y2="5.34204" gradientUnits="userSpaceOnUse">
<stop stop-color="#95A8CF"/>
<stop offset="1"/>
</linearGradient>
<linearGradient id="paint10_linear_759_29504" x1="24.5628" y1="5.16712" x2="30.6533" y2="5.16712" gradientUnits="userSpaceOnUse">
<stop stop-color="#A3849F"/>
<stop offset="1" stop-color="#9A95A5"/>
</linearGradient>
<linearGradient id="paint11_linear_759_29504" x1="30.6389" y1="-0.782853" x2="28.5146" y2="5.34204" gradientUnits="userSpaceOnUse">
<stop stop-color="#95A8CF"/>
<stop offset="1"/>
</linearGradient>
<linearGradient id="paint12_linear_759_29504" x1="35.6106" y1="14.9863" x2="40.2511" y2="14.9863" gradientUnits="userSpaceOnUse">
<stop stop-color="#A3849F"/>
<stop offset="1" stop-color="#9A95A5"/>
</linearGradient>
<linearGradient id="paint13_linear_759_29504" x1="39.2118" y1="13.9746" x2="33.8409" y2="16.6265" gradientUnits="userSpaceOnUse">
<stop stop-color="#95A8CF"/>
<stop offset="1"/>
</linearGradient>
<linearGradient id="paint14_linear_759_29504" x1="35.6106" y1="28.8594" x2="40.2511" y2="28.8594" gradientUnits="userSpaceOnUse">
<stop stop-color="#A3849F"/>
<stop offset="1" stop-color="#9A95A5"/>
</linearGradient>
<linearGradient id="paint15_linear_759_29504" x1="41.8598" y1="27.1687" x2="36.4895" y2="24.5162" gradientUnits="userSpaceOnUse">
<stop stop-color="#95A8CF"/>
<stop offset="1"/>
</linearGradient>
<linearGradient id="paint16_linear_759_29504" x1="2.66553" y1="14.9863" x2="7.30604" y2="14.9863" gradientUnits="userSpaceOnUse">
<stop stop-color="#A3849F"/>
<stop offset="1" stop-color="#9A95A5"/>
</linearGradient>
<linearGradient id="paint17_linear_759_29504" x1="1.2923" y1="11.6093" x2="6.66255" y2="14.2618" gradientUnits="userSpaceOnUse">
<stop stop-color="#95A8CF"/>
<stop offset="1"/>
</linearGradient>
<linearGradient id="paint18_linear_759_29504" x1="2.66553" y1="28.8594" x2="7.30604" y2="28.8594" gradientUnits="userSpaceOnUse">
<stop stop-color="#A3849F"/>
<stop offset="1" stop-color="#9A95A5"/>
</linearGradient>
<linearGradient id="paint19_linear_759_29504" x1="-1.35568" y1="29.534" x2="4.01456" y2="26.8814" gradientUnits="userSpaceOnUse">
<stop stop-color="#95A8CF"/>
<stop offset="1"/>
</linearGradient>
<linearGradient id="paint20_linear_759_29504" x1="5.89038" y1="33.7356" x2="37.5521" y2="33.7356" gradientUnits="userSpaceOnUse">
<stop stop-color="#662D87"/>
<stop offset="1" stop-color="#D01C5C"/>
</linearGradient>
<linearGradient id="paint21_linear_759_29504" x1="21.7107" y1="5.18179" x2="21.7107" y2="12.5467" gradientUnits="userSpaceOnUse">
<stop stop-color="#95A8CF"/>
<stop offset="1"/>
</linearGradient>
<linearGradient id="paint22_linear_759_29504" x1="21.4992" y1="39.8557" x2="21.4992" y2="31.7033" gradientUnits="userSpaceOnUse">
<stop stop-color="#A3849F"/>
<stop offset="1" stop-color="#9A95A5"/>
</linearGradient>
<linearGradient id="paint23_linear_759_29504" x1="21.4992" y1="36.3185" x2="21.4992" y2="29.9764" gradientUnits="userSpaceOnUse">
<stop stop-color="white"/>
<stop offset="1" stop-color="#FFF7C4"/>
</linearGradient>
<radialGradient id="paint24_radial_759_29504" cx="0" cy="0" r="1" gradientUnits="userSpaceOnUse" gradientTransform="translate(15.5404 37.5351) rotate(14.79) scale(3.03839 2.01036)">
<stop stop-color="#705AB5"/>
<stop offset="0.14" stop-color="#5C4A95"/>
<stop offset="0.44" stop-color="#352A55"/>
<stop offset="0.69" stop-color="#181327"/>
<stop offset="0.89" stop-color="#07050B"/>
<stop offset="1"/>
</radialGradient>
<linearGradient id="paint25_linear_759_29504" x1="40.3697" y1="22.7441" x2="40.3697" y2="31.521" gradientUnits="userSpaceOnUse">
<stop stop-color="#95A8CF"/>
<stop offset="1"/>
</linearGradient>
<linearGradient id="paint26_linear_759_29504" x1="2.59321" y1="22.7469" x2="2.59321" y2="31.435" gradientUnits="userSpaceOnUse">
<stop stop-color="#95A8CF"/>
<stop offset="1"/>
</linearGradient>
<radialGradient id="paint27_radial_759_29504" cx="0" cy="0" r="1" gradientUnits="userSpaceOnUse" gradientTransform="translate(16.511 41.0295) scale(3.23759)">
<stop offset="0.02" stop-color="#5A4153"/>
<stop offset="0.95" stop-color="#3E2645"/>
</radialGradient>
<radialGradient id="paint28_radial_759_29504" cx="0" cy="0" r="1" gradientUnits="userSpaceOnUse" gradientTransform="translate(26.4861 41.02) scale(3.2403 3.2403)">
<stop offset="0.02" stop-color="#5A4153"/>
<stop offset="0.95" stop-color="#3E2645"/>
</radialGradient>
</defs>
</svg>
