<svg width="45" height="47" viewBox="0 0 45 47" fill="none" xmlns="http://www.w3.org/2000/svg">
<path d="M7.6504 5.01686C7.64935 5.06656 7.6516 5.11627 7.65713 5.16567C7.65713 5.17239 7.65713 5.17815 7.65713 5.18487C7.67792 5.3391 7.71394 5.4909 7.76465 5.63803V5.64283C8.11413 6.67973 9.15101 8.1237 9.77507 8.93401L9.79524 8.96185C9.94597 9.15386 10.0708 9.3142 10.1543 9.41693L10.2628 9.55038H11.2719C12.2454 8.24946 13.121 5.90206 13.1315 4.96597C13.1345 4.88424 13.1261 4.80249 13.1066 4.72307C12.9839 4.40391 12.8373 4.09451 12.6678 3.79755C11.9074 2.37278 10.4231 -0.0360736 10.1034 0.000409669C9.90276 0.0234517 8.82939 1.80729 8.16981 3.31559C7.87314 4.00589 7.65712 4.63666 7.6504 5.01686Z" fill="url(#paint0_linear_759_29377)"/>
<path style="mix-blend-mode:multiply" opacity="0.5" d="M7.6504 5.01744C7.64935 5.06714 7.6516 5.11685 7.65713 5.16626C7.65713 5.17298 7.65713 5.17873 7.65713 5.18546C7.67792 5.33969 7.71394 5.49148 7.76465 5.63862V5.64342C8.11413 6.68031 9.15101 8.12428 9.77507 8.93459L9.79524 8.96243C9.94597 9.15445 10.0708 9.31479 10.1543 9.41751L10.2628 9.55097H11.2719C12.2454 8.25005 13.121 5.90264 13.1315 4.96656C12.7878 6.0889 12.062 6.52862 11.3333 6.66015C11.0406 6.7097 10.7426 6.72003 10.4471 6.69087H10.4346C10.3838 6.68607 10.3329 6.68031 10.2839 6.67359C10.235 6.66687 10.2052 6.66303 10.1668 6.65631C9.86939 6.61098 9.57754 6.53472 9.29599 6.42877C9.29599 6.42877 8.44151 5.85847 8.26486 5.10097C8.19189 4.79086 8.2735 4.12744 8.55288 3.24512C8.934 2.10493 9.45343 1.01575 10.0996 0.00195312C9.89892 0.0249952 8.82554 1.80883 8.16596 3.31713C7.87314 4.00647 7.65712 4.63725 7.6504 5.01744Z" fill="url(#paint1_linear_759_29377)"/>
<path d="M10.9741 4.83701C11.4331 6.6487 10.5479 9.55199 10.5479 9.55199C10.5479 9.55199 10.6285 6.882 10.2483 5.51483C9.86812 4.14767 10.832 4.27536 10.9741 4.83701Z" fill="url(#paint2_linear_759_29377)"/>
<g style="mix-blend-mode:soft-light">
<path d="M10.135 4.96094C10.6151 6.57868 10.5479 9.55206 10.5479 9.55206L10.135 4.96094Z" fill="#F7FFFF"/>
</g>
<g style="mix-blend-mode:soft-light">
<path d="M12.5498 3.57069C11.894 4.04305 10.403 0.364001 10.8552 0.822922C11.2047 1.17719 12.5498 3.57069 12.5498 3.57069Z" fill="#F7FFFF"/>
</g>
<path style="mix-blend-mode:multiply" opacity="0.5" d="M7.657 5.16635C7.657 5.17307 7.657 5.17883 7.657 5.18555C7.67311 5.34061 7.70925 5.49294 7.76453 5.63871V5.64351C8.114 6.62376 9.18929 8.15606 9.77494 8.93468L9.79511 8.96253C9.98713 9.21311 10.1177 9.38112 10.1542 9.41761C10.5257 9.79204 10.1983 9.17758 8.86382 6.76873C8.28393 5.71552 7.63588 4.7996 7.657 5.16635Z" fill="url(#paint3_linear_759_29377)"/>
<g style="mix-blend-mode:multiply" opacity="0.5">
<path d="M9.77896 8.93402L9.79912 8.96186C9.99113 9.21244 10.1217 9.38046 10.1582 9.41694C10.1582 9.41694 10.2907 7.6283 10.1716 6.6567C9.97961 5.05815 9.73288 3.64875 9.38821 3.45097C9.13813 3.30449 8.85114 3.23316 8.56158 3.24551C8.43058 3.2492 8.30098 3.2735 8.17754 3.31752C7.87608 4.0059 7.66005 4.63668 7.65333 5.01687C7.65228 5.06657 7.65453 5.11628 7.66005 5.16568C7.66005 5.1724 7.66005 5.17816 7.66005 5.18488C7.67617 5.33995 7.71231 5.49227 7.76758 5.63804V5.64285C8.11802 6.67974 9.15586 8.12371 9.77896 8.93402Z" fill="#C10065"/>
</g>
<path d="M4.98516 13.8025C5.04159 13.8036 5.09803 13.8011 5.15412 13.7948H5.15989C5.29925 13.7757 5.43652 13.7436 5.56985 13.6988H5.57849C6.60866 13.3714 8.06031 12.346 8.88503 11.7239L8.91286 11.7018C9.1164 11.5482 9.27866 11.4205 9.38523 11.336L9.51868 11.2294V10.9827V10.95L9.52444 10.2242C8.23408 9.24493 5.89916 8.35589 4.96883 8.33861C4.88746 8.33531 4.80603 8.34339 4.72689 8.36261C4.4075 8.48204 4.09776 8.62584 3.80041 8.79273C3.48838 8.95595 3.12835 9.15468 2.75679 9.36878C1.43668 10.1273 -0.0274515 11.0729 0.000391028 11.3216C0.0349541 11.6067 3.77929 13.7698 4.98516 13.8025Z" fill="url(#paint4_linear_759_29377)"/>
<path style="mix-blend-mode:multiply" opacity="0.5" d="M4.98526 13.8017C5.04169 13.8029 5.09813 13.8003 5.15422 13.7941H5.15999C5.29935 13.775 5.43661 13.7429 5.56995 13.6981H5.57858C6.60876 13.3707 8.06041 12.3453 8.88513 11.7232L8.91296 11.7011C9.1165 11.5475 9.27876 11.4198 9.38533 11.3353L9.51878 11.2287V10.982V10.9493L9.52453 10.2235C8.23418 9.24421 5.89926 8.35517 4.96893 8.33789C6.08455 8.68832 6.51754 9.41511 6.64332 10.1419C6.6805 10.3639 6.69402 10.5891 6.68364 10.814C6.68364 10.8869 6.675 10.958 6.66828 11.0281C6.66828 11.0281 6.66828 11.0357 6.66828 11.0405C6.66348 11.0914 6.65676 11.1365 6.65004 11.1903C6.60466 11.5263 6.52058 11.8558 6.39946 12.1725C6.39946 12.1725 5.82341 13.0202 5.06782 13.1921C4.44377 13.3332 2.37958 12.8359 0.000488281 11.3238C0.0350514 11.606 3.77939 13.7691 4.98526 13.8017Z" fill="url(#paint5_linear_759_29377)"/>
<path d="M4.41001 10.805C6.18617 9.21031 9.52439 10.9452 9.52439 10.9452C9.52439 10.9452 6.86496 10.8492 5.49972 11.2159C4.13447 11.5827 4.19783 10.9961 4.41001 10.805Z" fill="url(#paint6_linear_759_29377)"/>
<g style="mix-blend-mode:soft-light">
<path d="M4.94678 11.3237C6.56164 10.8542 9.52446 10.9445 9.52446 10.9445L4.94678 11.3237Z" fill="#F7FFFF"/>
</g>
<g style="mix-blend-mode:soft-light">
<path d="M0.828857 10.5787C1.14569 10.8667 2.59925 10.3204 3.40668 9.72995C3.81664 9.4304 4.06051 9.11837 3.90305 8.89755L3.80704 8.78906L2.76343 9.36511L0.828857 10.5787Z" fill="#F7FFFF"/>
</g>
<path style="mix-blend-mode:multiply" opacity="0.5" d="M6.74027 12.5988C9.14913 11.2863 9.76455 10.9666 9.38916 11.3324C9.23554 11.4822 6.25351 13.7394 5.13405 13.7951C4.7673 13.8143 5.68418 13.1739 6.74027 12.5988Z" fill="url(#paint7_linear_759_29377)"/>
<g style="mix-blend-mode:multiply" opacity="0.5">
<path d="M2.76147 9.36388L2.81523 9.38404C3.02733 9.4711 3.22636 9.58709 3.40665 9.72872C3.7915 10.0372 4.12974 10.3997 4.4109 10.805C4.4109 10.805 4.96295 10.4526 6.25619 10.4776C7.97282 10.5112 8.50087 10.8069 9.32846 10.9403H9.33806L9.41678 10.9538C9.45423 10.9605 9.49167 10.9682 9.52816 10.9768V10.9442L9.53391 10.2184C8.24356 9.23907 5.90863 8.35003 4.97831 8.33275C4.89694 8.32945 4.8155 8.33753 4.73637 8.35675C4.41698 8.47618 4.10723 8.61998 3.80988 8.78687C3.49113 8.95201 3.13303 9.15074 2.76147 9.36388Z" fill="#C10065"/>
</g>
<path d="M3.83309 8.81675C4.86711 9.94005 9.48895 10.4662 9.48895 10.4662L10.3079 9.68659C10.0852 7.87106 8.96954 5.27979 8.2514 4.51268C8.19043 4.44346 8.11958 4.38361 8.04114 4.33507C7.35564 3.93855 2.2259 2.46962 1.92539 2.83253C1.71705 3.08216 2.90661 7.81154 3.83309 8.81675Z" fill="url(#paint8_linear_759_29377)"/>
<path style="mix-blend-mode:multiply" opacity="0.5" d="M3.83309 8.81625C4.86711 9.93955 9.48895 10.4657 9.48895 10.4657L10.3079 9.68608C10.0852 7.87056 8.96954 5.27929 8.2514 4.51218C9.67328 7.33579 6.27074 8.68472 6.27074 8.68472C6.27074 8.68472 5.54492 8.89689 4.50323 8.18547C3.9051 7.77839 2.57057 5.94751 1.92539 2.83203C1.71705 3.08165 2.90661 7.81104 3.83309 8.81625Z" fill="url(#paint9_linear_759_29377)"/>
<path d="M5.79541 6.22876C8.18123 6.88066 9.7164 10.2458 9.7164 10.2458C9.7164 10.2458 7.70022 8.0126 6.33018 7.19653C4.96013 6.38045 5.48435 6.14523 5.79541 6.22876Z" fill="url(#paint10_linear_759_29377)"/>
<g style="mix-blend-mode:soft-light">
<path d="M5.80884 6.83594C7.46019 7.77586 9.71734 10.2481 9.71734 10.2481L5.80884 6.83594Z" fill="#F7FFFF"/>
</g>
<g style="mix-blend-mode:soft-light">
<path d="M7.05217 3.94627C6.88607 4.84011 2.46008 2.79417 3.17438 2.91322C4.56458 3.15805 7.05217 3.94627 7.05217 3.94627Z" fill="#F7FFFF"/>
</g>
<path d="M37.3448 5.01686C37.3455 5.06658 37.3429 5.11629 37.3371 5.16567C37.3376 5.17206 37.3376 5.17848 37.3371 5.18487C37.316 5.33913 37.2796 5.49092 37.2286 5.63803V5.64283C36.8801 6.67973 35.8423 8.1237 35.2192 8.93401C35.2127 8.94369 35.2056 8.95298 35.198 8.96185C35.0473 9.15386 34.9225 9.3142 34.8399 9.41693L34.7314 9.55038H33.7224C32.7498 8.24946 31.8733 5.90206 31.8627 4.96597C31.8595 4.88418 31.8682 4.80235 31.8886 4.72307C32.0104 4.40369 32.1567 4.09425 32.3264 3.79755C33.0868 2.37278 34.5721 -0.0360736 34.8918 0.000409669C35.0924 0.0234517 36.1648 1.80729 36.8254 3.31559C37.122 4.00589 37.3371 4.63666 37.3448 5.01686Z" fill="url(#paint11_linear_759_29377)"/>
<path style="mix-blend-mode:multiply" opacity="0.5" d="M37.3449 5.01744C37.3456 5.06716 37.343 5.11687 37.3372 5.16626C37.3377 5.17265 37.3377 5.17906 37.3372 5.18546C37.3161 5.33971 37.2797 5.4915 37.2287 5.63862V5.64342C36.8802 6.68031 35.8423 8.12428 35.2192 8.93459C35.2128 8.94427 35.2057 8.95357 35.1981 8.96243C35.0474 9.15445 34.9226 9.31479 34.84 9.41751L34.7315 9.55097H33.7225C32.7499 8.25005 31.8734 5.90264 31.8628 4.96656C32.2065 6.0889 32.9323 6.52862 33.661 6.66015C33.9537 6.7097 34.2517 6.72003 34.5472 6.69087H34.5597C34.6115 6.68607 34.6614 6.68031 34.7104 6.67359C34.7594 6.66687 34.7891 6.66303 34.8275 6.65631C35.1249 6.61098 35.4168 6.53472 35.6983 6.42877C35.6983 6.42877 36.5528 5.85847 36.7304 5.10097C36.8024 4.79086 36.7208 4.12744 36.4376 3.24512C36.0565 2.10511 35.5374 1.01597 34.8919 0.00195312C35.0925 0.0249952 36.1649 1.80883 36.8255 3.31713C37.1221 4.00647 37.3372 4.63725 37.3449 5.01744Z" fill="url(#paint12_linear_759_29377)"/>
<path d="M34.022 4.83701C33.5631 6.6487 34.4492 9.55199 34.4492 9.55199C34.4492 9.55199 34.3676 6.882 34.7488 5.51483C35.13 4.14767 34.1631 4.27536 34.022 4.83701Z" fill="url(#paint13_linear_759_29377)"/>
<g style="mix-blend-mode:soft-light">
<path d="M34.8591 4.96094C34.379 6.57868 34.4472 9.55206 34.4472 9.55206L34.8591 4.96094Z" fill="#F7FFFF"/>
</g>
<g style="mix-blend-mode:soft-light">
<path d="M32.4446 3.57069C33.1013 4.04305 34.5913 0.364001 34.1391 0.822922C33.7897 1.17719 32.4446 3.57069 32.4446 3.57069Z" fill="#F7FFFF"/>
</g>
<path style="mix-blend-mode:multiply" opacity="0.5" d="M37.3371 5.16635C37.3376 5.17274 37.3376 5.17916 37.3371 5.18555C37.3206 5.34065 37.2842 5.49296 37.2286 5.63871V5.64351C36.8801 6.62376 35.8039 8.15606 35.2192 8.93468C35.2127 8.94437 35.2056 8.95366 35.198 8.96253C35.006 9.21311 34.8755 9.38112 34.8399 9.41761C34.4684 9.79204 34.7967 9.17758 36.1303 6.76873C36.7102 5.71552 37.3582 4.7996 37.3371 5.16635Z" fill="url(#paint14_linear_759_29377)"/>
<g style="mix-blend-mode:multiply" opacity="0.5">
<path d="M35.2163 8.934C35.2098 8.94368 35.2028 8.95297 35.1952 8.96184C35.0032 9.21242 34.8726 9.38044 34.8371 9.41692C34.8371 9.41692 34.7046 7.62828 34.8227 6.65667C35.0147 5.05813 35.2614 3.64872 35.6061 3.45095C35.8562 3.30456 36.1432 3.23324 36.4327 3.24549C36.5637 3.24928 36.6933 3.27357 36.8168 3.3175C37.1182 4.00588 37.3333 4.63665 37.341 5.01685C37.3417 5.06657 37.3391 5.11628 37.3333 5.16566C37.3338 5.17205 37.3338 5.17847 37.3333 5.18486C37.3168 5.33996 37.2804 5.49227 37.2248 5.63802V5.64282C36.8773 6.67972 35.8394 8.12369 35.2163 8.934Z" fill="#C10065"/>
</g>
<path d="M40.0091 13.8024C39.9527 13.8036 39.8962 13.801 39.8401 13.7948C39.7007 13.7758 39.5635 13.7437 39.4302 13.6987H39.4215C38.3914 13.3714 36.9397 12.346 36.115 11.7239L36.0872 11.7018C35.8836 11.5482 35.7204 11.4205 35.6148 11.336L35.4813 11.2294V10.9827V10.95L35.4756 10.2242C36.7669 9.24491 39.1018 8.35587 40.0312 8.33859C40.1129 8.33535 40.1946 8.34342 40.2741 8.36259C40.5931 8.48208 40.9026 8.62588 41.1996 8.79271C41.5126 8.95592 41.8717 9.15466 42.2432 9.36876C43.5643 10.1272 45.0275 11.0729 44.9996 11.3216C44.9574 11.6067 41.2227 13.7698 40.0091 13.8024Z" fill="url(#paint15_linear_759_29377)"/>
<path style="mix-blend-mode:multiply" opacity="0.5" d="M40.0091 13.8017C39.9527 13.8029 39.8962 13.8003 39.8401 13.7941C39.7007 13.7751 39.5635 13.743 39.4302 13.6981H39.4215C38.3914 13.3707 36.9397 12.3453 36.115 11.7232L36.0872 11.7011C35.8836 11.5475 35.7204 11.4198 35.6148 11.3353L35.4813 11.2287V10.982V10.9493L35.4756 10.2235C36.7669 9.24421 39.1018 8.35517 40.0312 8.33789C38.9156 8.68832 38.4826 9.41511 38.3568 10.1419C38.3194 10.3638 38.3062 10.5892 38.3174 10.814C38.3174 10.8869 38.3251 10.958 38.3328 11.0281C38.3324 11.0322 38.3324 11.0364 38.3328 11.0405C38.3328 11.0914 38.3443 11.1365 38.3501 11.1903C38.3955 11.5264 38.4799 11.856 38.6016 12.1725C38.6016 12.1725 39.1777 13.0202 39.9323 13.1921C40.5573 13.3332 42.6205 12.8359 44.9996 11.3238C44.9574 11.606 41.2227 13.7691 40.0091 13.8017Z" fill="url(#paint16_linear_759_29377)"/>
<path d="M40.5841 10.805C38.808 9.21031 35.4707 10.9452 35.4707 10.9452C35.4707 10.9452 38.1301 10.8492 39.4954 11.2159C40.8606 11.5827 40.7973 10.9961 40.5841 10.805Z" fill="url(#paint17_linear_759_29377)"/>
<g style="mix-blend-mode:soft-light">
<path d="M40.0484 11.3237C38.4326 10.8542 35.4707 10.9445 35.4707 10.9445L40.0484 11.3237Z" fill="#F7FFFF"/>
</g>
<g style="mix-blend-mode:soft-light">
<path d="M44.1663 10.5787C43.8494 10.8667 42.3959 10.3204 41.5884 9.72995C41.1775 9.4304 40.9346 9.11837 41.0911 8.89755L41.1871 8.78906L42.2307 9.36511L44.1663 10.5787Z" fill="#F7FFFF"/>
</g>
<path style="mix-blend-mode:multiply" opacity="0.5" d="M38.254 12.5988C35.8451 11.2863 35.2297 10.9666 35.6061 11.3324C35.7587 11.4822 38.7408 13.7394 39.8612 13.7951C40.227 13.8143 39.3101 13.1739 38.254 12.5988Z" fill="url(#paint18_linear_759_29377)"/>
<g style="mix-blend-mode:multiply" opacity="0.5">
<path d="M42.2325 9.36386L42.1797 9.38402C41.9676 9.47108 41.7686 9.58707 41.5883 9.72869C41.2031 10.0369 40.8648 10.3994 40.584 10.8049C40.584 10.8049 40.031 10.4526 38.7378 10.4776C37.0212 10.5112 36.4941 10.8069 35.6713 10.9403H35.6607L35.5829 10.9538C35.5445 10.9605 35.5081 10.9682 35.4716 10.9768V10.9442L35.4658 10.2183C36.7571 9.23905 39.0921 8.35001 40.0214 8.33273C40.1031 8.32949 40.1849 8.33756 40.2643 8.35673C40.5834 8.47622 40.8928 8.62002 41.1899 8.78685C41.5019 8.95198 41.8619 9.15072 42.2325 9.36386Z" fill="#C10065"/>
</g>
<path d="M41.162 8.81675C40.128 9.94005 35.5052 10.4662 35.5052 10.4662L34.6843 9.68659C34.9061 7.87106 36.0227 5.27979 36.7399 4.51268C36.8011 4.44369 36.8719 4.38387 36.9501 4.33507C37.6356 3.93855 42.7654 2.46962 43.0668 2.83253C43.278 3.08216 42.0866 7.81154 41.162 8.81675Z" fill="url(#paint19_linear_759_29377)"/>
<path style="mix-blend-mode:multiply" opacity="0.5" d="M41.162 8.81625C40.128 9.93955 35.5052 10.4657 35.5052 10.4657L34.6843 9.68608C34.9061 7.87056 36.0227 5.27929 36.7399 4.51218C35.3189 7.33579 38.7215 8.68472 38.7215 8.68472C38.7215 8.68472 39.4463 8.89689 40.489 8.18547C41.0862 7.77839 42.4207 5.94751 43.0668 2.83203C43.278 3.08165 42.0866 7.81104 41.162 8.81625Z" fill="url(#paint20_linear_759_29377)"/>
<path d="M39.1979 6.22876C36.8121 6.88066 35.2778 10.2458 35.2778 10.2458C35.2778 10.2458 37.294 8.0126 38.6631 7.19653C40.0322 6.38045 39.5099 6.14523 39.1979 6.22876Z" fill="url(#paint21_linear_759_29377)"/>
<g style="mix-blend-mode:soft-light">
<path d="M39.1854 6.83594C37.535 7.77586 35.2778 10.2481 35.2778 10.2481L39.1854 6.83594Z" fill="#F7FFFF"/>
</g>
<g style="mix-blend-mode:soft-light">
<path d="M37.9429 3.94627C38.109 4.84011 42.535 2.79417 41.8197 2.91322C40.4305 3.15805 37.9429 3.94627 37.9429 3.94627Z" fill="#F7FFFF"/>
</g>
<path d="M7.65039 41.4057C7.64936 41.356 7.65161 41.3063 7.65712 41.2569C7.65712 41.2501 7.65712 41.2444 7.65712 41.2386C7.6777 41.0844 7.71372 40.9325 7.76465 40.7855C8.11412 39.7476 9.151 38.3036 9.77506 37.4933L9.79523 37.4655C9.94596 37.2735 10.0708 37.1131 10.1543 37.0104L10.2628 36.877H11.2718C12.2454 38.1779 13.121 40.5253 13.1315 41.4614C13.1345 41.5431 13.1261 41.6248 13.1066 41.7043C12.9839 42.0234 12.8373 42.3328 12.6678 42.6298C11.9074 44.0546 10.4231 46.4634 10.1034 46.4269C9.90275 46.4039 8.82938 44.62 8.1698 43.1127C7.87313 42.4166 7.65711 41.7859 7.65039 41.4057Z" fill="url(#paint22_linear_759_29377)"/>
<path style="mix-blend-mode:multiply" opacity="0.5" d="M7.65039 41.4057C7.64936 41.356 7.65161 41.3063 7.65712 41.2569C7.65712 41.2501 7.65712 41.2444 7.65712 41.2386C7.6777 41.0844 7.71372 40.9325 7.76465 40.7855C8.11412 39.7476 9.151 38.3036 9.77506 37.4933L9.79523 37.4655C9.94596 37.2735 10.0708 37.1131 10.1543 37.0104L10.2628 36.877H11.2718C12.2454 38.1779 13.121 40.5253 13.1315 41.4614C12.7878 40.339 12.062 39.8993 11.3333 39.7678C11.0406 39.7182 10.7426 39.7079 10.4471 39.7371H10.4346L10.2839 39.7543C10.2445 39.7543 10.2052 39.7649 10.1668 39.7716C9.86939 39.8169 9.57753 39.8932 9.29598 39.9992C9.29598 39.9992 8.4415 40.5694 8.26485 41.327C8.19188 41.6371 8.27349 42.3005 8.55287 43.1828C8.93399 44.323 9.45342 45.4122 10.0996 46.426C9.89891 46.4029 8.82553 44.6191 8.16595 43.1118C7.87313 42.4166 7.65711 41.7859 7.65039 41.4057Z" fill="url(#paint23_linear_759_29377)"/>
<path d="M10.9741 41.5861C11.4331 39.7744 10.5479 36.8711 10.5479 36.8711C10.5479 36.8711 10.6285 39.5411 10.2483 40.9083C9.86812 42.2754 10.832 42.1477 10.9741 41.5861Z" fill="url(#paint24_linear_759_29377)"/>
<g style="mix-blend-mode:soft-light">
<path d="M10.135 41.4642C10.6151 39.8464 10.5479 36.873 10.5479 36.873L10.135 41.4642Z" fill="#F7FFFF"/>
</g>
<g style="mix-blend-mode:soft-light">
<path d="M12.5498 42.8525C11.894 42.3802 10.403 46.0592 10.8552 45.6003C11.2047 45.246 12.5498 42.8525 12.5498 42.8525Z" fill="#F7FFFF"/>
</g>
<path style="mix-blend-mode:multiply" opacity="0.5" d="M7.657 41.258C7.657 41.2512 7.657 41.2455 7.657 41.2397C7.673 41.0846 7.70915 40.9323 7.76453 40.7866C8.114 39.8053 9.18929 38.2731 9.77494 37.4944L9.79511 37.4666C9.98713 37.216 10.1177 37.0489 10.1542 37.0115C10.5257 36.6371 10.1983 37.2525 8.86382 39.6604C8.28393 40.7088 7.63588 41.6247 7.657 41.258Z" fill="url(#paint25_linear_759_29377)"/>
<g style="mix-blend-mode:multiply" opacity="0.5">
<path d="M9.77895 37.4888L9.79911 37.4609C9.99112 37.2104 10.1217 37.0433 10.1582 37.0059C10.1582 37.0059 10.2907 38.7945 10.1716 39.7661C9.9796 41.3656 9.73287 42.7741 9.3882 42.9718C9.13812 43.1183 8.85113 43.1896 8.56157 43.1773C8.43066 43.1735 8.30112 43.1496 8.17753 43.1062C7.87607 42.4169 7.66004 41.7861 7.65332 41.4059C7.65229 41.3562 7.65454 41.3065 7.66005 41.2571C7.66005 41.2504 7.66005 41.2446 7.66005 41.2389C7.67605 41.0838 7.7122 40.9315 7.76757 40.7857C8.11801 39.7431 9.15585 38.2962 9.77895 37.4888Z" fill="#C10065"/>
</g>
<path d="M4.98516 32.6214C5.04159 32.6202 5.09803 32.6228 5.15412 32.629H5.15989C5.29925 32.6481 5.43652 32.6802 5.56985 32.7251H5.57849C6.60866 33.0524 8.06031 34.0778 8.88503 34.7L8.91286 34.722C9.1164 34.8756 9.27866 35.0033 9.38523 35.0878L9.51868 35.1944V35.4411V35.4738L9.52444 36.2006C8.23408 37.1789 5.89916 38.0679 4.96883 38.0852C4.88746 38.0885 4.80603 38.0804 4.72689 38.0612C4.4075 37.9418 4.09776 37.798 3.80041 37.6311C3.48838 37.4679 3.12835 37.2691 2.75679 37.055C1.43668 36.2966 -0.0274515 35.3509 0.000391028 35.1022C0.0349541 34.8152 3.77929 32.654 4.98516 32.6214Z" fill="url(#paint26_linear_759_29377)"/>
<path style="mix-blend-mode:multiply" opacity="0.5" d="M4.98526 32.6214C5.04169 32.6202 5.09813 32.6228 5.15422 32.629H5.15999C5.29935 32.6481 5.43661 32.6802 5.56995 32.7251H5.57858C6.60876 33.0524 8.06041 34.0778 8.88513 34.7L8.91296 34.722C9.1165 34.8756 9.27876 35.0033 9.38533 35.0878L9.51878 35.1944V35.4411V35.4738L9.52453 36.2006C8.23418 37.1789 5.89926 38.0679 4.96893 38.0852C6.08455 37.7348 6.51754 37.008 6.64332 36.2812C6.6805 36.0593 6.69402 35.834 6.68364 35.6092C6.68364 35.5362 6.675 35.4651 6.66828 35.3951C6.66828 35.3951 6.66828 35.3874 6.66828 35.3835C6.66348 35.3317 6.65676 35.2818 6.65004 35.2328C6.60466 34.8968 6.52058 34.5673 6.39946 34.2506C6.39946 34.2506 5.82341 33.4029 5.06782 33.231C4.44377 33.0899 2.37958 33.5872 0.000488281 35.0993C0.0350514 34.8152 3.77939 32.654 4.98526 32.6214Z" fill="url(#paint27_linear_759_29377)"/>
<path d="M4.41001 35.617C6.18617 37.2117 9.52439 35.4768 9.52439 35.4768C9.52439 35.4768 6.86496 35.5728 5.49972 35.2061C4.13447 34.8393 4.19783 35.4259 4.41001 35.617Z" fill="url(#paint28_linear_759_29377)"/>
<g style="mix-blend-mode:soft-light">
<path d="M4.94678 35.0977C6.56164 35.5671 9.52446 35.4769 9.52446 35.4769L4.94678 35.0977Z" fill="#F7FFFF"/>
</g>
<g style="mix-blend-mode:soft-light">
<path d="M0.828857 35.8448C1.14569 35.5568 2.59925 36.104 3.40668 36.6935C3.81664 36.993 4.06051 37.3051 3.90305 37.5259L3.80704 37.6344L2.76343 37.0583L0.828857 35.8448Z" fill="#F7FFFF"/>
</g>
<path style="mix-blend-mode:multiply" opacity="0.5" d="M6.74027 33.8236C9.14913 35.136 9.76455 35.4557 9.38916 35.0909C9.23554 34.9402 6.25351 32.683 5.13405 32.6273C4.7673 32.6091 5.68418 33.2485 6.74027 33.8236Z" fill="url(#paint29_linear_759_29377)"/>
<g style="mix-blend-mode:multiply" opacity="0.5">
<path d="M2.76147 37.0583C2.77972 37.0525 2.79699 37.0448 2.81523 37.0381C3.02752 36.9514 3.2266 36.8354 3.40665 36.6934C3.7915 36.3849 4.12974 36.0224 4.4109 35.6172C4.4109 35.6172 4.96295 35.9695 6.25619 35.9446C7.97282 35.911 8.50087 35.6152 9.32846 35.4818H9.33806L9.41678 35.4684C9.45423 35.4616 9.49167 35.454 9.52816 35.4453V35.478L9.53391 36.2047C8.24356 37.1831 5.90863 38.0721 4.97831 38.0894C4.89694 38.0927 4.8155 38.0846 4.73637 38.0654C4.41698 37.946 4.10723 37.8022 3.80988 37.6353C3.49113 37.4701 3.13303 37.2714 2.76147 37.0583Z" fill="#C10065"/>
</g>
<path d="M3.83304 37.6065C4.86705 36.4832 9.48889 35.957 9.48889 35.957L10.3107 36.7414C10.088 38.5569 8.97237 41.1482 8.25422 41.9153C8.19325 41.9845 8.12241 42.0444 8.04397 42.0929C7.35847 42.4895 2.22872 43.9584 1.92822 43.5955C1.717 43.341 2.90655 38.6117 3.83304 37.6065Z" fill="url(#paint30_linear_759_29377)"/>
<path style="mix-blend-mode:multiply" opacity="0.5" d="M3.83304 37.6065C4.86705 36.4832 9.48889 35.957 9.48889 35.957L10.3107 36.7414C10.088 38.5569 8.97237 41.1482 8.25422 41.9153C9.67611 39.0917 6.27357 37.7428 6.27357 37.7428C6.27357 37.7428 5.54774 37.5306 4.50604 38.242C3.90791 38.6491 2.57339 40.48 1.92822 43.5955C1.717 43.341 2.90655 38.6117 3.83304 37.6065Z" fill="url(#paint31_linear_759_29377)"/>
<path d="M5.79541 40.1908C8.18123 39.5389 9.7164 36.1738 9.7164 36.1738C9.7164 36.1738 7.70022 38.4079 6.33018 39.2231C4.96013 40.0382 5.48435 40.2763 5.79541 40.1908Z" fill="url(#paint32_linear_759_29377)"/>
<g style="mix-blend-mode:soft-light">
<path d="M5.80884 39.586C7.46019 38.646 9.71734 36.1738 9.71734 36.1738L5.80884 39.586Z" fill="#F7FFFF"/>
</g>
<g style="mix-blend-mode:soft-light">
<path d="M7.05217 42.4783C6.88607 41.5844 2.46008 43.6352 3.17438 43.5113C4.56458 43.2694 7.05217 42.4783 7.05217 42.4783Z" fill="#F7FFFF"/>
</g>
<path d="M37.3448 41.4057C37.3455 41.356 37.3429 41.3063 37.3371 41.2569C37.3376 41.2508 37.3376 41.2447 37.3371 41.2386C37.3162 41.0843 37.2798 40.9325 37.2286 40.7855C36.8801 39.7476 35.8423 38.3036 35.2192 37.4933C35.2127 37.4837 35.2056 37.4744 35.198 37.4655C35.0473 37.2735 34.9225 37.1131 34.8399 37.0104L34.7314 36.877H33.7224C32.7498 38.1779 31.8733 40.5253 31.8627 41.4614C31.8595 41.5432 31.8682 41.625 31.8886 41.7043C32.0104 42.0236 32.1567 42.3331 32.3264 42.6298C33.0868 44.0546 34.5721 46.4634 34.8918 46.4269C35.0924 46.4039 36.1648 44.62 36.8254 43.1127C37.122 42.4166 37.3371 41.7859 37.3448 41.4057Z" fill="url(#paint33_linear_759_29377)"/>
<path style="mix-blend-mode:multiply" opacity="0.5" d="M37.3449 41.4057C37.3456 41.356 37.343 41.3063 37.3372 41.2569C37.3377 41.2508 37.3377 41.2447 37.3372 41.2386C37.3163 41.0843 37.2799 40.9325 37.2287 40.7855C36.8802 39.7476 35.8423 38.3036 35.2192 37.4933C35.2128 37.4837 35.2057 37.4744 35.1981 37.4655C35.0474 37.2735 34.9226 37.1131 34.84 37.0104L34.7315 36.877H33.7225C32.7499 38.1779 31.8734 40.5253 31.8628 41.4614C32.2065 40.339 32.9323 39.8993 33.661 39.7678C33.9537 39.7182 34.2517 39.7079 34.5472 39.7371H34.5597L34.7104 39.7543C34.7498 39.7543 34.7891 39.7649 34.8275 39.7716C35.1249 39.8169 35.4168 39.8932 35.6983 39.9992C35.6983 39.9992 36.5528 40.5694 36.7304 41.327C36.8024 41.6371 36.7208 42.3005 36.4376 43.1828C36.0565 44.3228 35.5374 45.412 34.8919 46.426C35.0925 46.4029 36.1649 44.6191 36.8255 43.1118C37.1221 42.4166 37.3372 41.7859 37.3449 41.4057Z" fill="url(#paint34_linear_759_29377)"/>
<path d="M34.022 41.5861C33.5631 39.7744 34.4492 36.8711 34.4492 36.8711C34.4492 36.8711 34.3676 39.5411 34.7488 40.9083C35.13 42.2754 34.1631 42.1477 34.022 41.5861Z" fill="url(#paint35_linear_759_29377)"/>
<g style="mix-blend-mode:multiply" opacity="0.5">
<path d="M34.8591 41.4642C34.379 39.8464 34.4472 36.873 34.4472 36.873L34.8591 41.4642Z" fill="#C10065"/>
</g>
<g style="mix-blend-mode:soft-light">
<path d="M32.4446 42.8525C33.1013 42.3802 34.5913 46.0592 34.1391 45.6003C33.7897 45.246 32.4446 42.8525 32.4446 42.8525Z" fill="#F7FFFF"/>
</g>
<path style="mix-blend-mode:multiply" opacity="0.5" d="M37.3371 41.258C37.3376 41.2519 37.3376 41.2458 37.3371 41.2397C37.3207 41.0846 37.2843 40.9323 37.2286 40.7866C36.8801 39.8053 35.8039 38.2731 35.2192 37.4944C35.2127 37.4847 35.2056 37.4754 35.198 37.4666C35.006 37.216 34.8755 37.0489 34.8399 37.0115C34.4684 36.6371 34.7967 37.2525 36.1303 39.6604C36.7102 40.7088 37.3582 41.6247 37.3371 41.258Z" fill="url(#paint36_linear_759_29377)"/>
<path style="mix-blend-mode:multiply" opacity="0.5" d="M35.2163 37.4888C35.2098 37.4791 35.2028 37.4698 35.1952 37.4609C35.0032 37.2104 34.8726 37.0433 34.8371 37.0059C34.8371 37.0059 34.7046 38.7945 34.8227 39.7661C35.0147 41.3656 35.2614 42.7741 35.6061 42.9718C35.8562 43.1182 36.1432 43.1895 36.4327 43.1773C36.5636 43.1735 36.6932 43.1495 36.8168 43.1062C37.1182 42.4169 37.3333 41.7861 37.341 41.4059C37.3417 41.3562 37.3391 41.3065 37.3333 41.2571C37.3338 41.2511 37.3338 41.2449 37.3333 41.2389C37.3169 41.0838 37.2805 40.9314 37.2248 40.7857C36.8773 39.7431 35.8394 38.2962 35.2163 37.4888Z" fill="url(#paint37_linear_759_29377)"/>
<path d="M40.0091 32.6214C39.9527 32.6202 39.8962 32.6228 39.8401 32.629C39.7007 32.648 39.5635 32.6801 39.4302 32.7251H39.4215C38.3914 33.0524 36.9397 34.0778 36.115 34.7L36.0872 34.722C35.8836 34.8757 35.7204 35.0033 35.6148 35.0878L35.4813 35.1944V35.4411V35.4738L35.4756 36.2006C36.7669 37.1789 39.1018 38.0679 40.0312 38.0852C40.1129 38.0885 40.1946 38.0804 40.2741 38.0612C40.5931 37.9417 40.9026 37.7979 41.1996 37.6311C41.5126 37.4679 41.8717 37.2691 42.2432 37.055C43.5643 36.2966 45.0275 35.3509 44.9996 35.1022C44.9574 34.8152 41.2227 32.654 40.0091 32.6214Z" fill="url(#paint38_linear_759_29377)"/>
<path style="mix-blend-mode:multiply" opacity="0.5" d="M40.0091 32.6214C39.9527 32.6202 39.8962 32.6228 39.8401 32.629C39.7007 32.648 39.5635 32.6801 39.4302 32.7251H39.4215C38.3914 33.0524 36.9397 34.0778 36.115 34.7L36.0872 34.722C35.8836 34.8756 35.7204 35.0033 35.6148 35.0878L35.4813 35.1944V35.4411V35.4738L35.4756 36.2006C36.7669 37.1789 39.1018 38.0679 40.0312 38.0852C38.9156 37.7348 38.4826 37.008 38.3568 36.2812C38.3194 36.0593 38.3062 35.8339 38.3174 35.6092C38.3174 35.5362 38.3251 35.4651 38.3328 35.3951C38.3323 35.3912 38.3323 35.3874 38.3328 35.3835C38.3328 35.3317 38.3443 35.2818 38.3501 35.2328C38.3955 34.8968 38.4799 34.5671 38.6016 34.2506C38.6016 34.2506 39.1777 33.4029 39.9323 33.231C40.5573 33.0899 42.6205 33.5872 44.9996 35.0993C44.9574 34.8152 41.2227 32.654 40.0091 32.6214Z" fill="url(#paint39_linear_759_29377)"/>
<path d="M40.5841 35.617C38.808 37.2117 35.4707 35.4768 35.4707 35.4768C35.4707 35.4768 38.1301 35.5728 39.4954 35.2061C40.8606 34.8393 40.7973 35.4259 40.5841 35.617Z" fill="url(#paint40_linear_759_29377)"/>
<g style="mix-blend-mode:soft-light">
<path d="M40.0484 35.0977C38.4326 35.5671 35.4707 35.4769 35.4707 35.4769L40.0484 35.0977Z" fill="#F7FFFF"/>
</g>
<g style="mix-blend-mode:soft-light">
<path d="M44.1663 35.8448C43.8494 35.5568 42.3959 36.104 41.5884 36.6935C41.1775 36.993 40.9346 37.3051 41.0911 37.5259L41.1871 37.6344L42.2307 37.0583L44.1663 35.8448Z" fill="#F7FFFF"/>
</g>
<path style="mix-blend-mode:multiply" opacity="0.5" d="M38.254 33.8236C35.8451 35.136 35.2297 35.4557 35.6061 35.0909C35.7587 34.9402 38.7408 32.683 39.8612 32.6273C40.227 32.6091 39.3101 33.2485 38.254 33.8236Z" fill="url(#paint41_linear_759_29377)"/>
<g style="mix-blend-mode:multiply" opacity="0.5">
<path d="M42.2325 37.0583L42.1797 37.0381C41.9674 36.9514 41.7683 36.8354 41.5883 36.6934C41.2031 36.3852 40.8648 36.0227 40.584 35.6172C40.584 35.6172 40.031 35.9695 38.7378 35.9446C37.0212 35.911 36.4941 35.6152 35.6713 35.4818H35.6607L35.5829 35.4684C35.5445 35.4616 35.5081 35.454 35.4716 35.4453V35.478L35.4658 36.2047C36.7571 37.1831 39.0921 38.0721 40.0214 38.0894C40.1031 38.0926 40.1849 38.0846 40.2643 38.0654C40.5834 37.9459 40.8928 37.8021 41.1899 37.6353C41.5019 37.4701 41.8619 37.2714 42.2325 37.0583Z" fill="#C10065"/>
</g>
<path d="M41.162 37.6065C40.128 36.4832 35.5052 35.957 35.5052 35.957L34.6843 36.7414C34.9061 38.5569 36.0227 41.1482 36.7399 41.9153C36.8011 41.9843 36.8719 42.0441 36.9501 42.0929C37.6356 42.4895 42.7654 43.9584 43.0668 43.5955C43.278 43.341 42.0866 38.6117 41.162 37.6065Z" fill="url(#paint42_linear_759_29377)"/>
<path style="mix-blend-mode:multiply" opacity="0.5" d="M41.162 37.6065C40.128 36.4832 35.5052 35.957 35.5052 35.957L34.6843 36.7414C34.9061 38.5569 36.0227 41.1482 36.7399 41.9153C35.3189 39.0917 38.7215 37.7428 38.7215 37.7428C38.7215 37.7428 39.4463 37.5306 40.489 38.242C41.0862 38.6491 42.4207 40.48 43.0668 43.5955C43.278 43.341 42.0866 38.6117 41.162 37.6065Z" fill="url(#paint43_linear_759_29377)"/>
<path d="M39.1979 40.1908C36.8121 39.5389 35.2778 36.1738 35.2778 36.1738C35.2778 36.1738 37.294 38.4079 38.6631 39.2231C40.0322 40.0382 39.5099 40.2763 39.1979 40.1908Z" fill="url(#paint44_linear_759_29377)"/>
<g style="mix-blend-mode:soft-light">
<path d="M39.1854 39.586C37.535 38.646 35.2778 36.1738 35.2778 36.1738L39.1854 39.586Z" fill="#F7FFFF"/>
</g>
<g style="mix-blend-mode:soft-light">
<path d="M37.9429 42.4783C38.109 41.5844 42.535 43.6352 41.8197 43.5113C40.4305 43.2694 37.9429 42.4783 37.9429 42.4783Z" fill="#F7FFFF"/>
</g>
<path d="M44.2948 31.7107C44.4868 31.2585 41.8456 26.3486 40.755 24.3545C40.8009 23.6214 40.8009 22.8861 40.755 22.153C41.8456 20.1579 44.3073 15.3018 44.2948 14.7959C44.2948 14.7488 44.3332 13.9596 44.2948 13.8675C44.1086 13.4239 38.5189 11.8455 36.2935 11.233C35.6594 10.5039 34.9689 9.82591 34.2283 9.20529C33.6705 7.16703 31.9904 1.16361 31.5305 0.970633C30.9775 0.739253 23.7816 4.72361 23.3582 4.95883C23.0702 4.94539 22.7745 4.93771 22.4797 4.93771C22.185 4.93771 21.8912 4.94539 21.6003 4.95883C21.1769 4.72361 13.9811 0.739253 13.429 0.970633C12.9682 1.16265 11.289 7.16703 10.7302 9.20529C9.98934 9.82554 9.29849 10.5032 8.66411 11.232C6.43767 11.8446 0.848055 13.4229 0.662759 13.8665C0.623395 13.9625 0.662759 14.7479 0.662759 14.7949C0.648357 15.4545 3.11194 20.157 4.20163 22.152C4.13368 22.8843 4.13368 23.6213 4.20163 24.3535C3.11194 26.3476 0.472662 31.2575 0.662759 31.7097C0.68004 31.7529 0.623395 32.5459 0.662759 32.6381C0.848055 33.0817 6.43767 34.66 8.66411 35.2726C9.29849 36.0014 9.98934 36.6791 10.7302 37.2993C11.289 39.3376 12.9682 45.341 13.429 45.534C13.9811 45.7654 21.1769 41.781 21.6003 41.5458C21.8883 41.5602 22.185 41.5669 22.4797 41.5669C22.7745 41.5669 23.0673 41.5602 23.3582 41.5458C23.7816 41.781 30.9775 45.7654 31.5305 45.534C31.9904 45.342 33.6705 39.3376 34.2283 37.2993C34.9695 36.6791 35.6607 36.0014 36.2954 35.2726C38.5209 34.66 44.1105 33.0817 44.2967 32.6381C44.3351 32.5469 44.2785 31.7539 44.2948 31.7107ZM36.2819 23.2533C36.2827 25.9836 35.4737 28.6529 33.9574 30.9235C32.441 33.194 30.2854 34.9639 27.7631 36.0093C25.2408 37.0547 22.4651 37.3286 19.7871 36.7964C17.1091 36.2642 14.6491 34.9498 12.7182 33.0194C10.7873 31.0891 9.47218 28.6294 8.93923 25.9516C8.40629 23.2737 8.67943 20.498 9.72412 17.9754C10.7688 15.4528 12.5381 13.2967 14.8083 11.7797C17.0784 10.2627 19.7475 9.45299 22.4778 9.45299C26.1386 9.45248 29.6496 10.9061 32.2387 13.4941C34.8278 16.0821 36.2828 19.5925 36.2839 23.2533H36.2819Z" fill="url(#paint45_linear_759_29377)"/>
<path d="M19.3184 41.3062L19.5104 41.3398C18.9745 41.7208 18.4088 42.0579 17.8187 42.3479H17.8101C17.4884 42.5073 17.1716 42.6494 16.8673 42.7761L16.8394 42.7867C15.9665 43.15 15.0617 43.4315 14.1368 43.6277V43.6229C13.477 42.3247 12.9656 40.9562 12.6122 39.5435C12.6117 39.539 12.6117 39.5345 12.6122 39.5301C12.6122 39.5157 12.6054 39.5003 12.6016 39.4859C12.5152 39.1403 12.4461 38.8263 12.3904 38.5508C12.4384 38.5834 12.4864 38.6151 12.5363 38.6468C12.6157 38.6986 12.6954 38.7495 12.7754 38.7994C12.8426 38.8417 12.9088 38.883 12.976 38.9233C14.8623 40.0718 16.9418 40.8675 19.1129 41.2717L19.3184 41.3062Z" fill="url(#paint46_linear_759_29377)"/>
<path d="M19.2368 41.2932C18.2613 41.9327 16.3863 42.9945 14.2923 43.3094C14.2923 43.3094 13.4177 41.9374 12.7764 38.8047C12.8436 38.8469 12.9098 38.8882 12.977 38.9285C14.8633 40.0755 16.9424 40.87 19.1129 41.2731L19.2368 41.2932Z" fill="url(#paint47_linear_759_29377)"/>
<path style="mix-blend-mode:multiply" opacity="0.5" d="M19.3183 41.3068C18.861 41.7099 18.3591 42.0594 17.8225 42.3485H17.8138C17.5073 42.5076 17.1926 42.6506 16.871 42.7767L16.8432 42.7873C15.9619 43.1271 15.059 43.4081 14.1405 43.6283V43.6235C14.0868 43.5275 13.2169 41.9462 12.6198 39.5403C12.6193 39.5358 12.6193 39.5313 12.6198 39.5268C12.6198 39.5124 12.613 39.4971 12.6092 39.4827C12.5569 39.2058 12.535 38.9241 12.5439 38.6426C12.6233 38.6944 12.703 38.7453 12.783 38.7952C12.8502 38.8375 12.9164 38.8788 12.9836 38.9191C13.3312 39.8225 13.9015 41.0889 14.6273 41.9347C14.6273 41.9347 16.7155 42.2899 19.1215 41.2627L19.3183 41.3068Z" fill="url(#paint48_linear_759_29377)"/>
<path d="M32.5693 38.5527C32.5146 38.8283 32.4445 39.1422 32.3581 39.4879C32.3581 39.5023 32.3513 39.5176 32.3475 39.532V39.5455C31.9952 40.9594 31.4848 42.3291 30.8258 43.6287V43.6335C29.9 43.4365 28.9943 43.1546 28.1202 42.7915L28.0962 42.7819C27.7881 42.6542 27.4674 42.5102 27.1419 42.348C26.5529 42.0577 25.9881 41.7206 25.4531 41.3399C25.5184 41.3303 25.5837 41.3187 25.6451 41.3072L25.8496 41.2698C28.0211 40.8669 30.1012 40.0725 31.9884 38.9252C32.0547 38.8849 32.1219 38.8436 32.1881 38.8014C32.2544 38.7592 32.3485 38.7054 32.4281 38.6487C32.4733 38.6171 32.5213 38.5835 32.5693 38.5527Z" fill="url(#paint49_linear_759_29377)"/>
<path d="M32.1843 38.8008C31.5439 41.9335 30.6693 43.3055 30.6693 43.3055C28.5753 42.9935 26.6993 41.9316 25.7239 41.2893L25.8458 41.2663C28.0173 40.8634 30.0974 40.069 31.9846 38.9218C32.0508 38.8843 32.1181 38.843 32.1843 38.8008Z" fill="url(#paint50_linear_759_29377)"/>
<path style="mix-blend-mode:multiply" opacity="0.5" d="M32.3582 39.4885C32.3582 39.5029 32.3515 39.5183 32.3477 39.5327V39.5462C31.7505 41.9521 30.8807 43.5334 30.8259 43.6294V43.6342C29.9065 43.4136 29.0027 43.1324 28.1204 42.7922L28.0964 42.7826C27.7747 42.6563 27.4596 42.5133 27.1527 42.3544L27.1421 42.3486C26.6065 42.0596 26.1056 41.7105 25.6492 41.3079L25.8537 41.2705C28.2606 42.2968 30.3488 41.9425 30.3488 41.9425C31.0746 41.0967 31.6449 39.8303 31.9925 38.9269C32.0587 38.8866 32.1259 38.8453 32.1921 38.803C32.2584 38.7608 32.3525 38.707 32.4322 38.6504C32.4386 38.9316 32.4138 39.2127 32.3582 39.4885Z" fill="url(#paint51_linear_759_29377)"/>
<path d="M19.3184 5.22082L19.5104 5.18817C18.9747 4.80657 18.409 4.46911 17.8187 4.17913L17.8101 4.17432C17.4884 4.01495 17.1716 3.87286 16.8673 3.74709L16.8394 3.73556C15.9665 3.37229 15.0617 3.09074 14.1368 2.89453V2.89933C13.477 4.19855 12.9655 5.56794 12.6122 6.98161C12.6119 6.98609 12.6119 6.99058 12.6122 6.99506C12.6122 7.01042 12.6054 7.02482 12.6016 7.04018C12.5152 7.38485 12.4461 7.6988 12.3904 7.97435C12.4384 7.94266 12.4864 7.91002 12.5363 7.87834C12.6157 7.82649 12.6954 7.77561 12.7754 7.72568C12.8426 7.6844 12.9088 7.64216 12.976 7.60183C14.8629 6.45461 16.9427 5.66017 19.1139 5.2573L19.3184 5.22082Z" fill="url(#paint52_linear_759_29377)"/>
<path d="M19.2365 5.23493C18.2611 4.59551 16.386 3.53366 14.2921 3.21875C14.2921 3.21875 13.4175 4.58975 12.7761 7.72251C12.8433 7.68123 12.9096 7.63898 12.9768 7.59866C14.8636 6.45144 16.9434 5.657 19.1146 5.25413L19.2365 5.23493Z" fill="url(#paint53_linear_759_29377)"/>
<path style="mix-blend-mode:multiply" opacity="0.5" d="M19.3183 5.22082C18.861 4.81775 18.3591 4.46825 17.8225 4.17913L17.8138 4.17432C17.5074 4.01514 17.1927 3.87252 16.871 3.74709L16.8432 3.73556C15.9619 3.39573 15.059 3.11477 14.1405 2.89453V2.89933C14.0868 2.99534 13.2169 4.5766 12.6197 6.98257C12.6194 6.98705 12.6194 6.99154 12.6197 6.99602C12.6197 7.01138 12.613 7.02578 12.6092 7.04114C12.5569 7.31763 12.535 7.59901 12.5439 7.88025C12.6233 7.82841 12.703 7.77753 12.783 7.7276C12.8502 7.68632 12.9164 7.64407 12.9836 7.60375C13.3312 6.70031 13.9015 5.43492 14.6273 4.58812C14.6273 4.58812 16.7155 4.23289 19.1215 5.26018L19.3183 5.22082Z" fill="url(#paint54_linear_759_29377)"/>
<g style="mix-blend-mode:soft-light">
<path d="M17.3924 2.70363C15.5682 2.03157 13.6327 1.42576 13.6327 1.42576C13.0403 2.33976 11.7653 5.61365 11.7058 5.76631C12.3779 3.48994 13.1459 1.09357 13.434 0.972596C13.7018 0.860266 15.5327 1.74066 17.3953 2.70075L17.3924 2.70363Z" fill="#F7FFFF"/>
</g>
<path d="M25.6461 5.22082L25.4541 5.18817C25.9897 4.80657 26.5555 4.46911 27.1458 4.17913L27.1544 4.17432C27.476 4.01495 27.7929 3.87286 28.0972 3.74709L28.1251 3.73556C28.998 3.37229 29.9028 3.09074 30.8277 2.89453V2.89933C31.4863 4.19902 31.9964 5.56873 32.3485 6.98257C32.3488 6.98705 32.3488 6.99154 32.3485 6.99602C32.3485 7.01138 32.3552 7.02578 32.359 7.04114C32.4454 7.38581 32.5146 7.69976 32.5703 7.9753C32.5223 7.94362 32.4742 7.91098 32.4243 7.87929C32.3456 7.82745 32.2649 7.77657 32.1853 7.72664C32.1056 7.67672 32.0518 7.64311 31.9846 7.60279C30.0978 6.45557 28.018 5.66113 25.8468 5.25826L25.6461 5.22082Z" fill="url(#paint55_linear_759_29377)"/>
<path d="M25.7297 5.23493C26.7052 4.59551 28.5812 3.53366 30.6742 3.21875C30.6742 3.21875 31.5488 4.58975 32.1902 7.72251C32.123 7.68123 32.0567 7.63898 31.9895 7.59866C30.1026 6.45144 28.0228 5.657 25.8517 5.25413L25.7297 5.23493Z" fill="url(#paint56_linear_759_29377)"/>
<path style="mix-blend-mode:multiply" opacity="0.5" d="M25.6462 5.22082C26.1037 4.81798 26.6055 4.4685 27.142 4.17913L27.1507 4.17432C27.4571 4.01514 27.7718 3.87252 28.0935 3.74709L28.1213 3.73556C29.0026 3.39573 29.9055 3.11477 30.824 2.89453V2.89933C30.8777 2.99534 31.7476 4.5766 32.3448 6.98257C32.3451 6.98705 32.3451 6.99154 32.3448 6.99602C32.3448 7.01138 32.3515 7.02578 32.3553 7.04114C32.4076 7.31763 32.4295 7.59901 32.4206 7.88025C32.3419 7.82841 32.2612 7.77753 32.1815 7.7276C32.1019 7.67768 32.0481 7.64407 31.9809 7.60375C31.6333 6.70031 31.063 5.43492 30.3372 4.58812C30.3372 4.58812 28.249 4.23289 25.8431 5.26018L25.6462 5.22082Z" fill="url(#paint57_linear_759_29377)"/>
<g style="mix-blend-mode:soft-light">
<path d="M27.5722 2.70363C29.3964 2.03157 31.3319 1.42576 31.3319 1.42576C31.9243 2.33976 33.1993 5.61365 33.2588 5.76631C32.5867 3.48994 31.8187 1.09357 31.5307 0.972596C31.2628 0.860266 29.4319 1.74066 27.5693 2.70075L27.5722 2.70363Z" fill="#F7FFFF"/>
</g>
<path d="M37.3996 12.6564L37.2844 12.4941C37.9328 12.6025 38.5715 12.763 39.194 12.9742H39.2036C39.5435 13.0884 39.869 13.2113 40.1743 13.3371L40.2012 13.3486C41.0755 13.7083 41.915 14.1477 42.7089 14.6611C42.7093 14.6626 42.7093 14.6643 42.7089 14.6659C42.2582 16.0514 41.6524 17.3815 40.903 18.631L40.8953 18.6435L40.8723 18.6819C40.6898 18.9872 40.517 19.2579 40.3615 19.4932C40.35 19.4365 40.3375 19.3789 40.326 19.3232C40.3058 19.2272 40.2857 19.1379 40.2636 19.0458C40.2463 18.969 40.228 18.8922 40.2098 18.8163C39.6842 16.6717 38.7733 14.6405 37.5216 12.8215L37.3996 12.6564Z" fill="url(#paint58_linear_759_29377)"/>
<path d="M37.4485 12.7246C38.59 12.9608 40.6686 13.533 42.3708 14.7917C42.3708 14.7917 42.0223 16.3797 40.2587 19.0506C40.2414 18.9738 40.2231 18.897 40.2049 18.8212C39.6793 16.6766 38.7684 14.6453 37.5167 12.8264L37.4485 12.7246Z" fill="url(#paint59_linear_759_29377)"/>
<path style="mix-blend-mode:multiply" opacity="0.5" d="M37.3997 12.6562C38.0079 12.6942 38.6099 12.8011 39.1941 12.975H39.2037C39.5335 13.0785 39.8575 13.1997 40.1743 13.3379L40.2012 13.3494C41.0652 13.731 41.9029 14.1695 42.7089 14.6619C42.7093 14.6634 42.7093 14.6651 42.7089 14.6667C42.6792 14.7732 42.179 16.5062 40.903 18.6318L40.8953 18.6443L40.8723 18.6827C40.7139 18.9156 40.5307 19.1306 40.326 19.324C40.3058 19.228 40.2857 19.1387 40.2636 19.0466C40.2463 18.9698 40.2281 18.893 40.2098 18.8171C40.6006 17.9319 41.0912 16.6329 41.1699 15.5221C41.1699 15.5221 39.942 13.794 37.5139 12.8223L37.3997 12.6562Z" fill="url(#paint60_linear_759_29377)"/>
<g style="mix-blend-mode:soft-light">
<path d="M40.4736 12.4355C42.1163 13.1777 43.7907 14.0293 43.7907 14.0293C43.591 15.0182 42.3103 18.0117 42.2546 18.1519C43.2876 16.2106 44.3361 14.1282 44.2237 13.8613C44.1191 13.6136 42.3372 13.0078 40.4794 12.4355H40.4736Z" fill="#F7FFFF"/>
</g>
<path d="M37.3996 33.8358C37.3612 33.8905 37.3238 33.9443 37.2844 33.998C37.9328 33.8892 38.5713 33.7287 39.194 33.518H39.2036C39.5435 33.4037 39.869 33.2799 40.1743 33.1541L40.2012 33.1426C41.0755 32.7829 41.915 32.3436 42.7089 31.8302C42.7093 31.8283 42.7093 31.8263 42.7089 31.8244C42.2582 30.4389 41.6524 29.1087 40.903 27.8592L40.8953 27.8477L40.8723 27.8084C40.6898 27.5031 40.517 27.2323 40.3615 26.998C40.35 27.0537 40.3375 27.1113 40.326 27.168C40.3058 27.264 40.2857 27.3533 40.2636 27.4454C40.2463 27.5213 40.228 27.5981 40.2098 27.6739C39.6842 29.8185 38.7733 31.8498 37.5216 33.6687L37.3996 33.8358Z" fill="url(#paint61_linear_759_29377)"/>
<path d="M37.4485 33.7665C38.59 33.5303 40.6686 32.9581 42.3708 31.7003C42.3708 31.7003 42.0223 30.1114 40.2587 27.4414C40.2414 27.5173 40.2231 27.5941 40.2049 27.6699C39.6793 29.8145 38.7684 31.8457 37.5167 33.6647L37.4485 33.7665Z" fill="url(#paint62_linear_759_29377)"/>
<path style="mix-blend-mode:multiply" opacity="0.5" d="M37.3997 33.8358C38.0079 33.7978 38.6098 33.6912 39.1941 33.518H39.2037C39.5335 33.4141 39.8575 33.2926 40.1743 33.1541L40.2012 33.1426C41.0652 32.761 41.9029 32.3225 42.7089 31.8301C42.7093 31.8282 42.7093 31.8263 42.7089 31.8244C42.6792 31.7178 42.179 29.9849 40.903 27.8592L40.8953 27.8477L40.8723 27.8083C40.7141 27.5756 40.5309 27.3608 40.326 27.168C40.3058 27.264 40.2857 27.3533 40.2636 27.4454C40.2463 27.5213 40.2281 27.5981 40.2098 27.6739C40.6006 28.5591 41.0912 29.8581 41.1699 30.9699C41.1699 30.9699 39.942 32.6981 37.5139 33.6687L37.3997 33.8358Z" fill="url(#paint63_linear_759_29377)"/>
<g style="mix-blend-mode:soft-light">
<path d="M40.4736 34.0571C42.1163 33.3149 43.7907 32.4643 43.7907 32.4643C43.591 31.4745 42.3103 28.4809 42.2546 28.3359C43.2876 30.2772 44.3361 32.3597 44.2237 32.6266C44.1191 32.8752 42.3372 33.481 40.4794 34.0523L40.4736 34.0571Z" fill="#F7FFFF"/>
</g>
<path d="M7.47377 12.6564L7.58993 12.4941C6.94117 12.6024 6.30224 12.7629 5.67937 12.9742H5.66976C5.32989 13.0884 5.00539 13.2113 4.70008 13.3371L4.67224 13.3486C3.79812 13.7082 2.95897 14.1475 2.16545 14.6611C2.16523 14.6626 2.16523 14.6643 2.16545 14.6659C2.61649 16.0514 3.22263 17.3816 3.97234 18.631C3.9742 18.6354 3.97645 18.6395 3.97905 18.6435L4.00306 18.6819C4.18547 18.9872 4.35829 19.2579 4.51287 19.4932C4.52439 19.4365 4.53687 19.3789 4.54935 19.3232C4.56855 19.2272 4.58968 19.1379 4.6108 19.0458L4.66552 18.8163C5.19065 16.6716 6.10156 14.6402 7.35376 12.8215L7.47377 12.6564Z" fill="url(#paint64_linear_759_29377)"/>
<path d="M7.42773 12.7246C6.28619 12.9608 4.2076 13.533 2.50537 14.7917C2.50537 14.7917 2.85484 16.3797 4.61756 19.0506L4.67229 18.8212C5.19742 16.6764 6.10833 14.6451 7.36053 12.8264L7.42773 12.7246Z" fill="url(#paint65_linear_759_29377)"/>
<path style="mix-blend-mode:multiply" opacity="0.5" d="M7.47377 12.6562C6.86549 12.6942 6.26349 12.8011 5.67937 12.975H5.66976C5.34033 13.0787 5.01665 13.1998 4.70008 13.3379L4.67224 13.3494C3.80867 13.7312 2.97124 14.1697 2.16545 14.6619C2.16523 14.6635 2.16523 14.6651 2.16545 14.6667C2.19521 14.7732 2.69542 16.5062 3.97234 18.6318C3.9742 18.6362 3.97645 18.6404 3.97905 18.6443L4.00306 18.6827C4.16114 18.9158 4.34434 19.1309 4.54935 19.324C4.56855 19.228 4.58968 19.1387 4.6108 19.0466L4.66552 18.8171C4.2738 17.9319 3.7832 16.6329 3.70543 15.5221C3.70543 15.5221 4.93243 13.794 7.36048 12.8223L7.47377 12.6562Z" fill="url(#paint66_linear_759_29377)"/>
<g style="mix-blend-mode:soft-light">
<path d="M4.39948 12.4355C2.75773 13.1777 1.08239 14.0293 1.08239 14.0293C1.28305 15.0182 2.56284 18.0117 2.61853 18.1519C1.58451 16.2106 0.536098 14.1282 0.648428 13.8613C0.753077 13.6136 2.53596 13.0078 4.39276 12.4355H4.39948Z" fill="#F7FFFF"/>
</g>
<path d="M7.47376 33.8358C7.51216 33.8905 7.55056 33.9443 7.58992 33.998C6.94126 33.8894 6.30236 33.7288 5.67936 33.518H5.66975C5.32988 33.4037 5.00537 33.2799 4.70007 33.1541L4.67223 33.1426C3.79811 32.783 2.95896 32.3437 2.16544 31.8302C2.16523 31.8282 2.16523 31.8263 2.16544 31.8244C2.61647 30.4388 3.22262 29.1087 3.97233 27.8592C3.9742 27.8552 3.97645 27.8513 3.97904 27.8477L4.00304 27.8084C4.18546 27.5031 4.35828 27.2323 4.51285 26.998C4.52438 27.0537 4.53686 27.1113 4.54934 27.168C4.56854 27.264 4.58966 27.3533 4.61079 27.4454L4.6655 27.6739C5.19064 29.8187 6.10155 31.85 7.35374 33.6687L7.47376 33.8358Z" fill="url(#paint67_linear_759_29377)"/>
<path d="M7.42773 33.7665C6.28619 33.5303 4.2076 32.9581 2.50537 31.7003C2.50537 31.7003 2.85484 30.1114 4.61756 27.4414L4.67229 27.6699C5.19742 29.8147 6.10833 31.846 7.36053 33.6647L7.42773 33.7665Z" fill="url(#paint68_linear_759_29377)"/>
<path style="mix-blend-mode:multiply" opacity="0.5" d="M7.47375 33.8356C6.86556 33.7977 6.26361 33.6911 5.67936 33.5178H5.66975C5.34031 33.4138 5.01663 33.2923 4.70007 33.154L4.67223 33.1424C3.80866 32.7606 2.97123 32.3222 2.16544 31.83C2.16523 31.8281 2.16523 31.8262 2.16544 31.8243C2.1952 31.7177 2.69541 29.9847 3.97233 27.8591C3.9742 27.8551 3.97645 27.8512 3.97904 27.8476L4.00304 27.8082C4.15985 27.5726 4.34244 27.3553 4.54742 27.1602C4.56662 27.2562 4.58774 27.3455 4.60886 27.4376L4.66358 27.6661C4.27187 28.5513 3.78126 29.8503 3.7035 30.9621C3.7035 30.9621 4.93049 32.6903 7.35855 33.6609L7.47375 33.8356Z" fill="url(#paint69_linear_759_29377)"/>
<g style="mix-blend-mode:soft-light">
<path d="M4.39948 34.0571C2.75773 33.3149 1.08239 32.4643 1.08239 32.4643C1.28305 31.4745 2.56284 28.4809 2.61853 28.3359C1.58451 30.2772 0.536098 32.3597 0.648428 32.6266C0.753077 32.8752 2.53596 33.481 4.39276 34.0523L4.39948 34.0571Z" fill="#F7FFFF"/>
</g>
<g style="mix-blend-mode:multiply" opacity="0.5">
<path d="M39.5079 29.9922C38.1926 33.3109 35.9363 36.173 33.0162 38.2266C30.0962 40.2801 26.6396 41.4356 23.0716 41.5509C19.5037 41.6663 15.9797 40.7365 12.9331 38.8759C9.88645 37.0153 7.44994 34.3049 5.9231 31.078C12.6725 37.2975 26.395 43.106 39.5079 29.9922Z" fill="#C10065"/>
</g>
<g style="mix-blend-mode:multiply" opacity="0.5">
<path d="M38.4229 34.6765C37.5963 34.9137 36.8436 35.123 36.2954 35.2737C35.6607 36.0025 34.9695 36.6802 34.2283 37.3004C34.0689 37.8842 33.8174 38.7914 33.5284 39.7966C31.3864 41.3261 28.8931 42.5415 26.4238 43.2078C24.8751 42.3879 23.5339 41.6458 23.3573 41.5478C23.0667 41.5626 22.7738 41.5696 22.4788 41.569C22.1831 41.569 21.8912 41.5622 21.5993 41.5488C21.4208 41.6448 20.0421 42.4129 18.4647 43.2443C15.944 42.5975 13.57 41.4752 11.4704 39.9378C11.1651 38.8817 10.8944 37.912 10.7292 37.3014C9.98837 36.6811 9.29753 36.0035 8.66314 35.2746C8.20422 35.1489 7.60705 34.9866 6.93499 34.7946C6.34156 33.6414 5.9962 32.3767 5.92114 31.082C10.783 39.1217 27.0968 48.6947 39.5059 29.9961C39.743 31.5284 39.3158 33.1308 38.4229 34.6765Z" fill="#C10065"/>
</g>
<g style="mix-blend-mode:soft-light">
<path d="M22.4799 4.93945C18.5401 4.93983 14.7054 6.21033 11.5448 8.56242C8.38416 10.9145 6.06603 14.2229 4.93433 17.9966C7.93075 11.372 14.7349 8.18166 22.4799 8.18166C30.9286 8.18166 37.9555 12.2438 40.4738 19.8457C38.8791 11.3595 31.4298 4.93945 22.4799 4.93945Z" fill="#F7FFFF"/>
</g>
<path d="M22.4798 8.18164C19.4999 8.18259 16.5872 9.06703 14.1099 10.7231C11.6327 12.3793 9.70203 14.7327 8.56213 17.4859C7.42222 20.2391 7.12422 23.2685 7.7058 26.1911C8.28737 29.1137 9.72241 31.7982 11.8295 33.9053C13.9366 36.0123 16.6211 37.4474 19.5437 38.029C22.4662 38.6105 25.4956 38.3125 28.2488 37.1726C31.002 36.0327 33.3555 34.1021 35.0116 31.6248C36.6677 29.1475 37.5522 26.2348 37.5531 23.255C37.5531 21.2755 37.1632 19.3154 36.4057 17.4867C35.6482 15.6579 34.5379 13.9962 33.1382 12.5965C31.7385 11.1968 30.0769 10.0865 28.2481 9.32903C26.4193 8.57153 24.4592 8.18164 22.4798 8.18164ZM22.4798 37.0543C19.7493 37.0545 17.0801 36.245 14.8097 34.7281C12.5393 33.2113 10.7698 31.0552 9.72476 28.5326C8.67977 26.0101 8.40631 23.2342 8.93895 20.5562C9.47159 17.8782 10.7864 15.4183 12.7171 13.4876C14.6479 11.5568 17.1078 10.242 19.7858 9.70937C22.4638 9.17673 25.2396 9.45019 27.7622 10.4952C30.2848 11.5402 32.4409 13.3098 33.9577 15.5801C35.4746 17.8505 36.2841 20.5197 36.2839 23.2502C36.2839 26.9113 34.8295 30.4224 32.2407 33.0112C29.652 35.5999 26.1408 37.0543 22.4798 37.0543Z" fill="url(#paint70_linear_759_29377)"/>
<g style="mix-blend-mode:soft-light">
<path d="M10.3511 32.1934C10.3511 32.1934 14.3834 37.0543 22.4798 37.0543C30.5762 37.0543 34.6076 32.1934 34.6076 32.1934C34.6076 32.1934 30.6713 38.5376 22.4798 38.5376C14.2884 38.5376 10.3511 32.1934 10.3511 32.1934Z" fill="#F7FFFF"/>
</g>
<path d="M10.3511 32.1934C10.3511 32.1934 14.3892 38.3177 22.4798 38.3177C30.5705 38.3177 34.6076 32.1934 34.6076 32.1934C34.6076 32.1934 30.6713 38.5376 22.4798 38.5376C14.2884 38.5376 10.3511 32.1934 10.3511 32.1934Z" fill="url(#paint71_linear_759_29377)"/>
<path d="M22.4798 6.69273C21.8807 7.4608 26.661 8.72811 27.2332 8.18182C27.8054 7.63553 27.2678 6.82714 26.1886 6.69273C25.1095 6.55832 22.9503 6.08596 22.4798 6.69273Z" fill="#F7FFFF"/>
<path d="M21.4132 38.5002C21.0657 37.855 24.8321 37.205 25.3611 37.6774C25.8901 38.1497 24.9473 38.3369 24.9473 38.3369L21.4132 38.5002Z" fill="#F7FFFF"/>
<path d="M44.2949 14.7965C44.3084 15.3024 41.8457 20.1585 40.7551 22.1536L40.6812 20.966C40.6812 20.966 43.7813 16.1454 44.2181 13.8613L44.3141 14.0533C44.318 14.3154 44.2949 14.7609 44.2949 14.7965Z" fill="#680A0A"/>
<path d="M44.2949 32.6401C44.282 32.6663 44.2629 32.689 44.2392 32.7063C44.2316 32.6823 44.2248 32.6573 44.2181 32.6324C43.475 29.9201 40.6812 25.5345 40.6812 25.5345L40.7551 24.3555C41.8457 26.3496 44.485 31.2594 44.2949 31.7126C44.2786 31.7548 44.3362 32.5488 44.2949 32.6401Z" fill="url(#paint72_linear_759_29377)"/>
<path d="M4.20279 24.3555V25.7198C4.20279 25.7198 2.03779 28.8179 0.657191 32.6208C0.629349 32.4701 0.680239 31.7568 0.662958 31.7116C0.472861 31.2594 3.11214 26.3496 4.20279 24.3555Z" fill="url(#paint73_linear_759_29377)"/>
<path d="M4.20272 20.7147V22.1548C3.11206 20.1598 0.650401 15.4573 0.662882 14.7977C0.662882 14.7516 0.625438 13.9989 0.662882 13.877C2.24318 18.2876 4.20272 20.7147 4.20272 20.7147Z" fill="#680A0A"/>
<path d="M20.7864 41.4824L21.6005 41.5477C21.1771 41.782 13.9822 45.7663 13.4292 45.5349C13.2948 45.4783 13.0586 44.931 12.7764 44.1332C12.8081 44.1985 13.3131 45.2354 13.5819 45.2354C13.8507 45.2354 20.7864 41.4824 20.7864 41.4824Z" fill="#680A0A"/>
<path d="M32.1816 44.1396C31.9003 44.9346 31.6641 45.4789 31.5306 45.5356C30.9776 45.767 23.7828 41.7826 23.3584 41.5474L24.379 41.4629C24.379 41.4629 29.2284 44.5025 31.2023 45.1112C31.7025 45.2639 32.1432 44.2299 32.1816 44.1396Z" fill="#680A0A"/>
<defs>
<linearGradient id="paint0_linear_759_29377" x1="7.6504" y1="4.7778" x2="13.1363" y2="4.7778" gradientUnits="userSpaceOnUse">
<stop stop-color="#E5552F"/>
<stop offset="0.14" stop-color="#E75A34"/>
<stop offset="0.3" stop-color="#ED6843"/>
<stop offset="0.48" stop-color="#F77E5B"/>
<stop offset="0.49" stop-color="#F77F5C"/>
<stop offset="1" stop-color="#F7A66C"/>
</linearGradient>
<linearGradient id="paint1_linear_759_29377" x1="7.6504" y1="4.77838" x2="13.1363" y2="4.77838" gradientUnits="userSpaceOnUse">
<stop stop-color="#B01B03"/>
<stop offset="0.18" stop-color="#B11E06"/>
<stop offset="0.31" stop-color="#B4260F"/>
<stop offset="0.43" stop-color="#B83520"/>
<stop offset="0.54" stop-color="#BE4936"/>
<stop offset="0.64" stop-color="#C76454"/>
<stop offset="0.74" stop-color="#D18578"/>
<stop offset="0.84" stop-color="#DDACA3"/>
<stop offset="0.93" stop-color="#EBD7D3"/>
<stop offset="1" stop-color="#F7FFFF"/>
</linearGradient>
<linearGradient id="paint2_linear_759_29377" x1="12.9986" y1="1.31145" x2="12.8652" y2="5.935" gradientUnits="userSpaceOnUse">
<stop stop-color="#E84E1A"/>
<stop offset="0.51" stop-color="#D74348"/>
<stop offset="1" stop-color="#C62C15"/>
</linearGradient>
<linearGradient id="paint3_linear_759_29377" x1="7.657" y1="7.30254" x2="10.302" y2="7.30254" gradientUnits="userSpaceOnUse">
<stop stop-color="#B01B03"/>
<stop offset="0.18" stop-color="#B11E06"/>
<stop offset="0.31" stop-color="#B4260F"/>
<stop offset="0.43" stop-color="#B83520"/>
<stop offset="0.54" stop-color="#BE4936"/>
<stop offset="0.64" stop-color="#C76454"/>
<stop offset="0.74" stop-color="#D18578"/>
<stop offset="0.84" stop-color="#DDACA3"/>
<stop offset="0.93" stop-color="#EBD7D3"/>
<stop offset="1" stop-color="#F7FFFF"/>
</linearGradient>
<linearGradient id="paint4_linear_759_29377" x1="0.00519145" y1="11.0691" x2="9.5302" y2="11.0691" gradientUnits="userSpaceOnUse">
<stop stop-color="#E5552F"/>
<stop offset="0.14" stop-color="#E75A34"/>
<stop offset="0.3" stop-color="#ED6843"/>
<stop offset="0.48" stop-color="#F77E5B"/>
<stop offset="0.49" stop-color="#F77F5C"/>
<stop offset="1" stop-color="#F7A66C"/>
</linearGradient>
<linearGradient id="paint5_linear_759_29377" x1="0.00528871" y1="11.0684" x2="9.53029" y2="11.0684" gradientUnits="userSpaceOnUse">
<stop stop-color="#B01B03"/>
<stop offset="0.18" stop-color="#B11E06"/>
<stop offset="0.31" stop-color="#B4260F"/>
<stop offset="0.43" stop-color="#B83520"/>
<stop offset="0.54" stop-color="#BE4936"/>
<stop offset="0.64" stop-color="#C76454"/>
<stop offset="0.74" stop-color="#D18578"/>
<stop offset="0.84" stop-color="#DDACA3"/>
<stop offset="0.93" stop-color="#EBD7D3"/>
<stop offset="1" stop-color="#F7FFFF"/>
</linearGradient>
<linearGradient id="paint6_linear_759_29377" x1="4.46817" y1="10.2576" x2="9.11797" y2="9.93276" gradientUnits="userSpaceOnUse">
<stop stop-color="#E84E1A"/>
<stop offset="0.51" stop-color="#D74348"/>
<stop offset="1" stop-color="#C62C15"/>
</linearGradient>
<linearGradient id="paint7_linear_759_29377" x1="5.05148" y1="12.4932" x2="9.49092" y2="12.4932" gradientUnits="userSpaceOnUse">
<stop stop-color="#B01B03"/>
<stop offset="0.18" stop-color="#B11E06"/>
<stop offset="0.31" stop-color="#B4260F"/>
<stop offset="0.43" stop-color="#B83520"/>
<stop offset="0.54" stop-color="#BE4936"/>
<stop offset="0.64" stop-color="#C76454"/>
<stop offset="0.74" stop-color="#D18578"/>
<stop offset="0.84" stop-color="#DDACA3"/>
<stop offset="0.93" stop-color="#EBD7D3"/>
<stop offset="1" stop-color="#F7FFFF"/>
</linearGradient>
<linearGradient id="paint8_linear_759_29377" x1="8.40117" y1="11.1805" x2="4.8623" y2="4.30434" gradientUnits="userSpaceOnUse">
<stop stop-color="#E5552F"/>
<stop offset="0.14" stop-color="#E75A34"/>
<stop offset="0.3" stop-color="#ED6843"/>
<stop offset="0.48" stop-color="#F77E5B"/>
<stop offset="0.49" stop-color="#F77F5C"/>
<stop offset="1" stop-color="#F7A66C"/>
</linearGradient>
<linearGradient id="paint9_linear_759_29377" x1="1.90331" y1="6.64645" x2="10.3108" y2="6.64645" gradientUnits="userSpaceOnUse">
<stop stop-color="#B01B03"/>
<stop offset="0.18" stop-color="#B11E06"/>
<stop offset="0.31" stop-color="#B4260F"/>
<stop offset="0.43" stop-color="#B83520"/>
<stop offset="0.54" stop-color="#BE4936"/>
<stop offset="0.64" stop-color="#C76454"/>
<stop offset="0.74" stop-color="#D18578"/>
<stop offset="0.84" stop-color="#DDACA3"/>
<stop offset="0.93" stop-color="#EBD7D3"/>
<stop offset="1" stop-color="#F7FFFF"/>
</linearGradient>
<linearGradient id="paint10_linear_759_29377" x1="7.31212" y1="7.21826" x2="11.169" y2="10.7106" gradientUnits="userSpaceOnUse">
<stop stop-color="#E84E1A"/>
<stop offset="0.51" stop-color="#D74348"/>
<stop offset="1" stop-color="#C62C15"/>
</linearGradient>
<linearGradient id="paint11_linear_759_29377" x1="31.8579" y1="4.7778" x2="37.3448" y2="4.7778" gradientUnits="userSpaceOnUse">
<stop stop-color="#E5552F"/>
<stop offset="0.14" stop-color="#E75A34"/>
<stop offset="0.3" stop-color="#ED6843"/>
<stop offset="0.48" stop-color="#F77E5B"/>
<stop offset="0.49" stop-color="#F77F5C"/>
<stop offset="1" stop-color="#F7A66C"/>
</linearGradient>
<linearGradient id="paint12_linear_759_29377" x1="31.858" y1="4.77838" x2="37.3449" y2="4.77838" gradientUnits="userSpaceOnUse">
<stop stop-color="#B01B03"/>
<stop offset="0.18" stop-color="#B11E06"/>
<stop offset="0.31" stop-color="#B4260F"/>
<stop offset="0.43" stop-color="#B83520"/>
<stop offset="0.54" stop-color="#BE4936"/>
<stop offset="0.64" stop-color="#C76454"/>
<stop offset="0.74" stop-color="#D18578"/>
<stop offset="0.84" stop-color="#DDACA3"/>
<stop offset="0.93" stop-color="#EBD7D3"/>
<stop offset="1" stop-color="#F7FFFF"/>
</linearGradient>
<linearGradient id="paint13_linear_759_29377" x1="34.3244" y1="4.54478" x2="34.4833" y2="9.15439" gradientUnits="userSpaceOnUse">
<stop stop-color="#E84E1A"/>
<stop offset="0.51" stop-color="#D74348"/>
<stop offset="1" stop-color="#C62C15"/>
</linearGradient>
<linearGradient id="paint14_linear_759_29377" x1="34.6921" y1="7.30254" x2="37.3381" y2="7.30254" gradientUnits="userSpaceOnUse">
<stop stop-color="#B01B03"/>
<stop offset="0.18" stop-color="#B11E06"/>
<stop offset="0.31" stop-color="#B4260F"/>
<stop offset="0.43" stop-color="#B83520"/>
<stop offset="0.54" stop-color="#BE4936"/>
<stop offset="0.64" stop-color="#C76454"/>
<stop offset="0.74" stop-color="#D18578"/>
<stop offset="0.84" stop-color="#DDACA3"/>
<stop offset="0.93" stop-color="#EBD7D3"/>
<stop offset="1" stop-color="#F7FFFF"/>
</linearGradient>
<linearGradient id="paint15_linear_759_29377" x1="35.4641" y1="11.0691" x2="44.99" y2="11.0691" gradientUnits="userSpaceOnUse">
<stop stop-color="#E5552F"/>
<stop offset="0.14" stop-color="#E75A34"/>
<stop offset="0.3" stop-color="#ED6843"/>
<stop offset="0.48" stop-color="#F77E5B"/>
<stop offset="0.49" stop-color="#F77F5C"/>
<stop offset="1" stop-color="#F7A66C"/>
</linearGradient>
<linearGradient id="paint16_linear_759_29377" x1="35.4641" y1="11.0684" x2="44.9891" y2="11.0684" gradientUnits="userSpaceOnUse">
<stop stop-color="#B01B03"/>
<stop offset="0.18" stop-color="#B11E06"/>
<stop offset="0.31" stop-color="#B4260F"/>
<stop offset="0.43" stop-color="#B83520"/>
<stop offset="0.54" stop-color="#BE4936"/>
<stop offset="0.64" stop-color="#C76454"/>
<stop offset="0.74" stop-color="#D18578"/>
<stop offset="0.84" stop-color="#DDACA3"/>
<stop offset="0.93" stop-color="#EBD7D3"/>
<stop offset="1" stop-color="#F7FFFF"/>
</linearGradient>
<linearGradient id="paint17_linear_759_29377" x1="40.1453" y1="10.762" x2="35.4867" y2="10.456" gradientUnits="userSpaceOnUse">
<stop stop-color="#E84E1A"/>
<stop offset="0.51" stop-color="#D74348"/>
<stop offset="1" stop-color="#C62C15"/>
</linearGradient>
<linearGradient id="paint18_linear_759_29377" x1="35.5043" y1="12.4932" x2="39.9428" y2="12.4932" gradientUnits="userSpaceOnUse">
<stop stop-color="#B01B03"/>
<stop offset="0.18" stop-color="#B11E06"/>
<stop offset="0.31" stop-color="#B4260F"/>
<stop offset="0.43" stop-color="#B83520"/>
<stop offset="0.54" stop-color="#BE4936"/>
<stop offset="0.64" stop-color="#C76454"/>
<stop offset="0.74" stop-color="#D18578"/>
<stop offset="0.84" stop-color="#DDACA3"/>
<stop offset="0.93" stop-color="#EBD7D3"/>
<stop offset="1" stop-color="#F7FFFF"/>
</linearGradient>
<linearGradient id="paint19_linear_759_29377" x1="39.4003" y1="13.4933" x2="38.8953" y2="6.41461" gradientUnits="userSpaceOnUse">
<stop stop-color="#E5552F"/>
<stop offset="0.14" stop-color="#E75A34"/>
<stop offset="0.3" stop-color="#ED6843"/>
<stop offset="0.48" stop-color="#F77E5B"/>
<stop offset="0.49" stop-color="#F77F5C"/>
<stop offset="1" stop-color="#F7A66C"/>
</linearGradient>
<linearGradient id="paint20_linear_759_29377" x1="34.6843" y1="6.64645" x2="43.0908" y2="6.64645" gradientUnits="userSpaceOnUse">
<stop stop-color="#B01B03"/>
<stop offset="0.18" stop-color="#B11E06"/>
<stop offset="0.31" stop-color="#B4260F"/>
<stop offset="0.43" stop-color="#B83520"/>
<stop offset="0.54" stop-color="#BE4936"/>
<stop offset="0.64" stop-color="#C76454"/>
<stop offset="0.74" stop-color="#D18578"/>
<stop offset="0.84" stop-color="#DDACA3"/>
<stop offset="0.93" stop-color="#EBD7D3"/>
<stop offset="1" stop-color="#F7FFFF"/>
</linearGradient>
<linearGradient id="paint21_linear_759_29377" x1="38.9259" y1="6.5139" x2="35.0746" y2="9.99345" gradientUnits="userSpaceOnUse">
<stop stop-color="#E84E1A"/>
<stop offset="0.51" stop-color="#D74348"/>
<stop offset="1" stop-color="#C62C15"/>
</linearGradient>
<linearGradient id="paint22_linear_759_29377" x1="7.65039" y1="41.6447" x2="13.1363" y2="41.6447" gradientUnits="userSpaceOnUse">
<stop stop-color="#E5552F"/>
<stop offset="0.14" stop-color="#E75A34"/>
<stop offset="0.3" stop-color="#ED6843"/>
<stop offset="0.48" stop-color="#F77E5B"/>
<stop offset="0.49" stop-color="#F77F5C"/>
<stop offset="1" stop-color="#F7A66C"/>
</linearGradient>
<linearGradient id="paint23_linear_759_29377" x1="7.65039" y1="41.6447" x2="13.1363" y2="41.6447" gradientUnits="userSpaceOnUse">
<stop stop-color="#B01B03"/>
<stop offset="0.18" stop-color="#B11E06"/>
<stop offset="0.31" stop-color="#B4260F"/>
<stop offset="0.43" stop-color="#B83520"/>
<stop offset="0.54" stop-color="#BE4936"/>
<stop offset="0.64" stop-color="#C76454"/>
<stop offset="0.74" stop-color="#D18578"/>
<stop offset="0.84" stop-color="#DDACA3"/>
<stop offset="0.93" stop-color="#EBD7D3"/>
<stop offset="1" stop-color="#F7FFFF"/>
</linearGradient>
<linearGradient id="paint24_linear_759_29377" x1="10.6212" y1="41.9573" x2="10.4626" y2="37.3486" gradientUnits="userSpaceOnUse">
<stop stop-color="#E84E1A"/>
<stop offset="0.51" stop-color="#D74348"/>
<stop offset="1" stop-color="#C62C15"/>
</linearGradient>
<linearGradient id="paint25_linear_759_29377" x1="7.657" y1="39.1218" x2="10.302" y2="39.1218" gradientUnits="userSpaceOnUse">
<stop stop-color="#B01B03"/>
<stop offset="0.18" stop-color="#B11E06"/>
<stop offset="0.31" stop-color="#B4260F"/>
<stop offset="0.43" stop-color="#B83520"/>
<stop offset="0.54" stop-color="#BE4936"/>
<stop offset="0.64" stop-color="#C76454"/>
<stop offset="0.74" stop-color="#D18578"/>
<stop offset="0.84" stop-color="#DDACA3"/>
<stop offset="0.93" stop-color="#EBD7D3"/>
<stop offset="1" stop-color="#F7FFFF"/>
</linearGradient>
<linearGradient id="paint26_linear_759_29377" x1="0.00519145" y1="35.3557" x2="9.5302" y2="35.3557" gradientUnits="userSpaceOnUse">
<stop stop-color="#E5552F"/>
<stop offset="0.14" stop-color="#E75A34"/>
<stop offset="0.3" stop-color="#ED6843"/>
<stop offset="0.48" stop-color="#F77E5B"/>
<stop offset="0.49" stop-color="#F77F5C"/>
<stop offset="1" stop-color="#F7A66C"/>
</linearGradient>
<linearGradient id="paint27_linear_759_29377" x1="0.00528871" y1="35.3547" x2="9.53029" y2="35.3547" gradientUnits="userSpaceOnUse">
<stop stop-color="#B01B03"/>
<stop offset="0.18" stop-color="#B11E06"/>
<stop offset="0.31" stop-color="#B4260F"/>
<stop offset="0.43" stop-color="#B83520"/>
<stop offset="0.54" stop-color="#BE4936"/>
<stop offset="0.64" stop-color="#C76454"/>
<stop offset="0.74" stop-color="#D18578"/>
<stop offset="0.84" stop-color="#DDACA3"/>
<stop offset="0.93" stop-color="#EBD7D3"/>
<stop offset="1" stop-color="#F7FFFF"/>
</linearGradient>
<linearGradient id="paint28_linear_759_29377" x1="4.84736" y1="35.61" x2="9.50669" y2="35.9153" gradientUnits="userSpaceOnUse">
<stop stop-color="#E84E1A"/>
<stop offset="0.51" stop-color="#D74348"/>
<stop offset="1" stop-color="#C62C15"/>
</linearGradient>
<linearGradient id="paint29_linear_759_29377" x1="5.05148" y1="33.9292" x2="9.49092" y2="33.9292" gradientUnits="userSpaceOnUse">
<stop stop-color="#B01B03"/>
<stop offset="0.18" stop-color="#B11E06"/>
<stop offset="0.31" stop-color="#B4260F"/>
<stop offset="0.43" stop-color="#B83520"/>
<stop offset="0.54" stop-color="#BE4936"/>
<stop offset="0.64" stop-color="#C76454"/>
<stop offset="0.74" stop-color="#D18578"/>
<stop offset="0.84" stop-color="#DDACA3"/>
<stop offset="0.93" stop-color="#EBD7D3"/>
<stop offset="1" stop-color="#F7FFFF"/>
</linearGradient>
<linearGradient id="paint30_linear_759_29377" x1="9.86429" y1="42.3762" x2="1.9023" y2="37.4" gradientUnits="userSpaceOnUse">
<stop stop-color="#E5552F"/>
<stop offset="0.14" stop-color="#E75A34"/>
<stop offset="0.3" stop-color="#ED6843"/>
<stop offset="0.48" stop-color="#F77E5B"/>
<stop offset="0.49" stop-color="#F77F5C"/>
<stop offset="1" stop-color="#F7A66C"/>
</linearGradient>
<linearGradient id="paint31_linear_759_29377" x1="1.90325" y1="39.7763" x2="10.3107" y2="39.7763" gradientUnits="userSpaceOnUse">
<stop stop-color="#B01B03"/>
<stop offset="0.18" stop-color="#B11E06"/>
<stop offset="0.31" stop-color="#B4260F"/>
<stop offset="0.43" stop-color="#B83520"/>
<stop offset="0.54" stop-color="#BE4936"/>
<stop offset="0.64" stop-color="#C76454"/>
<stop offset="0.74" stop-color="#D18578"/>
<stop offset="0.84" stop-color="#DDACA3"/>
<stop offset="0.93" stop-color="#EBD7D3"/>
<stop offset="1" stop-color="#F7FFFF"/>
</linearGradient>
<linearGradient id="paint32_linear_759_29377" x1="6.11037" y1="39.9366" x2="9.9617" y2="36.4571" gradientUnits="userSpaceOnUse">
<stop stop-color="#E84E1A"/>
<stop offset="0.51" stop-color="#D74348"/>
<stop offset="1" stop-color="#C62C15"/>
</linearGradient>
<linearGradient id="paint33_linear_759_29377" x1="31.8579" y1="41.6447" x2="37.3448" y2="41.6447" gradientUnits="userSpaceOnUse">
<stop stop-color="#E5552F"/>
<stop offset="0.14" stop-color="#E75A34"/>
<stop offset="0.3" stop-color="#ED6843"/>
<stop offset="0.48" stop-color="#F77E5B"/>
<stop offset="0.49" stop-color="#F77F5C"/>
<stop offset="1" stop-color="#F7A66C"/>
</linearGradient>
<linearGradient id="paint34_linear_759_29377" x1="31.858" y1="41.6447" x2="37.3449" y2="41.6447" gradientUnits="userSpaceOnUse">
<stop stop-color="#B01B03"/>
<stop offset="0.18" stop-color="#B11E06"/>
<stop offset="0.31" stop-color="#B4260F"/>
<stop offset="0.43" stop-color="#B83520"/>
<stop offset="0.54" stop-color="#BE4936"/>
<stop offset="0.64" stop-color="#C76454"/>
<stop offset="0.74" stop-color="#D18578"/>
<stop offset="0.84" stop-color="#DDACA3"/>
<stop offset="0.93" stop-color="#EBD7D3"/>
<stop offset="1" stop-color="#F7FFFF"/>
</linearGradient>
<linearGradient id="paint35_linear_759_29377" x1="40.1654" y1="42.8721" x2="40.2986" y2="38.2495" gradientUnits="userSpaceOnUse">
<stop stop-color="#E84E1A"/>
<stop offset="0.51" stop-color="#D74348"/>
<stop offset="1" stop-color="#C62C15"/>
</linearGradient>
<linearGradient id="paint36_linear_759_29377" x1="34.6921" y1="39.1218" x2="37.3381" y2="39.1218" gradientUnits="userSpaceOnUse">
<stop stop-color="#B01B03"/>
<stop offset="0.18" stop-color="#B11E06"/>
<stop offset="0.31" stop-color="#B4260F"/>
<stop offset="0.43" stop-color="#B83520"/>
<stop offset="0.54" stop-color="#BE4936"/>
<stop offset="0.64" stop-color="#C76454"/>
<stop offset="0.74" stop-color="#D18578"/>
<stop offset="0.84" stop-color="#DDACA3"/>
<stop offset="0.93" stop-color="#EBD7D3"/>
<stop offset="1" stop-color="#F7FFFF"/>
</linearGradient>
<linearGradient id="paint37_linear_759_29377" x1="34.7737" y1="40.0925" x2="37.3448" y2="40.0925" gradientUnits="userSpaceOnUse">
<stop stop-color="#B01B03"/>
<stop offset="0.18" stop-color="#B11E06"/>
<stop offset="0.31" stop-color="#B4260F"/>
<stop offset="0.43" stop-color="#B83520"/>
<stop offset="0.54" stop-color="#BE4936"/>
<stop offset="0.64" stop-color="#C76454"/>
<stop offset="0.74" stop-color="#D18578"/>
<stop offset="0.84" stop-color="#DDACA3"/>
<stop offset="0.93" stop-color="#EBD7D3"/>
<stop offset="1" stop-color="#F7FFFF"/>
</linearGradient>
<linearGradient id="paint38_linear_759_29377" x1="35.4641" y1="35.3557" x2="44.99" y2="35.3557" gradientUnits="userSpaceOnUse">
<stop stop-color="#E5552F"/>
<stop offset="0.14" stop-color="#E75A34"/>
<stop offset="0.3" stop-color="#ED6843"/>
<stop offset="0.48" stop-color="#F77E5B"/>
<stop offset="0.49" stop-color="#F77F5C"/>
<stop offset="1" stop-color="#F7A66C"/>
</linearGradient>
<linearGradient id="paint39_linear_759_29377" x1="35.4641" y1="35.3547" x2="44.9891" y2="35.3547" gradientUnits="userSpaceOnUse">
<stop stop-color="#B01B03"/>
<stop offset="0.18" stop-color="#B11E06"/>
<stop offset="0.31" stop-color="#B4260F"/>
<stop offset="0.43" stop-color="#B83520"/>
<stop offset="0.54" stop-color="#BE4936"/>
<stop offset="0.64" stop-color="#C76454"/>
<stop offset="0.74" stop-color="#D18578"/>
<stop offset="0.84" stop-color="#DDACA3"/>
<stop offset="0.93" stop-color="#EBD7D3"/>
<stop offset="1" stop-color="#F7FFFF"/>
</linearGradient>
<linearGradient id="paint40_linear_759_29377" x1="43.1864" y1="30.5761" x2="38.5372" y2="30.9017" gradientUnits="userSpaceOnUse">
<stop stop-color="#E84E1A"/>
<stop offset="0.51" stop-color="#D74348"/>
<stop offset="1" stop-color="#C62C15"/>
</linearGradient>
<linearGradient id="paint41_linear_759_29377" x1="35.5043" y1="33.9292" x2="39.9428" y2="33.9292" gradientUnits="userSpaceOnUse">
<stop stop-color="#B01B03"/>
<stop offset="0.18" stop-color="#B11E06"/>
<stop offset="0.31" stop-color="#B4260F"/>
<stop offset="0.43" stop-color="#B83520"/>
<stop offset="0.54" stop-color="#BE4936"/>
<stop offset="0.64" stop-color="#C76454"/>
<stop offset="0.74" stop-color="#D18578"/>
<stop offset="0.84" stop-color="#DDACA3"/>
<stop offset="0.93" stop-color="#EBD7D3"/>
<stop offset="1" stop-color="#F7FFFF"/>
</linearGradient>
<linearGradient id="paint42_linear_759_29377" x1="37.4206" y1="42.6008" x2="40.8087" y2="36.9373" gradientUnits="userSpaceOnUse">
<stop stop-color="#E5552F"/>
<stop offset="0.14" stop-color="#E75A34"/>
<stop offset="0.3" stop-color="#ED6843"/>
<stop offset="0.48" stop-color="#F77E5B"/>
<stop offset="0.49" stop-color="#F77F5C"/>
<stop offset="1" stop-color="#F7A66C"/>
</linearGradient>
<linearGradient id="paint43_linear_759_29377" x1="34.6843" y1="39.7763" x2="43.0908" y2="39.7763" gradientUnits="userSpaceOnUse">
<stop stop-color="#B01B03"/>
<stop offset="0.18" stop-color="#B11E06"/>
<stop offset="0.31" stop-color="#B4260F"/>
<stop offset="0.43" stop-color="#B83520"/>
<stop offset="0.54" stop-color="#BE4936"/>
<stop offset="0.64" stop-color="#C76454"/>
<stop offset="0.74" stop-color="#D18578"/>
<stop offset="0.84" stop-color="#DDACA3"/>
<stop offset="0.93" stop-color="#EBD7D3"/>
<stop offset="1" stop-color="#F7FFFF"/>
</linearGradient>
<linearGradient id="paint44_linear_759_29377" x1="38.7687" y1="42.6686" x2="34.9118" y2="39.1762" gradientUnits="userSpaceOnUse">
<stop stop-color="#E84E1A"/>
<stop offset="0.51" stop-color="#D74348"/>
<stop offset="1" stop-color="#C62C15"/>
</linearGradient>
<linearGradient id="paint45_linear_759_29377" x1="22.4797" y1="40.1248" x2="22.4797" y2="-7.66918" gradientUnits="userSpaceOnUse">
<stop stop-color="#E5552F"/>
<stop offset="0.14" stop-color="#E75A34"/>
<stop offset="0.3" stop-color="#ED6843"/>
<stop offset="0.48" stop-color="#F77E5B"/>
<stop offset="0.49" stop-color="#F77F5C"/>
<stop offset="1" stop-color="#F7A66C"/>
</linearGradient>
<linearGradient id="paint46_linear_759_29377" x1="16.6109" y1="38.4596" x2="14.251" y2="43.7852" gradientUnits="userSpaceOnUse">
<stop stop-color="#E84E1A"/>
<stop offset="0.51" stop-color="#D74348"/>
<stop offset="1" stop-color="#C62C15"/>
</linearGradient>
<linearGradient id="paint47_linear_759_29377" x1="16.0051" y1="43.2768" x2="16.0051" y2="40.6116" gradientUnits="userSpaceOnUse">
<stop stop-color="#F7632E"/>
<stop offset="1" stop-color="#F7B57E"/>
</linearGradient>
<linearGradient id="paint48_linear_759_29377" x1="12.5343" y1="41.1417" x2="19.3183" y2="41.1417" gradientUnits="userSpaceOnUse">
<stop stop-color="#B01B03"/>
<stop offset="0.18" stop-color="#B11E06"/>
<stop offset="0.31" stop-color="#B4260F"/>
<stop offset="0.43" stop-color="#B83520"/>
<stop offset="0.54" stop-color="#BE4936"/>
<stop offset="0.64" stop-color="#C76454"/>
<stop offset="0.74" stop-color="#D18578"/>
<stop offset="0.84" stop-color="#DDACA3"/>
<stop offset="0.93" stop-color="#EBD7D3"/>
<stop offset="1" stop-color="#F7FFFF"/>
</linearGradient>
<linearGradient id="paint49_linear_759_29377" x1="28.2662" y1="38.1812" x2="30.9775" y2="44.6387" gradientUnits="userSpaceOnUse">
<stop stop-color="#E84E1A"/>
<stop offset="0.51" stop-color="#D74348"/>
<stop offset="1" stop-color="#C62C15"/>
</linearGradient>
<linearGradient id="paint50_linear_759_29377" x1="28.9536" y1="43.2757" x2="28.9536" y2="40.6105" gradientUnits="userSpaceOnUse">
<stop stop-color="#F7632E"/>
<stop offset="1" stop-color="#F7B57E"/>
</linearGradient>
<linearGradient id="paint51_linear_759_29377" x1="25.6415" y1="41.1418" x2="32.4245" y2="41.1418" gradientUnits="userSpaceOnUse">
<stop stop-color="#B01B03"/>
<stop offset="0.18" stop-color="#B11E06"/>
<stop offset="0.31" stop-color="#B4260F"/>
<stop offset="0.43" stop-color="#B83520"/>
<stop offset="0.54" stop-color="#BE4936"/>
<stop offset="0.64" stop-color="#C76454"/>
<stop offset="0.74" stop-color="#D18578"/>
<stop offset="0.84" stop-color="#DDACA3"/>
<stop offset="0.93" stop-color="#EBD7D3"/>
<stop offset="1" stop-color="#F7FFFF"/>
</linearGradient>
<linearGradient id="paint52_linear_759_29377" x1="15.0565" y1="4.61212" x2="16.8269" y2="8.50527" gradientUnits="userSpaceOnUse">
<stop stop-color="#E84E1A"/>
<stop offset="0.51" stop-color="#D74348"/>
<stop offset="1" stop-color="#C62C15"/>
</linearGradient>
<linearGradient id="paint53_linear_759_29377" x1="14.5302" y1="2.76271" x2="16.0807" y2="6.67218" gradientUnits="userSpaceOnUse">
<stop stop-color="#E5552F"/>
<stop offset="0.14" stop-color="#E75A34"/>
<stop offset="0.3" stop-color="#ED6843"/>
<stop offset="0.48" stop-color="#F77E5B"/>
<stop offset="0.49" stop-color="#F77F5C"/>
<stop offset="1" stop-color="#F7A66C"/>
</linearGradient>
<linearGradient id="paint54_linear_759_29377" x1="12.5343" y1="5.38691" x2="19.3183" y2="5.38691" gradientUnits="userSpaceOnUse">
<stop stop-color="#B01B03"/>
<stop offset="0.18" stop-color="#B11E06"/>
<stop offset="0.31" stop-color="#B4260F"/>
<stop offset="0.43" stop-color="#B83520"/>
<stop offset="0.54" stop-color="#BE4936"/>
<stop offset="0.64" stop-color="#C76454"/>
<stop offset="0.74" stop-color="#D18578"/>
<stop offset="0.84" stop-color="#DDACA3"/>
<stop offset="0.93" stop-color="#EBD7D3"/>
<stop offset="1" stop-color="#F7FFFF"/>
</linearGradient>
<linearGradient id="paint55_linear_759_29377" x1="29.9079" y1="4.61212" x2="28.1375" y2="8.50527" gradientUnits="userSpaceOnUse">
<stop stop-color="#E84E1A"/>
<stop offset="0.51" stop-color="#D74348"/>
<stop offset="1" stop-color="#C62C15"/>
</linearGradient>
<linearGradient id="paint56_linear_759_29377" x1="30.4342" y1="2.76271" x2="28.8836" y2="6.67218" gradientUnits="userSpaceOnUse">
<stop stop-color="#E5552F"/>
<stop offset="0.14" stop-color="#E75A34"/>
<stop offset="0.3" stop-color="#ED6843"/>
<stop offset="0.48" stop-color="#F77E5B"/>
<stop offset="0.49" stop-color="#F77F5C"/>
<stop offset="1" stop-color="#F7A66C"/>
</linearGradient>
<linearGradient id="paint57_linear_759_29377" x1="25.6462" y1="5.38691" x2="32.4302" y2="5.38691" gradientUnits="userSpaceOnUse">
<stop stop-color="#B01B03"/>
<stop offset="0.18" stop-color="#B11E06"/>
<stop offset="0.31" stop-color="#B4260F"/>
<stop offset="0.43" stop-color="#B83520"/>
<stop offset="0.54" stop-color="#BE4936"/>
<stop offset="0.64" stop-color="#C76454"/>
<stop offset="0.74" stop-color="#D18578"/>
<stop offset="0.84" stop-color="#DDACA3"/>
<stop offset="0.93" stop-color="#EBD7D3"/>
<stop offset="1" stop-color="#F7FFFF"/>
</linearGradient>
<linearGradient id="paint58_linear_759_29377" x1="44.7571" y1="18.747" x2="40.7366" y2="20.2548" gradientUnits="userSpaceOnUse">
<stop stop-color="#E84E1A"/>
<stop offset="0.51" stop-color="#D74348"/>
<stop offset="1" stop-color="#C62C15"/>
</linearGradient>
<linearGradient id="paint59_linear_759_29377" x1="46.4441" y1="17.8074" x2="42.5675" y2="19.4823" gradientUnits="userSpaceOnUse">
<stop stop-color="#E5552F"/>
<stop offset="0.14" stop-color="#E75A34"/>
<stop offset="0.3" stop-color="#ED6843"/>
<stop offset="0.48" stop-color="#F77E5B"/>
<stop offset="0.49" stop-color="#F77F5C"/>
<stop offset="1" stop-color="#F7A66C"/>
</linearGradient>
<linearGradient id="paint60_linear_759_29377" x1="37.3997" y1="15.9925" x2="42.7108" y2="15.9925" gradientUnits="userSpaceOnUse">
<stop stop-color="#B01B03"/>
<stop offset="0.18" stop-color="#B11E06"/>
<stop offset="0.31" stop-color="#B4260F"/>
<stop offset="0.43" stop-color="#B83520"/>
<stop offset="0.54" stop-color="#BE4936"/>
<stop offset="0.64" stop-color="#C76454"/>
<stop offset="0.74" stop-color="#D18578"/>
<stop offset="0.84" stop-color="#DDACA3"/>
<stop offset="0.93" stop-color="#EBD7D3"/>
<stop offset="1" stop-color="#F7FFFF"/>
</linearGradient>
<linearGradient id="paint61_linear_759_29377" x1="46.1142" y1="31.6628" x2="42.0938" y2="30.1549" gradientUnits="userSpaceOnUse">
<stop stop-color="#E84E1A"/>
<stop offset="0.51" stop-color="#D74348"/>
<stop offset="1" stop-color="#C62C15"/>
</linearGradient>
<linearGradient id="paint62_linear_759_29377" x1="47.8012" y1="32.6012" x2="43.9246" y2="30.9264" gradientUnits="userSpaceOnUse">
<stop stop-color="#E5552F"/>
<stop offset="0.14" stop-color="#E75A34"/>
<stop offset="0.3" stop-color="#ED6843"/>
<stop offset="0.48" stop-color="#F77E5B"/>
<stop offset="0.49" stop-color="#F77F5C"/>
<stop offset="1" stop-color="#F7A66C"/>
</linearGradient>
<linearGradient id="paint63_linear_759_29377" x1="37.3997" y1="30.4995" x2="42.7108" y2="30.4995" gradientUnits="userSpaceOnUse">
<stop stop-color="#B01B03"/>
<stop offset="0.18" stop-color="#B11E06"/>
<stop offset="0.31" stop-color="#B4260F"/>
<stop offset="0.43" stop-color="#B83520"/>
<stop offset="0.54" stop-color="#BE4936"/>
<stop offset="0.64" stop-color="#C76454"/>
<stop offset="0.74" stop-color="#D18578"/>
<stop offset="0.84" stop-color="#DDACA3"/>
<stop offset="0.93" stop-color="#EBD7D3"/>
<stop offset="1" stop-color="#F7FFFF"/>
</linearGradient>
<linearGradient id="paint64_linear_759_29377" x1="4.09289" y1="17.3694" x2="8.11332" y2="18.8772" gradientUnits="userSpaceOnUse">
<stop stop-color="#E84E1A"/>
<stop offset="0.51" stop-color="#D74348"/>
<stop offset="1" stop-color="#C62C15"/>
</linearGradient>
<linearGradient id="paint65_linear_759_29377" x1="2.40583" y1="16.4298" x2="6.28312" y2="18.1053" gradientUnits="userSpaceOnUse">
<stop stop-color="#E5552F"/>
<stop offset="0.14" stop-color="#E75A34"/>
<stop offset="0.3" stop-color="#ED6843"/>
<stop offset="0.48" stop-color="#F77E5B"/>
<stop offset="0.49" stop-color="#F77F5C"/>
<stop offset="1" stop-color="#F7A66C"/>
</linearGradient>
<linearGradient id="paint66_linear_759_29377" x1="2.16353" y1="15.9925" x2="7.47377" y2="15.9925" gradientUnits="userSpaceOnUse">
<stop stop-color="#B01B03"/>
<stop offset="0.18" stop-color="#B11E06"/>
<stop offset="0.31" stop-color="#B4260F"/>
<stop offset="0.43" stop-color="#B83520"/>
<stop offset="0.54" stop-color="#BE4936"/>
<stop offset="0.64" stop-color="#C76454"/>
<stop offset="0.74" stop-color="#D18578"/>
<stop offset="0.84" stop-color="#DDACA3"/>
<stop offset="0.93" stop-color="#EBD7D3"/>
<stop offset="1" stop-color="#F7FFFF"/>
</linearGradient>
<linearGradient id="paint67_linear_759_29377" x1="2.73569" y1="33.0404" x2="6.75613" y2="31.5326" gradientUnits="userSpaceOnUse">
<stop stop-color="#E84E1A"/>
<stop offset="0.51" stop-color="#D74348"/>
<stop offset="1" stop-color="#C62C15"/>
</linearGradient>
<linearGradient id="paint68_linear_759_29377" x1="1.04932" y1="33.9795" x2="4.92661" y2="32.304" gradientUnits="userSpaceOnUse">
<stop stop-color="#E5552F"/>
<stop offset="0.14" stop-color="#E75A34"/>
<stop offset="0.3" stop-color="#ED6843"/>
<stop offset="0.48" stop-color="#F77E5B"/>
<stop offset="0.49" stop-color="#F77F5C"/>
<stop offset="1" stop-color="#F7A66C"/>
</linearGradient>
<linearGradient id="paint69_linear_759_29377" x1="2.16352" y1="30.4993" x2="7.47375" y2="30.4993" gradientUnits="userSpaceOnUse">
<stop stop-color="#B01B03"/>
<stop offset="0.18" stop-color="#B11E06"/>
<stop offset="0.31" stop-color="#B4260F"/>
<stop offset="0.43" stop-color="#B83520"/>
<stop offset="0.54" stop-color="#BE4936"/>
<stop offset="0.64" stop-color="#C76454"/>
<stop offset="0.74" stop-color="#D18578"/>
<stop offset="0.84" stop-color="#DDACA3"/>
<stop offset="0.93" stop-color="#EBD7D3"/>
<stop offset="1" stop-color="#F7FFFF"/>
</linearGradient>
<linearGradient id="paint70_linear_759_29377" x1="22.4798" y1="57.5819" x2="22.4798" y2="8.50999" gradientUnits="userSpaceOnUse">
<stop stop-color="#F36134"/>
<stop offset="1" stop-color="#C40721"/>
</linearGradient>
<linearGradient id="paint71_linear_759_29377" x1="22.4798" y1="38.5174" x2="22.4798" y2="31.7901" gradientUnits="userSpaceOnUse">
<stop stop-color="#F7FFEB"/>
<stop offset="1" stop-color="#F7FCB0"/>
</linearGradient>
<linearGradient id="paint72_linear_759_29377" x1="42.4967" y1="37.1563" x2="42.4967" y2="24.3372" gradientUnits="userSpaceOnUse">
<stop stop-color="#E5552F"/>
<stop offset="0.14" stop-color="#E75A34"/>
<stop offset="0.3" stop-color="#ED6843"/>
<stop offset="0.48" stop-color="#F77E5B"/>
<stop offset="0.49" stop-color="#F77F5C"/>
<stop offset="1" stop-color="#F7A66C"/>
</linearGradient>
<linearGradient id="paint73_linear_759_29377" x1="2.42567" y1="37.1563" x2="2.42567" y2="24.3372" gradientUnits="userSpaceOnUse">
<stop stop-color="#E5552F"/>
<stop offset="0.14" stop-color="#E75A34"/>
<stop offset="0.3" stop-color="#ED6843"/>
<stop offset="0.48" stop-color="#F77E5B"/>
<stop offset="0.49" stop-color="#F77F5C"/>
<stop offset="1" stop-color="#F7A66C"/>
</linearGradient>
</defs>
</svg>
