<svg width="47" height="47" viewBox="0 0 47 47" fill="none" xmlns="http://www.w3.org/2000/svg">
<circle cx="23" cy="24" r="15" fill="url(#paint0_linear_797_27125)"/>
<g style="mix-blend-mode:multiply">
<path d="M38.0789 19.1505C37.7246 18.9479 37.1793 18.6157 36.3796 18.08C36.3796 18.08 31.3401 13.774 23.621 13.774C15.1319 13.774 10.5936 18.5485 10.5936 18.5485C9.86296 19.3099 9.22257 19.9224 8.81934 20.1912C9.50583 16.8887 11.2802 13.9118 13.8586 11.737C16.437 9.56212 19.6704 8.31498 23.0414 8.19508C26.4125 8.07518 29.7263 9.08946 32.4527 11.0756C35.1791 13.0618 37.1605 15.9051 38.0799 19.1505H38.0789Z" fill="#302067" fill-opacity="0.25"/>
</g>
<path d="M8.6504 5.01686C8.64935 5.06656 8.6516 5.11627 8.65713 5.16567C8.65713 5.17239 8.65713 5.17815 8.65713 5.18487C8.67792 5.3391 8.71394 5.4909 8.76465 5.63803V5.64283C9.11413 6.67973 10.151 8.1237 10.7751 8.93401L10.7952 8.96185C10.946 9.15386 11.0708 9.3142 11.1543 9.41693L11.2628 9.55038H12.2719C13.2454 8.24946 14.121 5.90206 14.1315 4.96597C14.1345 4.88424 14.1261 4.80249 14.1066 4.72307C13.9839 4.40391 13.8373 4.09451 13.6678 3.79755C12.9074 2.37278 11.4231 -0.0360736 11.1034 0.000409669C10.9028 0.0234517 9.82939 1.80729 9.16981 3.31559C8.87314 4.00589 8.65712 4.63666 8.6504 5.01686Z" fill="url(#paint1_linear_797_27125)"/>
<path style="mix-blend-mode:multiply" opacity="0.5" d="M8.6504 5.01744C8.64935 5.06714 8.6516 5.11685 8.65713 5.16626C8.65713 5.17298 8.65713 5.17873 8.65713 5.18546C8.67792 5.33969 8.71394 5.49148 8.76465 5.63862V5.64342C9.11413 6.68031 10.151 8.12428 10.7751 8.93459L10.7952 8.96243C10.946 9.15445 11.0708 9.31479 11.1543 9.41751L11.2628 9.55097H12.2719C13.2454 8.25005 14.121 5.90264 14.1315 4.96656C13.7878 6.0889 13.062 6.52862 12.3333 6.66015C12.0406 6.7097 11.7426 6.72003 11.4471 6.69087H11.4346C11.3838 6.68607 11.3329 6.68031 11.2839 6.67359C11.235 6.66687 11.2052 6.66303 11.1668 6.65631C10.8694 6.61098 10.5775 6.53472 10.296 6.42877C10.296 6.42877 9.44151 5.85847 9.26486 5.10097C9.19189 4.79086 9.2735 4.12744 9.55288 3.24512C9.934 2.10493 10.4534 1.01575 11.0996 0.00195312C10.8989 0.0249952 9.82554 1.80883 9.16596 3.31713C8.87314 4.00647 8.65712 4.63725 8.6504 5.01744Z" fill="url(#paint2_linear_797_27125)"/>
<path d="M11.9741 4.83701C12.4331 6.6487 11.5479 9.55199 11.5479 9.55199C11.5479 9.55199 11.6285 6.882 11.2483 5.51483C10.8681 4.14767 11.832 4.27536 11.9741 4.83701Z" fill="url(#paint3_linear_797_27125)"/>
<g style="mix-blend-mode:soft-light">
<path d="M11.135 4.96094C11.6151 6.57868 11.5479 9.55206 11.5479 9.55206L11.135 4.96094Z" fill="#F7FFFF"/>
</g>
<g style="mix-blend-mode:soft-light">
<path d="M13.5498 3.57069C12.894 4.04305 11.403 0.364001 11.8552 0.822922C12.2047 1.17719 13.5498 3.57069 13.5498 3.57069Z" fill="#F7FFFF"/>
</g>
<path style="mix-blend-mode:multiply" opacity="0.5" d="M8.657 5.16635C8.657 5.17307 8.657 5.17883 8.657 5.18555C8.67311 5.34061 8.70925 5.49294 8.76453 5.63871V5.64351C9.114 6.62376 10.1893 8.15606 10.7749 8.93468L10.7951 8.96253C10.9871 9.21311 11.1177 9.38112 11.1542 9.41761C11.5257 9.79204 11.1983 9.17758 9.86382 6.76873C9.28393 5.71552 8.63588 4.7996 8.657 5.16635Z" fill="url(#paint4_linear_797_27125)"/>
<g style="mix-blend-mode:multiply" opacity="0.5">
<path d="M10.779 8.93402L10.7991 8.96186C10.9911 9.21244 11.1217 9.38046 11.1582 9.41694C11.1582 9.41694 11.2907 7.6283 11.1716 6.6567C10.9796 5.05815 10.7329 3.64875 10.3882 3.45097C10.1381 3.30449 9.85114 3.23316 9.56158 3.24551C9.43058 3.2492 9.30098 3.2735 9.17754 3.31752C8.87608 4.0059 8.66005 4.63668 8.65333 5.01687C8.65228 5.06657 8.65453 5.11628 8.66005 5.16568C8.66005 5.1724 8.66005 5.17816 8.66005 5.18488C8.67617 5.33995 8.71231 5.49227 8.76758 5.63804V5.64285C9.11802 6.67974 10.1559 8.12371 10.779 8.93402Z" fill="#C10065"/>
</g>
<path d="M5.98516 13.8025C6.04159 13.8036 6.09803 13.8011 6.15412 13.7948H6.15989C6.29925 13.7757 6.43652 13.7436 6.56985 13.6988H6.57849C7.60866 13.3714 9.06031 12.346 9.88503 11.7239L9.91286 11.7018C10.1164 11.5482 10.2787 11.4205 10.3852 11.336L10.5187 11.2294V10.9827V10.95L10.5244 10.2242C9.23408 9.24493 6.89916 8.35589 5.96883 8.33861C5.88746 8.33531 5.80603 8.34339 5.72689 8.36261C5.4075 8.48204 5.09776 8.62584 4.80041 8.79273C4.48838 8.95595 4.12835 9.15468 3.75679 9.36878C2.43668 10.1273 0.972549 11.0729 1.00039 11.3216C1.03495 11.6067 4.77929 13.7698 5.98516 13.8025Z" fill="url(#paint5_linear_797_27125)"/>
<path style="mix-blend-mode:multiply" opacity="0.5" d="M5.98526 13.8017C6.04169 13.8029 6.09813 13.8003 6.15422 13.7941H6.15999C6.29935 13.775 6.43661 13.7429 6.56995 13.6981H6.57858C7.60876 13.3707 9.06041 12.3453 9.88513 11.7232L9.91296 11.7011C10.1165 11.5475 10.2788 11.4198 10.3853 11.3353L10.5188 11.2287V10.982V10.9493L10.5245 10.2235C9.23418 9.24421 6.89926 8.35517 5.96893 8.33789C7.08455 8.68832 7.51754 9.41511 7.64332 10.1419C7.6805 10.3639 7.69402 10.5891 7.68364 10.814C7.68364 10.8869 7.675 10.958 7.66828 11.0281C7.66828 11.0281 7.66828 11.0357 7.66828 11.0405C7.66348 11.0914 7.65676 11.1365 7.65004 11.1903C7.60466 11.5263 7.52058 11.8558 7.39946 12.1725C7.39946 12.1725 6.82341 13.0202 6.06782 13.1921C5.44377 13.3332 3.37958 12.8359 1.00049 11.3238C1.03505 11.606 4.77939 13.7691 5.98526 13.8017Z" fill="url(#paint6_linear_797_27125)"/>
<path d="M5.41001 10.805C7.18617 9.21031 10.5244 10.9452 10.5244 10.9452C10.5244 10.9452 7.86496 10.8492 6.49972 11.2159C5.13447 11.5827 5.19783 10.9961 5.41001 10.805Z" fill="url(#paint7_linear_797_27125)"/>
<g style="mix-blend-mode:soft-light">
<path d="M5.94678 11.3237C7.56164 10.8542 10.5245 10.9445 10.5245 10.9445L5.94678 11.3237Z" fill="#F7FFFF"/>
</g>
<g style="mix-blend-mode:soft-light">
<path d="M1.82886 10.5787C2.14569 10.8667 3.59925 10.3204 4.40668 9.72995C4.81664 9.4304 5.06051 9.11837 4.90305 8.89755L4.80704 8.78906L3.76343 9.36511L1.82886 10.5787Z" fill="#F7FFFF"/>
</g>
<path style="mix-blend-mode:multiply" opacity="0.5" d="M7.74027 12.5988C10.1491 11.2863 10.7646 10.9666 10.3892 11.3324C10.2355 11.4822 7.25351 13.7394 6.13405 13.7951C5.7673 13.8143 6.68418 13.1739 7.74027 12.5988Z" fill="url(#paint8_linear_797_27125)"/>
<g style="mix-blend-mode:multiply" opacity="0.5">
<path d="M3.76147 9.36388L3.81523 9.38404C4.02733 9.4711 4.22636 9.58709 4.40665 9.72872C4.7915 10.0372 5.12974 10.3997 5.4109 10.805C5.4109 10.805 5.96295 10.4526 7.25619 10.4776C8.97282 10.5112 9.50087 10.8069 10.3285 10.9403H10.3381L10.4168 10.9538C10.4542 10.9605 10.4917 10.9682 10.5282 10.9768V10.9442L10.5339 10.2184C9.24356 9.23907 6.90863 8.35003 5.97831 8.33275C5.89694 8.32945 5.8155 8.33753 5.73637 8.35675C5.41698 8.47618 5.10723 8.61998 4.80988 8.78687C4.49113 8.95201 4.13303 9.15074 3.76147 9.36388Z" fill="#C10065"/>
</g>
<path d="M4.83309 8.81675C5.86711 9.94005 10.4889 10.4662 10.4889 10.4662L11.3079 9.68659C11.0852 7.87106 9.96954 5.27979 9.2514 4.51268C9.19043 4.44346 9.11958 4.38361 9.04114 4.33507C8.35564 3.93855 3.2259 2.46962 2.92539 2.83253C2.71705 3.08216 3.90661 7.81154 4.83309 8.81675Z" fill="url(#paint9_linear_797_27125)"/>
<path style="mix-blend-mode:multiply" opacity="0.5" d="M4.83309 8.81625C5.86711 9.93955 10.4889 10.4657 10.4889 10.4657L11.3079 9.68608C11.0852 7.87056 9.96954 5.27929 9.2514 4.51218C10.6733 7.33579 7.27074 8.68472 7.27074 8.68472C7.27074 8.68472 6.54492 8.89689 5.50323 8.18547C4.9051 7.77839 3.57057 5.94751 2.92539 2.83203C2.71705 3.08165 3.90661 7.81104 4.83309 8.81625Z" fill="url(#paint10_linear_797_27125)"/>
<path d="M6.79541 6.22876C9.18123 6.88066 10.7164 10.2458 10.7164 10.2458C10.7164 10.2458 8.70022 8.0126 7.33018 7.19653C5.96013 6.38045 6.48435 6.14523 6.79541 6.22876Z" fill="url(#paint11_linear_797_27125)"/>
<g style="mix-blend-mode:soft-light">
<path d="M6.80884 6.83594C8.46019 7.77586 10.7173 10.2481 10.7173 10.2481L6.80884 6.83594Z" fill="#F7FFFF"/>
</g>
<g style="mix-blend-mode:soft-light">
<path d="M8.05217 3.94627C7.88607 4.84011 3.46008 2.79417 4.17438 2.91322C5.56458 3.15805 8.05217 3.94627 8.05217 3.94627Z" fill="#F7FFFF"/>
</g>
<path d="M38.3448 5.01686C38.3455 5.06658 38.3429 5.11629 38.3371 5.16567C38.3376 5.17206 38.3376 5.17848 38.3371 5.18487C38.316 5.33913 38.2796 5.49092 38.2286 5.63803V5.64283C37.8801 6.67973 36.8423 8.1237 36.2192 8.93401C36.2127 8.94369 36.2056 8.95298 36.198 8.96185C36.0473 9.15386 35.9225 9.3142 35.8399 9.41693L35.7314 9.55038H34.7224C33.7498 8.24946 32.8733 5.90206 32.8627 4.96597C32.8595 4.88418 32.8682 4.80235 32.8886 4.72307C33.0104 4.40369 33.1567 4.09425 33.3264 3.79755C34.0868 2.37278 35.5721 -0.0360736 35.8918 0.000409669C36.0924 0.0234517 37.1648 1.80729 37.8254 3.31559C38.122 4.00589 38.3371 4.63666 38.3448 5.01686Z" fill="url(#paint12_linear_797_27125)"/>
<path style="mix-blend-mode:multiply" opacity="0.5" d="M38.3449 5.01744C38.3456 5.06716 38.343 5.11687 38.3372 5.16626C38.3377 5.17265 38.3377 5.17906 38.3372 5.18546C38.3161 5.33971 38.2797 5.4915 38.2287 5.63862V5.64342C37.8802 6.68031 36.8423 8.12428 36.2192 8.93459C36.2128 8.94427 36.2057 8.95357 36.1981 8.96243C36.0474 9.15445 35.9226 9.31479 35.84 9.41751L35.7315 9.55097H34.7225C33.7499 8.25005 32.8734 5.90264 32.8628 4.96656C33.2065 6.0889 33.9323 6.52862 34.661 6.66015C34.9537 6.7097 35.2517 6.72003 35.5472 6.69087H35.5597C35.6115 6.68607 35.6614 6.68031 35.7104 6.67359C35.7594 6.66687 35.7891 6.66303 35.8275 6.65631C36.1249 6.61098 36.4168 6.53472 36.6983 6.42877C36.6983 6.42877 37.5528 5.85847 37.7304 5.10097C37.8024 4.79086 37.7208 4.12744 37.4376 3.24512C37.0565 2.10511 36.5374 1.01597 35.8919 0.00195312C36.0925 0.0249952 37.1649 1.80883 37.8255 3.31713C38.1221 4.00647 38.3372 4.63725 38.3449 5.01744Z" fill="url(#paint13_linear_797_27125)"/>
<path d="M35.022 4.83701C34.5631 6.6487 35.4492 9.55199 35.4492 9.55199C35.4492 9.55199 35.3676 6.882 35.7488 5.51483C36.13 4.14767 35.1631 4.27536 35.022 4.83701Z" fill="url(#paint14_linear_797_27125)"/>
<g style="mix-blend-mode:soft-light">
<path d="M35.8591 4.96094C35.379 6.57868 35.4472 9.55206 35.4472 9.55206L35.8591 4.96094Z" fill="#F7FFFF"/>
</g>
<g style="mix-blend-mode:soft-light">
<path d="M33.4446 3.57069C34.1013 4.04305 35.5913 0.364001 35.1391 0.822922C34.7897 1.17719 33.4446 3.57069 33.4446 3.57069Z" fill="#F7FFFF"/>
</g>
<path style="mix-blend-mode:multiply" opacity="0.5" d="M38.3371 5.16635C38.3376 5.17274 38.3376 5.17916 38.3371 5.18555C38.3206 5.34065 38.2842 5.49296 38.2286 5.63871V5.64351C37.8801 6.62376 36.8039 8.15606 36.2192 8.93468C36.2127 8.94437 36.2056 8.95366 36.198 8.96253C36.006 9.21311 35.8755 9.38112 35.8399 9.41761C35.4684 9.79204 35.7967 9.17758 37.1303 6.76873C37.7102 5.71552 38.3582 4.7996 38.3371 5.16635Z" fill="url(#paint15_linear_797_27125)"/>
<g style="mix-blend-mode:multiply" opacity="0.5">
<path d="M36.2163 8.934C36.2098 8.94368 36.2028 8.95297 36.1952 8.96184C36.0032 9.21242 35.8726 9.38044 35.8371 9.41692C35.8371 9.41692 35.7046 7.62828 35.8227 6.65667C36.0147 5.05813 36.2614 3.64872 36.6061 3.45095C36.8562 3.30456 37.1432 3.23324 37.4327 3.24549C37.5637 3.24928 37.6933 3.27357 37.8168 3.3175C38.1182 4.00588 38.3333 4.63665 38.341 5.01685C38.3417 5.06657 38.3391 5.11628 38.3333 5.16566C38.3338 5.17205 38.3338 5.17847 38.3333 5.18486C38.3168 5.33996 38.2804 5.49227 38.2248 5.63802V5.64282C37.8773 6.67972 36.8394 8.12369 36.2163 8.934Z" fill="#C10065"/>
</g>
<path d="M41.0091 13.8024C40.9527 13.8036 40.8962 13.801 40.8401 13.7948C40.7007 13.7758 40.5635 13.7437 40.4302 13.6987H40.4215C39.3914 13.3714 37.9397 12.346 37.115 11.7239L37.0872 11.7018C36.8836 11.5482 36.7204 11.4205 36.6148 11.336L36.4813 11.2294V10.9827V10.95L36.4756 10.2242C37.7669 9.24491 40.1018 8.35587 41.0312 8.33859C41.1129 8.33535 41.1946 8.34342 41.2741 8.36259C41.5931 8.48208 41.9026 8.62588 42.1996 8.79271C42.5126 8.95592 42.8717 9.15466 43.2432 9.36876C44.5643 10.1272 46.0275 11.0729 45.9996 11.3216C45.9574 11.6067 42.2227 13.7698 41.0091 13.8024Z" fill="url(#paint16_linear_797_27125)"/>
<path style="mix-blend-mode:multiply" opacity="0.5" d="M41.0091 13.8017C40.9527 13.8029 40.8962 13.8003 40.8401 13.7941C40.7007 13.7751 40.5635 13.743 40.4302 13.6981H40.4215C39.3914 13.3707 37.9397 12.3453 37.115 11.7232L37.0872 11.7011C36.8836 11.5475 36.7204 11.4198 36.6148 11.3353L36.4813 11.2287V10.982V10.9493L36.4756 10.2235C37.7669 9.24421 40.1018 8.35517 41.0312 8.33789C39.9156 8.68832 39.4826 9.41511 39.3568 10.1419C39.3194 10.3638 39.3062 10.5892 39.3174 10.814C39.3174 10.8869 39.3251 10.958 39.3328 11.0281C39.3324 11.0322 39.3324 11.0364 39.3328 11.0405C39.3328 11.0914 39.3443 11.1365 39.3501 11.1903C39.3955 11.5264 39.4799 11.856 39.6016 12.1725C39.6016 12.1725 40.1777 13.0202 40.9323 13.1921C41.5573 13.3332 43.6205 12.8359 45.9996 11.3238C45.9574 11.606 42.2227 13.7691 41.0091 13.8017Z" fill="url(#paint17_linear_797_27125)"/>
<path d="M41.5841 10.805C39.808 9.21031 36.4707 10.9452 36.4707 10.9452C36.4707 10.9452 39.1301 10.8492 40.4954 11.2159C41.8606 11.5827 41.7973 10.9961 41.5841 10.805Z" fill="url(#paint18_linear_797_27125)"/>
<g style="mix-blend-mode:soft-light">
<path d="M41.0484 11.3237C39.4326 10.8542 36.4707 10.9445 36.4707 10.9445L41.0484 11.3237Z" fill="#F7FFFF"/>
</g>
<g style="mix-blend-mode:soft-light">
<path d="M45.1663 10.5787C44.8494 10.8667 43.3959 10.3204 42.5884 9.72995C42.1775 9.4304 41.9346 9.11837 42.0911 8.89755L42.1871 8.78906L43.2307 9.36511L45.1663 10.5787Z" fill="#F7FFFF"/>
</g>
<path style="mix-blend-mode:multiply" opacity="0.5" d="M39.254 12.5988C36.8451 11.2863 36.2297 10.9666 36.6061 11.3324C36.7587 11.4822 39.7408 13.7394 40.8612 13.7951C41.227 13.8143 40.3101 13.1739 39.254 12.5988Z" fill="url(#paint19_linear_797_27125)"/>
<g style="mix-blend-mode:multiply" opacity="0.5">
<path d="M43.2325 9.36386L43.1797 9.38402C42.9676 9.47108 42.7686 9.58707 42.5883 9.72869C42.2031 10.0369 41.8648 10.3994 41.584 10.8049C41.584 10.8049 41.031 10.4526 39.7378 10.4776C38.0212 10.5112 37.4941 10.8069 36.6713 10.9403H36.6607L36.5829 10.9538C36.5445 10.9605 36.5081 10.9682 36.4716 10.9768V10.9442L36.4658 10.2183C37.7571 9.23905 40.0921 8.35001 41.0214 8.33273C41.1031 8.32949 41.1849 8.33756 41.2643 8.35673C41.5834 8.47622 41.8928 8.62002 42.1899 8.78685C42.5019 8.95198 42.8619 9.15072 43.2325 9.36386Z" fill="#C10065"/>
</g>
<path d="M42.162 8.81675C41.128 9.94005 36.5052 10.4662 36.5052 10.4662L35.6843 9.68659C35.9061 7.87106 37.0227 5.27979 37.7399 4.51268C37.8011 4.44369 37.8719 4.38387 37.9501 4.33507C38.6356 3.93855 43.7654 2.46962 44.0668 2.83253C44.278 3.08216 43.0866 7.81154 42.162 8.81675Z" fill="url(#paint20_linear_797_27125)"/>
<path style="mix-blend-mode:multiply" opacity="0.5" d="M42.162 8.81625C41.128 9.93955 36.5052 10.4657 36.5052 10.4657L35.6843 9.68608C35.9061 7.87056 37.0227 5.27929 37.7399 4.51218C36.3189 7.33579 39.7215 8.68472 39.7215 8.68472C39.7215 8.68472 40.4463 8.89689 41.489 8.18547C42.0862 7.77839 43.4207 5.94751 44.0668 2.83203C44.278 3.08165 43.0866 7.81104 42.162 8.81625Z" fill="url(#paint21_linear_797_27125)"/>
<path d="M40.1979 6.22876C37.8121 6.88066 36.2778 10.2458 36.2778 10.2458C36.2778 10.2458 38.294 8.0126 39.6631 7.19653C41.0322 6.38045 40.5099 6.14523 40.1979 6.22876Z" fill="url(#paint22_linear_797_27125)"/>
<g style="mix-blend-mode:soft-light">
<path d="M40.1854 6.83594C38.535 7.77586 36.2778 10.2481 36.2778 10.2481L40.1854 6.83594Z" fill="#F7FFFF"/>
</g>
<g style="mix-blend-mode:soft-light">
<path d="M38.9429 3.94627C39.109 4.84011 43.535 2.79417 42.8197 2.91322C41.4305 3.15805 38.9429 3.94627 38.9429 3.94627Z" fill="#F7FFFF"/>
</g>
<path d="M8.65039 41.4057C8.64936 41.356 8.65161 41.3063 8.65712 41.2569C8.65712 41.2501 8.65712 41.2444 8.65712 41.2386C8.6777 41.0844 8.71372 40.9325 8.76465 40.7855C9.11412 39.7476 10.151 38.3036 10.7751 37.4933L10.7952 37.4655C10.946 37.2735 11.0708 37.1131 11.1543 37.0104L11.2628 36.877H12.2718C13.2454 38.1779 14.121 40.5253 14.1315 41.4614C14.1345 41.5431 14.1261 41.6248 14.1066 41.7043C13.9839 42.0234 13.8373 42.3328 13.6678 42.6298C12.9074 44.0546 11.4231 46.4634 11.1034 46.4269C10.9028 46.4039 9.82938 44.62 9.1698 43.1127C8.87313 42.4166 8.65711 41.7859 8.65039 41.4057Z" fill="url(#paint23_linear_797_27125)"/>
<path style="mix-blend-mode:multiply" opacity="0.5" d="M8.65039 41.4057C8.64936 41.356 8.65161 41.3063 8.65712 41.2569C8.65712 41.2501 8.65712 41.2444 8.65712 41.2386C8.6777 41.0844 8.71372 40.9325 8.76465 40.7855C9.11412 39.7476 10.151 38.3036 10.7751 37.4933L10.7952 37.4655C10.946 37.2735 11.0708 37.1131 11.1543 37.0104L11.2628 36.877H12.2718C13.2454 38.1779 14.121 40.5253 14.1315 41.4614C13.7878 40.339 13.062 39.8993 12.3333 39.7678C12.0406 39.7182 11.7426 39.7079 11.4471 39.7371H11.4346L11.2839 39.7543C11.2445 39.7543 11.2052 39.7649 11.1668 39.7716C10.8694 39.8169 10.5775 39.8932 10.296 39.9992C10.296 39.9992 9.4415 40.5694 9.26485 41.327C9.19188 41.6371 9.27349 42.3005 9.55287 43.1828C9.93399 44.323 10.4534 45.4122 11.0996 46.426C10.8989 46.4029 9.82553 44.6191 9.16595 43.1118C8.87313 42.4166 8.65711 41.7859 8.65039 41.4057Z" fill="url(#paint24_linear_797_27125)"/>
<path d="M11.9741 41.5861C12.4331 39.7744 11.5479 36.8711 11.5479 36.8711C11.5479 36.8711 11.6285 39.5411 11.2483 40.9083C10.8681 42.2754 11.832 42.1477 11.9741 41.5861Z" fill="url(#paint25_linear_797_27125)"/>
<g style="mix-blend-mode:soft-light">
<path d="M11.135 41.4642C11.6151 39.8464 11.5479 36.873 11.5479 36.873L11.135 41.4642Z" fill="#F7FFFF"/>
</g>
<g style="mix-blend-mode:soft-light">
<path d="M13.5498 42.8525C12.894 42.3802 11.403 46.0592 11.8552 45.6003C12.2047 45.246 13.5498 42.8525 13.5498 42.8525Z" fill="#F7FFFF"/>
</g>
<path style="mix-blend-mode:multiply" opacity="0.5" d="M8.657 41.258C8.657 41.2512 8.657 41.2455 8.657 41.2397C8.673 41.0846 8.70915 40.9323 8.76453 40.7866C9.114 39.8053 10.1893 38.2731 10.7749 37.4944L10.7951 37.4666C10.9871 37.216 11.1177 37.0489 11.1542 37.0115C11.5257 36.6371 11.1983 37.2525 9.86382 39.6604C9.28393 40.7088 8.63588 41.6247 8.657 41.258Z" fill="url(#paint26_linear_797_27125)"/>
<g style="mix-blend-mode:multiply" opacity="0.5">
<path d="M10.7789 37.4888L10.7991 37.4609C10.9911 37.2104 11.1217 37.0433 11.1582 37.0059C11.1582 37.0059 11.2907 38.7945 11.1716 39.7661C10.9796 41.3656 10.7329 42.7741 10.3882 42.9718C10.1381 43.1183 9.85113 43.1896 9.56157 43.1773C9.43066 43.1735 9.30112 43.1496 9.17753 43.1062C8.87607 42.4169 8.66004 41.7861 8.65332 41.4059C8.65229 41.3562 8.65454 41.3065 8.66005 41.2571C8.66005 41.2504 8.66005 41.2446 8.66005 41.2389C8.67605 41.0838 8.7122 40.9315 8.76757 40.7857C9.11801 39.7431 10.1559 38.2962 10.7789 37.4888Z" fill="#C10065"/>
</g>
<path d="M5.98516 32.6214C6.04159 32.6202 6.09803 32.6228 6.15412 32.629H6.15989C6.29925 32.6481 6.43652 32.6802 6.56985 32.7251H6.57849C7.60866 33.0524 9.06031 34.0778 9.88503 34.7L9.91286 34.722C10.1164 34.8756 10.2787 35.0033 10.3852 35.0878L10.5187 35.1944V35.4411V35.4738L10.5244 36.2006C9.23408 37.1789 6.89916 38.0679 5.96883 38.0852C5.88746 38.0885 5.80603 38.0804 5.72689 38.0612C5.4075 37.9418 5.09776 37.798 4.80041 37.6311C4.48838 37.4679 4.12835 37.2691 3.75679 37.055C2.43668 36.2966 0.972549 35.3509 1.00039 35.1022C1.03495 34.8152 4.77929 32.654 5.98516 32.6214Z" fill="url(#paint27_linear_797_27125)"/>
<path style="mix-blend-mode:multiply" opacity="0.5" d="M5.98526 32.6214C6.04169 32.6202 6.09813 32.6228 6.15422 32.629H6.15999C6.29935 32.6481 6.43661 32.6802 6.56995 32.7251H6.57858C7.60876 33.0524 9.06041 34.0778 9.88513 34.7L9.91296 34.722C10.1165 34.8756 10.2788 35.0033 10.3853 35.0878L10.5188 35.1944V35.4411V35.4738L10.5245 36.2006C9.23418 37.1789 6.89926 38.0679 5.96893 38.0852C7.08455 37.7348 7.51754 37.008 7.64332 36.2812C7.6805 36.0593 7.69402 35.834 7.68364 35.6092C7.68364 35.5362 7.675 35.4651 7.66828 35.3951C7.66828 35.3951 7.66828 35.3874 7.66828 35.3835C7.66348 35.3317 7.65676 35.2818 7.65004 35.2328C7.60466 34.8968 7.52058 34.5673 7.39946 34.2506C7.39946 34.2506 6.82341 33.4029 6.06782 33.231C5.44377 33.0899 3.37958 33.5872 1.00049 35.0993C1.03505 34.8152 4.77939 32.654 5.98526 32.6214Z" fill="url(#paint28_linear_797_27125)"/>
<path d="M5.41001 35.617C7.18617 37.2117 10.5244 35.4768 10.5244 35.4768C10.5244 35.4768 7.86496 35.5728 6.49972 35.2061C5.13447 34.8393 5.19783 35.4259 5.41001 35.617Z" fill="url(#paint29_linear_797_27125)"/>
<g style="mix-blend-mode:soft-light">
<path d="M5.94678 35.0977C7.56164 35.5671 10.5245 35.4769 10.5245 35.4769L5.94678 35.0977Z" fill="#F7FFFF"/>
</g>
<g style="mix-blend-mode:soft-light">
<path d="M1.82886 35.8448C2.14569 35.5568 3.59925 36.104 4.40668 36.6935C4.81664 36.993 5.06051 37.3051 4.90305 37.5259L4.80704 37.6344L3.76343 37.0583L1.82886 35.8448Z" fill="#F7FFFF"/>
</g>
<path style="mix-blend-mode:multiply" opacity="0.5" d="M7.74027 33.8236C10.1491 35.136 10.7646 35.4557 10.3892 35.0909C10.2355 34.9402 7.25351 32.683 6.13405 32.6273C5.7673 32.6091 6.68418 33.2485 7.74027 33.8236Z" fill="url(#paint30_linear_797_27125)"/>
<g style="mix-blend-mode:multiply" opacity="0.5">
<path d="M3.76147 37.0583C3.77972 37.0525 3.79699 37.0448 3.81523 37.0381C4.02752 36.9514 4.2266 36.8354 4.40665 36.6934C4.7915 36.3849 5.12974 36.0224 5.4109 35.6172C5.4109 35.6172 5.96295 35.9695 7.25619 35.9446C8.97282 35.911 9.50087 35.6152 10.3285 35.4818H10.3381L10.4168 35.4684C10.4542 35.4616 10.4917 35.454 10.5282 35.4453V35.478L10.5339 36.2047C9.24356 37.1831 6.90863 38.0721 5.97831 38.0894C5.89694 38.0927 5.8155 38.0846 5.73637 38.0654C5.41698 37.946 5.10723 37.8022 4.80988 37.6353C4.49113 37.4701 4.13303 37.2714 3.76147 37.0583Z" fill="#C10065"/>
</g>
<path d="M4.83304 37.6065C5.86705 36.4832 10.4889 35.957 10.4889 35.957L11.3107 36.7414C11.088 38.5569 9.97237 41.1482 9.25422 41.9153C9.19325 41.9845 9.12241 42.0444 9.04397 42.0929C8.35847 42.4895 3.22872 43.9584 2.92822 43.5955C2.717 43.341 3.90655 38.6117 4.83304 37.6065Z" fill="url(#paint31_linear_797_27125)"/>
<path style="mix-blend-mode:multiply" opacity="0.5" d="M4.83304 37.6065C5.86705 36.4832 10.4889 35.957 10.4889 35.957L11.3107 36.7414C11.088 38.5569 9.97237 41.1482 9.25422 41.9153C10.6761 39.0917 7.27357 37.7428 7.27357 37.7428C7.27357 37.7428 6.54774 37.5306 5.50604 38.242C4.90791 38.6491 3.57339 40.48 2.92822 43.5955C2.717 43.341 3.90655 38.6117 4.83304 37.6065Z" fill="url(#paint32_linear_797_27125)"/>
<path d="M6.79541 40.1908C9.18123 39.5389 10.7164 36.1738 10.7164 36.1738C10.7164 36.1738 8.70022 38.4079 7.33018 39.2231C5.96013 40.0382 6.48435 40.2763 6.79541 40.1908Z" fill="url(#paint33_linear_797_27125)"/>
<g style="mix-blend-mode:soft-light">
<path d="M6.80884 39.586C8.46019 38.646 10.7173 36.1738 10.7173 36.1738L6.80884 39.586Z" fill="#F7FFFF"/>
</g>
<g style="mix-blend-mode:soft-light">
<path d="M8.05217 42.4783C7.88607 41.5844 3.46008 43.6352 4.17438 43.5113C5.56458 43.2694 8.05217 42.4783 8.05217 42.4783Z" fill="#F7FFFF"/>
</g>
<path d="M38.3448 41.4057C38.3455 41.356 38.3429 41.3063 38.3371 41.2569C38.3376 41.2508 38.3376 41.2447 38.3371 41.2386C38.3162 41.0843 38.2798 40.9325 38.2286 40.7855C37.8801 39.7476 36.8423 38.3036 36.2192 37.4933C36.2127 37.4837 36.2056 37.4744 36.198 37.4655C36.0473 37.2735 35.9225 37.1131 35.8399 37.0104L35.7314 36.877H34.7224C33.7498 38.1779 32.8733 40.5253 32.8627 41.4614C32.8595 41.5432 32.8682 41.625 32.8886 41.7043C33.0104 42.0236 33.1567 42.3331 33.3264 42.6298C34.0868 44.0546 35.5721 46.4634 35.8918 46.4269C36.0924 46.4039 37.1648 44.62 37.8254 43.1127C38.122 42.4166 38.3371 41.7859 38.3448 41.4057Z" fill="url(#paint34_linear_797_27125)"/>
<path style="mix-blend-mode:multiply" opacity="0.5" d="M38.3449 41.4057C38.3456 41.356 38.343 41.3063 38.3372 41.2569C38.3377 41.2508 38.3377 41.2447 38.3372 41.2386C38.3163 41.0843 38.2799 40.9325 38.2287 40.7855C37.8802 39.7476 36.8423 38.3036 36.2192 37.4933C36.2128 37.4837 36.2057 37.4744 36.1981 37.4655C36.0474 37.2735 35.9226 37.1131 35.84 37.0104L35.7315 36.877H34.7225C33.7499 38.1779 32.8734 40.5253 32.8628 41.4614C33.2065 40.339 33.9323 39.8993 34.661 39.7678C34.9537 39.7182 35.2517 39.7079 35.5472 39.7371H35.5597L35.7104 39.7543C35.7498 39.7543 35.7891 39.7649 35.8275 39.7716C36.1249 39.8169 36.4168 39.8932 36.6983 39.9992C36.6983 39.9992 37.5528 40.5694 37.7304 41.327C37.8024 41.6371 37.7208 42.3005 37.4376 43.1828C37.0565 44.3228 36.5374 45.412 35.8919 46.426C36.0925 46.4029 37.1649 44.6191 37.8255 43.1118C38.1221 42.4166 38.3372 41.7859 38.3449 41.4057Z" fill="url(#paint35_linear_797_27125)"/>
<path d="M35.022 41.5861C34.5631 39.7744 35.4492 36.8711 35.4492 36.8711C35.4492 36.8711 35.3676 39.5411 35.7488 40.9083C36.13 42.2754 35.1631 42.1477 35.022 41.5861Z" fill="url(#paint36_linear_797_27125)"/>
<g style="mix-blend-mode:multiply" opacity="0.5">
<path d="M35.8591 41.4642C35.379 39.8464 35.4472 36.873 35.4472 36.873L35.8591 41.4642Z" fill="#C10065"/>
</g>
<g style="mix-blend-mode:soft-light">
<path d="M33.4446 42.8525C34.1013 42.3802 35.5913 46.0592 35.1391 45.6003C34.7897 45.246 33.4446 42.8525 33.4446 42.8525Z" fill="#F7FFFF"/>
</g>
<path style="mix-blend-mode:multiply" opacity="0.5" d="M38.3371 41.258C38.3376 41.2519 38.3376 41.2458 38.3371 41.2397C38.3207 41.0846 38.2843 40.9323 38.2286 40.7866C37.8801 39.8053 36.8039 38.2731 36.2192 37.4944C36.2127 37.4847 36.2056 37.4754 36.198 37.4666C36.006 37.216 35.8755 37.0489 35.8399 37.0115C35.4684 36.6371 35.7967 37.2525 37.1303 39.6604C37.7102 40.7088 38.3582 41.6247 38.3371 41.258Z" fill="url(#paint37_linear_797_27125)"/>
<path style="mix-blend-mode:multiply" opacity="0.5" d="M36.2163 37.4888C36.2098 37.4791 36.2028 37.4698 36.1952 37.4609C36.0032 37.2104 35.8726 37.0433 35.8371 37.0059C35.8371 37.0059 35.7046 38.7945 35.8227 39.7661C36.0147 41.3656 36.2614 42.7741 36.6061 42.9718C36.8562 43.1182 37.1432 43.1895 37.4327 43.1773C37.5636 43.1735 37.6932 43.1495 37.8168 43.1062C38.1182 42.4169 38.3333 41.7861 38.341 41.4059C38.3417 41.3562 38.3391 41.3065 38.3333 41.2571C38.3338 41.2511 38.3338 41.2449 38.3333 41.2389C38.3169 41.0838 38.2805 40.9314 38.2248 40.7857C37.8773 39.7431 36.8394 38.2962 36.2163 37.4888Z" fill="url(#paint38_linear_797_27125)"/>
<path d="M41.0091 32.6214C40.9527 32.6202 40.8962 32.6228 40.8401 32.629C40.7007 32.648 40.5635 32.6801 40.4302 32.7251H40.4215C39.3914 33.0524 37.9397 34.0778 37.115 34.7L37.0872 34.722C36.8836 34.8757 36.7204 35.0033 36.6148 35.0878L36.4813 35.1944V35.4411V35.4738L36.4756 36.2006C37.7669 37.1789 40.1018 38.0679 41.0312 38.0852C41.1129 38.0885 41.1946 38.0804 41.2741 38.0612C41.5931 37.9417 41.9026 37.7979 42.1996 37.6311C42.5126 37.4679 42.8717 37.2691 43.2432 37.055C44.5643 36.2966 46.0275 35.3509 45.9996 35.1022C45.9574 34.8152 42.2227 32.654 41.0091 32.6214Z" fill="url(#paint39_linear_797_27125)"/>
<path style="mix-blend-mode:multiply" opacity="0.5" d="M41.0091 32.6214C40.9527 32.6202 40.8962 32.6228 40.8401 32.629C40.7007 32.648 40.5635 32.6801 40.4302 32.7251H40.4215C39.3914 33.0524 37.9397 34.0778 37.115 34.7L37.0872 34.722C36.8836 34.8756 36.7204 35.0033 36.6148 35.0878L36.4813 35.1944V35.4411V35.4738L36.4756 36.2006C37.7669 37.1789 40.1018 38.0679 41.0312 38.0852C39.9156 37.7348 39.4826 37.008 39.3568 36.2812C39.3194 36.0593 39.3062 35.8339 39.3174 35.6092C39.3174 35.5362 39.3251 35.4651 39.3328 35.3951C39.3323 35.3912 39.3323 35.3874 39.3328 35.3835C39.3328 35.3317 39.3443 35.2818 39.3501 35.2328C39.3955 34.8968 39.4799 34.5671 39.6016 34.2506C39.6016 34.2506 40.1777 33.4029 40.9323 33.231C41.5573 33.0899 43.6205 33.5872 45.9996 35.0993C45.9574 34.8152 42.2227 32.654 41.0091 32.6214Z" fill="url(#paint40_linear_797_27125)"/>
<path d="M41.5841 35.617C39.808 37.2117 36.4707 35.4768 36.4707 35.4768C36.4707 35.4768 39.1301 35.5728 40.4954 35.2061C41.8606 34.8393 41.7973 35.4259 41.5841 35.617Z" fill="url(#paint41_linear_797_27125)"/>
<g style="mix-blend-mode:soft-light">
<path d="M41.0484 35.0977C39.4326 35.5671 36.4707 35.4769 36.4707 35.4769L41.0484 35.0977Z" fill="#F7FFFF"/>
</g>
<g style="mix-blend-mode:soft-light">
<path d="M45.1663 35.8448C44.8494 35.5568 43.3959 36.104 42.5884 36.6935C42.1775 36.993 41.9346 37.3051 42.0911 37.5259L42.1871 37.6344L43.2307 37.0583L45.1663 35.8448Z" fill="#F7FFFF"/>
</g>
<path style="mix-blend-mode:multiply" opacity="0.5" d="M39.254 33.8236C36.8451 35.136 36.2297 35.4557 36.6061 35.0909C36.7587 34.9402 39.7408 32.683 40.8612 32.6273C41.227 32.6091 40.3101 33.2485 39.254 33.8236Z" fill="url(#paint42_linear_797_27125)"/>
<g style="mix-blend-mode:multiply" opacity="0.5">
<path d="M43.2325 37.0583L43.1797 37.0381C42.9674 36.9514 42.7683 36.8354 42.5883 36.6934C42.2031 36.3852 41.8648 36.0227 41.584 35.6172C41.584 35.6172 41.031 35.9695 39.7378 35.9446C38.0212 35.911 37.4941 35.6152 36.6713 35.4818H36.6607L36.5829 35.4684C36.5445 35.4616 36.5081 35.454 36.4716 35.4453V35.478L36.4658 36.2047C37.7571 37.1831 40.0921 38.0721 41.0214 38.0894C41.1031 38.0926 41.1849 38.0846 41.2643 38.0654C41.5834 37.9459 41.8928 37.8021 42.1899 37.6353C42.5019 37.4701 42.8619 37.2714 43.2325 37.0583Z" fill="#C10065"/>
</g>
<path d="M42.162 37.6065C41.128 36.4832 36.5052 35.957 36.5052 35.957L35.6843 36.7414C35.9061 38.5569 37.0227 41.1482 37.7399 41.9153C37.8011 41.9843 37.8719 42.0441 37.9501 42.0929C38.6356 42.4895 43.7654 43.9584 44.0668 43.5955C44.278 43.341 43.0866 38.6117 42.162 37.6065Z" fill="url(#paint43_linear_797_27125)"/>
<path style="mix-blend-mode:multiply" opacity="0.5" d="M42.162 37.6065C41.128 36.4832 36.5052 35.957 36.5052 35.957L35.6843 36.7414C35.9061 38.5569 37.0227 41.1482 37.7399 41.9153C36.3189 39.0917 39.7215 37.7428 39.7215 37.7428C39.7215 37.7428 40.4463 37.5306 41.489 38.242C42.0862 38.6491 43.4207 40.48 44.0668 43.5955C44.278 43.341 43.0866 38.6117 42.162 37.6065Z" fill="url(#paint44_linear_797_27125)"/>
<path d="M40.1979 40.1908C37.8121 39.5389 36.2778 36.1738 36.2778 36.1738C36.2778 36.1738 38.294 38.4079 39.6631 39.2231C41.0322 40.0382 40.5099 40.2763 40.1979 40.1908Z" fill="url(#paint45_linear_797_27125)"/>
<g style="mix-blend-mode:soft-light">
<path d="M40.1854 39.586C38.535 38.646 36.2778 36.1738 36.2778 36.1738L40.1854 39.586Z" fill="#F7FFFF"/>
</g>
<g style="mix-blend-mode:soft-light">
<path d="M38.9429 42.4783C39.109 41.5844 43.535 43.6352 42.8197 43.5113C41.4305 43.2694 38.9429 42.4783 38.9429 42.4783Z" fill="#F7FFFF"/>
</g>
<path d="M45.2948 31.7107C45.4868 31.2585 42.8456 26.3486 41.755 24.3545C41.8009 23.6214 41.8009 22.8861 41.755 22.153C42.8456 20.1579 45.3073 15.3018 45.2948 14.7959C45.2948 14.7488 45.3332 13.9596 45.2948 13.8675C45.1086 13.4239 39.5189 11.8455 37.2935 11.233C36.6594 10.5039 35.9689 9.82591 35.2283 9.20529C34.6705 7.16703 32.9904 1.16361 32.5305 0.970633C31.9775 0.739253 24.7816 4.72361 24.3582 4.95883C24.0702 4.94539 23.7745 4.93771 23.4797 4.93771C23.185 4.93771 22.8912 4.94539 22.6003 4.95883C22.1769 4.72361 14.9811 0.739253 14.429 0.970633C13.9682 1.16265 12.289 7.16703 11.7302 9.20529C10.9893 9.82554 10.2985 10.5032 9.66411 11.232C7.43767 11.8446 1.84806 13.4229 1.66276 13.8665C1.6234 13.9625 1.66276 14.7479 1.66276 14.7949C1.64836 15.4545 4.11194 20.157 5.20163 22.152C5.13368 22.8843 5.13368 23.6213 5.20163 24.3535C4.11194 26.3476 1.47266 31.2575 1.66276 31.7097C1.68004 31.7529 1.6234 32.5459 1.66276 32.6381C1.84806 33.0817 7.43767 34.66 9.66411 35.2726C10.2985 36.0014 10.9893 36.6791 11.7302 37.2993C12.289 39.3376 13.9682 45.341 14.429 45.534C14.9811 45.7654 22.1769 41.781 22.6003 41.5458C22.8883 41.5602 23.185 41.5669 23.4797 41.5669C23.7745 41.5669 24.0673 41.5602 24.3582 41.5458C24.7816 41.781 31.9775 45.7654 32.5305 45.534C32.9904 45.342 34.6705 39.3376 35.2283 37.2993C35.9695 36.6791 36.6607 36.0014 37.2954 35.2726C39.5209 34.66 45.1105 33.0817 45.2967 32.6381C45.3351 32.5469 45.2785 31.7539 45.2948 31.7107ZM37.2819 23.2533C37.2827 25.9836 36.4737 28.6529 34.9574 30.9235C33.441 33.194 31.2854 34.9639 28.7631 36.0093C26.2408 37.0547 23.4651 37.3286 20.7871 36.7964C18.1091 36.2642 15.6491 34.9498 13.7182 33.0194C11.7873 31.0891 10.4722 28.6294 9.93923 25.9516C9.40629 23.2737 9.67943 20.498 10.7241 17.9754C11.7688 15.4528 13.5381 13.2967 15.8083 11.7797C18.0784 10.2627 20.7475 9.45299 23.4778 9.45299C27.1386 9.45248 30.6496 10.9061 33.2387 13.4941C35.8278 16.0821 37.2828 19.5925 37.2839 23.2533H37.2819Z" fill="url(#paint46_linear_797_27125)"/>
<path d="M20.3184 41.3062L20.5104 41.3398C19.9745 41.7208 19.4088 42.0579 18.8187 42.3479H18.8101C18.4884 42.5073 18.1716 42.6494 17.8673 42.7761L17.8394 42.7867C16.9665 43.15 16.0617 43.4315 15.1368 43.6277V43.6229C14.477 42.3247 13.9656 40.9562 13.6122 39.5435C13.6117 39.539 13.6117 39.5345 13.6122 39.5301C13.6122 39.5157 13.6054 39.5003 13.6016 39.4859C13.5152 39.1403 13.4461 38.8263 13.3904 38.5508C13.4384 38.5834 13.4864 38.6151 13.5363 38.6468C13.6157 38.6986 13.6954 38.7495 13.7754 38.7994C13.8426 38.8417 13.9088 38.883 13.976 38.9233C15.8623 40.0718 17.9418 40.8675 20.1129 41.2717L20.3184 41.3062Z" fill="url(#paint47_linear_797_27125)"/>
<path d="M20.2368 41.2932C19.2613 41.9327 17.3863 42.9945 15.2923 43.3094C15.2923 43.3094 14.4177 41.9374 13.7764 38.8047C13.8436 38.8469 13.9098 38.8882 13.977 38.9285C15.8633 40.0755 17.9424 40.87 20.1129 41.2731L20.2368 41.2932Z" fill="url(#paint48_linear_797_27125)"/>
<path style="mix-blend-mode:multiply" opacity="0.5" d="M20.3183 41.3068C19.861 41.7099 19.3591 42.0594 18.8225 42.3485H18.8138C18.5073 42.5076 18.1926 42.6506 17.871 42.7767L17.8432 42.7873C16.9619 43.1271 16.059 43.4081 15.1405 43.6283V43.6235C15.0868 43.5275 14.2169 41.9462 13.6198 39.5403C13.6193 39.5358 13.6193 39.5313 13.6198 39.5268C13.6198 39.5124 13.613 39.4971 13.6092 39.4827C13.5569 39.2058 13.535 38.9241 13.5439 38.6426C13.6233 38.6944 13.703 38.7453 13.783 38.7952C13.8502 38.8375 13.9164 38.8788 13.9836 38.9191C14.3312 39.8225 14.9015 41.0889 15.6273 41.9347C15.6273 41.9347 17.7155 42.2899 20.1215 41.2627L20.3183 41.3068Z" fill="url(#paint49_linear_797_27125)"/>
<path d="M33.5693 38.5527C33.5146 38.8283 33.4445 39.1422 33.3581 39.4879C33.3581 39.5023 33.3513 39.5176 33.3475 39.532V39.5455C32.9952 40.9594 32.4848 42.3291 31.8258 43.6287V43.6335C30.9 43.4365 29.9943 43.1546 29.1202 42.7915L29.0962 42.7819C28.7881 42.6542 28.4674 42.5102 28.1419 42.348C27.5529 42.0577 26.9881 41.7206 26.4531 41.3399C26.5184 41.3303 26.5837 41.3187 26.6451 41.3072L26.8496 41.2698C29.0211 40.8669 31.1012 40.0725 32.9884 38.9252C33.0547 38.8849 33.1219 38.8436 33.1881 38.8014C33.2544 38.7592 33.3485 38.7054 33.4281 38.6487C33.4733 38.6171 33.5213 38.5835 33.5693 38.5527Z" fill="url(#paint50_linear_797_27125)"/>
<path d="M33.1843 38.8008C32.5439 41.9335 31.6693 43.3055 31.6693 43.3055C29.5753 42.9935 27.6993 41.9316 26.7239 41.2893L26.8458 41.2663C29.0173 40.8634 31.0974 40.069 32.9846 38.9218C33.0508 38.8843 33.1181 38.843 33.1843 38.8008Z" fill="url(#paint51_linear_797_27125)"/>
<path style="mix-blend-mode:multiply" opacity="0.5" d="M33.3582 39.4885C33.3582 39.5029 33.3515 39.5183 33.3477 39.5327V39.5462C32.7505 41.9521 31.8807 43.5334 31.8259 43.6294V43.6342C30.9065 43.4136 30.0027 43.1324 29.1204 42.7922L29.0964 42.7826C28.7747 42.6563 28.4596 42.5133 28.1527 42.3544L28.1421 42.3486C27.6065 42.0596 27.1056 41.7105 26.6492 41.3079L26.8537 41.2705C29.2606 42.2968 31.3488 41.9425 31.3488 41.9425C32.0746 41.0967 32.6449 39.8303 32.9925 38.9269C33.0587 38.8866 33.1259 38.8453 33.1921 38.803C33.2584 38.7608 33.3525 38.707 33.4322 38.6504C33.4386 38.9316 33.4138 39.2127 33.3582 39.4885Z" fill="url(#paint52_linear_797_27125)"/>
<path d="M20.3184 5.22082L20.5104 5.18817C19.9747 4.80657 19.409 4.46911 18.8187 4.17913L18.8101 4.17432C18.4884 4.01495 18.1716 3.87286 17.8673 3.74709L17.8394 3.73556C16.9665 3.37229 16.0617 3.09074 15.1368 2.89453V2.89933C14.477 4.19855 13.9655 5.56794 13.6122 6.98161C13.6119 6.98609 13.6119 6.99058 13.6122 6.99506C13.6122 7.01042 13.6054 7.02482 13.6016 7.04018C13.5152 7.38485 13.4461 7.6988 13.3904 7.97435C13.4384 7.94266 13.4864 7.91002 13.5363 7.87834C13.6157 7.82649 13.6954 7.77561 13.7754 7.72568C13.8426 7.6844 13.9088 7.64216 13.976 7.60183C15.8629 6.45461 17.9427 5.66017 20.1139 5.2573L20.3184 5.22082Z" fill="url(#paint53_linear_797_27125)"/>
<path d="M20.2365 5.23493C19.2611 4.59551 17.386 3.53366 15.2921 3.21875C15.2921 3.21875 14.4175 4.58975 13.7761 7.72251C13.8433 7.68123 13.9096 7.63898 13.9768 7.59866C15.8636 6.45144 17.9434 5.657 20.1146 5.25413L20.2365 5.23493Z" fill="url(#paint54_linear_797_27125)"/>
<path style="mix-blend-mode:multiply" opacity="0.5" d="M20.3183 5.22082C19.861 4.81775 19.3591 4.46825 18.8225 4.17913L18.8138 4.17432C18.5074 4.01514 18.1927 3.87252 17.871 3.74709L17.8432 3.73556C16.9619 3.39573 16.059 3.11477 15.1405 2.89453V2.89933C15.0868 2.99534 14.2169 4.5766 13.6197 6.98257C13.6194 6.98705 13.6194 6.99154 13.6197 6.99602C13.6197 7.01138 13.613 7.02578 13.6092 7.04114C13.5569 7.31763 13.535 7.59901 13.5439 7.88025C13.6233 7.82841 13.703 7.77753 13.783 7.7276C13.8502 7.68632 13.9164 7.64407 13.9836 7.60375C14.3312 6.70031 14.9015 5.43492 15.6273 4.58812C15.6273 4.58812 17.7155 4.23289 20.1215 5.26018L20.3183 5.22082Z" fill="url(#paint55_linear_797_27125)"/>
<g style="mix-blend-mode:soft-light">
<path d="M18.3924 2.70363C16.5682 2.03157 14.6327 1.42576 14.6327 1.42576C14.0403 2.33976 12.7653 5.61365 12.7058 5.76631C13.3779 3.48994 14.1459 1.09357 14.434 0.972596C14.7018 0.860266 16.5327 1.74066 18.3953 2.70075L18.3924 2.70363Z" fill="#F7FFFF"/>
</g>
<path d="M26.6461 5.22082L26.4541 5.18817C26.9897 4.80657 27.5555 4.46911 28.1458 4.17913L28.1544 4.17432C28.476 4.01495 28.7929 3.87286 29.0972 3.74709L29.1251 3.73556C29.998 3.37229 30.9028 3.09074 31.8277 2.89453V2.89933C32.4863 4.19902 32.9964 5.56873 33.3485 6.98257C33.3488 6.98705 33.3488 6.99154 33.3485 6.99602C33.3485 7.01138 33.3552 7.02578 33.359 7.04114C33.4454 7.38581 33.5146 7.69976 33.5703 7.9753C33.5223 7.94362 33.4742 7.91098 33.4243 7.87929C33.3456 7.82745 33.2649 7.77657 33.1853 7.72664C33.1056 7.67672 33.0518 7.64311 32.9846 7.60279C31.0978 6.45557 29.018 5.66113 26.8468 5.25826L26.6461 5.22082Z" fill="url(#paint56_linear_797_27125)"/>
<path d="M26.7297 5.23493C27.7052 4.59551 29.5812 3.53366 31.6742 3.21875C31.6742 3.21875 32.5488 4.58975 33.1902 7.72251C33.123 7.68123 33.0567 7.63898 32.9895 7.59866C31.1026 6.45144 29.0228 5.657 26.8517 5.25413L26.7297 5.23493Z" fill="url(#paint57_linear_797_27125)"/>
<path style="mix-blend-mode:multiply" opacity="0.5" d="M26.6462 5.22082C27.1037 4.81798 27.6055 4.4685 28.142 4.17913L28.1507 4.17432C28.4571 4.01514 28.7718 3.87252 29.0935 3.74709L29.1213 3.73556C30.0026 3.39573 30.9055 3.11477 31.824 2.89453V2.89933C31.8777 2.99534 32.7476 4.5766 33.3448 6.98257C33.3451 6.98705 33.3451 6.99154 33.3448 6.99602C33.3448 7.01138 33.3515 7.02578 33.3553 7.04114C33.4076 7.31763 33.4295 7.59901 33.4206 7.88025C33.3419 7.82841 33.2612 7.77753 33.1815 7.7276C33.1019 7.67768 33.0481 7.64407 32.9809 7.60375C32.6333 6.70031 32.063 5.43492 31.3372 4.58812C31.3372 4.58812 29.249 4.23289 26.8431 5.26018L26.6462 5.22082Z" fill="url(#paint58_linear_797_27125)"/>
<g style="mix-blend-mode:soft-light">
<path d="M28.5722 2.70363C30.3964 2.03157 32.3319 1.42576 32.3319 1.42576C32.9243 2.33976 34.1993 5.61365 34.2588 5.76631C33.5867 3.48994 32.8187 1.09357 32.5307 0.972596C32.2628 0.860266 30.4319 1.74066 28.5693 2.70075L28.5722 2.70363Z" fill="#F7FFFF"/>
</g>
<path d="M38.3996 12.6564L38.2844 12.4941C38.9328 12.6025 39.5715 12.763 40.194 12.9742H40.2036C40.5435 13.0884 40.869 13.2113 41.1743 13.3371L41.2012 13.3486C42.0755 13.7083 42.915 14.1477 43.7089 14.6611C43.7093 14.6626 43.7093 14.6643 43.7089 14.6659C43.2582 16.0514 42.6524 17.3815 41.903 18.631L41.8953 18.6435L41.8723 18.6819C41.6898 18.9872 41.517 19.2579 41.3615 19.4932C41.35 19.4365 41.3375 19.3789 41.326 19.3232C41.3058 19.2272 41.2857 19.1379 41.2636 19.0458C41.2463 18.969 41.228 18.8922 41.2098 18.8163C40.6842 16.6717 39.7733 14.6405 38.5216 12.8215L38.3996 12.6564Z" fill="url(#paint59_linear_797_27125)"/>
<path d="M38.4485 12.7246C39.59 12.9608 41.6686 13.533 43.3708 14.7917C43.3708 14.7917 43.0223 16.3797 41.2587 19.0506C41.2414 18.9738 41.2231 18.897 41.2049 18.8212C40.6793 16.6766 39.7684 14.6453 38.5167 12.8264L38.4485 12.7246Z" fill="url(#paint60_linear_797_27125)"/>
<path style="mix-blend-mode:multiply" opacity="0.5" d="M38.3997 12.6562C39.0079 12.6942 39.6099 12.8011 40.1941 12.975H40.2037C40.5335 13.0785 40.8575 13.1997 41.1743 13.3379L41.2012 13.3494C42.0652 13.731 42.9029 14.1695 43.7089 14.6619C43.7093 14.6634 43.7093 14.6651 43.7089 14.6667C43.6792 14.7732 43.179 16.5062 41.903 18.6318L41.8953 18.6443L41.8723 18.6827C41.7139 18.9156 41.5307 19.1306 41.326 19.324C41.3058 19.228 41.2857 19.1387 41.2636 19.0466C41.2463 18.9698 41.2281 18.893 41.2098 18.8171C41.6006 17.9319 42.0912 16.6329 42.1699 15.5221C42.1699 15.5221 40.942 13.794 38.5139 12.8223L38.3997 12.6562Z" fill="url(#paint61_linear_797_27125)"/>
<g style="mix-blend-mode:soft-light">
<path d="M41.4736 12.4355C43.1163 13.1777 44.7907 14.0293 44.7907 14.0293C44.591 15.0182 43.3103 18.0117 43.2546 18.1519C44.2876 16.2106 45.3361 14.1282 45.2237 13.8613C45.1191 13.6136 43.3372 13.0078 41.4794 12.4355H41.4736Z" fill="#F7FFFF"/>
</g>
<path d="M38.3996 33.8358C38.3612 33.8905 38.3238 33.9443 38.2844 33.998C38.9328 33.8892 39.5713 33.7287 40.194 33.518H40.2036C40.5435 33.4037 40.869 33.2799 41.1743 33.1541L41.2012 33.1426C42.0755 32.7829 42.915 32.3436 43.7089 31.8302C43.7093 31.8283 43.7093 31.8263 43.7089 31.8244C43.2582 30.4389 42.6524 29.1087 41.903 27.8592L41.8953 27.8477L41.8723 27.8084C41.6898 27.5031 41.517 27.2323 41.3615 26.998C41.35 27.0537 41.3375 27.1113 41.326 27.168C41.3058 27.264 41.2857 27.3533 41.2636 27.4454C41.2463 27.5213 41.228 27.5981 41.2098 27.6739C40.6842 29.8185 39.7733 31.8498 38.5216 33.6687L38.3996 33.8358Z" fill="url(#paint62_linear_797_27125)"/>
<path d="M38.4485 33.7665C39.59 33.5303 41.6686 32.9581 43.3708 31.7003C43.3708 31.7003 43.0223 30.1114 41.2587 27.4414C41.2414 27.5173 41.2231 27.5941 41.2049 27.6699C40.6793 29.8145 39.7684 31.8457 38.5167 33.6647L38.4485 33.7665Z" fill="url(#paint63_linear_797_27125)"/>
<path style="mix-blend-mode:multiply" opacity="0.5" d="M38.3997 33.8358C39.0079 33.7978 39.6098 33.6912 40.1941 33.518H40.2037C40.5335 33.4141 40.8575 33.2926 41.1743 33.1541L41.2012 33.1426C42.0652 32.761 42.9029 32.3225 43.7089 31.8301C43.7093 31.8282 43.7093 31.8263 43.7089 31.8244C43.6792 31.7178 43.179 29.9849 41.903 27.8592L41.8953 27.8477L41.8723 27.8083C41.7141 27.5756 41.5309 27.3608 41.326 27.168C41.3058 27.264 41.2857 27.3533 41.2636 27.4454C41.2463 27.5213 41.2281 27.5981 41.2098 27.6739C41.6006 28.5591 42.0912 29.8581 42.1699 30.9699C42.1699 30.9699 40.942 32.6981 38.5139 33.6687L38.3997 33.8358Z" fill="url(#paint64_linear_797_27125)"/>
<g style="mix-blend-mode:soft-light">
<path d="M41.4736 34.0571C43.1163 33.3149 44.7907 32.4643 44.7907 32.4643C44.591 31.4745 43.3103 28.4809 43.2546 28.3359C44.2876 30.2772 45.3361 32.3597 45.2237 32.6266C45.1191 32.8752 43.3372 33.481 41.4794 34.0523L41.4736 34.0571Z" fill="#F7FFFF"/>
</g>
<path d="M8.47377 12.6564L8.58993 12.4941C7.94117 12.6024 7.30224 12.7629 6.67937 12.9742H6.66976C6.32989 13.0884 6.00539 13.2113 5.70008 13.3371L5.67224 13.3486C4.79812 13.7082 3.95897 14.1475 3.16545 14.6611C3.16523 14.6626 3.16523 14.6643 3.16545 14.6659C3.61649 16.0514 4.22263 17.3816 4.97234 18.631C4.9742 18.6354 4.97645 18.6395 4.97905 18.6435L5.00306 18.6819C5.18547 18.9872 5.35829 19.2579 5.51287 19.4932C5.52439 19.4365 5.53687 19.3789 5.54935 19.3232C5.56855 19.2272 5.58968 19.1379 5.6108 19.0458L5.66552 18.8163C6.19065 16.6716 7.10156 14.6402 8.35376 12.8215L8.47377 12.6564Z" fill="url(#paint65_linear_797_27125)"/>
<path d="M8.42773 12.7246C7.28619 12.9608 5.2076 13.533 3.50537 14.7917C3.50537 14.7917 3.85484 16.3797 5.61756 19.0506L5.67229 18.8212C6.19742 16.6764 7.10833 14.6451 8.36053 12.8264L8.42773 12.7246Z" fill="url(#paint66_linear_797_27125)"/>
<path style="mix-blend-mode:multiply" opacity="0.5" d="M8.47377 12.6562C7.86549 12.6942 7.26349 12.8011 6.67937 12.975H6.66976C6.34033 13.0787 6.01665 13.1998 5.70008 13.3379L5.67224 13.3494C4.80867 13.7312 3.97124 14.1697 3.16545 14.6619C3.16523 14.6635 3.16523 14.6651 3.16545 14.6667C3.19521 14.7732 3.69542 16.5062 4.97234 18.6318C4.9742 18.6362 4.97645 18.6404 4.97905 18.6443L5.00306 18.6827C5.16114 18.9158 5.34434 19.1309 5.54935 19.324C5.56855 19.228 5.58968 19.1387 5.6108 19.0466L5.66552 18.8171C5.2738 17.9319 4.7832 16.6329 4.70543 15.5221C4.70543 15.5221 5.93243 13.794 8.36048 12.8223L8.47377 12.6562Z" fill="url(#paint67_linear_797_27125)"/>
<g style="mix-blend-mode:soft-light">
<path d="M5.39948 12.4355C3.75773 13.1777 2.08239 14.0293 2.08239 14.0293C2.28305 15.0182 3.56284 18.0117 3.61853 18.1519C2.58451 16.2106 1.5361 14.1282 1.64843 13.8613C1.75308 13.6136 3.53596 13.0078 5.39276 12.4355H5.39948Z" fill="#F7FFFF"/>
</g>
<path d="M8.47376 33.8358C8.51216 33.8905 8.55056 33.9443 8.58992 33.998C7.94126 33.8894 7.30236 33.7288 6.67936 33.518H6.66975C6.32988 33.4037 6.00537 33.2799 5.70007 33.1541L5.67223 33.1426C4.79811 32.783 3.95896 32.3437 3.16544 31.8302C3.16523 31.8282 3.16523 31.8263 3.16544 31.8244C3.61647 30.4388 4.22262 29.1087 4.97233 27.8592C4.9742 27.8552 4.97645 27.8513 4.97904 27.8477L5.00304 27.8084C5.18546 27.5031 5.35828 27.2323 5.51285 26.998C5.52438 27.0537 5.53686 27.1113 5.54934 27.168C5.56854 27.264 5.58966 27.3533 5.61079 27.4454L5.6655 27.6739C6.19064 29.8187 7.10155 31.85 8.35374 33.6687L8.47376 33.8358Z" fill="url(#paint68_linear_797_27125)"/>
<path d="M8.42773 33.7665C7.28619 33.5303 5.2076 32.9581 3.50537 31.7003C3.50537 31.7003 3.85484 30.1114 5.61756 27.4414L5.67229 27.6699C6.19742 29.8147 7.10833 31.846 8.36053 33.6647L8.42773 33.7665Z" fill="url(#paint69_linear_797_27125)"/>
<path style="mix-blend-mode:multiply" opacity="0.5" d="M8.47375 33.8356C7.86556 33.7977 7.26361 33.6911 6.67936 33.5178H6.66975C6.34031 33.4138 6.01663 33.2923 5.70007 33.154L5.67223 33.1424C4.80866 32.7606 3.97123 32.3222 3.16544 31.83C3.16523 31.8281 3.16523 31.8262 3.16544 31.8243C3.1952 31.7177 3.69541 29.9847 4.97233 27.8591C4.9742 27.8551 4.97645 27.8512 4.97904 27.8476L5.00304 27.8082C5.15985 27.5726 5.34244 27.3553 5.54742 27.1602C5.56662 27.2562 5.58774 27.3455 5.60886 27.4376L5.66358 27.6661C5.27187 28.5513 4.78126 29.8503 4.7035 30.9621C4.7035 30.9621 5.93049 32.6903 8.35855 33.6609L8.47375 33.8356Z" fill="url(#paint70_linear_797_27125)"/>
<g style="mix-blend-mode:soft-light">
<path d="M5.39948 34.0571C3.75773 33.3149 2.08239 32.4643 2.08239 32.4643C2.28305 31.4745 3.56284 28.4809 3.61853 28.3359C2.58451 30.2772 1.5361 32.3597 1.64843 32.6266C1.75308 32.8752 3.53596 33.481 5.39276 34.0523L5.39948 34.0571Z" fill="#F7FFFF"/>
</g>
<g style="mix-blend-mode:multiply" opacity="0.5">
<path d="M40.5079 29.9922C39.1926 33.3109 36.9363 36.173 34.0162 38.2266C31.0962 40.2801 27.6396 41.4356 24.0716 41.5509C20.5037 41.6663 16.9797 40.7365 13.9331 38.8759C10.8865 37.0153 8.44994 34.3049 6.9231 31.078C13.6725 37.2975 27.395 43.106 40.5079 29.9922Z" fill="#C10065"/>
</g>
<g style="mix-blend-mode:multiply" opacity="0.5">
<path d="M39.4229 34.6765C38.5963 34.9137 37.8436 35.123 37.2954 35.2737C36.6607 36.0025 35.9695 36.6802 35.2283 37.3004C35.0689 37.8842 34.8174 38.7914 34.5284 39.7966C32.3864 41.3261 29.8931 42.5415 27.4238 43.2078C25.8751 42.3879 24.5339 41.6458 24.3573 41.5478C24.0667 41.5626 23.7738 41.5696 23.4788 41.569C23.1831 41.569 22.8912 41.5622 22.5993 41.5488C22.4208 41.6448 21.0421 42.4129 19.4647 43.2443C16.944 42.5975 14.57 41.4752 12.4704 39.9378C12.1651 38.8817 11.8944 37.912 11.7292 37.3014C10.9884 36.6811 10.2975 36.0035 9.66314 35.2746C9.20422 35.1489 8.60705 34.9866 7.93499 34.7946C7.34156 33.6414 6.9962 32.3767 6.92114 31.082C11.783 39.1217 28.0968 48.6947 40.5059 29.9961C40.743 31.5284 40.3158 33.1308 39.4229 34.6765Z" fill="#C10065"/>
</g>
<g style="mix-blend-mode:soft-light">
<path d="M23.4799 4.93945C19.5401 4.93983 15.7054 6.21033 12.5448 8.56242C9.38416 10.9145 7.06603 14.2229 5.93433 17.9966C8.93075 11.372 15.7349 8.18166 23.4799 8.18166C31.9286 8.18166 38.9555 12.2438 41.4738 19.8457C39.8791 11.3595 32.4298 4.93945 23.4799 4.93945Z" fill="#F7FFFF"/>
</g>
<path d="M23.4798 8.18164C20.4999 8.18259 17.5872 9.06703 15.1099 10.7231C12.6327 12.3793 10.702 14.7327 9.56213 17.4859C8.42222 20.2391 8.12422 23.2685 8.7058 26.1911C9.28737 29.1137 10.7224 31.7982 12.8295 33.9053C14.9366 36.0123 17.6211 37.4474 20.5437 38.029C23.4662 38.6105 26.4956 38.3125 29.2488 37.1726C32.002 36.0327 34.3555 34.1021 36.0116 31.6248C37.6677 29.1475 38.5522 26.2348 38.5531 23.255C38.5531 21.2755 38.1632 19.3154 37.4057 17.4867C36.6482 15.6579 35.5379 13.9962 34.1382 12.5965C32.7385 11.1968 31.0769 10.0865 29.2481 9.32903C27.4193 8.57153 25.4592 8.18164 23.4798 8.18164ZM23.4798 37.0543C20.7493 37.0545 18.0801 36.245 15.8097 34.7281C13.5393 33.2113 11.7698 31.0552 10.7248 28.5326C9.67977 26.0101 9.40631 23.2342 9.93895 20.5562C10.4716 17.8782 11.7864 15.4183 13.7171 13.4876C15.6479 11.5568 18.1078 10.242 20.7858 9.70937C23.4638 9.17673 26.2396 9.45019 28.7622 10.4952C31.2848 11.5402 33.4409 13.3098 34.9577 15.5801C36.4746 17.8505 37.2841 20.5197 37.2839 23.2502C37.2839 26.9113 35.8295 30.4224 33.2407 33.0112C30.652 35.5999 27.1408 37.0543 23.4798 37.0543Z" fill="url(#paint71_linear_797_27125)"/>
<g style="mix-blend-mode:soft-light">
<path d="M11.3511 32.1934C11.3511 32.1934 15.3834 37.0543 23.4798 37.0543C31.5762 37.0543 35.6076 32.1934 35.6076 32.1934C35.6076 32.1934 31.6713 38.5376 23.4798 38.5376C15.2884 38.5376 11.3511 32.1934 11.3511 32.1934Z" fill="#F7FFFF"/>
</g>
<path d="M11.3511 32.1934C11.3511 32.1934 15.3892 38.3177 23.4798 38.3177C31.5705 38.3177 35.6076 32.1934 35.6076 32.1934C35.6076 32.1934 31.6713 38.5376 23.4798 38.5376C15.2884 38.5376 11.3511 32.1934 11.3511 32.1934Z" fill="url(#paint72_linear_797_27125)"/>
<path d="M23.4798 6.69273C22.8807 7.4608 27.661 8.72811 28.2332 8.18182C28.8054 7.63553 28.2678 6.82714 27.1886 6.69273C26.1095 6.55832 23.9503 6.08596 23.4798 6.69273Z" fill="#F7FFFF"/>
<path d="M22.4132 38.5002C22.0657 37.855 25.8321 37.205 26.3611 37.6774C26.8901 38.1497 25.9473 38.3369 25.9473 38.3369L22.4132 38.5002Z" fill="#F7FFFF"/>
<path d="M45.2949 14.7965C45.3084 15.3024 42.8457 20.1585 41.7551 22.1536L41.6812 20.966C41.6812 20.966 44.7813 16.1454 45.2181 13.8613L45.3141 14.0533C45.318 14.3154 45.2949 14.7609 45.2949 14.7965Z" fill="#680A0A"/>
<path d="M45.2949 32.6401C45.282 32.6663 45.2629 32.689 45.2392 32.7063C45.2316 32.6823 45.2248 32.6573 45.2181 32.6324C44.475 29.9201 41.6812 25.5345 41.6812 25.5345L41.7551 24.3555C42.8457 26.3496 45.485 31.2594 45.2949 31.7126C45.2786 31.7548 45.3362 32.5488 45.2949 32.6401Z" fill="url(#paint73_linear_797_27125)"/>
<path d="M5.20279 24.3555V25.7198C5.20279 25.7198 3.03779 28.8179 1.65719 32.6208C1.62935 32.4701 1.68024 31.7568 1.66296 31.7116C1.47286 31.2594 4.11214 26.3496 5.20279 24.3555Z" fill="url(#paint74_linear_797_27125)"/>
<path d="M5.20272 20.7147V22.1548C4.11206 20.1598 1.6504 15.4573 1.66288 14.7977C1.66288 14.7516 1.62544 13.9989 1.66288 13.877C3.24318 18.2876 5.20272 20.7147 5.20272 20.7147Z" fill="#680A0A"/>
<path d="M21.7864 41.4824L22.6005 41.5477C22.1771 41.782 14.9822 45.7663 14.4292 45.5349C14.2948 45.4783 14.0586 44.931 13.7764 44.1332C13.8081 44.1985 14.3131 45.2354 14.5819 45.2354C14.8507 45.2354 21.7864 41.4824 21.7864 41.4824Z" fill="#680A0A"/>
<path d="M33.1816 44.1396C32.9003 44.9346 32.6641 45.4789 32.5306 45.5356C31.9776 45.767 24.7828 41.7826 24.3584 41.5474L25.379 41.4629C25.379 41.4629 30.2284 44.5025 32.2023 45.1112C32.7025 45.2639 33.1432 44.2299 33.1816 44.1396Z" fill="#680A0A"/>
<path d="M26.992 27.888V30H18.528V28.32L22.848 24.24C23.3067 23.8027 23.616 23.4293 23.776 23.12C23.936 22.8 24.016 22.4853 24.016 22.176C24.016 21.728 23.8613 21.3867 23.552 21.152C23.2533 20.9067 22.8107 20.784 22.224 20.784C21.7333 20.784 21.2907 20.88 20.896 21.072C20.5013 21.2533 20.1707 21.5307 19.904 21.904L18.016 20.688C18.4533 20.0373 19.056 19.5307 19.824 19.168C20.592 18.7947 21.472 18.608 22.464 18.608C23.296 18.608 24.0213 18.7467 24.64 19.024C25.2693 19.2907 25.7547 19.6747 26.096 20.176C26.448 20.6667 26.624 21.248 26.624 21.92C26.624 22.528 26.496 23.0987 26.24 23.632C25.984 24.1653 25.488 24.7733 24.752 25.456L22.176 27.888H26.992Z" fill="white"/>
<defs>
<linearGradient id="paint0_linear_797_27125" x1="23" y1="9" x2="23" y2="39" gradientUnits="userSpaceOnUse">
<stop stop-color="#6D63CF"/>
<stop offset="1" stop-color="#5244DF"/>
</linearGradient>
<linearGradient id="paint1_linear_797_27125" x1="8.6504" y1="4.7778" x2="14.1363" y2="4.7778" gradientUnits="userSpaceOnUse">
<stop stop-color="#E5552F"/>
<stop offset="0.14" stop-color="#E75A34"/>
<stop offset="0.3" stop-color="#ED6843"/>
<stop offset="0.48" stop-color="#F77E5B"/>
<stop offset="0.49" stop-color="#F77F5C"/>
<stop offset="1" stop-color="#F7A66C"/>
</linearGradient>
<linearGradient id="paint2_linear_797_27125" x1="8.6504" y1="4.77838" x2="14.1363" y2="4.77838" gradientUnits="userSpaceOnUse">
<stop stop-color="#B01B03"/>
<stop offset="0.18" stop-color="#B11E06"/>
<stop offset="0.31" stop-color="#B4260F"/>
<stop offset="0.43" stop-color="#B83520"/>
<stop offset="0.54" stop-color="#BE4936"/>
<stop offset="0.64" stop-color="#C76454"/>
<stop offset="0.74" stop-color="#D18578"/>
<stop offset="0.84" stop-color="#DDACA3"/>
<stop offset="0.93" stop-color="#EBD7D3"/>
<stop offset="1" stop-color="#F7FFFF"/>
</linearGradient>
<linearGradient id="paint3_linear_797_27125" x1="13.9986" y1="1.31145" x2="13.8652" y2="5.935" gradientUnits="userSpaceOnUse">
<stop stop-color="#E84E1A"/>
<stop offset="0.51" stop-color="#D74348"/>
<stop offset="1" stop-color="#C62C15"/>
</linearGradient>
<linearGradient id="paint4_linear_797_27125" x1="8.657" y1="7.30254" x2="11.302" y2="7.30254" gradientUnits="userSpaceOnUse">
<stop stop-color="#B01B03"/>
<stop offset="0.18" stop-color="#B11E06"/>
<stop offset="0.31" stop-color="#B4260F"/>
<stop offset="0.43" stop-color="#B83520"/>
<stop offset="0.54" stop-color="#BE4936"/>
<stop offset="0.64" stop-color="#C76454"/>
<stop offset="0.74" stop-color="#D18578"/>
<stop offset="0.84" stop-color="#DDACA3"/>
<stop offset="0.93" stop-color="#EBD7D3"/>
<stop offset="1" stop-color="#F7FFFF"/>
</linearGradient>
<linearGradient id="paint5_linear_797_27125" x1="1.00519" y1="11.0691" x2="10.5302" y2="11.0691" gradientUnits="userSpaceOnUse">
<stop stop-color="#E5552F"/>
<stop offset="0.14" stop-color="#E75A34"/>
<stop offset="0.3" stop-color="#ED6843"/>
<stop offset="0.48" stop-color="#F77E5B"/>
<stop offset="0.49" stop-color="#F77F5C"/>
<stop offset="1" stop-color="#F7A66C"/>
</linearGradient>
<linearGradient id="paint6_linear_797_27125" x1="1.00529" y1="11.0684" x2="10.5303" y2="11.0684" gradientUnits="userSpaceOnUse">
<stop stop-color="#B01B03"/>
<stop offset="0.18" stop-color="#B11E06"/>
<stop offset="0.31" stop-color="#B4260F"/>
<stop offset="0.43" stop-color="#B83520"/>
<stop offset="0.54" stop-color="#BE4936"/>
<stop offset="0.64" stop-color="#C76454"/>
<stop offset="0.74" stop-color="#D18578"/>
<stop offset="0.84" stop-color="#DDACA3"/>
<stop offset="0.93" stop-color="#EBD7D3"/>
<stop offset="1" stop-color="#F7FFFF"/>
</linearGradient>
<linearGradient id="paint7_linear_797_27125" x1="5.46817" y1="10.2576" x2="10.118" y2="9.93276" gradientUnits="userSpaceOnUse">
<stop stop-color="#E84E1A"/>
<stop offset="0.51" stop-color="#D74348"/>
<stop offset="1" stop-color="#C62C15"/>
</linearGradient>
<linearGradient id="paint8_linear_797_27125" x1="6.05148" y1="12.4932" x2="10.4909" y2="12.4932" gradientUnits="userSpaceOnUse">
<stop stop-color="#B01B03"/>
<stop offset="0.18" stop-color="#B11E06"/>
<stop offset="0.31" stop-color="#B4260F"/>
<stop offset="0.43" stop-color="#B83520"/>
<stop offset="0.54" stop-color="#BE4936"/>
<stop offset="0.64" stop-color="#C76454"/>
<stop offset="0.74" stop-color="#D18578"/>
<stop offset="0.84" stop-color="#DDACA3"/>
<stop offset="0.93" stop-color="#EBD7D3"/>
<stop offset="1" stop-color="#F7FFFF"/>
</linearGradient>
<linearGradient id="paint9_linear_797_27125" x1="9.40117" y1="11.1805" x2="5.8623" y2="4.30434" gradientUnits="userSpaceOnUse">
<stop stop-color="#E5552F"/>
<stop offset="0.14" stop-color="#E75A34"/>
<stop offset="0.3" stop-color="#ED6843"/>
<stop offset="0.48" stop-color="#F77E5B"/>
<stop offset="0.49" stop-color="#F77F5C"/>
<stop offset="1" stop-color="#F7A66C"/>
</linearGradient>
<linearGradient id="paint10_linear_797_27125" x1="2.90331" y1="6.64645" x2="11.3108" y2="6.64645" gradientUnits="userSpaceOnUse">
<stop stop-color="#B01B03"/>
<stop offset="0.18" stop-color="#B11E06"/>
<stop offset="0.31" stop-color="#B4260F"/>
<stop offset="0.43" stop-color="#B83520"/>
<stop offset="0.54" stop-color="#BE4936"/>
<stop offset="0.64" stop-color="#C76454"/>
<stop offset="0.74" stop-color="#D18578"/>
<stop offset="0.84" stop-color="#DDACA3"/>
<stop offset="0.93" stop-color="#EBD7D3"/>
<stop offset="1" stop-color="#F7FFFF"/>
</linearGradient>
<linearGradient id="paint11_linear_797_27125" x1="8.31212" y1="7.21826" x2="12.169" y2="10.7106" gradientUnits="userSpaceOnUse">
<stop stop-color="#E84E1A"/>
<stop offset="0.51" stop-color="#D74348"/>
<stop offset="1" stop-color="#C62C15"/>
</linearGradient>
<linearGradient id="paint12_linear_797_27125" x1="32.8579" y1="4.7778" x2="38.3448" y2="4.7778" gradientUnits="userSpaceOnUse">
<stop stop-color="#E5552F"/>
<stop offset="0.14" stop-color="#E75A34"/>
<stop offset="0.3" stop-color="#ED6843"/>
<stop offset="0.48" stop-color="#F77E5B"/>
<stop offset="0.49" stop-color="#F77F5C"/>
<stop offset="1" stop-color="#F7A66C"/>
</linearGradient>
<linearGradient id="paint13_linear_797_27125" x1="32.858" y1="4.77838" x2="38.3449" y2="4.77838" gradientUnits="userSpaceOnUse">
<stop stop-color="#B01B03"/>
<stop offset="0.18" stop-color="#B11E06"/>
<stop offset="0.31" stop-color="#B4260F"/>
<stop offset="0.43" stop-color="#B83520"/>
<stop offset="0.54" stop-color="#BE4936"/>
<stop offset="0.64" stop-color="#C76454"/>
<stop offset="0.74" stop-color="#D18578"/>
<stop offset="0.84" stop-color="#DDACA3"/>
<stop offset="0.93" stop-color="#EBD7D3"/>
<stop offset="1" stop-color="#F7FFFF"/>
</linearGradient>
<linearGradient id="paint14_linear_797_27125" x1="35.3244" y1="4.54478" x2="35.4833" y2="9.15439" gradientUnits="userSpaceOnUse">
<stop stop-color="#E84E1A"/>
<stop offset="0.51" stop-color="#D74348"/>
<stop offset="1" stop-color="#C62C15"/>
</linearGradient>
<linearGradient id="paint15_linear_797_27125" x1="35.6921" y1="7.30254" x2="38.3381" y2="7.30254" gradientUnits="userSpaceOnUse">
<stop stop-color="#B01B03"/>
<stop offset="0.18" stop-color="#B11E06"/>
<stop offset="0.31" stop-color="#B4260F"/>
<stop offset="0.43" stop-color="#B83520"/>
<stop offset="0.54" stop-color="#BE4936"/>
<stop offset="0.64" stop-color="#C76454"/>
<stop offset="0.74" stop-color="#D18578"/>
<stop offset="0.84" stop-color="#DDACA3"/>
<stop offset="0.93" stop-color="#EBD7D3"/>
<stop offset="1" stop-color="#F7FFFF"/>
</linearGradient>
<linearGradient id="paint16_linear_797_27125" x1="36.4641" y1="11.0691" x2="45.99" y2="11.0691" gradientUnits="userSpaceOnUse">
<stop stop-color="#E5552F"/>
<stop offset="0.14" stop-color="#E75A34"/>
<stop offset="0.3" stop-color="#ED6843"/>
<stop offset="0.48" stop-color="#F77E5B"/>
<stop offset="0.49" stop-color="#F77F5C"/>
<stop offset="1" stop-color="#F7A66C"/>
</linearGradient>
<linearGradient id="paint17_linear_797_27125" x1="36.4641" y1="11.0684" x2="45.9891" y2="11.0684" gradientUnits="userSpaceOnUse">
<stop stop-color="#B01B03"/>
<stop offset="0.18" stop-color="#B11E06"/>
<stop offset="0.31" stop-color="#B4260F"/>
<stop offset="0.43" stop-color="#B83520"/>
<stop offset="0.54" stop-color="#BE4936"/>
<stop offset="0.64" stop-color="#C76454"/>
<stop offset="0.74" stop-color="#D18578"/>
<stop offset="0.84" stop-color="#DDACA3"/>
<stop offset="0.93" stop-color="#EBD7D3"/>
<stop offset="1" stop-color="#F7FFFF"/>
</linearGradient>
<linearGradient id="paint18_linear_797_27125" x1="41.1453" y1="10.762" x2="36.4867" y2="10.456" gradientUnits="userSpaceOnUse">
<stop stop-color="#E84E1A"/>
<stop offset="0.51" stop-color="#D74348"/>
<stop offset="1" stop-color="#C62C15"/>
</linearGradient>
<linearGradient id="paint19_linear_797_27125" x1="36.5043" y1="12.4932" x2="40.9428" y2="12.4932" gradientUnits="userSpaceOnUse">
<stop stop-color="#B01B03"/>
<stop offset="0.18" stop-color="#B11E06"/>
<stop offset="0.31" stop-color="#B4260F"/>
<stop offset="0.43" stop-color="#B83520"/>
<stop offset="0.54" stop-color="#BE4936"/>
<stop offset="0.64" stop-color="#C76454"/>
<stop offset="0.74" stop-color="#D18578"/>
<stop offset="0.84" stop-color="#DDACA3"/>
<stop offset="0.93" stop-color="#EBD7D3"/>
<stop offset="1" stop-color="#F7FFFF"/>
</linearGradient>
<linearGradient id="paint20_linear_797_27125" x1="40.4003" y1="13.4933" x2="39.8953" y2="6.41461" gradientUnits="userSpaceOnUse">
<stop stop-color="#E5552F"/>
<stop offset="0.14" stop-color="#E75A34"/>
<stop offset="0.3" stop-color="#ED6843"/>
<stop offset="0.48" stop-color="#F77E5B"/>
<stop offset="0.49" stop-color="#F77F5C"/>
<stop offset="1" stop-color="#F7A66C"/>
</linearGradient>
<linearGradient id="paint21_linear_797_27125" x1="35.6843" y1="6.64645" x2="44.0908" y2="6.64645" gradientUnits="userSpaceOnUse">
<stop stop-color="#B01B03"/>
<stop offset="0.18" stop-color="#B11E06"/>
<stop offset="0.31" stop-color="#B4260F"/>
<stop offset="0.43" stop-color="#B83520"/>
<stop offset="0.54" stop-color="#BE4936"/>
<stop offset="0.64" stop-color="#C76454"/>
<stop offset="0.74" stop-color="#D18578"/>
<stop offset="0.84" stop-color="#DDACA3"/>
<stop offset="0.93" stop-color="#EBD7D3"/>
<stop offset="1" stop-color="#F7FFFF"/>
</linearGradient>
<linearGradient id="paint22_linear_797_27125" x1="39.9259" y1="6.5139" x2="36.0746" y2="9.99345" gradientUnits="userSpaceOnUse">
<stop stop-color="#E84E1A"/>
<stop offset="0.51" stop-color="#D74348"/>
<stop offset="1" stop-color="#C62C15"/>
</linearGradient>
<linearGradient id="paint23_linear_797_27125" x1="8.65039" y1="41.6447" x2="14.1363" y2="41.6447" gradientUnits="userSpaceOnUse">
<stop stop-color="#E5552F"/>
<stop offset="0.14" stop-color="#E75A34"/>
<stop offset="0.3" stop-color="#ED6843"/>
<stop offset="0.48" stop-color="#F77E5B"/>
<stop offset="0.49" stop-color="#F77F5C"/>
<stop offset="1" stop-color="#F7A66C"/>
</linearGradient>
<linearGradient id="paint24_linear_797_27125" x1="8.65039" y1="41.6447" x2="14.1363" y2="41.6447" gradientUnits="userSpaceOnUse">
<stop stop-color="#B01B03"/>
<stop offset="0.18" stop-color="#B11E06"/>
<stop offset="0.31" stop-color="#B4260F"/>
<stop offset="0.43" stop-color="#B83520"/>
<stop offset="0.54" stop-color="#BE4936"/>
<stop offset="0.64" stop-color="#C76454"/>
<stop offset="0.74" stop-color="#D18578"/>
<stop offset="0.84" stop-color="#DDACA3"/>
<stop offset="0.93" stop-color="#EBD7D3"/>
<stop offset="1" stop-color="#F7FFFF"/>
</linearGradient>
<linearGradient id="paint25_linear_797_27125" x1="11.6212" y1="41.9573" x2="11.4626" y2="37.3486" gradientUnits="userSpaceOnUse">
<stop stop-color="#E84E1A"/>
<stop offset="0.51" stop-color="#D74348"/>
<stop offset="1" stop-color="#C62C15"/>
</linearGradient>
<linearGradient id="paint26_linear_797_27125" x1="8.657" y1="39.1218" x2="11.302" y2="39.1218" gradientUnits="userSpaceOnUse">
<stop stop-color="#B01B03"/>
<stop offset="0.18" stop-color="#B11E06"/>
<stop offset="0.31" stop-color="#B4260F"/>
<stop offset="0.43" stop-color="#B83520"/>
<stop offset="0.54" stop-color="#BE4936"/>
<stop offset="0.64" stop-color="#C76454"/>
<stop offset="0.74" stop-color="#D18578"/>
<stop offset="0.84" stop-color="#DDACA3"/>
<stop offset="0.93" stop-color="#EBD7D3"/>
<stop offset="1" stop-color="#F7FFFF"/>
</linearGradient>
<linearGradient id="paint27_linear_797_27125" x1="1.00519" y1="35.3557" x2="10.5302" y2="35.3557" gradientUnits="userSpaceOnUse">
<stop stop-color="#E5552F"/>
<stop offset="0.14" stop-color="#E75A34"/>
<stop offset="0.3" stop-color="#ED6843"/>
<stop offset="0.48" stop-color="#F77E5B"/>
<stop offset="0.49" stop-color="#F77F5C"/>
<stop offset="1" stop-color="#F7A66C"/>
</linearGradient>
<linearGradient id="paint28_linear_797_27125" x1="1.00529" y1="35.3547" x2="10.5303" y2="35.3547" gradientUnits="userSpaceOnUse">
<stop stop-color="#B01B03"/>
<stop offset="0.18" stop-color="#B11E06"/>
<stop offset="0.31" stop-color="#B4260F"/>
<stop offset="0.43" stop-color="#B83520"/>
<stop offset="0.54" stop-color="#BE4936"/>
<stop offset="0.64" stop-color="#C76454"/>
<stop offset="0.74" stop-color="#D18578"/>
<stop offset="0.84" stop-color="#DDACA3"/>
<stop offset="0.93" stop-color="#EBD7D3"/>
<stop offset="1" stop-color="#F7FFFF"/>
</linearGradient>
<linearGradient id="paint29_linear_797_27125" x1="5.84736" y1="35.61" x2="10.5067" y2="35.9153" gradientUnits="userSpaceOnUse">
<stop stop-color="#E84E1A"/>
<stop offset="0.51" stop-color="#D74348"/>
<stop offset="1" stop-color="#C62C15"/>
</linearGradient>
<linearGradient id="paint30_linear_797_27125" x1="6.05148" y1="33.9292" x2="10.4909" y2="33.9292" gradientUnits="userSpaceOnUse">
<stop stop-color="#B01B03"/>
<stop offset="0.18" stop-color="#B11E06"/>
<stop offset="0.31" stop-color="#B4260F"/>
<stop offset="0.43" stop-color="#B83520"/>
<stop offset="0.54" stop-color="#BE4936"/>
<stop offset="0.64" stop-color="#C76454"/>
<stop offset="0.74" stop-color="#D18578"/>
<stop offset="0.84" stop-color="#DDACA3"/>
<stop offset="0.93" stop-color="#EBD7D3"/>
<stop offset="1" stop-color="#F7FFFF"/>
</linearGradient>
<linearGradient id="paint31_linear_797_27125" x1="10.8643" y1="42.3762" x2="2.9023" y2="37.4" gradientUnits="userSpaceOnUse">
<stop stop-color="#E5552F"/>
<stop offset="0.14" stop-color="#E75A34"/>
<stop offset="0.3" stop-color="#ED6843"/>
<stop offset="0.48" stop-color="#F77E5B"/>
<stop offset="0.49" stop-color="#F77F5C"/>
<stop offset="1" stop-color="#F7A66C"/>
</linearGradient>
<linearGradient id="paint32_linear_797_27125" x1="2.90325" y1="39.7763" x2="11.3107" y2="39.7763" gradientUnits="userSpaceOnUse">
<stop stop-color="#B01B03"/>
<stop offset="0.18" stop-color="#B11E06"/>
<stop offset="0.31" stop-color="#B4260F"/>
<stop offset="0.43" stop-color="#B83520"/>
<stop offset="0.54" stop-color="#BE4936"/>
<stop offset="0.64" stop-color="#C76454"/>
<stop offset="0.74" stop-color="#D18578"/>
<stop offset="0.84" stop-color="#DDACA3"/>
<stop offset="0.93" stop-color="#EBD7D3"/>
<stop offset="1" stop-color="#F7FFFF"/>
</linearGradient>
<linearGradient id="paint33_linear_797_27125" x1="7.11037" y1="39.9366" x2="10.9617" y2="36.4571" gradientUnits="userSpaceOnUse">
<stop stop-color="#E84E1A"/>
<stop offset="0.51" stop-color="#D74348"/>
<stop offset="1" stop-color="#C62C15"/>
</linearGradient>
<linearGradient id="paint34_linear_797_27125" x1="32.8579" y1="41.6447" x2="38.3448" y2="41.6447" gradientUnits="userSpaceOnUse">
<stop stop-color="#E5552F"/>
<stop offset="0.14" stop-color="#E75A34"/>
<stop offset="0.3" stop-color="#ED6843"/>
<stop offset="0.48" stop-color="#F77E5B"/>
<stop offset="0.49" stop-color="#F77F5C"/>
<stop offset="1" stop-color="#F7A66C"/>
</linearGradient>
<linearGradient id="paint35_linear_797_27125" x1="32.858" y1="41.6447" x2="38.3449" y2="41.6447" gradientUnits="userSpaceOnUse">
<stop stop-color="#B01B03"/>
<stop offset="0.18" stop-color="#B11E06"/>
<stop offset="0.31" stop-color="#B4260F"/>
<stop offset="0.43" stop-color="#B83520"/>
<stop offset="0.54" stop-color="#BE4936"/>
<stop offset="0.64" stop-color="#C76454"/>
<stop offset="0.74" stop-color="#D18578"/>
<stop offset="0.84" stop-color="#DDACA3"/>
<stop offset="0.93" stop-color="#EBD7D3"/>
<stop offset="1" stop-color="#F7FFFF"/>
</linearGradient>
<linearGradient id="paint36_linear_797_27125" x1="41.1654" y1="42.8721" x2="41.2986" y2="38.2495" gradientUnits="userSpaceOnUse">
<stop stop-color="#E84E1A"/>
<stop offset="0.51" stop-color="#D74348"/>
<stop offset="1" stop-color="#C62C15"/>
</linearGradient>
<linearGradient id="paint37_linear_797_27125" x1="35.6921" y1="39.1218" x2="38.3381" y2="39.1218" gradientUnits="userSpaceOnUse">
<stop stop-color="#B01B03"/>
<stop offset="0.18" stop-color="#B11E06"/>
<stop offset="0.31" stop-color="#B4260F"/>
<stop offset="0.43" stop-color="#B83520"/>
<stop offset="0.54" stop-color="#BE4936"/>
<stop offset="0.64" stop-color="#C76454"/>
<stop offset="0.74" stop-color="#D18578"/>
<stop offset="0.84" stop-color="#DDACA3"/>
<stop offset="0.93" stop-color="#EBD7D3"/>
<stop offset="1" stop-color="#F7FFFF"/>
</linearGradient>
<linearGradient id="paint38_linear_797_27125" x1="35.7737" y1="40.0925" x2="38.3448" y2="40.0925" gradientUnits="userSpaceOnUse">
<stop stop-color="#B01B03"/>
<stop offset="0.18" stop-color="#B11E06"/>
<stop offset="0.31" stop-color="#B4260F"/>
<stop offset="0.43" stop-color="#B83520"/>
<stop offset="0.54" stop-color="#BE4936"/>
<stop offset="0.64" stop-color="#C76454"/>
<stop offset="0.74" stop-color="#D18578"/>
<stop offset="0.84" stop-color="#DDACA3"/>
<stop offset="0.93" stop-color="#EBD7D3"/>
<stop offset="1" stop-color="#F7FFFF"/>
</linearGradient>
<linearGradient id="paint39_linear_797_27125" x1="36.4641" y1="35.3557" x2="45.99" y2="35.3557" gradientUnits="userSpaceOnUse">
<stop stop-color="#E5552F"/>
<stop offset="0.14" stop-color="#E75A34"/>
<stop offset="0.3" stop-color="#ED6843"/>
<stop offset="0.48" stop-color="#F77E5B"/>
<stop offset="0.49" stop-color="#F77F5C"/>
<stop offset="1" stop-color="#F7A66C"/>
</linearGradient>
<linearGradient id="paint40_linear_797_27125" x1="36.4641" y1="35.3547" x2="45.9891" y2="35.3547" gradientUnits="userSpaceOnUse">
<stop stop-color="#B01B03"/>
<stop offset="0.18" stop-color="#B11E06"/>
<stop offset="0.31" stop-color="#B4260F"/>
<stop offset="0.43" stop-color="#B83520"/>
<stop offset="0.54" stop-color="#BE4936"/>
<stop offset="0.64" stop-color="#C76454"/>
<stop offset="0.74" stop-color="#D18578"/>
<stop offset="0.84" stop-color="#DDACA3"/>
<stop offset="0.93" stop-color="#EBD7D3"/>
<stop offset="1" stop-color="#F7FFFF"/>
</linearGradient>
<linearGradient id="paint41_linear_797_27125" x1="44.1864" y1="30.5761" x2="39.5372" y2="30.9017" gradientUnits="userSpaceOnUse">
<stop stop-color="#E84E1A"/>
<stop offset="0.51" stop-color="#D74348"/>
<stop offset="1" stop-color="#C62C15"/>
</linearGradient>
<linearGradient id="paint42_linear_797_27125" x1="36.5043" y1="33.9292" x2="40.9428" y2="33.9292" gradientUnits="userSpaceOnUse">
<stop stop-color="#B01B03"/>
<stop offset="0.18" stop-color="#B11E06"/>
<stop offset="0.31" stop-color="#B4260F"/>
<stop offset="0.43" stop-color="#B83520"/>
<stop offset="0.54" stop-color="#BE4936"/>
<stop offset="0.64" stop-color="#C76454"/>
<stop offset="0.74" stop-color="#D18578"/>
<stop offset="0.84" stop-color="#DDACA3"/>
<stop offset="0.93" stop-color="#EBD7D3"/>
<stop offset="1" stop-color="#F7FFFF"/>
</linearGradient>
<linearGradient id="paint43_linear_797_27125" x1="38.4206" y1="42.6008" x2="41.8087" y2="36.9373" gradientUnits="userSpaceOnUse">
<stop stop-color="#E5552F"/>
<stop offset="0.14" stop-color="#E75A34"/>
<stop offset="0.3" stop-color="#ED6843"/>
<stop offset="0.48" stop-color="#F77E5B"/>
<stop offset="0.49" stop-color="#F77F5C"/>
<stop offset="1" stop-color="#F7A66C"/>
</linearGradient>
<linearGradient id="paint44_linear_797_27125" x1="35.6843" y1="39.7763" x2="44.0908" y2="39.7763" gradientUnits="userSpaceOnUse">
<stop stop-color="#B01B03"/>
<stop offset="0.18" stop-color="#B11E06"/>
<stop offset="0.31" stop-color="#B4260F"/>
<stop offset="0.43" stop-color="#B83520"/>
<stop offset="0.54" stop-color="#BE4936"/>
<stop offset="0.64" stop-color="#C76454"/>
<stop offset="0.74" stop-color="#D18578"/>
<stop offset="0.84" stop-color="#DDACA3"/>
<stop offset="0.93" stop-color="#EBD7D3"/>
<stop offset="1" stop-color="#F7FFFF"/>
</linearGradient>
<linearGradient id="paint45_linear_797_27125" x1="39.7687" y1="42.6686" x2="35.9118" y2="39.1762" gradientUnits="userSpaceOnUse">
<stop stop-color="#E84E1A"/>
<stop offset="0.51" stop-color="#D74348"/>
<stop offset="1" stop-color="#C62C15"/>
</linearGradient>
<linearGradient id="paint46_linear_797_27125" x1="23.4797" y1="40.1248" x2="23.4797" y2="-7.66918" gradientUnits="userSpaceOnUse">
<stop stop-color="#E5552F"/>
<stop offset="0.14" stop-color="#E75A34"/>
<stop offset="0.3" stop-color="#ED6843"/>
<stop offset="0.48" stop-color="#F77E5B"/>
<stop offset="0.49" stop-color="#F77F5C"/>
<stop offset="1" stop-color="#F7A66C"/>
</linearGradient>
<linearGradient id="paint47_linear_797_27125" x1="17.6109" y1="38.4596" x2="15.251" y2="43.7852" gradientUnits="userSpaceOnUse">
<stop stop-color="#E84E1A"/>
<stop offset="0.51" stop-color="#D74348"/>
<stop offset="1" stop-color="#C62C15"/>
</linearGradient>
<linearGradient id="paint48_linear_797_27125" x1="17.0051" y1="43.2768" x2="17.0051" y2="40.6116" gradientUnits="userSpaceOnUse">
<stop stop-color="#F7632E"/>
<stop offset="1" stop-color="#F7B57E"/>
</linearGradient>
<linearGradient id="paint49_linear_797_27125" x1="13.5343" y1="41.1417" x2="20.3183" y2="41.1417" gradientUnits="userSpaceOnUse">
<stop stop-color="#B01B03"/>
<stop offset="0.18" stop-color="#B11E06"/>
<stop offset="0.31" stop-color="#B4260F"/>
<stop offset="0.43" stop-color="#B83520"/>
<stop offset="0.54" stop-color="#BE4936"/>
<stop offset="0.64" stop-color="#C76454"/>
<stop offset="0.74" stop-color="#D18578"/>
<stop offset="0.84" stop-color="#DDACA3"/>
<stop offset="0.93" stop-color="#EBD7D3"/>
<stop offset="1" stop-color="#F7FFFF"/>
</linearGradient>
<linearGradient id="paint50_linear_797_27125" x1="29.2662" y1="38.1812" x2="31.9775" y2="44.6387" gradientUnits="userSpaceOnUse">
<stop stop-color="#E84E1A"/>
<stop offset="0.51" stop-color="#D74348"/>
<stop offset="1" stop-color="#C62C15"/>
</linearGradient>
<linearGradient id="paint51_linear_797_27125" x1="29.9536" y1="43.2757" x2="29.9536" y2="40.6105" gradientUnits="userSpaceOnUse">
<stop stop-color="#F7632E"/>
<stop offset="1" stop-color="#F7B57E"/>
</linearGradient>
<linearGradient id="paint52_linear_797_27125" x1="26.6415" y1="41.1418" x2="33.4245" y2="41.1418" gradientUnits="userSpaceOnUse">
<stop stop-color="#B01B03"/>
<stop offset="0.18" stop-color="#B11E06"/>
<stop offset="0.31" stop-color="#B4260F"/>
<stop offset="0.43" stop-color="#B83520"/>
<stop offset="0.54" stop-color="#BE4936"/>
<stop offset="0.64" stop-color="#C76454"/>
<stop offset="0.74" stop-color="#D18578"/>
<stop offset="0.84" stop-color="#DDACA3"/>
<stop offset="0.93" stop-color="#EBD7D3"/>
<stop offset="1" stop-color="#F7FFFF"/>
</linearGradient>
<linearGradient id="paint53_linear_797_27125" x1="16.0565" y1="4.61212" x2="17.8269" y2="8.50527" gradientUnits="userSpaceOnUse">
<stop stop-color="#E84E1A"/>
<stop offset="0.51" stop-color="#D74348"/>
<stop offset="1" stop-color="#C62C15"/>
</linearGradient>
<linearGradient id="paint54_linear_797_27125" x1="15.5302" y1="2.76271" x2="17.0807" y2="6.67218" gradientUnits="userSpaceOnUse">
<stop stop-color="#E5552F"/>
<stop offset="0.14" stop-color="#E75A34"/>
<stop offset="0.3" stop-color="#ED6843"/>
<stop offset="0.48" stop-color="#F77E5B"/>
<stop offset="0.49" stop-color="#F77F5C"/>
<stop offset="1" stop-color="#F7A66C"/>
</linearGradient>
<linearGradient id="paint55_linear_797_27125" x1="13.5343" y1="5.38691" x2="20.3183" y2="5.38691" gradientUnits="userSpaceOnUse">
<stop stop-color="#B01B03"/>
<stop offset="0.18" stop-color="#B11E06"/>
<stop offset="0.31" stop-color="#B4260F"/>
<stop offset="0.43" stop-color="#B83520"/>
<stop offset="0.54" stop-color="#BE4936"/>
<stop offset="0.64" stop-color="#C76454"/>
<stop offset="0.74" stop-color="#D18578"/>
<stop offset="0.84" stop-color="#DDACA3"/>
<stop offset="0.93" stop-color="#EBD7D3"/>
<stop offset="1" stop-color="#F7FFFF"/>
</linearGradient>
<linearGradient id="paint56_linear_797_27125" x1="30.9079" y1="4.61212" x2="29.1375" y2="8.50527" gradientUnits="userSpaceOnUse">
<stop stop-color="#E84E1A"/>
<stop offset="0.51" stop-color="#D74348"/>
<stop offset="1" stop-color="#C62C15"/>
</linearGradient>
<linearGradient id="paint57_linear_797_27125" x1="31.4342" y1="2.76271" x2="29.8836" y2="6.67218" gradientUnits="userSpaceOnUse">
<stop stop-color="#E5552F"/>
<stop offset="0.14" stop-color="#E75A34"/>
<stop offset="0.3" stop-color="#ED6843"/>
<stop offset="0.48" stop-color="#F77E5B"/>
<stop offset="0.49" stop-color="#F77F5C"/>
<stop offset="1" stop-color="#F7A66C"/>
</linearGradient>
<linearGradient id="paint58_linear_797_27125" x1="26.6462" y1="5.38691" x2="33.4302" y2="5.38691" gradientUnits="userSpaceOnUse">
<stop stop-color="#B01B03"/>
<stop offset="0.18" stop-color="#B11E06"/>
<stop offset="0.31" stop-color="#B4260F"/>
<stop offset="0.43" stop-color="#B83520"/>
<stop offset="0.54" stop-color="#BE4936"/>
<stop offset="0.64" stop-color="#C76454"/>
<stop offset="0.74" stop-color="#D18578"/>
<stop offset="0.84" stop-color="#DDACA3"/>
<stop offset="0.93" stop-color="#EBD7D3"/>
<stop offset="1" stop-color="#F7FFFF"/>
</linearGradient>
<linearGradient id="paint59_linear_797_27125" x1="45.7571" y1="18.747" x2="41.7366" y2="20.2548" gradientUnits="userSpaceOnUse">
<stop stop-color="#E84E1A"/>
<stop offset="0.51" stop-color="#D74348"/>
<stop offset="1" stop-color="#C62C15"/>
</linearGradient>
<linearGradient id="paint60_linear_797_27125" x1="47.4441" y1="17.8074" x2="43.5675" y2="19.4823" gradientUnits="userSpaceOnUse">
<stop stop-color="#E5552F"/>
<stop offset="0.14" stop-color="#E75A34"/>
<stop offset="0.3" stop-color="#ED6843"/>
<stop offset="0.48" stop-color="#F77E5B"/>
<stop offset="0.49" stop-color="#F77F5C"/>
<stop offset="1" stop-color="#F7A66C"/>
</linearGradient>
<linearGradient id="paint61_linear_797_27125" x1="38.3997" y1="15.9925" x2="43.7108" y2="15.9925" gradientUnits="userSpaceOnUse">
<stop stop-color="#B01B03"/>
<stop offset="0.18" stop-color="#B11E06"/>
<stop offset="0.31" stop-color="#B4260F"/>
<stop offset="0.43" stop-color="#B83520"/>
<stop offset="0.54" stop-color="#BE4936"/>
<stop offset="0.64" stop-color="#C76454"/>
<stop offset="0.74" stop-color="#D18578"/>
<stop offset="0.84" stop-color="#DDACA3"/>
<stop offset="0.93" stop-color="#EBD7D3"/>
<stop offset="1" stop-color="#F7FFFF"/>
</linearGradient>
<linearGradient id="paint62_linear_797_27125" x1="47.1142" y1="31.6628" x2="43.0938" y2="30.1549" gradientUnits="userSpaceOnUse">
<stop stop-color="#E84E1A"/>
<stop offset="0.51" stop-color="#D74348"/>
<stop offset="1" stop-color="#C62C15"/>
</linearGradient>
<linearGradient id="paint63_linear_797_27125" x1="48.8012" y1="32.6012" x2="44.9246" y2="30.9264" gradientUnits="userSpaceOnUse">
<stop stop-color="#E5552F"/>
<stop offset="0.14" stop-color="#E75A34"/>
<stop offset="0.3" stop-color="#ED6843"/>
<stop offset="0.48" stop-color="#F77E5B"/>
<stop offset="0.49" stop-color="#F77F5C"/>
<stop offset="1" stop-color="#F7A66C"/>
</linearGradient>
<linearGradient id="paint64_linear_797_27125" x1="38.3997" y1="30.4995" x2="43.7108" y2="30.4995" gradientUnits="userSpaceOnUse">
<stop stop-color="#B01B03"/>
<stop offset="0.18" stop-color="#B11E06"/>
<stop offset="0.31" stop-color="#B4260F"/>
<stop offset="0.43" stop-color="#B83520"/>
<stop offset="0.54" stop-color="#BE4936"/>
<stop offset="0.64" stop-color="#C76454"/>
<stop offset="0.74" stop-color="#D18578"/>
<stop offset="0.84" stop-color="#DDACA3"/>
<stop offset="0.93" stop-color="#EBD7D3"/>
<stop offset="1" stop-color="#F7FFFF"/>
</linearGradient>
<linearGradient id="paint65_linear_797_27125" x1="5.09289" y1="17.3694" x2="9.11332" y2="18.8772" gradientUnits="userSpaceOnUse">
<stop stop-color="#E84E1A"/>
<stop offset="0.51" stop-color="#D74348"/>
<stop offset="1" stop-color="#C62C15"/>
</linearGradient>
<linearGradient id="paint66_linear_797_27125" x1="3.40583" y1="16.4298" x2="7.28312" y2="18.1053" gradientUnits="userSpaceOnUse">
<stop stop-color="#E5552F"/>
<stop offset="0.14" stop-color="#E75A34"/>
<stop offset="0.3" stop-color="#ED6843"/>
<stop offset="0.48" stop-color="#F77E5B"/>
<stop offset="0.49" stop-color="#F77F5C"/>
<stop offset="1" stop-color="#F7A66C"/>
</linearGradient>
<linearGradient id="paint67_linear_797_27125" x1="3.16353" y1="15.9925" x2="8.47377" y2="15.9925" gradientUnits="userSpaceOnUse">
<stop stop-color="#B01B03"/>
<stop offset="0.18" stop-color="#B11E06"/>
<stop offset="0.31" stop-color="#B4260F"/>
<stop offset="0.43" stop-color="#B83520"/>
<stop offset="0.54" stop-color="#BE4936"/>
<stop offset="0.64" stop-color="#C76454"/>
<stop offset="0.74" stop-color="#D18578"/>
<stop offset="0.84" stop-color="#DDACA3"/>
<stop offset="0.93" stop-color="#EBD7D3"/>
<stop offset="1" stop-color="#F7FFFF"/>
</linearGradient>
<linearGradient id="paint68_linear_797_27125" x1="3.73569" y1="33.0404" x2="7.75613" y2="31.5326" gradientUnits="userSpaceOnUse">
<stop stop-color="#E84E1A"/>
<stop offset="0.51" stop-color="#D74348"/>
<stop offset="1" stop-color="#C62C15"/>
</linearGradient>
<linearGradient id="paint69_linear_797_27125" x1="2.04932" y1="33.9795" x2="5.92661" y2="32.304" gradientUnits="userSpaceOnUse">
<stop stop-color="#E5552F"/>
<stop offset="0.14" stop-color="#E75A34"/>
<stop offset="0.3" stop-color="#ED6843"/>
<stop offset="0.48" stop-color="#F77E5B"/>
<stop offset="0.49" stop-color="#F77F5C"/>
<stop offset="1" stop-color="#F7A66C"/>
</linearGradient>
<linearGradient id="paint70_linear_797_27125" x1="3.16352" y1="30.4993" x2="8.47375" y2="30.4993" gradientUnits="userSpaceOnUse">
<stop stop-color="#B01B03"/>
<stop offset="0.18" stop-color="#B11E06"/>
<stop offset="0.31" stop-color="#B4260F"/>
<stop offset="0.43" stop-color="#B83520"/>
<stop offset="0.54" stop-color="#BE4936"/>
<stop offset="0.64" stop-color="#C76454"/>
<stop offset="0.74" stop-color="#D18578"/>
<stop offset="0.84" stop-color="#DDACA3"/>
<stop offset="0.93" stop-color="#EBD7D3"/>
<stop offset="1" stop-color="#F7FFFF"/>
</linearGradient>
<linearGradient id="paint71_linear_797_27125" x1="23.4798" y1="57.5819" x2="23.4798" y2="8.50999" gradientUnits="userSpaceOnUse">
<stop stop-color="#F36134"/>
<stop offset="1" stop-color="#C40721"/>
</linearGradient>
<linearGradient id="paint72_linear_797_27125" x1="23.4798" y1="38.5174" x2="23.4798" y2="31.7901" gradientUnits="userSpaceOnUse">
<stop stop-color="#F7FFEB"/>
<stop offset="1" stop-color="#F7FCB0"/>
</linearGradient>
<linearGradient id="paint73_linear_797_27125" x1="43.4967" y1="37.1563" x2="43.4967" y2="24.3372" gradientUnits="userSpaceOnUse">
<stop stop-color="#E5552F"/>
<stop offset="0.14" stop-color="#E75A34"/>
<stop offset="0.3" stop-color="#ED6843"/>
<stop offset="0.48" stop-color="#F77E5B"/>
<stop offset="0.49" stop-color="#F77F5C"/>
<stop offset="1" stop-color="#F7A66C"/>
</linearGradient>
<linearGradient id="paint74_linear_797_27125" x1="3.42567" y1="37.1563" x2="3.42567" y2="24.3372" gradientUnits="userSpaceOnUse">
<stop stop-color="#E5552F"/>
<stop offset="0.14" stop-color="#E75A34"/>
<stop offset="0.3" stop-color="#ED6843"/>
<stop offset="0.48" stop-color="#F77E5B"/>
<stop offset="0.49" stop-color="#F77F5C"/>
<stop offset="1" stop-color="#F7A66C"/>
</linearGradient>
</defs>
</svg>
