<svg width="53" height="53" viewBox="0 0 53 53" fill="none" xmlns="http://www.w3.org/2000/svg">
<g clip-path="url(#clip0_745_26763)">
<path style="mix-blend-mode:color-dodge" opacity="0.5" d="M2.97852 1.94413L9.24117 -2.15137L20.2473 16.6917L17.7449 18.2572L2.97852 1.94413Z" fill="url(#paint0_linear_745_26763)"/>
<path style="mix-blend-mode:color-dodge" opacity="0.8" d="M-16.645 0.190485L-15.2843 -2.15137L14.7528 20.534L14.1347 21.397L-16.645 0.190485Z" fill="url(#paint1_linear_745_26763)"/>
<path style="mix-blend-mode:color-dodge" opacity="0.8" d="M10.3897 62.9993L8.47339 62.417L20.3083 38.666L21.0325 38.9609L10.3897 62.9993Z" fill="url(#paint2_linear_745_26763)"/>
<path style="mix-blend-mode:color-dodge" opacity="0.8" d="M39.871 61.3773L38.2576 62.2152L29.6667 38.1478L30.3275 37.8818L39.871 61.3773Z" fill="url(#paint3_linear_745_26763)"/>
<path style="mix-blend-mode:color-dodge" opacity="0.8" d="M56.4913 -10L58.7099 -8.41813L32.8277 19.043L32.0217 18.3442L56.4913 -10Z" fill="url(#paint4_linear_745_26763)"/>
<path style="mix-blend-mode:color-dodge" opacity="0.5" d="M-4.87085 15.1697L-1.63995 8.05371L15.5378 22.5519L14.2155 25.3225L-4.87085 15.1697Z" fill="url(#paint5_linear_745_26763)"/>
<path style="mix-blend-mode:color-dodge" opacity="0.5" d="M45.3657 0.533291L39.6726 -3.71973L29.6667 15.8473L31.9416 17.4738L45.3657 0.533291Z" fill="url(#paint6_linear_745_26763)"/>
<path style="mix-blend-mode:color-dodge" opacity="0.5" d="M55.57 13.4152L52.2141 7.26953L34.3765 19.7907L35.7496 22.1835L55.57 13.4152Z" fill="url(#paint7_linear_745_26763)"/>
<path style="mix-blend-mode:color-dodge" opacity="0.5" d="M-4.87085 41.1565L-1.63925 47.3017L15.5378 34.7799L14.2155 32.3877L-4.87085 41.1565Z" fill="url(#paint8_linear_745_26763)"/>
<path style="mix-blend-mode:color-dodge" opacity="0.5" d="M45.3656 53.4088L39.9577 57.5043L30.4517 38.6613L32.6128 37.0957L45.3656 53.4088Z" fill="url(#paint9_linear_745_26763)"/>
<path style="mix-blend-mode:color-dodge" opacity="0.5" d="M55.57 40.3696L52.3384 46.5155L35.1614 33.9938L36.4836 31.6016L55.57 40.3696Z" fill="url(#paint10_linear_745_26763)"/>
<path style="mix-blend-mode:screen" opacity="0.5" d="M25.3495 55.9351C41.1728 55.9351 54 43.2835 54 27.677C54 12.0705 41.1728 -0.581055 25.3495 -0.581055C9.52627 -0.581055 -3.30103 12.0705 -3.30103 27.677C-3.30103 43.2835 9.52627 55.9351 25.3495 55.9351Z" fill="url(#paint11_radial_745_26763)"/>
<circle cx="26" cy="27" r="20" fill="url(#paint12_linear_745_26763)"/>
<path d="M29.992 30.888V33H21.528V31.32L25.848 27.24C26.3067 26.8027 26.616 26.4293 26.776 26.12C26.936 25.8 27.016 25.4853 27.016 25.176C27.016 24.728 26.8613 24.3867 26.552 24.152C26.2533 23.9067 25.8107 23.784 25.224 23.784C24.7333 23.784 24.2907 23.88 23.896 24.072C23.5013 24.2533 23.1707 24.5307 22.904 24.904L21.016 23.688C21.4533 23.0373 22.056 22.5307 22.824 22.168C23.592 21.7947 24.472 21.608 25.464 21.608C26.296 21.608 27.0213 21.7467 27.64 22.024C28.2693 22.2907 28.7547 22.6747 29.096 23.176C29.448 23.6667 29.624 24.248 29.624 24.92C29.624 25.528 29.496 26.0987 29.24 26.632C28.984 27.1653 28.488 27.7733 27.752 28.456L25.176 30.888H29.992Z" fill="white"/>
</g>
<defs>
<linearGradient id="paint0_linear_745_26763" x1="6.17126" y1="-2.65633" x2="17.4868" y2="15.4858" gradientUnits="userSpaceOnUse">
<stop/>
<stop offset="0.13" stop-color="#1A0C23"/>
<stop offset="0.35" stop-color="#431E59"/>
<stop offset="0.52" stop-color="#5C297A"/>
<stop offset="0.61" stop-color="#662D87"/>
</linearGradient>
<linearGradient id="paint1_linear_745_26763" x1="-11.0825" y1="-1.19398" x2="19.2147" y2="20.0725" gradientUnits="userSpaceOnUse">
<stop/>
<stop offset="0.12" stop-color="#030D11"/>
<stop offset="0.35" stop-color="#0B2E3E"/>
<stop offset="0.67" stop-color="#186487"/>
<stop offset="1" stop-color="#27A0D7"/>
</linearGradient>
<linearGradient id="paint2_linear_745_26763" x1="10.0381" y1="64.8528" x2="19.9832" y2="40.791" gradientUnits="userSpaceOnUse">
<stop/>
<stop offset="0.12" stop-color="#030D11"/>
<stop offset="0.35" stop-color="#0B2E3E"/>
<stop offset="0.67" stop-color="#186487"/>
<stop offset="1" stop-color="#27A0D7"/>
</linearGradient>
<linearGradient id="paint3_linear_745_26763" x1="35.8977" y1="58.5711" x2="26.1828" y2="35.4026" gradientUnits="userSpaceOnUse">
<stop/>
<stop offset="0.12" stop-color="#030D11"/>
<stop offset="0.35" stop-color="#0B2E3E"/>
<stop offset="0.67" stop-color="#186487"/>
<stop offset="1" stop-color="#27A0D7"/>
</linearGradient>
<linearGradient id="paint4_linear_745_26763" x1="57.2217" y1="-11.9349" x2="33.2891" y2="16.3735" gradientUnits="userSpaceOnUse">
<stop/>
<stop offset="0.12" stop-color="#030D11"/>
<stop offset="0.35" stop-color="#0B2E3E"/>
<stop offset="0.67" stop-color="#186487"/>
<stop offset="1" stop-color="#27A0D7"/>
</linearGradient>
<linearGradient id="paint5_linear_745_26763" x1="-0.130943" y1="13.4727" x2="19.2429" y2="22.6122" gradientUnits="userSpaceOnUse">
<stop/>
<stop offset="0.13" stop-color="#1A0C23"/>
<stop offset="0.35" stop-color="#431E59"/>
<stop offset="0.52" stop-color="#5C297A"/>
<stop offset="0.61" stop-color="#662D87"/>
</linearGradient>
<linearGradient id="paint6_linear_745_26763" x1="42.4277" y1="-4.25171" x2="30.0605" y2="13.1056" gradientUnits="userSpaceOnUse">
<stop/>
<stop offset="0.13" stop-color="#1A0C23"/>
<stop offset="0.35" stop-color="#431E59"/>
<stop offset="0.52" stop-color="#5C297A"/>
<stop offset="0.61" stop-color="#662D87"/>
</linearGradient>
<linearGradient id="paint7_linear_745_26763" x1="50.9128" y1="12.3454" x2="32.304" y2="22.901" gradientUnits="userSpaceOnUse">
<stop/>
<stop offset="0.13" stop-color="#1A0C23"/>
<stop offset="0.35" stop-color="#431E59"/>
<stop offset="0.52" stop-color="#5C297A"/>
<stop offset="0.61" stop-color="#662D87"/>
</linearGradient>
<linearGradient id="paint8_linear_745_26763" x1="-3.35297" y1="45.7063" x2="14.8899" y2="35.742" gradientUnits="userSpaceOnUse">
<stop/>
<stop offset="0.13" stop-color="#1A0C23"/>
<stop offset="0.35" stop-color="#431E59"/>
<stop offset="0.52" stop-color="#5C297A"/>
<stop offset="0.61" stop-color="#662D87"/>
</linearGradient>
<linearGradient id="paint9_linear_745_26763" x1="42.6572" y1="55.3126" x2="30.6964" y2="38.7509" gradientUnits="userSpaceOnUse">
<stop/>
<stop offset="0.13" stop-color="#1A0C23"/>
<stop offset="0.35" stop-color="#431E59"/>
<stop offset="0.52" stop-color="#5C297A"/>
<stop offset="0.61" stop-color="#662D87"/>
</linearGradient>
<linearGradient id="paint10_linear_745_26763" x1="54.2957" y1="44.5113" x2="36.0529" y2="34.5469" gradientUnits="userSpaceOnUse">
<stop/>
<stop offset="0.13" stop-color="#1A0C23"/>
<stop offset="0.35" stop-color="#431E59"/>
<stop offset="0.52" stop-color="#5C297A"/>
<stop offset="0.61" stop-color="#662D87"/>
</linearGradient>
<radialGradient id="paint11_radial_745_26763" cx="0" cy="0" r="1" gradientUnits="userSpaceOnUse" gradientTransform="translate(25.3495 27.677) scale(28.6505 28.2581)">
<stop/>
<stop offset="0.2" stop-color="#010102"/>
<stop offset="0.28" stop-color="#050509"/>
<stop offset="0.33" stop-color="#0C0B15"/>
<stop offset="0.37" stop-color="#161526"/>
<stop offset="0.41" stop-color="#23213C"/>
<stop offset="0.44" stop-color="#323057"/>
<stop offset="0.47" stop-color="#454278"/>
<stop offset="0.5" stop-color="#5B579E"/>
<stop offset="0.53" stop-color="#736EC7"/>
<stop offset="0.54" stop-color="#8680E8"/>
<stop offset="0.64" stop-color="#5E5AA3"/>
<stop offset="0.73" stop-color="#3D3A69"/>
<stop offset="0.82" stop-color="#23213C"/>
<stop offset="0.89" stop-color="#100F1B"/>
<stop offset="0.96" stop-color="#040407"/>
<stop offset="1"/>
</radialGradient>
<linearGradient id="paint12_linear_745_26763" x1="26" y1="7" x2="26" y2="47" gradientUnits="userSpaceOnUse">
<stop stop-color="#34326A"/>
<stop offset="1" stop-color="#36328F"/>
</linearGradient>
<clipPath id="clip0_745_26763">
<rect width="53" height="53" fill="white"/>
</clipPath>
</defs>
</svg>
