<svg width="51" height="51" viewBox="0 0 51 51" fill="none" xmlns="http://www.w3.org/2000/svg">
<g style="mix-blend-mode:multiply">
<path d="M39.3005 21.3684C38.9631 21.1763 38.4436 20.8599 37.6818 20.3496C37.6818 20.3496 33.7291 16.2689 25.3655 16.2689C17.409 16.2689 13.1188 20.7968 13.1188 20.7968C12.4228 21.522 11.8128 22.1046 11.4287 22.3616C12.0825 19.2156 13.7727 16.3799 16.2287 14.3081C18.6848 12.2363 21.7648 11.0482 24.9759 10.9339C28.1871 10.8196 31.3437 11.7857 33.9409 13.6776C36.538 15.5694 38.4256 18.2778 39.3015 21.3693L39.3005 21.3684Z" fill="#302067" fill-opacity="0.25"/>
</g>
<path d="M25.4854 0.134766C25.4854 0.134766 19.4073 3.09699 14.8135 11.9946H36.1563C31.5625 3.09699 25.4854 0.134766 25.4854 0.134766Z" fill="url(#paint0_linear_759_29223)"/>
<path style="mix-blend-mode:multiply" opacity="0.5" d="M25.4856 1.76465C25.4856 1.76465 19.6169 6.26606 17.1211 11.9939H33.8491C31.3542 6.26606 25.4856 1.76465 25.4856 1.76465Z" fill="url(#paint1_linear_759_29223)"/>
<path d="M17.6753 11.994C17.6753 11.994 21.0171 5.67266 25.4362 2.2998C25.4362 2.2998 29.8598 5.76686 33.2757 11.9611L17.6753 11.994Z" fill="url(#paint2_linear_759_29223)"/>
<path style="mix-blend-mode:multiply" opacity="0.5" d="M17.5251 11.9628C17.5251 11.9628 20.9547 4.40678 25.4817 1.76465C25.4817 1.76465 31.4592 6.27704 33.2719 11.9628C33.2719 11.9628 29.1034 5.96335 25.6957 4.09767C25.6957 4.09767 21.5803 6.40141 17.9275 11.9921L17.5251 11.9628Z" fill="url(#paint3_linear_759_29223)"/>
<path style="mix-blend-mode:color-dodge" opacity="0.5" d="M29.9384 3.50262C26.4466 0.615384 25.2467 0.46997 25.2467 0.46997C24.5846 0.801037 22.9311 1.84911 22.8076 1.93325C24.4035 0.65288 25.4854 0.12793 25.4854 0.12793C25.4854 0.12793 27.4233 1.07906 29.9384 3.50262Z" fill="url(#paint4_linear_759_29223)"/>
<path d="M27.4626 1.38574C26.5233 2.01221 28.9697 4.12939 29.9383 3.50384C29.9383 3.50384 29.341 2.90298 28.475 2.20518C27.6089 1.50738 27.4626 1.38574 27.4626 1.38574Z" fill="url(#paint5_linear_759_29223)"/>
<path style="mix-blend-mode:color-dodge" opacity="0.8" d="M26.3222 13.2777C28.9138 13.2777 31.0148 10.7448 31.0148 7.62029C31.0148 4.4958 28.9138 1.96289 26.3222 1.96289C23.7306 1.96289 21.6296 4.4958 21.6296 7.62029C21.6296 10.7448 23.7306 13.2777 26.3222 13.2777Z" fill="url(#paint6_radial_759_29223)"/>
<path d="M0.132324 25.4023C0.132324 25.4023 3.09364 31.4795 11.9913 36.0733V14.7305C3.09364 19.3252 0.132324 25.4023 0.132324 25.4023Z" fill="url(#paint7_linear_759_29223)"/>
<path style="mix-blend-mode:multiply" opacity="0.5" d="M1.76294 25.4016C1.76294 25.4016 6.26344 31.2703 11.9922 33.7652V17.0381C6.26344 19.533 1.76294 25.4016 1.76294 25.4016Z" fill="url(#paint8_linear_759_29223)"/>
<path d="M11.9913 33.2118C11.9913 33.2118 5.67089 29.8701 2.29712 25.4528C2.29712 25.4528 5.76326 21.0282 11.9584 17.6133L11.9913 33.2118Z" fill="url(#paint9_linear_759_29223)"/>
<path style="mix-blend-mode:multiply" opacity="0.5" d="M11.9611 33.3619C11.9611 33.3619 4.40507 29.9315 1.76294 25.4054C1.76294 25.4054 6.27441 19.4279 11.9611 17.6152C11.9611 17.6152 5.96164 21.7838 4.09596 25.1914C4.09596 25.1914 6.39879 29.3068 11.9903 32.9595L11.9611 33.3619Z" fill="url(#paint10_linear_759_29223)"/>
<path style="mix-blend-mode:color-dodge" opacity="0.5" d="M3.50146 20.9502C0.614227 24.4419 0.468811 25.6409 0.468811 25.6409C0.800792 26.3031 1.84887 27.9575 1.93209 28.08C0.651721 26.485 0.127686 25.4031 0.127686 25.4031C0.127686 25.4031 1.07607 23.4643 3.50146 20.9502Z" fill="url(#paint11_linear_759_29223)"/>
<path d="M1.38232 23.4259C2.00879 24.3642 4.12598 21.9178 3.49951 20.9502C3.49951 20.9502 2.89956 21.5474 2.20084 22.4135C1.50213 23.2796 1.38232 23.4259 1.38232 23.4259Z" fill="url(#paint12_linear_759_29223)"/>
<path style="mix-blend-mode:color-dodge" opacity="0.8" d="M7.61786 29.2562C10.7424 29.2562 13.2753 27.1553 13.2753 24.5636C13.2753 21.972 10.7424 19.8711 7.61786 19.8711C4.49336 19.8711 1.96045 21.972 1.96045 24.5636C1.96045 27.1553 4.49336 29.2562 7.61786 29.2562Z" fill="url(#paint13_radial_759_29223)"/>
<path d="M50.8723 25.4023C50.8723 25.4023 47.911 31.4795 39.0125 36.0733V14.7305C47.911 19.3252 50.8723 25.4023 50.8723 25.4023Z" fill="url(#paint14_linear_759_29223)"/>
<path style="mix-blend-mode:multiply" opacity="0.5" d="M49.2417 25.4016C49.2417 25.4016 44.7412 31.2703 39.0125 33.7652V17.0381C44.7412 19.533 49.2417 25.4016 49.2417 25.4016Z" fill="url(#paint15_linear_759_29223)"/>
<path d="M39.0125 33.2108C39.0125 33.2108 45.3338 29.869 48.7067 25.4508C48.7067 25.4508 45.2396 21.0263 39.0445 17.6113L39.0125 33.2108Z" fill="url(#paint16_linear_759_29223)"/>
<path style="mix-blend-mode:multiply" opacity="0.5" d="M39.0436 33.3619C39.0436 33.3619 46.6005 29.9315 49.2418 25.4054C49.2418 25.4054 44.7303 19.4279 39.0436 17.6152C39.0436 17.6152 45.0431 21.7838 46.9087 25.1914C46.9087 25.1914 44.605 29.3068 39.0134 32.9595L39.0436 33.3619Z" fill="url(#paint17_linear_759_29223)"/>
<path style="mix-blend-mode:color-dodge" opacity="0.5" d="M47.5032 20.9502C50.3904 24.4419 50.5358 25.6409 50.5358 25.6409C50.2038 26.3031 49.1567 27.9575 49.068 28.08C50.3483 26.485 50.8724 25.4031 50.8724 25.4031C50.8724 25.4031 49.9286 23.4643 47.5032 20.9502Z" fill="url(#paint18_linear_759_29223)"/>
<path d="M49.6204 23.4259C48.9949 24.3642 46.8768 21.9178 47.5032 20.9502C47.5032 20.9502 48.1032 21.5474 48.8019 22.4135C49.5006 23.2796 49.6204 23.4259 49.6204 23.4259Z" fill="url(#paint19_linear_759_29223)"/>
<path style="mix-blend-mode:color-dodge" opacity="0.8" d="M43.3869 29.2562C46.5114 29.2562 49.0443 27.1553 49.0443 24.5636C49.0443 21.972 46.5114 19.8711 43.3869 19.8711C40.2624 19.8711 37.7295 21.972 37.7295 24.5636C37.7295 27.1553 40.2624 29.2562 43.3869 29.2562Z" fill="url(#paint20_radial_759_29223)"/>
<path d="M25.4854 50.3814C25.4854 50.3814 19.4073 47.4201 14.8135 38.5215H36.1563C31.5625 47.4201 25.4854 50.3814 25.4854 50.3814Z" fill="url(#paint21_linear_759_29223)"/>
<path style="mix-blend-mode:multiply" opacity="0.5" d="M25.4856 48.7507C25.4856 48.7507 20.0467 44.692 17.1211 38.5215H33.8491C31.3542 44.2493 25.4856 48.7507 25.4856 48.7507Z" fill="url(#paint22_linear_759_29223)"/>
<path d="M17.6753 38.5215C17.6753 38.5215 21.0171 44.8429 25.4362 48.2157C25.4362 48.2157 29.8598 44.7487 33.2757 38.5544L17.6753 38.5215Z" fill="url(#paint23_linear_759_29223)"/>
<path style="mix-blend-mode:multiply" opacity="0.5" d="M17.5251 38.5526C17.5251 38.5526 18.5183 42.9781 25.4817 48.7507C25.4817 48.7507 31.4592 44.2383 33.2719 38.5526C33.2719 38.5526 29.1034 40.7786 25.6957 42.6424C25.6957 42.6424 22.8039 42.2336 17.9275 38.5215L17.5251 38.5526Z" fill="url(#paint24_linear_759_29223)"/>
<path d="M11.3591 7.90684C11.3581 7.95418 11.3603 8.00154 11.3655 8.0486C11.3655 8.05409 11.3655 8.05957 11.3655 8.06597C11.3851 8.21293 11.4194 8.35754 11.4679 8.49764V8.50221C11.8008 9.49084 12.7886 10.8663 13.3821 11.6382L13.4022 11.6647C13.5458 11.8476 13.6647 12.0004 13.7433 12.0982L13.8467 12.2253H14.8079C15.7352 10.9861 16.5693 8.75006 16.5794 7.85837C16.5823 7.78051 16.5743 7.70262 16.5556 7.62699C16.4387 7.32272 16.2989 7.0277 16.1376 6.74445C15.4133 5.38817 13.9994 3.09357 13.6949 3.12832C13.5037 3.15027 12.4813 4.8495 11.853 6.28535C11.5713 6.94382 11.3655 7.54468 11.3591 7.90684Z" fill="url(#paint25_linear_759_29223)"/>
<path style="mix-blend-mode:multiply" opacity="0.5" d="M11.3594 7.90749C11.3584 7.95483 11.3605 8.00218 11.3658 8.04925C11.3658 8.05473 11.3658 8.06022 11.3658 8.06662C11.3854 8.21358 11.4197 8.35819 11.4682 8.49829V8.50286C11.8011 9.49149 12.7888 10.867 13.3823 11.6389L13.4025 11.6654C13.5461 11.8483 13.6649 12.001 13.7436 12.0989L13.8469 12.226H14.8081C15.7355 10.9868 16.5696 8.7507 16.5796 7.85902C16.2522 8.92813 15.5608 9.34608 14.8666 9.47137C14.5879 9.51932 14.304 9.52947 14.0225 9.50155H14.0106L13.8671 9.48509C13.8296 9.4796 13.7921 9.47503 13.7555 9.46863C13.4723 9.42493 13.1943 9.3523 12.926 9.25188C12.926 9.25188 12.112 8.70864 11.9438 7.98614C11.8742 7.69166 11.952 7.05879 12.2181 6.21923C12.5812 5.13312 13.076 4.0956 13.6915 3.12988C13.5003 3.15183 12.4778 4.85106 11.8496 6.28691C11.5715 6.94447 11.3658 7.54533 11.3594 7.90749Z" fill="url(#paint26_linear_759_29223)"/>
<path style="mix-blend-mode:multiply" opacity="0.5" d="M14.5254 7.73506C14.9625 9.46081 14.1193 12.2264 14.1193 12.2264C14.1193 12.2264 14.1961 9.68305 13.834 8.38073C13.4718 7.07841 14.39 7.20005 14.5254 7.73506Z" fill="url(#paint27_linear_759_29223)"/>
<path style="mix-blend-mode:color-dodge" opacity="0.5" d="M13.729 7.85156C14.1863 9.39349 14.1223 12.2259 14.1223 12.2259L13.729 7.85156Z" fill="url(#paint28_linear_759_29223)"/>
<path style="mix-blend-mode:color-dodge" opacity="0.5" d="M16.0262 6.52735C15.4016 6.9773 13.9813 3.47275 14.412 3.90991C14.7449 4.24737 16.0262 6.52735 16.0262 6.52735Z" fill="url(#paint29_linear_759_29223)"/>
<path style="mix-blend-mode:multiply" opacity="0.5" d="M11.3657 8.04726C11.3657 8.05275 11.3657 8.05824 11.3657 8.06464C11.381 8.21237 11.4154 8.35748 11.4681 8.4963V8.50088C11.801 9.43555 12.8253 10.8952 13.3823 11.6369L13.4024 11.6634C13.5853 11.9021 13.7097 12.0612 13.7435 12.0969C14.0975 12.4536 13.7856 11.8673 12.5144 9.57365C11.9629 8.56947 11.3456 7.6979 11.3657 8.04726Z" fill="url(#paint30_linear_759_29223)"/>
<path style="mix-blend-mode:multiply" opacity="0.5" d="M13.3859 11.6417L13.4061 11.6682C13.589 11.9069 13.7133 12.066 13.7472 12.1017C13.7472 12.1017 13.8743 10.3979 13.7609 9.47235C13.578 7.94871 13.343 6.60706 13.0146 6.41775C12.7761 6.27897 12.5029 6.21137 12.2272 6.22295C12.1025 6.22653 11.9791 6.24936 11.8614 6.29063C11.5742 6.94728 11.3684 7.54814 11.362 7.9103C11.3611 7.95764 11.3632 8.00499 11.3684 8.05205C11.3684 8.05754 11.3684 8.06303 11.3684 8.06943C11.3837 8.21716 11.4181 8.36227 11.4709 8.5011V8.50567C11.8083 9.48972 12.7924 10.8652 13.3859 11.6417Z" fill="url(#paint31_linear_759_29223)"/>
<path d="M8.82042 16.2729C8.87418 16.2745 8.92799 16.2721 8.98138 16.2656H8.98688C9.11962 16.2474 9.25037 16.2168 9.37739 16.1742H9.38562C10.3669 15.8623 11.7497 14.8856 12.5353 14.292L12.5618 14.2719C12.7548 14.1256 12.9103 14.004 13.0118 13.9235L13.138 13.822V13.5869V13.5558L13.1435 12.8635C11.9143 11.9316 9.69017 11.0847 8.80397 11.0682C8.72644 11.0646 8.6488 11.0723 8.5735 11.0911C8.26926 11.2049 7.97421 11.3418 7.69096 11.5008C7.39281 11.6563 7.05077 11.8456 6.69684 12.0496C5.43934 12.7721 4.04465 13.6729 4.07117 13.9097C4.10684 14.1841 7.66809 16.2428 8.82042 16.2729Z" fill="url(#paint32_linear_759_29223)"/>
<path style="mix-blend-mode:multiply" opacity="0.5" d="M8.82054 16.2721C8.8743 16.2737 8.9281 16.2712 8.9815 16.2648H8.98699C9.11974 16.2466 9.25049 16.216 9.37751 16.1733H9.38574C10.367 15.8615 11.7498 14.8847 12.5354 14.2912L12.562 14.271C12.7549 14.1247 12.9104 14.0031 13.0119 13.9226L13.1381 13.8211V13.5861V13.555L13.1436 12.8626C11.9145 11.9307 9.69028 11.0838 8.80408 11.0674C9.86679 11.4012 10.2792 12.0935 10.3991 12.7858C10.4347 12.9972 10.4472 13.2119 10.4366 13.426C10.4366 13.4955 10.4292 13.5632 10.4228 13.629C10.4224 13.633 10.4224 13.637 10.4228 13.6409C10.4173 13.6894 10.4119 13.7379 10.4055 13.7845C10.3622 14.1045 10.2821 14.4185 10.1668 14.7201C10.1668 14.7201 9.61803 15.5276 8.89828 15.6913C8.30383 15.8258 6.33754 15.3511 4.07129 13.9116C4.10696 14.1833 7.66821 16.2419 8.82054 16.2721Z" fill="url(#paint33_linear_759_29223)"/>
<path style="mix-blend-mode:multiply" opacity="0.5" d="M8.27272 13.4179C9.96463 11.8998 13.1445 13.5524 13.1445 13.5524C13.1445 13.5524 10.6112 13.4609 9.30982 13.8103C8.00842 14.1596 8.06969 13.5999 8.27272 13.4179Z" fill="url(#paint34_linear_759_29223)"/>
<path style="mix-blend-mode:color-dodge" opacity="0.5" d="M8.78394 13.9146C10.3222 13.4674 13.1445 13.5488 13.1445 13.5488L8.78394 13.9146Z" fill="url(#paint35_linear_759_29223)"/>
<path style="mix-blend-mode:color-dodge" opacity="0.5" d="M4.85767 13.2018C5.15947 13.4762 6.54409 12.9549 7.31231 12.3933C7.70374 12.108 7.93604 11.8108 7.78606 11.5995L7.6946 11.4971L6.70049 12.0458L4.85767 13.2018Z" fill="url(#paint36_linear_759_29223)"/>
<path style="mix-blend-mode:multiply" opacity="0.5" d="M10.4923 15.1281C12.7869 13.8779 13.3731 13.5734 13.0155 13.9209C12.8692 14.0636 10.0286 16.2146 8.96133 16.2676C8.61289 16.285 9.48628 15.6759 10.4923 15.1281Z" fill="url(#paint37_linear_759_29223)"/>
<path style="mix-blend-mode:multiply" opacity="0.5" d="M6.70239 12.0475L6.75269 12.0667C6.9551 12.1488 7.14479 12.2594 7.31605 12.395C7.68293 12.6885 8.00545 13.0335 8.27358 13.4193C8.27358 13.4193 8.79945 13.0846 10.0313 13.1084C11.6666 13.1404 12.1686 13.422 12.9579 13.5483H12.9671L13.042 13.5611C13.0786 13.5675 13.1134 13.5748 13.1491 13.583V13.5519L13.1545 12.8596C11.9254 11.9277 9.7012 11.0808 8.815 11.0643C8.73747 11.0607 8.65984 11.0684 8.58453 11.0872C8.28029 11.201 7.98524 11.3379 7.70199 11.4969C7.39836 11.6551 7.05266 11.8445 6.70239 12.0475Z" fill="url(#paint38_linear_759_29223)"/>
<path d="M7.72204 11.526C8.70793 12.596 13.1106 13.0972 13.1106 13.0972L13.8934 12.35C13.6813 10.6206 12.6185 8.15131 11.9345 7.42058C11.8762 7.35486 11.8087 7.29788 11.7342 7.25139C11.0812 6.8746 6.19475 5.47534 5.90849 5.82104C5.70729 6.06431 6.84042 10.5685 7.72204 11.526Z" fill="url(#paint39_linear_759_29223)"/>
<path style="mix-blend-mode:multiply" opacity="0.5" d="M7.72204 11.5243C8.70793 12.5943 13.1106 13.0955 13.1106 13.0955L13.8934 12.3483C13.6813 10.6189 12.6185 8.14961 11.9345 7.41888C13.288 10.1095 10.0477 11.3944 10.0477 11.3944C10.0477 11.3944 9.35634 11.5965 8.36406 10.9189C7.79429 10.5302 6.52307 8.78705 5.90849 5.81934C5.70729 6.06261 6.84042 10.5668 7.72204 11.5243Z" fill="url(#paint40_linear_759_29223)"/>
<path style="mix-blend-mode:multiply" opacity="0.5" d="M9.59338 9.06346C11.866 9.68444 13.3275 12.889 13.3275 12.889C13.3275 12.889 11.4115 10.7618 10.1028 9.98532C8.79406 9.20887 9.29616 8.98206 9.59338 9.06346Z" fill="url(#paint41_linear_759_29223)"/>
<path style="mix-blend-mode:color-dodge" opacity="0.5" d="M9.60522 9.6377C11.1782 10.533 13.3274 12.8871 13.3274 12.8871L9.60522 9.6377Z" fill="url(#paint42_linear_759_29223)"/>
<path style="mix-blend-mode:color-dodge" opacity="0.5" d="M10.7896 6.88681C10.6305 7.73917 6.41532 5.78478 7.09575 5.90367C8.4191 6.13231 10.7896 6.88681 10.7896 6.88681Z" fill="url(#paint43_linear_759_29223)"/>
<path d="M39.6453 7.90684C39.6459 7.9542 39.6435 8.00156 39.638 8.0486C39.6384 8.05438 39.6384 8.06019 39.638 8.06597C39.6176 8.21288 39.583 8.35744 39.5346 8.49764V8.50221C39.2026 9.49084 38.214 10.8663 37.6205 11.6382C37.6143 11.6474 37.6076 11.6563 37.6003 11.6647C37.4568 11.8476 37.3379 12.0004 37.2592 12.0982L37.1559 12.2253H36.1901C35.2637 10.9861 34.4287 8.75006 34.4186 7.85837C34.4155 7.78045 34.4238 7.70249 34.4433 7.62699C34.5594 7.32251 34.6988 7.02745 34.8604 6.74445C35.5847 5.38817 36.9995 3.09357 37.3031 3.12832C37.4952 3.15027 38.5167 4.8495 39.1459 6.28535C39.4331 6.94382 39.6379 7.54468 39.6453 7.90684Z" fill="url(#paint44_linear_759_29223)"/>
<path style="mix-blend-mode:multiply" opacity="0.5" d="M39.6453 7.90749C39.646 7.95485 39.6436 8.0022 39.638 8.04925C39.6385 8.05503 39.6385 8.06084 39.638 8.06662C39.6177 8.21352 39.5831 8.35809 39.5347 8.49829V8.50286C39.2027 9.49149 38.2141 10.867 37.6205 11.6389C37.6143 11.6481 37.6076 11.6569 37.6004 11.6654C37.4568 11.8483 37.3379 12.001 37.2593 12.0989L37.1559 12.226H36.1902C35.2638 10.9868 34.4288 8.7507 34.4187 7.85902C34.7461 8.92813 35.4375 9.34608 36.1317 9.47137C36.4104 9.51932 36.6943 9.52947 36.9758 9.50155H36.9877L37.1312 9.48509C37.1687 9.4796 37.2063 9.47503 37.2428 9.46863C37.526 9.42493 37.804 9.3523 38.0723 9.25188C38.0723 9.25188 38.8863 8.70864 39.0555 7.98614C39.1241 7.69166 39.0463 7.05879 38.7811 6.21923C38.4181 5.13312 37.9233 4.0956 37.3078 3.12988C37.4998 3.15183 38.5214 4.85106 39.1506 6.28691C39.4332 6.94447 39.638 7.54533 39.6453 7.90749Z" fill="url(#paint45_linear_759_29223)"/>
<path style="mix-blend-mode:multiply" opacity="0.5" d="M36.4782 7.73506C36.041 9.46081 36.8851 12.2264 36.8851 12.2264C36.8851 12.2264 36.8074 9.68305 37.1705 8.38073C37.5336 7.07841 36.6144 7.20005 36.4782 7.73506Z" fill="url(#paint46_linear_759_29223)"/>
<path style="mix-blend-mode:color-dodge" opacity="0.5" d="M37.2776 7.85156C36.8203 9.39349 36.8853 12.2259 36.8853 12.2259L37.2776 7.85156Z" fill="url(#paint47_linear_759_29223)"/>
<path style="mix-blend-mode:color-dodge" opacity="0.5" d="M34.9775 6.52735C35.6022 6.9773 37.0225 3.47275 36.5917 3.90991C36.2588 4.24737 34.9775 6.52735 34.9775 6.52735Z" fill="url(#paint48_linear_759_29223)"/>
<path style="mix-blend-mode:multiply" opacity="0.5" d="M39.6379 8.04726C39.6384 8.05305 39.6384 8.05885 39.6379 8.06464C39.6223 8.2124 39.5876 8.3575 39.5346 8.4963V8.50088C39.2026 9.43555 38.1774 10.8952 37.6204 11.6369C37.6142 11.6461 37.6075 11.6549 37.6003 11.6634C37.4174 11.9021 37.293 12.0612 37.2592 12.0969C36.9053 12.4536 37.218 11.8673 38.4883 9.57365C39.0407 8.56947 39.6581 7.6979 39.6379 8.04726Z" fill="url(#paint49_linear_759_29223)"/>
<path style="mix-blend-mode:multiply" opacity="0.5" d="M37.6179 11.6417C37.6117 11.6509 37.605 11.6597 37.5978 11.6682C37.4149 11.9069 37.2905 12.066 37.2567 12.1017C37.2567 12.1017 37.1305 10.3979 37.243 9.47235C37.4259 7.94871 37.6609 6.60706 37.9892 6.41775C38.2277 6.27897 38.5009 6.21137 38.7766 6.22295C38.9013 6.22656 39.0247 6.24939 39.1425 6.29063C39.4296 6.94728 39.6345 7.54814 39.6418 7.9103C39.6425 7.95766 39.64 8.00501 39.6345 8.05205C39.6349 8.05784 39.6349 8.06365 39.6345 8.06943C39.6189 8.21719 39.5841 8.36229 39.5311 8.5011V8.50567C39.2001 9.48972 38.2115 10.8652 37.6179 11.6417Z" fill="url(#paint50_linear_759_29223)"/>
<path d="M42.1832 16.2729C42.1295 16.2745 42.0757 16.272 42.0223 16.2656C41.8895 16.2476 41.7588 16.217 41.6318 16.1741H41.6226C40.6422 15.8623 39.2594 14.8855 38.4739 14.292L38.4464 14.2719C38.2534 14.1256 38.098 14.0039 37.9974 13.9234L37.8702 13.8219V13.5869V13.5558L37.8647 12.8635C39.0939 11.9316 41.319 11.0847 42.2043 11.0682C42.2821 11.0647 42.36 11.0724 42.4357 11.0911C42.7396 11.2049 43.0343 11.3419 43.3173 11.5008C43.6154 11.6563 43.9575 11.8456 44.3114 12.0495C45.5698 12.772 46.9636 13.6729 46.9371 13.9097C46.8969 14.1841 43.3356 16.2427 42.1832 16.2729Z" fill="url(#paint51_linear_759_29223)"/>
<path style="mix-blend-mode:multiply" opacity="0.5" d="M42.1832 16.2721C42.1295 16.2737 42.0757 16.2712 42.0223 16.2648C41.8895 16.2468 41.7588 16.2162 41.6318 16.1733H41.6226C40.6422 15.8615 39.2594 14.8847 38.4739 14.2912L38.4464 14.271C38.2534 14.1247 38.098 14.0031 37.9974 13.9226L37.8702 13.8211V13.5861V13.555L37.8647 12.8626C39.0939 11.9307 41.319 11.0838 42.2043 11.0674C41.1416 11.4012 40.7291 12.0935 40.6093 12.7858C40.5737 12.9972 40.5611 13.2119 40.5718 13.426C40.5718 13.4955 40.5791 13.5632 40.5864 13.629C40.586 13.633 40.586 13.637 40.5864 13.6409C40.591 13.6894 40.5974 13.7379 40.6029 13.7845C40.6462 14.1046 40.7266 14.4186 40.8425 14.7201C40.8425 14.7201 41.3913 15.5276 42.1101 15.6913C42.7055 15.8258 44.6708 15.3511 46.9371 13.9116C46.8969 14.1833 43.3356 16.2419 42.1832 16.2721Z" fill="url(#paint52_linear_759_29223)"/>
<path style="mix-blend-mode:multiply" opacity="0.5" d="M42.7312 13.4179C41.0393 11.8998 37.8594 13.5524 37.8594 13.5524C37.8594 13.5524 40.3936 13.4609 41.6941 13.8103C42.9946 14.1596 42.9342 13.5999 42.7312 13.4179Z" fill="url(#paint53_linear_759_29223)"/>
<path style="mix-blend-mode:color-dodge" opacity="0.5" d="M42.2209 13.9146C40.6817 13.4674 37.8594 13.5488 37.8594 13.5488L42.2209 13.9146Z" fill="url(#paint54_linear_759_29223)"/>
<path style="mix-blend-mode:color-dodge" opacity="0.5" d="M46.1433 13.2018C45.8415 13.4762 44.4568 12.9549 43.6877 12.3933C43.2963 12.108 43.064 11.8108 43.214 11.5995L43.3054 11.4971L44.2995 12.0458L46.1433 13.2018Z" fill="url(#paint55_linear_759_29223)"/>
<path style="mix-blend-mode:multiply" opacity="0.5" d="M40.5115 15.1281C38.2169 13.8779 37.6307 13.5734 37.9892 13.9209C38.1346 14.0636 40.9752 16.2146 42.0425 16.2676C42.3909 16.285 41.5175 15.6759 40.5115 15.1281Z" fill="url(#paint56_linear_759_29223)"/>
<path style="mix-blend-mode:multiply" opacity="0.5" d="M44.3011 12.0475L44.2508 12.0667C44.0486 12.1492 43.859 12.2597 43.6875 12.395C43.3208 12.6884 42.9985 13.0334 42.7309 13.4193C42.7309 13.4193 42.2041 13.0846 40.9722 13.1083C39.337 13.1403 38.8349 13.422 38.0511 13.5482H38.0411L37.9661 13.561C37.9295 13.5674 37.8947 13.5748 37.86 13.583V13.5519L37.8545 12.8596C39.0836 11.9276 41.3087 11.0808 42.194 11.0643C42.2718 11.0608 42.3498 11.0685 42.4254 11.0872C42.7293 11.201 43.0241 11.338 43.307 11.4969C43.6052 11.6551 43.9481 11.8444 44.3011 12.0475Z" fill="url(#paint57_linear_759_29223)"/>
<path d="M43.2815 11.526C42.2966 12.596 37.893 13.0972 37.893 13.0972L37.1111 12.35C37.3223 10.6206 38.386 8.15131 39.0691 7.42058C39.1274 7.35486 39.1949 7.29788 39.2694 7.25139C39.9224 6.8746 44.8089 5.47534 45.096 5.82104C45.2972 6.06431 44.1632 10.5685 43.2815 11.526Z" fill="url(#paint58_linear_759_29223)"/>
<path style="mix-blend-mode:multiply" opacity="0.5" d="M43.2815 11.5243C42.2966 12.5943 37.893 13.0955 37.893 13.0955L37.1111 12.3483C37.3223 10.6189 38.386 8.14961 39.0691 7.41888C37.7156 10.1095 40.9568 11.3944 40.9568 11.3944C40.9568 11.3944 41.6472 11.5965 42.6404 10.9189C43.2093 10.5302 44.4805 8.78705 45.096 5.81934C45.2972 6.06261 44.1632 10.5668 43.2815 11.5243Z" fill="url(#paint59_linear_759_29223)"/>
<path style="mix-blend-mode:multiply" opacity="0.5" d="M41.4104 9.06346C39.1377 9.68444 37.6763 12.889 37.6763 12.889C37.6763 12.889 39.5968 10.7618 40.901 9.98532C42.2051 9.20887 41.7076 8.98206 41.4104 9.06346Z" fill="url(#paint60_linear_759_29223)"/>
<path style="mix-blend-mode:color-dodge" opacity="0.5" d="M41.3985 9.6377C39.8255 10.533 37.6763 12.8871 37.6763 12.8871L41.3985 9.6377Z" fill="url(#paint61_linear_759_29223)"/>
<path style="mix-blend-mode:color-dodge" opacity="0.5" d="M40.2151 6.88681C40.3733 7.73917 44.5885 5.78478 43.908 5.90367C42.5847 6.13231 40.2151 6.88681 40.2151 6.88681Z" fill="url(#paint62_linear_759_29223)"/>
<path d="M11.3591 42.5676C11.3581 42.5202 11.3603 42.4729 11.3655 42.4258C11.3655 42.4203 11.3655 42.4149 11.3655 42.4085C11.3852 42.2615 11.4195 42.1169 11.4679 41.9768V41.9722C11.8008 40.9845 12.7886 39.609 13.3821 38.8362C13.3894 38.828 13.3958 38.8189 13.4022 38.8106C13.5458 38.6277 13.6647 38.475 13.7433 38.3771C13.8092 38.2948 13.8467 38.25 13.8467 38.25H14.8079C15.7352 39.4901 16.5693 41.7253 16.5794 42.617C16.5823 42.6951 16.5742 42.7733 16.5556 42.8493C16.4386 43.1532 16.2989 43.4479 16.1376 43.7309C15.4133 45.0881 13.9994 47.3827 13.6949 47.3479C13.5037 47.326 12.4813 45.6268 11.853 44.19C11.5713 43.5315 11.3655 42.9307 11.3591 42.5676Z" fill="url(#paint63_linear_759_29223)"/>
<path style="mix-blend-mode:multiply" opacity="0.5" d="M11.3591 42.5676C11.3581 42.5202 11.3603 42.4729 11.3655 42.4258C11.3655 42.4203 11.3655 42.4149 11.3655 42.4085C11.3852 42.2615 11.4195 42.1169 11.4679 41.9768V41.9722C11.8008 40.9845 12.7886 39.609 13.3821 38.8362C13.3894 38.828 13.3958 38.8189 13.4022 38.8106C13.5458 38.6277 13.6647 38.475 13.7433 38.3771C13.8092 38.2948 13.8467 38.25 13.8467 38.25H14.8079C15.7352 39.4901 16.5693 41.7253 16.5794 42.617C16.252 41.5488 15.5605 41.1299 14.8664 41.0046C14.5876 40.9574 14.3037 40.9476 14.0223 40.9754H14.0104C13.9619 40.9754 13.9135 40.9854 13.8668 40.9918L13.7552 41.0074C13.472 41.0511 13.194 41.124 12.9257 41.225C12.9257 41.225 12.1118 41.7683 11.9435 42.4899C11.874 42.7853 11.9517 43.4172 12.2179 44.2577C12.5813 45.3436 13.0761 46.3811 13.6912 47.347C13.5001 47.3251 12.4776 45.6258 11.8493 44.1891C11.5713 43.5315 11.3655 42.9307 11.3591 42.5676Z" fill="url(#paint64_linear_759_29223)"/>
<path style="mix-blend-mode:multiply" opacity="0.5" d="M14.5254 42.7374C14.9625 41.0108 14.1193 38.2461 14.1193 38.2461C14.1193 38.2461 14.1961 40.7895 13.834 42.0918C13.4718 43.3941 14.39 43.2761 14.5254 42.7374Z" fill="url(#paint65_linear_759_29223)"/>
<path style="mix-blend-mode:color-dodge" opacity="0.5" d="M13.7288 42.6214C14.186 41.0804 14.122 38.248 14.122 38.248L13.7288 42.6214Z" fill="url(#paint66_linear_759_29223)"/>
<path style="mix-blend-mode:color-dodge" opacity="0.5" d="M16.0262 43.9461C15.4016 43.4971 13.9813 47.0007 14.412 46.5635C14.7449 46.227 16.0262 43.9461 16.0262 43.9461Z" fill="url(#paint67_linear_759_29223)"/>
<path style="mix-blend-mode:multiply" opacity="0.5" d="M11.3657 42.4266C11.3657 42.4211 11.3657 42.4156 11.3657 42.4092C11.381 42.2615 11.4154 42.1164 11.4681 41.9775V41.973C11.801 41.0392 12.8253 39.5796 13.3823 38.837C13.3896 38.8287 13.396 38.8196 13.4024 38.8114C13.5853 38.5727 13.7097 38.4126 13.7435 38.3779C14.0975 38.0212 13.7856 38.6065 12.5144 40.9002C11.9629 41.9044 11.3456 42.7768 11.3657 42.4266Z" fill="url(#paint68_linear_759_29223)"/>
<path style="mix-blend-mode:multiply" opacity="0.5" d="M13.3859 38.837C13.3933 38.8288 13.3997 38.8197 13.4061 38.8114C13.589 38.5727 13.7133 38.4127 13.7472 38.3779C13.7472 38.3779 13.8743 40.0817 13.7609 41.0063C13.578 42.53 13.343 43.8725 13.0146 44.0609C12.7764 44.2004 12.503 44.2683 12.2272 44.2567C12.1024 44.2531 11.979 44.23 11.8614 44.1881C11.5742 43.5323 11.3684 42.9315 11.362 42.5684C11.3611 42.521 11.3632 42.4737 11.3684 42.4266C11.3684 42.4211 11.3684 42.4157 11.3684 42.4093C11.3837 42.2615 11.4181 42.1164 11.4709 41.9776V41.973C11.8083 40.9853 12.7924 39.6098 13.3859 38.837Z" fill="url(#paint69_linear_759_29223)"/>
<path d="M8.82042 34.2005C8.87418 34.1993 8.92795 34.2018 8.98138 34.2078H8.98688C9.11963 34.2259 9.25038 34.2565 9.37739 34.2992H9.38562C10.3669 34.6111 11.7497 35.5869 12.5353 36.1805L12.5618 36.2015C12.7548 36.3478 12.9103 36.4695 13.0118 36.5499C13.0932 36.6149 13.138 36.6524 13.138 36.6524V36.8874V36.9176L13.1435 37.6099C11.9143 38.5418 9.69017 39.3896 8.80397 39.4061C8.72645 39.4092 8.64888 39.4015 8.5735 39.3832C8.26926 39.2695 7.97421 39.1325 7.69096 38.9735C7.39281 38.8171 7.05077 38.6287 6.69684 38.4248C5.43934 37.7023 4.04465 36.8014 4.07117 36.5637C4.10684 36.2893 7.66809 34.2306 8.82042 34.2005Z" fill="url(#paint70_linear_759_29223)"/>
<path style="mix-blend-mode:multiply" opacity="0.5" d="M8.82054 34.2005C8.87429 34.1993 8.92807 34.2018 8.9815 34.2078H8.98699C9.11975 34.2259 9.2505 34.2565 9.37751 34.2992H9.38574C10.367 34.6111 11.7498 35.5869 12.5354 36.1805L12.562 36.2015C12.7549 36.3478 12.9104 36.4695 13.0119 36.5499C13.0933 36.6149 13.1381 36.6524 13.1381 36.6524V36.8874V36.9176L13.1436 37.6099C11.9145 38.5418 9.69028 39.3896 8.80408 39.4061C9.86679 39.0723 10.2792 38.3799 10.3991 37.6876C10.4346 37.4762 10.4471 37.2616 10.4366 37.0474C10.4366 36.9789 10.4292 36.9112 10.4228 36.8444C10.4224 36.8405 10.4224 36.8365 10.4228 36.8325C10.4173 36.7841 10.4119 36.7411 10.4055 36.6899C10.3623 36.3695 10.2822 36.0553 10.1668 35.7534C10.1668 35.7534 9.61803 34.9467 8.89828 34.783C8.30383 34.6477 6.33754 35.1223 4.07129 36.5618C4.10696 36.2893 7.66821 34.2306 8.82054 34.2005Z" fill="url(#paint71_linear_759_29223)"/>
<path style="mix-blend-mode:multiply" opacity="0.5" d="M8.27272 37.0554C9.96463 38.5735 13.1445 36.9209 13.1445 36.9209C13.1445 36.9209 10.6112 37.0124 9.30982 36.664C8.00842 36.3155 8.06969 36.8734 8.27272 37.0554Z" fill="url(#paint72_linear_759_29223)"/>
<path style="mix-blend-mode:color-dodge" opacity="0.5" d="M8.78394 36.5605C10.3222 37.0078 13.1445 36.9209 13.1445 36.9209L8.78394 36.5605Z" fill="url(#paint73_linear_759_29223)"/>
<path style="mix-blend-mode:color-dodge" opacity="0.5" d="M4.85767 37.2727C5.15947 36.9983 6.54409 37.5196 7.31231 38.082C7.70374 38.3674 7.93604 38.6646 7.78606 38.875L7.6946 38.9783L6.70049 38.4296L4.85767 37.2727Z" fill="url(#paint74_linear_759_29223)"/>
<path style="mix-blend-mode:multiply" opacity="0.5" d="M10.4923 35.3478C12.7869 36.598 13.3731 36.9025 13.0155 36.5541C12.8692 36.4114 10.0286 34.2604 8.96133 34.2074C8.61289 34.1909 9.48628 34.7991 10.4923 35.3478Z" fill="url(#paint75_linear_759_29223)"/>
<path style="mix-blend-mode:multiply" opacity="0.5" d="M6.70239 38.4291L6.75269 38.4099C6.95493 38.3274 7.14457 38.2169 7.31605 38.0816C7.68284 37.7876 8.00534 37.4423 8.27358 37.0563C8.27358 37.0563 8.79945 37.392 10.0313 37.3682C11.6666 37.3353 12.1686 37.0545 12.9579 36.9274H12.9661L13.0411 36.9155C13.0777 36.9091 13.1125 36.9018 13.1481 36.8936V36.9237L13.1536 37.6161C11.9245 38.548 9.70028 39.3958 8.81408 39.4122C8.73657 39.4154 8.659 39.4077 8.58362 39.3894C8.27937 39.2756 7.98432 39.1386 7.70107 38.9796C7.39836 38.8205 7.05267 38.6321 6.70239 38.4291Z" fill="url(#paint76_linear_759_29223)"/>
<path d="M7.72204 38.9482C8.70793 37.8791 13.1106 37.3779 13.1106 37.3779L13.8934 38.1251C13.6813 39.8545 12.6185 42.3229 11.9345 43.0536C11.8762 43.1193 11.8087 43.1763 11.7342 43.2228C11.0812 43.6005 6.19475 44.9998 5.90849 44.6541C5.70729 44.4117 6.84042 39.9057 7.72204 38.9482Z" fill="url(#paint77_linear_759_29223)"/>
<path style="mix-blend-mode:multiply" opacity="0.5" d="M7.72204 38.9482C8.70793 37.8791 13.1106 37.3779 13.1106 37.3779L13.8934 38.1251C13.6813 39.8545 12.6185 42.3229 11.9345 43.0536C13.288 40.3639 10.0477 39.079 10.0477 39.079C10.0477 39.079 9.35634 38.8769 8.36406 39.5536C7.79429 39.9423 6.52307 41.6855 5.90849 44.6541C5.70729 44.4117 6.84042 39.9057 7.72204 38.9482Z" fill="url(#paint78_linear_759_29223)"/>
<path style="mix-blend-mode:multiply" opacity="0.5" d="M9.59314 41.4134C11.8658 40.7924 13.3272 37.5869 13.3272 37.5869C13.3272 37.5869 11.4113 39.7142 10.1025 40.4915C8.79382 41.2689 9.29591 41.4939 9.59314 41.4134Z" fill="url(#paint79_linear_759_29223)"/>
<path style="mix-blend-mode:color-dodge" opacity="0.5" d="M9.60522 40.8372C11.1782 39.9419 13.3274 37.5869 13.3274 37.5869L9.60522 40.8372Z" fill="url(#paint80_linear_759_29223)"/>
<path style="mix-blend-mode:color-dodge" opacity="0.5" d="M10.7896 43.5909C10.6305 42.7395 6.41532 44.6884 7.09575 44.575C8.4191 44.3445 10.7896 43.5909 10.7896 43.5909Z" fill="url(#paint81_linear_759_29223)"/>
<path d="M39.6452 42.5676C39.6459 42.5202 39.6435 42.4729 39.6379 42.4258C39.6384 42.42 39.6384 42.4142 39.6379 42.4085C39.6175 42.2616 39.5828 42.117 39.5346 41.9768V41.9722C39.2026 40.9845 38.214 39.609 37.6204 38.8362C37.614 38.828 37.6076 38.8189 37.6003 38.8106C37.4567 38.6277 37.3378 38.475 37.2592 38.3771C37.1933 38.2948 37.1558 38.25 37.1558 38.25H36.1901C35.2637 39.4901 34.4287 41.7253 34.4186 42.617C34.4155 42.6952 34.4238 42.7734 34.4433 42.8493C34.5594 43.1534 34.6989 43.4482 34.8603 43.7309C35.5847 45.0881 36.9995 47.3827 37.3031 47.3479C37.4951 47.326 38.5167 45.6268 39.1459 44.19C39.4331 43.5315 39.6379 42.9307 39.6452 42.5676Z" fill="url(#paint82_linear_759_29223)"/>
<path style="mix-blend-mode:multiply" opacity="0.5" d="M39.6453 42.5676C39.646 42.5202 39.6436 42.4729 39.638 42.4258C39.6385 42.42 39.6385 42.4142 39.638 42.4085C39.6176 42.2616 39.5829 42.117 39.5347 41.9768V41.9722C39.2027 40.9845 38.2141 39.609 37.6205 38.8362C37.6141 38.828 37.6077 38.8189 37.6004 38.8106C37.4568 38.6277 37.3379 38.475 37.2593 38.3771C37.1934 38.2948 37.1559 38.25 37.1559 38.25H36.1902C35.2638 39.4901 34.4288 41.7253 34.4187 42.617C34.7461 41.5488 35.4375 41.1299 36.1317 41.0046C36.4105 40.9574 36.6944 40.9476 36.9758 40.9754H36.9877C37.0371 40.9754 37.0846 40.9854 37.1312 40.9918L37.2428 41.0074C37.5261 41.0511 37.8041 41.124 38.0723 41.225C38.0723 41.225 38.8863 41.7683 39.0555 42.4899C39.1241 42.7853 39.0463 43.4172 38.7811 44.2577C38.4177 45.3436 37.9229 46.3811 37.3078 47.347C37.4998 47.3251 38.5214 45.6258 39.1506 44.1891C39.4332 43.5315 39.638 42.9307 39.6453 42.5676Z" fill="url(#paint83_linear_759_29223)"/>
<path style="mix-blend-mode:multiply" opacity="0.5" d="M36.4782 42.7374C36.041 41.0108 36.8851 38.2461 36.8851 38.2461C36.8851 38.2461 36.8074 40.7895 37.1705 42.0918C37.5336 43.3941 36.6144 43.2761 36.4782 42.7374Z" fill="url(#paint84_linear_759_29223)"/>
<path style="mix-blend-mode:color-dodge" opacity="0.5" d="M37.2776 42.6214C36.8203 41.0804 36.8853 38.248 36.8853 38.248L37.2776 42.6214Z" fill="url(#paint85_linear_759_29223)"/>
<path style="mix-blend-mode:color-dodge" opacity="0.5" d="M34.9775 43.9461C35.6022 43.4971 37.0225 47.0007 36.5917 46.5635C36.2588 46.227 34.9775 43.9461 34.9775 43.9461Z" fill="url(#paint86_linear_759_29223)"/>
<path style="mix-blend-mode:multiply" opacity="0.5" d="M39.6379 42.4266C39.6384 42.4208 39.6384 42.415 39.6379 42.4092C39.6223 42.2614 39.5876 42.1163 39.5346 41.9775V41.973C39.2026 41.0392 38.1774 39.5796 37.6204 38.837C37.614 38.8287 37.6076 38.8196 37.6003 38.8114C37.4174 38.5727 37.293 38.4126 37.2592 38.3779C36.9053 38.0212 37.218 38.6065 38.4883 40.9002C39.0407 41.9044 39.6581 42.7768 39.6379 42.4266Z" fill="url(#paint87_linear_759_29223)"/>
<path style="mix-blend-mode:multiply" opacity="0.5" d="M37.6179 38.837C37.6115 38.8288 37.6051 38.8197 37.5978 38.8114C37.4149 38.5727 37.2905 38.4127 37.2567 38.3779C37.2567 38.3779 37.1305 40.0817 37.243 41.0063C37.4259 42.53 37.6609 43.8725 37.9892 44.0609C38.2275 44.2004 38.5008 44.2683 38.7766 44.2567C38.9014 44.253 39.0249 44.2299 39.1425 44.1881C39.4296 43.5323 39.6345 42.9315 39.6418 42.5684C39.6425 42.521 39.64 42.4737 39.6345 42.4266C39.6349 42.4209 39.6349 42.415 39.6345 42.4093C39.6189 42.2615 39.5841 42.1164 39.5311 41.9776V41.973C39.2001 40.9853 38.2115 39.6098 37.6179 38.837Z" fill="url(#paint88_linear_759_29223)"/>
<path d="M42.1832 34.2005C42.1295 34.1993 42.0757 34.2018 42.0223 34.2078C41.8895 34.2258 41.7588 34.2564 41.6318 34.2992H41.6226C40.6422 34.6111 39.2594 35.5869 38.4739 36.1805L38.4464 36.2015C38.2534 36.3478 38.098 36.4695 37.9974 36.5499C37.9151 36.6149 37.8702 36.6524 37.8702 36.6524V36.8874V36.9176L37.8647 37.6099C39.0939 38.5418 41.319 39.3896 42.2043 39.4061C42.2821 39.4092 42.36 39.4015 42.4357 39.3832C42.7396 39.2694 43.0343 39.1324 43.3173 38.9735C43.6154 38.8171 43.9575 38.6287 44.3114 38.4248C45.5698 37.7023 46.9636 36.8014 46.9371 36.5637C46.8969 36.2893 43.3356 34.2306 42.1832 34.2005Z" fill="url(#paint89_linear_759_29223)"/>
<path style="mix-blend-mode:multiply" opacity="0.5" d="M42.1832 34.2005C42.1295 34.1993 42.0757 34.2018 42.0223 34.2078C41.8895 34.2258 41.7588 34.2564 41.6318 34.2992H41.6226C40.6422 34.6111 39.2594 35.5869 38.4739 36.1805L38.4464 36.2015C38.2534 36.3478 38.098 36.4695 37.9974 36.5499C37.9151 36.6149 37.8702 36.6524 37.8702 36.6524V36.8874V36.9176L37.8647 37.6099C39.0939 38.5418 41.319 39.3896 42.2043 39.4061C41.1416 39.0723 40.7291 38.3799 40.6093 37.6876C40.5738 37.4762 40.5612 37.2616 40.5718 37.0474C40.5718 36.9789 40.5791 36.9112 40.5864 36.8444C40.586 36.8405 40.586 36.8365 40.5864 36.8325C40.591 36.7841 40.5974 36.7411 40.6029 36.6899C40.6461 36.3694 40.7265 36.0551 40.8425 35.7534C40.8425 35.7534 41.3913 34.9467 42.1101 34.783C42.7055 34.6477 44.6708 35.1223 46.9371 36.5618C46.8969 36.2893 43.3356 34.2306 42.1832 34.2005Z" fill="url(#paint90_linear_759_29223)"/>
<path style="mix-blend-mode:multiply" opacity="0.5" d="M42.7312 37.0554C41.0393 38.5735 37.8594 36.9209 37.8594 36.9209C37.8594 36.9209 40.3936 37.0124 41.6941 36.664C42.9946 36.3155 42.9342 36.8734 42.7312 37.0554Z" fill="url(#paint91_linear_759_29223)"/>
<path style="mix-blend-mode:color-dodge" opacity="0.5" d="M42.2209 36.5605C40.6817 37.0078 37.8594 36.9209 37.8594 36.9209L42.2209 36.5605Z" fill="url(#paint92_linear_759_29223)"/>
<path style="mix-blend-mode:color-dodge" opacity="0.5" d="M46.1433 37.2727C45.8415 36.9983 44.4568 37.5196 43.6877 38.082C43.2963 38.3674 43.064 38.6646 43.214 38.875L43.3054 38.9783L44.2995 38.4296L46.1433 37.2727Z" fill="url(#paint93_linear_759_29223)"/>
<path style="mix-blend-mode:multiply" opacity="0.5" d="M40.5115 35.3478C38.2169 36.598 37.6307 36.9025 37.9892 36.5541C38.1346 36.4114 40.9752 34.2604 42.0425 34.2074C42.3909 34.1909 41.5175 34.7991 40.5115 35.3478Z" fill="url(#paint94_linear_759_29223)"/>
<path style="mix-blend-mode:multiply" opacity="0.5" d="M44.3013 38.4291L44.251 38.4099C44.0489 38.327 43.8594 38.2165 43.6876 38.0816C43.321 37.7877 42.9988 37.4424 42.731 37.0563C42.731 37.0563 42.2042 37.392 40.9723 37.3682C39.3371 37.3353 38.835 37.0545 38.0512 36.9274H38.043L37.968 36.9155C37.9314 36.9091 37.8967 36.9018 37.8619 36.8936V36.9237L37.8564 37.6161C39.0856 38.548 41.3107 39.3958 42.196 39.4122C42.2738 39.4153 42.3517 39.4076 42.4274 39.3894C42.7313 39.2755 43.026 39.1386 43.309 38.9796C43.6053 38.8205 43.9483 38.6321 44.3013 38.4291Z" fill="url(#paint95_linear_759_29223)"/>
<path d="M43.2815 38.9482C42.2966 37.8791 37.893 37.3779 37.893 37.3779L37.1111 38.1251C37.3223 39.8545 38.386 42.3229 39.0691 43.0536C39.1274 43.1193 39.1949 43.1763 39.2694 43.2228C39.9224 43.6005 44.8089 44.9998 45.096 44.6541C45.2972 44.4117 44.1632 39.9057 43.2815 38.9482Z" fill="url(#paint96_linear_759_29223)"/>
<path style="mix-blend-mode:multiply" opacity="0.5" d="M43.2815 38.9482C42.2966 37.8791 37.893 37.3779 37.893 37.3779L37.1111 38.1251C37.3223 39.8545 38.386 42.3229 39.0691 43.0536C37.7156 40.3639 40.9568 39.079 40.9568 39.079C40.9568 39.079 41.6472 38.8769 42.6404 39.5536C43.2093 39.9423 44.4805 41.6855 45.096 44.6541C45.2972 44.4117 44.1632 39.9057 43.2815 38.9482Z" fill="url(#paint97_linear_759_29223)"/>
<path style="mix-blend-mode:multiply" opacity="0.5" d="M41.4104 41.4134C39.1377 40.7924 37.6763 37.5869 37.6763 37.5869C37.6763 37.5869 39.5968 39.7142 40.901 40.4915C42.2051 41.2689 41.7076 41.4939 41.4104 41.4134Z" fill="url(#paint98_linear_759_29223)"/>
<path style="mix-blend-mode:color-dodge" opacity="0.5" d="M41.3985 40.8372C39.8255 39.9419 37.6763 37.5869 37.6763 37.5869L41.3985 40.8372Z" fill="url(#paint99_linear_759_29223)"/>
<path style="mix-blend-mode:color-dodge" opacity="0.5" d="M40.2151 43.5909C40.3733 42.7395 44.5885 44.6884 43.908 44.575C42.5847 44.3445 40.2151 43.5909 40.2151 43.5909Z" fill="url(#paint100_linear_759_29223)"/>
<path d="M46.2677 33.3343C46.4506 32.9036 43.9346 28.2266 42.8957 26.3261C42.9395 25.6278 42.9395 24.9274 42.8957 24.2291C43.9346 22.3295 46.2795 17.7037 46.2677 17.2209C46.2677 17.177 46.3042 16.4252 46.2677 16.3374C46.0902 15.914 40.7657 14.4114 38.6458 13.8279C38.0412 13.1336 37.3828 12.4881 36.6768 11.8973C36.1454 9.95569 34.545 4.23701 34.1069 4.05318C33.5801 3.83277 26.7256 7.62816 26.3222 7.85222C26.0479 7.8385 25.7653 7.8321 25.4845 7.8321C25.2038 7.8321 24.9248 7.8385 24.6477 7.85222C24.2444 7.62816 17.3898 3.83277 16.864 4.05318C16.425 4.23609 14.8254 9.95569 14.2932 11.8973C13.5874 12.4881 12.9294 13.1336 12.3251 13.8279C10.2042 14.4114 4.87972 15.914 4.70229 16.3374C4.66571 16.4289 4.70229 17.177 4.70229 17.2209C4.68949 17.8501 7.03531 22.3295 8.07424 24.2291C8.00947 24.9266 8.00947 25.6286 8.07424 26.3261C7.03531 28.2266 4.52213 32.9036 4.70229 33.3343C4.71967 33.3755 4.66571 34.1309 4.70229 34.2187C4.87972 34.6412 10.2042 36.1447 12.3251 36.7282C12.9294 37.4225 13.5874 38.068 14.2932 38.6588C14.8254 40.6004 16.425 46.3191 16.864 46.5029C17.3898 46.7233 24.2444 42.9279 24.6477 42.7039C24.9221 42.7167 25.2047 42.724 25.4845 42.724C25.7644 42.724 26.0451 42.7167 26.3222 42.7039C26.7256 42.9279 33.5801 46.7279 34.1069 46.5029C34.545 46.32 36.1454 40.6004 36.6768 38.6588C37.3828 38.068 38.0412 37.4225 38.6458 36.7282C40.7657 36.1447 46.0902 34.6412 46.2677 34.2187C46.3042 34.1309 46.2503 33.3755 46.2677 33.3343ZM38.6348 25.278C38.6356 27.8789 37.865 30.4215 36.4206 32.5844C34.9762 34.7472 32.9229 36.4332 30.5202 37.429C28.1176 38.4249 25.4736 38.6858 22.9227 38.1789C20.3717 37.6721 18.0284 36.4201 16.189 34.5813C14.3496 32.7426 13.0969 30.3997 12.5891 27.8489C12.0813 25.2982 12.3414 22.6541 13.3364 20.2511C14.3314 17.8482 16.0166 15.7942 18.179 14.3491C20.3413 12.9039 22.8837 12.1325 25.4845 12.1323C28.9715 12.1321 32.3158 13.5168 34.7818 15.9821C37.2479 18.4473 38.6339 21.7911 38.6348 25.278Z" fill="url(#paint101_linear_759_29223)"/>
<path style="mix-blend-mode:multiply" opacity="0.5" d="M22.4739 42.4764L22.6568 42.5075C22.1466 42.8714 21.6077 43.1931 21.0454 43.4696H21.0371C20.7308 43.6215 20.429 43.7568 20.1391 43.8766L20.1125 43.8876C19.2808 44.2331 18.419 44.5013 17.5381 44.6887C16.9107 43.4507 16.4248 42.1459 16.0894 40.7992C16.0891 40.7949 16.0891 40.7906 16.0894 40.7864C16.0894 40.7717 16.083 40.758 16.0794 40.7434C15.9971 40.415 15.9303 40.116 15.8782 39.8535C15.9239 39.8837 15.9696 39.9148 16.0172 39.945C16.0922 39.9944 16.169 40.0428 16.2449 40.0904C16.3208 40.1379 16.372 40.17 16.436 40.2084C18.2334 41.3012 20.2146 42.0579 22.2828 42.4417L22.4739 42.4764Z" fill="url(#paint102_linear_759_29223)"/>
<path d="M22.3942 42.4633C21.4651 43.0724 19.678 44.0839 17.6843 44.3839C17.6843 44.3839 16.8512 43.0779 16.2402 40.0938C16.3043 40.1331 16.3674 40.1733 16.4314 40.2117C18.2287 41.3045 20.2099 42.0613 22.2781 42.4451L22.3942 42.4633Z" fill="url(#paint103_linear_759_29223)"/>
<path style="mix-blend-mode:multiply" opacity="0.5" d="M22.4737 42.4738C22.0367 42.8579 21.5574 43.1911 21.0452 43.467H21.0369C20.7451 43.6186 20.4453 43.7545 20.1388 43.874L20.1123 43.8849C19.2728 44.2087 18.4128 44.4763 17.5378 44.6861C17.4866 44.5946 16.6581 43.0884 16.0892 40.7965C16.0889 40.7922 16.0889 40.788 16.0892 40.7837C16.0892 40.7691 16.0828 40.7554 16.0791 40.7407C16.0294 40.4773 16.0085 40.2093 16.017 39.9414C16.092 39.9908 16.1688 40.0393 16.2447 40.0868C16.3206 40.1344 16.3718 40.1664 16.4358 40.2048C16.7669 41.0654 17.3101 42.2708 18.0015 43.0774C18.0015 43.0774 19.9907 43.4158 22.2825 42.4372L22.4737 42.4738Z" fill="url(#paint104_linear_759_29223)"/>
<path style="mix-blend-mode:multiply" opacity="0.5" d="M35.0963 39.8535C35.0442 40.116 34.9774 40.415 34.8951 40.7434C34.8951 40.758 34.8887 40.7717 34.8851 40.7864C34.8854 40.7906 34.8854 40.7949 34.8851 40.7992C34.5501 42.1461 34.0642 43.4509 33.4364 44.6887C32.5545 44.501 31.6917 44.2322 30.8592 43.8858L30.8364 43.8766C30.5428 43.7559 30.2373 43.6178 29.9273 43.4642C29.3662 43.1877 28.8282 42.8665 28.3186 42.5039L28.5015 42.4728L28.6972 42.4371C30.7655 42.0535 32.7467 41.2967 34.5439 40.2038C34.608 40.1654 34.672 40.126 34.7351 40.0858C34.7982 40.0456 34.8878 39.9944 34.9637 39.9404C35.0049 39.9148 35.0506 39.8837 35.0963 39.8535Z" fill="url(#paint105_linear_759_29223)"/>
<path d="M34.7297 40.085C34.1233 43.0728 33.2865 44.3833 33.2865 44.3833C31.2919 44.087 29.5049 43.0755 28.5757 42.4628L28.6918 42.4408C30.7601 42.0572 32.7413 41.3005 34.5385 40.2075C34.6026 40.1682 34.6666 40.1289 34.7297 40.085Z" fill="url(#paint106_linear_759_29223)"/>
<path style="mix-blend-mode:multiply" opacity="0.5" d="M34.8953 40.7429C34.8953 40.7575 34.8889 40.7712 34.8852 40.7858C34.8855 40.7901 34.8855 40.7944 34.8852 40.7986C34.3164 43.0905 33.4887 44.5959 33.4366 44.6882C32.5606 44.4783 31.6996 44.21 30.8594 43.8853L30.8365 43.8761C30.5298 43.7564 30.2297 43.6206 29.9375 43.4691H29.9165C29.4061 43.1936 28.9287 42.861 28.4934 42.4778L28.6891 42.4421C30.981 43.4198 32.9701 43.0823 32.9701 43.0823C33.6624 42.2757 34.2057 41.0703 34.5358 40.2097C34.5999 40.1713 34.6639 40.1319 34.727 40.0917C34.7901 40.0515 34.8797 40.0002 34.9556 39.9463C34.9649 40.2132 34.9447 40.4804 34.8953 40.7429Z" fill="url(#paint107_linear_759_29223)"/>
<path style="mix-blend-mode:multiply" opacity="0.5" d="M22.4737 8.10072L22.6566 8.06871C22.1461 7.70581 21.6072 7.38468 21.0451 7.10843L21.0369 7.10386C20.7305 6.95204 20.4287 6.81669 20.1388 6.69597L20.1123 6.68591C19.2808 6.33987 18.4189 6.07167 17.5378 5.88477V5.88934C16.9104 7.12733 16.4244 8.43209 16.0892 9.77892C16.0888 9.78317 16.0888 9.78746 16.0892 9.79172C16.0892 9.80544 16.0828 9.82007 16.0791 9.83379C15.9968 10.163 15.9301 10.4621 15.8779 10.7246C15.9237 10.6935 15.9694 10.6633 16.0169 10.6331C16.0919 10.5837 16.1688 10.5352 16.2447 10.4877L16.4358 10.3688C18.2334 9.27668 20.2145 8.52026 22.2825 8.13639L22.4737 8.10072Z" fill="url(#paint108_linear_759_29223)"/>
<path d="M22.3942 8.11391C21.4651 7.50482 19.678 6.49333 17.6843 6.19336C17.6843 6.19336 16.8512 7.50025 16.2402 10.4844L16.4314 10.3655C18.229 9.27341 20.2101 8.51699 22.2781 8.13312L22.3942 8.11391Z" fill="url(#paint109_linear_759_29223)"/>
<path style="mix-blend-mode:multiply" opacity="0.5" d="M22.4739 8.10072C22.0368 7.71694 21.5576 7.38405 21.0454 7.10843L21.0371 7.10386C20.7451 6.95227 20.4453 6.81612 20.139 6.69597L20.1125 6.68591C19.273 6.36219 18.413 6.09456 17.538 5.88477V5.88934C17.4868 5.98079 16.6583 7.48706 16.0894 9.77892C16.089 9.78317 16.089 9.78746 16.0894 9.79172C16.0894 9.80544 16.083 9.82007 16.0793 9.83379C16.0287 10.0983 16.0073 10.3676 16.0153 10.6368C16.0903 10.5874 16.1671 10.5389 16.2431 10.4914L16.4342 10.3725C16.7653 9.51278 17.3085 8.30649 17.9999 7.50077C17.9999 7.50077 19.989 7.16239 22.2809 8.14096L22.4739 8.10072Z" fill="url(#paint110_linear_759_29223)"/>
<path style="mix-blend-mode:color-dodge" opacity="0.5" d="M20.6393 5.70212C18.9017 5.06194 17.0579 4.48486 17.0579 4.48486C16.4936 5.35459 15.2791 8.47321 15.2224 8.61954C15.8626 6.45114 16.5942 4.16842 16.8686 4.05319C17.1238 3.94619 18.8678 4.78483 20.642 5.69938L20.6393 5.70212Z" fill="url(#paint111_linear_759_29223)"/>
<path style="mix-blend-mode:multiply" opacity="0.5" d="M28.5018 8.10072L28.3188 8.06871C28.8292 7.70562 29.3681 7.38448 29.9303 7.10843L29.9385 7.10386C30.2449 6.95204 30.5467 6.81669 30.8366 6.69597L30.8631 6.68591C31.6947 6.33987 32.5565 6.07167 33.4376 5.88477V5.88934C34.065 7.12733 34.551 8.43209 34.8862 9.77892C34.8862 9.78349 34.8862 9.78715 34.8862 9.79172C34.8862 9.79629 34.8926 9.82007 34.8963 9.83379C34.9786 10.163 35.0444 10.4621 35.0975 10.7246C35.0518 10.6935 35.006 10.6633 34.9585 10.6331L34.7307 10.4877L34.5396 10.3688C32.742 9.27668 30.7609 8.52026 28.6929 8.13639L28.5018 8.10072Z" fill="url(#paint112_linear_759_29223)"/>
<path d="M28.5811 8.11391C29.5102 7.50482 31.2964 6.49333 33.291 6.19336C33.291 6.19336 34.1241 7.50025 34.7351 10.4844L34.5439 10.3655C32.7463 9.27341 30.7652 8.51699 28.6972 8.13312L28.5811 8.11391Z" fill="url(#paint113_linear_759_29223)"/>
<path style="mix-blend-mode:multiply" opacity="0.5" d="M28.5015 8.10072C28.9371 7.71676 29.4151 7.38385 29.9263 7.10843L29.9346 7.10386C30.2266 6.95227 30.5264 6.81612 30.8327 6.69597L30.8592 6.68591C31.6987 6.36219 32.5587 6.09456 33.4336 5.88477V5.88934C33.4848 5.98079 34.3134 7.48706 34.8823 9.77892C34.8823 9.78349 34.8823 9.78715 34.8823 9.79172C34.8823 9.79629 34.8887 9.82007 34.8923 9.83379C34.9421 10.0975 34.963 10.3658 34.9545 10.634L34.7268 10.4886L34.5357 10.3697C34.2046 9.51004 33.6613 8.30375 32.9699 7.49803C32.9699 7.49803 30.9808 7.15965 28.689 8.13821L28.5015 8.10072Z" fill="url(#paint114_linear_759_29223)"/>
<path style="mix-blend-mode:color-dodge" opacity="0.5" d="M30.3362 5.70212C32.0739 5.06194 33.9176 4.48486 33.9176 4.48486C34.4819 5.35459 35.6964 8.47321 35.7531 8.61954C35.1129 6.45114 34.3813 4.16842 34.1069 4.05319C33.8518 3.94619 32.1077 4.78483 30.3335 5.69938L30.3362 5.70212Z" fill="url(#paint115_linear_759_29223)"/>
<path style="mix-blend-mode:multiply" opacity="0.5" d="M39.702 15.1839L39.5923 15.0293C40.2099 15.1329 40.8181 15.2858 41.4113 15.4866H41.4205C41.7442 15.5954 42.0542 15.7134 42.3442 15.8332L42.3707 15.8442C43.2036 16.1868 44.0032 16.6053 44.7595 17.0943C44.7599 17.0962 44.7599 17.098 44.7595 17.0998C44.3301 18.4196 43.753 19.6867 43.0392 20.8769C43.0371 20.8808 43.0346 20.8845 43.0319 20.8879L43.009 20.9254C42.8362 21.2162 42.6716 21.4741 42.5234 21.6982C42.5124 21.6442 42.5005 21.5894 42.4896 21.5354C42.4704 21.4439 42.4512 21.3589 42.4301 21.2711C42.4128 21.1988 42.3963 21.1257 42.3789 21.0534C41.8782 19.0106 41.0106 17.0757 39.8182 15.343L39.702 15.1839Z" fill="url(#paint116_linear_759_29223)"/>
<path d="M39.7441 15.25C40.8315 15.475 42.8115 16.02 44.433 17.2181C44.433 17.2181 44.1001 18.7317 42.4256 21.2751C42.4082 21.2028 42.3918 21.1296 42.3744 21.0574C41.8737 19.0145 41.006 17.0796 39.8136 15.3469L39.7441 15.25Z" fill="url(#paint117_linear_759_29223)"/>
<path style="mix-blend-mode:multiply" opacity="0.5" d="M39.7021 15.1836C40.2815 15.2198 40.8549 15.3213 41.4114 15.4863H41.4206C41.7345 15.5851 42.0428 15.7008 42.3443 15.8329L42.3708 15.8439C43.1938 16.2074 43.9918 16.625 44.7596 17.0941C44.76 17.0959 44.76 17.0978 44.7596 17.0996C44.7313 17.2011 44.2548 18.8519 43.0393 20.8767C43.0372 20.8805 43.0348 20.8842 43.032 20.8876L43.0092 20.9251C42.8591 21.1471 42.6849 21.3517 42.4897 21.5351C42.4705 21.4437 42.4513 21.3586 42.4303 21.2708C42.4129 21.1986 42.3964 21.1254 42.379 21.0532C42.7513 20.21 43.2186 18.9726 43.2982 17.9135C43.2982 17.9135 42.1284 16.2673 39.8156 15.3427L39.7021 15.1836Z" fill="url(#paint118_linear_759_29223)"/>
<path style="mix-blend-mode:color-dodge" opacity="0.5" d="M42.6287 14.9727C44.1935 15.6796 45.7884 16.4899 45.7884 16.4899C45.5982 17.4328 44.3782 20.2844 44.3252 20.4179C45.3092 18.5687 46.3079 16.585 46.2009 16.3308C46.1012 16.0939 44.4038 15.5168 42.6342 14.9727H42.6287Z" fill="url(#paint119_linear_759_29223)"/>
<path style="mix-blend-mode:multiply" opacity="0.5" d="M39.702 35.3556L39.5923 35.5101C40.21 35.407 40.8183 35.254 41.4113 35.0529C41.4143 35.0534 41.4174 35.0534 41.4205 35.0529C41.7442 34.944 42.0542 34.827 42.3442 34.7072L42.3707 34.6962C43.2036 34.3535 44.0032 33.9351 44.7595 33.446C44.3301 32.1262 43.753 30.8592 43.0392 29.6689L43.0319 29.657L43.009 29.6204C42.8362 29.3296 42.6716 29.0717 42.5234 28.8477C42.5124 28.9016 42.5005 28.9565 42.4896 29.0104C42.4704 29.1019 42.4512 29.186 42.4301 29.2738C42.4128 29.347 42.3963 29.4202 42.3789 29.4924C41.8782 31.5353 41.0106 33.4702 39.8182 35.2029L39.702 35.3556Z" fill="url(#paint120_linear_759_29223)"/>
<path d="M39.7441 35.2906C40.8315 35.0656 42.8115 34.5206 44.433 33.3225C44.433 33.3225 44.1001 31.8089 42.4256 29.2646C42.4082 29.3378 42.3918 29.411 42.3744 29.4832C41.8737 31.5261 41.006 33.461 39.8136 35.1937L39.7441 35.2906Z" fill="url(#paint121_linear_759_29223)"/>
<path style="mix-blend-mode:multiply" opacity="0.5" d="M39.7021 35.3568C40.2816 35.3207 40.855 35.2188 41.4114 35.0532C41.4145 35.0537 41.4176 35.0537 41.4206 35.0532C41.7345 34.9547 42.0428 34.8393 42.3443 34.7075L42.3708 34.6965C43.1938 34.333 43.9918 33.9154 44.7596 33.4463C44.7313 33.3448 44.2548 31.694 43.0393 29.6692L43.032 29.6573L43.0092 29.6208C42.8591 29.3988 42.6849 29.1942 42.4897 29.0107C42.4705 29.1022 42.4513 29.1863 42.4303 29.2741C42.4129 29.3473 42.3964 29.4205 42.379 29.4927C42.7513 30.3359 43.2186 31.5733 43.2982 32.6324C43.2982 32.6324 42.1284 34.2785 39.8156 35.2032L39.7021 35.3568Z" fill="url(#paint122_linear_759_29223)"/>
<path style="mix-blend-mode:color-dodge" opacity="0.5" d="M42.6287 35.5683C44.1935 34.8613 45.7884 34.0501 45.7884 34.0501C45.5982 33.1081 44.3782 30.2566 44.3252 30.123C45.3092 31.9723 46.3079 33.9559 46.2009 34.2102C46.1012 34.447 44.4038 35.0232 42.6342 35.5683H42.6287Z" fill="url(#paint123_linear_759_29223)"/>
<path style="mix-blend-mode:multiply" opacity="0.5" d="M11.1911 15.1839C11.2277 15.1317 11.2642 15.0805 11.3017 15.0293C10.6838 15.1328 10.0752 15.2857 9.48178 15.4866C9.47876 15.4871 9.47565 15.4871 9.47263 15.4866C9.14888 15.5954 8.83976 15.7134 8.54893 15.8332L8.52241 15.8442C7.69091 16.1878 6.8928 16.6072 6.13818 17.0971V17.1026C6.56783 18.4224 7.14521 19.6895 7.85936 20.8797C7.86115 20.8835 7.8633 20.8872 7.86577 20.8906L7.88863 20.9281C8.0624 21.219 8.22701 21.4769 8.37425 21.7009C8.38523 21.647 8.39712 21.5921 8.40901 21.5381C8.4273 21.4467 8.44742 21.3616 8.46754 21.2738L8.51967 21.0562C9.0199 19.0132 9.8876 17.0782 11.0804 15.3457L11.1911 15.1839Z" fill="url(#paint124_linear_759_29223)"/>
<path d="M11.1445 15.25C10.0571 15.475 8.07706 16.02 6.45557 17.2181C6.45557 17.2181 6.78846 18.7317 8.46758 21.2751L8.51971 21.0574C9.01994 19.0144 9.88764 17.0794 11.0805 15.3469L11.1445 15.25Z" fill="url(#paint125_linear_759_29223)"/>
<path style="mix-blend-mode:multiply" opacity="0.5" d="M11.1911 15.1836C10.6117 15.2198 10.0383 15.3213 9.48178 15.4863C9.47876 15.4868 9.47565 15.4868 9.47263 15.4863C9.15876 15.5853 8.85043 15.701 8.54893 15.8329L8.52241 15.8439C7.70097 16.2086 6.9045 16.6272 6.13818 17.0968V17.1023C6.16653 17.2038 6.64301 18.8546 7.85936 20.8794C7.86115 20.8833 7.8633 20.8869 7.86577 20.8904L7.88863 20.9279C8.03901 21.1498 8.21353 21.3544 8.40901 21.5379C8.4273 21.4464 8.44742 21.3614 8.46754 21.2736L8.51967 21.0559C8.14654 20.2127 7.6792 18.9753 7.59963 17.9163C7.59963 17.9163 8.76935 16.2701 11.0822 15.3455L11.1911 15.1836Z" fill="url(#paint126_linear_759_29223)"/>
<path style="mix-blend-mode:color-dodge" opacity="0.5" d="M8.26266 14.9727C6.69878 15.6796 5.1029 16.4899 5.1029 16.4899C5.29404 17.4328 6.5241 20.3978 6.58172 20.5313C5.63242 18.7781 4.62184 16.4295 4.69409 16.3308C4.84682 16.1241 6.49209 15.5168 8.26083 14.9727H8.26266Z" fill="url(#paint127_linear_759_29223)"/>
<path style="mix-blend-mode:multiply" opacity="0.5" d="M11.1911 35.3573C11.2277 35.4085 11.2642 35.4606 11.3017 35.5119C10.6837 35.4088 10.0751 35.2558 9.48178 35.0546H9.47263C9.14888 34.9457 8.83976 34.8287 8.54893 34.7089L8.52241 34.6979C7.69087 34.354 6.89276 33.9343 6.13818 33.4441C6.56783 32.1242 7.14521 30.8572 7.85936 29.667L7.86577 29.6551L7.88863 29.6185C8.0624 29.3277 8.22701 29.0698 8.37425 28.8457C8.38523 28.8997 8.39712 28.9545 8.40901 29.0085C8.4273 29.1 8.44742 29.1841 8.46754 29.2719L8.51967 29.4905C9.0199 31.5335 9.8876 33.4685 11.0804 35.2009L11.1911 35.3573Z" fill="url(#paint128_linear_759_29223)"/>
<path d="M11.1445 35.2906C10.0571 35.0656 8.07706 34.5206 6.45557 33.3225C6.45557 33.3225 6.78846 31.8089 8.46758 29.2646L8.51971 29.4832C9.01994 31.5262 9.88764 33.4612 11.0805 35.1937L11.1445 35.2906Z" fill="url(#paint129_linear_759_29223)"/>
<path style="mix-blend-mode:multiply" opacity="0.5" d="M11.1911 35.3576C10.6116 35.3215 10.0382 35.2196 9.48178 35.054H9.47263C9.15877 34.9553 8.85043 34.8399 8.54893 34.7083L8.52241 34.6973C7.70097 34.3325 6.9045 33.914 6.13818 33.4444C6.16653 33.3428 6.64301 31.6921 7.85936 29.6673L7.86577 29.6554L7.88863 29.6188C8.03901 29.3968 8.21353 29.1923 8.40901 29.0088C8.4273 29.1002 8.44742 29.1844 8.46754 29.2722L8.51967 29.4908C8.14654 30.334 7.6792 31.5714 7.59963 32.6304C7.59963 32.6304 8.76935 34.2766 11.0822 35.2012L11.1911 35.3576Z" fill="url(#paint130_linear_759_29223)"/>
<path style="mix-blend-mode:color-dodge" opacity="0.5" d="M8.26249 35.5683C6.69861 34.8613 5.10273 34.0501 5.10273 34.0501C5.29387 33.1081 6.51296 30.2566 6.56601 30.123C5.58927 31.9723 4.58326 33.9568 4.69392 34.2102C4.7936 34.447 6.49192 35.0232 8.26066 35.5683H8.26249Z" fill="url(#paint131_linear_759_29223)"/>
<path style="mix-blend-mode:multiply" opacity="0.5" d="M41.7057 31.6953C40.4528 34.8566 38.3034 37.5829 35.5218 39.5389C32.7401 41.495 29.4475 42.5956 26.0488 42.7054C22.65 42.8152 19.2932 41.9294 16.3912 40.1569C13.4891 38.3845 11.1682 35.8026 9.71387 32.7288C16.1422 38.6541 29.2148 44.1862 41.7057 31.6953Z" fill="url(#paint132_linear_759_29223)"/>
<path style="mix-blend-mode:multiply" opacity="0.5" d="M40.6722 36.1587C39.8848 36.3846 39.1678 36.584 38.6447 36.7285C38.0404 37.4227 37.3823 38.0683 36.6766 38.6591C36.5247 39.2143 36.2851 40.0794 36.0098 41.037C33.9695 42.4938 31.5944 43.6516 29.2422 44.2863C27.767 43.5053 26.4885 42.7975 26.3211 42.7051C26.0467 42.7188 25.7642 42.7252 25.4834 42.7252C25.2026 42.7252 24.9237 42.7188 24.6466 42.7051C24.4765 42.7965 23.1632 43.5282 21.6606 44.3211C19.2593 43.7051 16.9978 42.6357 14.9981 41.1705C14.7072 40.1645 14.4493 39.2417 14.292 38.66C13.5863 38.0692 12.9282 37.4237 12.3239 36.7294C11.8868 36.6087 11.3179 36.4496 10.6777 36.2721C10.113 35.1735 9.78429 33.9688 9.71289 32.7356C14.3442 40.3949 29.8842 49.513 41.7047 31.7021C41.9297 33.1609 41.5228 34.6891 40.6722 36.1587Z" fill="url(#paint133_linear_759_29223)"/>
<path style="mix-blend-mode:color-dodge" opacity="0.5" d="M25.4844 7.83203C21.7316 7.8323 18.0789 9.04251 15.0683 11.2831C12.0577 13.5236 9.84969 16.6751 8.77197 20.2699C11.6263 13.9595 18.1077 10.9205 25.4854 10.9205C33.5334 10.9205 40.227 14.7899 42.6258 22.0313C41.8694 18.0387 39.7431 14.4353 36.6136 11.8431C33.4842 9.25076 29.5481 7.83216 25.4844 7.83203Z" fill="url(#paint134_linear_759_29223)"/>
<path d="M25.4854 10.9199C22.6466 10.9197 19.8715 11.7613 17.511 13.3382C15.1505 14.9151 13.3106 17.1566 12.2239 19.7791C11.1373 22.4016 10.8526 25.2875 11.406 28.0718C11.9594 30.8561 13.3259 33.4139 15.3328 35.4215C17.3398 37.4292 19.8969 38.7968 22.681 39.3512C25.4651 39.9056 28.3511 39.6221 30.9741 38.5364C33.597 37.4507 35.8392 35.6117 37.417 33.2518C38.9948 30.8919 39.8374 28.1171 39.8383 25.2783C39.8383 21.4712 38.3263 17.8199 35.6348 15.1273C32.9433 12.4348 29.2925 10.9214 25.4854 10.9199ZM25.4854 38.4232C22.8845 38.4232 20.342 37.6519 18.1794 36.2069C16.0168 34.7619 14.3313 32.708 13.336 30.3051C12.3407 27.9021 12.0803 25.258 12.5878 22.707C13.0953 20.1561 14.3479 17.8129 16.187 15.9739C18.0262 14.1348 20.3695 12.8824 22.9205 12.3751C25.4714 11.8678 28.1155 12.1284 30.5184 13.1238C32.9213 14.1193 34.975 15.8049 36.4199 17.9676C37.8648 20.1303 38.6359 22.6729 38.6357 25.2738C38.6357 27.0007 38.2955 28.7108 37.6346 30.3063C36.9737 31.9017 36.0049 33.3514 34.7837 34.5724C33.5625 35.7935 32.1127 36.762 30.5171 37.4228C28.9215 38.0835 27.2114 38.4234 25.4845 38.4232H25.4854Z" fill="#736FA8"/>
<path style="mix-blend-mode:color-dodge" opacity="0.5" d="M13.9319 33.793C13.9319 33.793 17.773 38.4242 25.4845 38.4242C33.196 38.4242 37.038 33.793 37.038 33.793C37.038 33.793 33.2883 39.8363 25.4854 39.8363C17.6825 39.8363 13.9319 33.793 13.9319 33.793Z" fill="url(#paint135_linear_759_29223)"/>
<path d="M13.9319 33.793C13.9319 33.793 17.7785 39.6278 25.4854 39.6278C33.1923 39.6278 37.038 33.793 37.038 33.793C37.038 33.793 33.2883 39.8363 25.4854 39.8363C17.6825 39.8363 13.9319 33.793 13.9319 33.793Z" fill="url(#paint136_linear_759_29223)"/>
<path d="M25.4854 9.50262C24.9147 10.2343 29.4674 11.4415 30.0134 10.9211C30.5593 10.4007 30.0454 9.63066 29.0183 9.50262C27.9913 9.37458 25.9335 8.92462 25.4854 9.50262Z" fill="white"/>
<path d="M24.4694 39.8003C24.1374 39.1848 27.7261 38.5665 28.23 39.0165C28.734 39.4665 27.8349 39.6448 27.8349 39.6448L24.4694 39.8003Z" fill="white"/>
<path style="mix-blend-mode:color-dodge" opacity="0.8" d="M28.2299 15.0179C31.0165 15.0179 33.2755 12.7589 33.2755 9.97233C33.2755 7.18574 31.0165 4.92676 28.2299 4.92676C25.4433 4.92676 23.1843 7.18574 23.1843 9.97233C23.1843 12.7589 25.4433 15.0179 28.2299 15.0179Z" fill="url(#paint137_radial_759_29223)"/>
<path style="mix-blend-mode:color-dodge" opacity="0.8" d="M22.3387 41.9121C22.6235 40.8334 21.5278 39.6086 19.8913 39.1765C18.2548 38.7444 16.6973 39.2687 16.4125 40.3475C16.1276 41.4262 17.2234 42.651 18.8598 43.0831C20.4963 43.5152 22.0539 42.9909 22.3387 41.9121Z" fill="url(#paint138_radial_759_29223)"/>
<path style="mix-blend-mode:multiply" opacity="0.5" d="M46.2676 17.2208C46.2804 17.7028 43.9345 22.3285 42.8956 24.2281L42.8252 23.0968C42.8252 23.0968 45.7783 18.5057 46.1944 16.3291L46.2859 16.512C46.2868 16.7635 46.2667 17.1879 46.2676 17.2208Z" fill="url(#paint139_linear_759_29223)"/>
<path style="mix-blend-mode:color-dodge" opacity="0.5" d="M46.2676 34.2187C46.2547 34.2434 46.2366 34.2649 46.2145 34.2818C46.2072 34.2581 46.2008 34.2352 46.1944 34.2105C45.4865 31.6269 42.8252 27.4502 42.8252 27.4502L42.8956 26.3262C43.9345 28.2266 46.4487 32.9036 46.2676 33.3344C46.2502 33.3755 46.3042 34.1309 46.2676 34.2187Z" fill="url(#paint140_linear_759_29223)"/>
<path style="mix-blend-mode:color-dodge" opacity="0.5" d="M8.07419 26.3262V27.6267C8.07419 27.6267 6.01279 30.5788 4.69767 34.2014C4.67115 34.0578 4.71871 33.3783 4.70316 33.3344C4.52116 32.9036 7.03526 28.2266 8.07419 26.3262Z" fill="url(#paint141_linear_759_29223)"/>
<path style="mix-blend-mode:multiply" opacity="0.5" d="M8.07414 22.8592V24.231C7.03521 22.3315 4.6903 17.852 4.70311 17.2237C4.70311 17.1798 4.66744 16.4628 4.70311 16.3467C6.20571 20.5463 8.07414 22.8592 8.07414 22.8592Z" fill="url(#paint142_linear_759_29223)"/>
<path d="M23.8723 42.6445L24.6478 42.7058C24.2445 42.9299 17.39 46.7298 16.8641 46.5039C16.736 46.4509 16.5111 45.9296 16.2422 45.1696C16.2724 45.2309 16.7534 46.2195 17.0095 46.2195C17.2656 46.2195 23.8723 42.6445 23.8723 42.6445Z" fill="url(#paint143_linear_759_29223)"/>
<path d="M34.727 45.1729C34.459 45.931 34.234 46.4532 34.1069 46.5026C33.5801 46.7239 26.7265 42.9286 26.3223 42.7045L27.2944 42.624C27.2944 42.624 31.9138 45.5186 33.7941 46.0993C34.2706 46.2438 34.6904 45.2598 34.727 45.1729Z" fill="url(#paint144_linear_759_29223)"/>
<defs>
<linearGradient id="paint0_linear_759_29223" x1="25.4854" y1="17.0082" x2="25.4854" y2="-0.786185" gradientUnits="userSpaceOnUse">
<stop stop-color="#86759D"/>
<stop offset="0.39" stop-color="#98ABD2"/>
<stop offset="1" stop-color="#DAE1EF"/>
</linearGradient>
<linearGradient id="paint1_linear_759_29223" x1="25.4856" y1="12.6725" x2="25.4856" y2="3.77757" gradientUnits="userSpaceOnUse">
<stop stop-color="#8980EB"/>
<stop offset="1" stop-color="#705AB8"/>
</linearGradient>
<linearGradient id="paint2_linear_759_29223" x1="25.4755" y1="-4.18435" x2="25.4755" y2="11.138" gradientUnits="userSpaceOnUse">
<stop stop-color="#86759D"/>
<stop offset="0.39" stop-color="#98ABD2"/>
<stop offset="1" stop-color="#DAE1EF"/>
</linearGradient>
<linearGradient id="paint3_linear_759_29223" x1="25.4003" y1="11.4525" x2="25.4003" y2="2.58683" gradientUnits="userSpaceOnUse">
<stop stop-color="#8980EB"/>
<stop offset="1" stop-color="#705AB8"/>
</linearGradient>
<linearGradient id="paint4_linear_759_29223" x1="26.7237" y1="0.737019" x2="26.1622" y2="3.91599" gradientUnits="userSpaceOnUse">
<stop stop-color="#BFD7FF"/>
<stop offset="1"/>
</linearGradient>
<linearGradient id="paint5_linear_759_29223" x1="28.5948" y1="4.56014" x2="28.5948" y2="1.21289" gradientUnits="userSpaceOnUse">
<stop stop-color="white"/>
<stop offset="1" stop-color="#FFF7C4"/>
</linearGradient>
<radialGradient id="paint6_radial_759_29223" cx="0" cy="0" r="1" gradientUnits="userSpaceOnUse" gradientTransform="translate(26.3222 7.41683) scale(4.69164 5.67688)">
<stop stop-color="#8980EB"/>
<stop offset="0.07" stop-color="#6D65BA"/>
<stop offset="0.13" stop-color="#534E8F"/>
<stop offset="0.21" stop-color="#3D3968"/>
<stop offset="0.29" stop-color="#2A2748"/>
<stop offset="0.37" stop-color="#1B192E"/>
<stop offset="0.46" stop-color="#0F0E19"/>
<stop offset="0.57" stop-color="#06060B"/>
<stop offset="0.69" stop-color="#010103"/>
<stop offset="0.9"/>
</radialGradient>
<linearGradient id="paint7_linear_759_29223" x1="17.0049" y1="25.4014" x2="-0.789542" y2="25.4014" gradientUnits="userSpaceOnUse">
<stop stop-color="#86759D"/>
<stop offset="0.39" stop-color="#98ABD2"/>
<stop offset="1" stop-color="#DAE1EF"/>
</linearGradient>
<linearGradient id="paint8_linear_759_29223" x1="12.6699" y1="25.4007" x2="3.77586" y2="25.4007" gradientUnits="userSpaceOnUse">
<stop stop-color="#8980EB"/>
<stop offset="1" stop-color="#705AB8"/>
</linearGradient>
<linearGradient id="paint9_linear_759_29223" x1="-4.18704" y1="25.4116" x2="11.1353" y2="25.4116" gradientUnits="userSpaceOnUse">
<stop stop-color="#86759D"/>
<stop offset="0.39" stop-color="#98ABD2"/>
<stop offset="1" stop-color="#DAE1EF"/>
</linearGradient>
<linearGradient id="paint10_linear_759_29223" x1="11.4498" y1="25.4858" x2="2.58512" y2="25.4858" gradientUnits="userSpaceOnUse">
<stop stop-color="#8980EB"/>
<stop offset="1" stop-color="#705AB8"/>
</linearGradient>
<linearGradient id="paint11_linear_759_29223" x1="0.734947" y1="24.1639" x2="3.91301" y2="24.7264" gradientUnits="userSpaceOnUse">
<stop stop-color="#BFD7FF"/>
<stop offset="1"/>
</linearGradient>
<linearGradient id="paint12_linear_759_29223" x1="4.55856" y1="22.2928" x2="1.21039" y2="22.2928" gradientUnits="userSpaceOnUse">
<stop stop-color="white"/>
<stop offset="1" stop-color="#FFF7C4"/>
</linearGradient>
<radialGradient id="paint13_radial_759_29223" cx="0" cy="0" r="1" gradientUnits="userSpaceOnUse" gradientTransform="translate(6.92239 24.5636) rotate(-90) scale(4.69164 5.67689)">
<stop stop-color="#8980EB"/>
<stop offset="0.07" stop-color="#6D65BA"/>
<stop offset="0.13" stop-color="#534E8F"/>
<stop offset="0.21" stop-color="#3D3968"/>
<stop offset="0.29" stop-color="#2A2748"/>
<stop offset="0.37" stop-color="#1B192E"/>
<stop offset="0.46" stop-color="#0F0E19"/>
<stop offset="0.57" stop-color="#06060B"/>
<stop offset="0.69" stop-color="#010103"/>
<stop offset="0.9"/>
</radialGradient>
<linearGradient id="paint14_linear_759_29223" x1="33.9998" y1="25.4014" x2="51.7951" y2="25.4014" gradientUnits="userSpaceOnUse">
<stop stop-color="#86759D"/>
<stop offset="0.39" stop-color="#98ABD2"/>
<stop offset="1" stop-color="#DAE1EF"/>
</linearGradient>
<linearGradient id="paint15_linear_759_29223" x1="38.3348" y1="25.4007" x2="47.2297" y2="25.4007" gradientUnits="userSpaceOnUse">
<stop stop-color="#8980EB"/>
<stop offset="1" stop-color="#705AB8"/>
</linearGradient>
<linearGradient id="paint16_linear_759_29223" x1="55.1917" y1="25.4106" x2="39.8694" y2="25.4106" gradientUnits="userSpaceOnUse">
<stop stop-color="#86759D"/>
<stop offset="0.39" stop-color="#98ABD2"/>
<stop offset="1" stop-color="#DAE1EF"/>
</linearGradient>
<linearGradient id="paint17_linear_759_29223" x1="39.5548" y1="25.4858" x2="48.4205" y2="25.4858" gradientUnits="userSpaceOnUse">
<stop stop-color="#8980EB"/>
<stop offset="1" stop-color="#705AB8"/>
</linearGradient>
<linearGradient id="paint18_linear_759_29223" x1="50.2706" y1="24.1639" x2="47.0916" y2="24.7264" gradientUnits="userSpaceOnUse">
<stop stop-color="#BFD7FF"/>
<stop offset="1"/>
</linearGradient>
<linearGradient id="paint19_linear_759_29223" x1="46.4469" y1="22.2928" x2="49.7942" y2="22.2928" gradientUnits="userSpaceOnUse">
<stop stop-color="white"/>
<stop offset="1" stop-color="#FFF7C4"/>
</linearGradient>
<radialGradient id="paint20_radial_759_29223" cx="0" cy="0" r="1" gradientUnits="userSpaceOnUse" gradientTransform="translate(46.7601 24.5636) rotate(-90) scale(4.69164 5.67688)">
<stop stop-color="#8980EB"/>
<stop offset="0.07" stop-color="#6D65BA"/>
<stop offset="0.13" stop-color="#534E8F"/>
<stop offset="0.21" stop-color="#3D3968"/>
<stop offset="0.29" stop-color="#2A2748"/>
<stop offset="0.37" stop-color="#1B192E"/>
<stop offset="0.46" stop-color="#0F0E19"/>
<stop offset="0.57" stop-color="#06060B"/>
<stop offset="0.69" stop-color="#010103"/>
<stop offset="0.9"/>
</radialGradient>
<linearGradient id="paint21_linear_759_29223" x1="25.4854" y1="49.444" x2="25.4854" y2="39.9967" gradientUnits="userSpaceOnUse">
<stop stop-color="#86759D"/>
<stop offset="0.39" stop-color="#98ABD2"/>
<stop offset="1" stop-color="#DAE1EF"/>
</linearGradient>
<linearGradient id="paint22_linear_759_29223" x1="17.1211" y1="43.6356" x2="33.8491" y2="43.6356" gradientUnits="userSpaceOnUse">
<stop stop-color="#4D3FB8"/>
<stop offset="0.56" stop-color="#6A80E1"/>
<stop offset="1" stop-color="#80AFFF"/>
</linearGradient>
<linearGradient id="paint23_linear_759_29223" x1="25.4755" y1="43.6329" x2="25.4755" y2="51.0234" gradientUnits="userSpaceOnUse">
<stop stop-color="#86759D"/>
<stop offset="0.39" stop-color="#98ABD2"/>
<stop offset="1" stop-color="#DAE1EF"/>
</linearGradient>
<linearGradient id="paint24_linear_759_29223" x1="25.4003" y1="48.6017" x2="25.4003" y2="42.8857" gradientUnits="userSpaceOnUse">
<stop stop-color="#8980EB"/>
<stop offset="1" stop-color="#705AB8"/>
</linearGradient>
<linearGradient id="paint25_linear_759_29223" x1="11.3582" y1="7.6782" x2="16.5849" y2="7.6782" gradientUnits="userSpaceOnUse">
<stop stop-color="#86759D"/>
<stop offset="0.39" stop-color="#98ABD2"/>
<stop offset="1" stop-color="#DAE1EF"/>
</linearGradient>
<linearGradient id="paint26_linear_759_29223" x1="19.8467" y1="0.947146" x2="14.0186" y2="6.98923" gradientUnits="userSpaceOnUse">
<stop stop-color="#8980EB"/>
<stop offset="1" stop-color="#705AB8"/>
</linearGradient>
<linearGradient id="paint27_linear_759_29223" x1="16.6248" y1="4.03383" x2="16.4977" y2="8.43808" gradientUnits="userSpaceOnUse">
<stop stop-color="#4D3FB8"/>
<stop offset="0.56" stop-color="#6A80E1"/>
<stop offset="1" stop-color="#80AFFF"/>
</linearGradient>
<linearGradient id="paint28_linear_759_29223" x1="11.6085" y1="9.81471" x2="11.8819" y2="13.7199" gradientUnits="userSpaceOnUse">
<stop stop-color="#BFD7FF"/>
<stop offset="1"/>
</linearGradient>
<linearGradient id="paint29_linear_759_29223" x1="13.9102" y1="7.93414" x2="11.8379" y2="5.64531" gradientUnits="userSpaceOnUse">
<stop stop-color="#BFD7FF"/>
<stop offset="1"/>
</linearGradient>
<linearGradient id="paint30_linear_759_29223" x1="16.7772" y1="7.22083" x2="13.2846" y2="6.16579" gradientUnits="userSpaceOnUse">
<stop stop-color="#8980EB"/>
<stop offset="1" stop-color="#705AB8"/>
</linearGradient>
<linearGradient id="paint31_linear_759_29223" x1="17.9314" y1="3.76804" x2="14.6288" y2="6.2262" gradientUnits="userSpaceOnUse">
<stop stop-color="#8980EB"/>
<stop offset="1" stop-color="#705AB8"/>
</linearGradient>
<linearGradient id="paint32_linear_759_29223" x1="4.07666" y1="13.6692" x2="13.1499" y2="13.6692" gradientUnits="userSpaceOnUse">
<stop stop-color="#86759D"/>
<stop offset="0.39" stop-color="#98ABD2"/>
<stop offset="1" stop-color="#DAE1EF"/>
</linearGradient>
<linearGradient id="paint33_linear_759_29223" x1="7.85546" y1="10.4466" x2="6.72979" y2="17.0814" gradientUnits="userSpaceOnUse">
<stop stop-color="#8980EB"/>
<stop offset="1" stop-color="#705AB8"/>
</linearGradient>
<linearGradient id="paint34_linear_759_29223" x1="8.22022" y1="12.6391" x2="12.6495" y2="12.3297" gradientUnits="userSpaceOnUse">
<stop stop-color="#4D3FB8"/>
<stop offset="0.56" stop-color="#6A80E1"/>
<stop offset="1" stop-color="#80AFFF"/>
</linearGradient>
<linearGradient id="paint35_linear_759_29223" x1="8.7893" y1="13.0374" x2="12.6809" y2="12.7653" gradientUnits="userSpaceOnUse">
<stop stop-color="#BFD7FF"/>
<stop offset="1"/>
</linearGradient>
<linearGradient id="paint36_linear_759_29223" x1="6.46407" y1="12.6821" x2="3.33979" y2="13.6687" gradientUnits="userSpaceOnUse">
<stop stop-color="#BFD7FF"/>
<stop offset="1"/>
</linearGradient>
<linearGradient id="paint37_linear_759_29223" x1="12.3178" y1="12.6444" x2="8.77831" y2="15.8491" gradientUnits="userSpaceOnUse">
<stop stop-color="#8980EB"/>
<stop offset="1" stop-color="#705AB8"/>
</linearGradient>
<linearGradient id="paint38_linear_759_29223" x1="8.33107" y1="14.3386" x2="8.5383" y2="13.1008" gradientUnits="userSpaceOnUse">
<stop stop-color="#8980EB"/>
<stop offset="1" stop-color="#705AB8"/>
</linearGradient>
<linearGradient id="paint39_linear_759_29223" x1="12.0744" y1="13.7776" x2="8.70336" y2="7.22761" gradientUnits="userSpaceOnUse">
<stop stop-color="#86759D"/>
<stop offset="0.39" stop-color="#98ABD2"/>
<stop offset="1" stop-color="#DAE1EF"/>
</linearGradient>
<linearGradient id="paint40_linear_759_29223" x1="9.85721" y1="7.73883" x2="11.0043" y2="13.3487" gradientUnits="userSpaceOnUse">
<stop stop-color="#705AB8"/>
<stop offset="1" stop-color="white"/>
</linearGradient>
<linearGradient id="paint41_linear_759_29223" x1="11.1871" y1="10.0724" x2="14.861" y2="13.3992" gradientUnits="userSpaceOnUse">
<stop stop-color="#4D3FB8"/>
<stop offset="0.56" stop-color="#6A80E1"/>
<stop offset="1" stop-color="#80AFFF"/>
</linearGradient>
<linearGradient id="paint42_linear_759_29223" x1="11.3789" y1="10.6519" x2="14.6587" y2="13.622" gradientUnits="userSpaceOnUse">
<stop stop-color="#BFD7FF"/>
<stop offset="1"/>
</linearGradient>
<linearGradient id="paint43_linear_759_29223" x1="12.1322" y1="7.37688" x2="8.30659" y2="7.10909" gradientUnits="userSpaceOnUse">
<stop stop-color="#BFD7FF"/>
<stop offset="1"/>
</linearGradient>
<linearGradient id="paint44_linear_759_29223" x1="34.4186" y1="7.6782" x2="39.6453" y2="7.6782" gradientUnits="userSpaceOnUse">
<stop stop-color="#86759D"/>
<stop offset="0.39" stop-color="#98ABD2"/>
<stop offset="1" stop-color="#DAE1EF"/>
</linearGradient>
<linearGradient id="paint45_linear_759_29223" x1="33.539" y1="4.40049" x2="39.3845" y2="10.3936" gradientUnits="userSpaceOnUse">
<stop stop-color="#8980EB"/>
<stop offset="1" stop-color="#705AB8"/>
</linearGradient>
<linearGradient id="paint46_linear_759_29223" x1="36.7687" y1="7.46034" x2="36.92" y2="11.8513" gradientUnits="userSpaceOnUse">
<stop stop-color="#4D3FB8"/>
<stop offset="0.56" stop-color="#6A80E1"/>
<stop offset="1" stop-color="#80AFFF"/>
</linearGradient>
<linearGradient id="paint47_linear_759_29223" x1="37.1673" y1="8.28671" x2="36.883" y2="12.1981" gradientUnits="userSpaceOnUse">
<stop stop-color="#BFD7FF"/>
<stop offset="1"/>
</linearGradient>
<linearGradient id="paint48_linear_759_29223" x1="34.8671" y1="6.39735" x2="36.9498" y2="4.10936" gradientUnits="userSpaceOnUse">
<stop stop-color="#BFD7FF"/>
<stop offset="1"/>
</linearGradient>
<linearGradient id="paint49_linear_759_29223" x1="36.6355" y1="10.6388" x2="40.1113" y2="9.56754" gradientUnits="userSpaceOnUse">
<stop stop-color="#8980EB"/>
<stop offset="1" stop-color="#705AB8"/>
</linearGradient>
<linearGradient id="paint50_linear_759_29223" x1="35.4649" y1="7.20349" x2="38.7724" y2="9.63503" gradientUnits="userSpaceOnUse">
<stop stop-color="#8980EB"/>
<stop offset="1" stop-color="#705AB8"/>
</linearGradient>
<linearGradient id="paint51_linear_759_29223" x1="37.8538" y1="13.6692" x2="46.928" y2="13.6692" gradientUnits="userSpaceOnUse">
<stop stop-color="#86759D"/>
<stop offset="0.39" stop-color="#98ABD2"/>
<stop offset="1" stop-color="#DAE1EF"/>
</linearGradient>
<linearGradient id="paint52_linear_759_29223" x1="39.5336" y1="8.65256" x2="40.6601" y2="15.2876" gradientUnits="userSpaceOnUse">
<stop stop-color="#8980EB"/>
<stop offset="1" stop-color="#705AB8"/>
</linearGradient>
<linearGradient id="paint53_linear_759_29223" x1="42.3117" y1="13.3765" x2="37.874" y2="13.085" gradientUnits="userSpaceOnUse">
<stop stop-color="#4D3FB8"/>
<stop offset="0.56" stop-color="#6A80E1"/>
<stop offset="1" stop-color="#80AFFF"/>
</linearGradient>
<linearGradient id="paint54_linear_759_29223" x1="41.7441" y1="13.7785" x2="37.8438" y2="13.5221" gradientUnits="userSpaceOnUse">
<stop stop-color="#BFD7FF"/>
<stop offset="1"/>
</linearGradient>
<linearGradient id="paint55_linear_759_29223" x1="40.9248" y1="10.888" x2="44.0491" y2="11.8746" gradientUnits="userSpaceOnUse">
<stop stop-color="#BFD7FF"/>
<stop offset="1"/>
</linearGradient>
<linearGradient id="paint56_linear_759_29223" x1="38.2075" y1="13.3988" x2="41.7678" y2="16.5943" gradientUnits="userSpaceOnUse">
<stop stop-color="#8980EB"/>
<stop offset="1" stop-color="#705AB8"/>
</linearGradient>
<linearGradient id="paint57_linear_759_29223" x1="39.0577" y1="12.5445" x2="38.8505" y2="11.3067" gradientUnits="userSpaceOnUse">
<stop stop-color="#8980EB"/>
<stop offset="1" stop-color="#705AB8"/>
</linearGradient>
<linearGradient id="paint58_linear_759_29223" x1="41.6034" y1="15.9808" x2="41.1223" y2="9.23779" gradientUnits="userSpaceOnUse">
<stop stop-color="#86759D"/>
<stop offset="0.39" stop-color="#98ABD2"/>
<stop offset="1" stop-color="#DAE1EF"/>
</linearGradient>
<linearGradient id="paint59_linear_759_29223" x1="42.832" y1="11.9069" x2="41.6841" y2="17.5158" gradientUnits="userSpaceOnUse">
<stop stop-color="#705AB8"/>
<stop offset="1" stop-color="white"/>
</linearGradient>
<linearGradient id="paint60_linear_759_29223" x1="41.1539" y1="9.33242" x2="37.4853" y2="12.6469" gradientUnits="userSpaceOnUse">
<stop stop-color="#4D3FB8"/>
<stop offset="0.56" stop-color="#6A80E1"/>
<stop offset="1" stop-color="#80AFFF"/>
</linearGradient>
<linearGradient id="paint61_linear_759_29223" x1="40.9619" y1="9.91024" x2="37.6868" y2="12.8695" gradientUnits="userSpaceOnUse">
<stop stop-color="#BFD7FF"/>
<stop offset="1"/>
</linearGradient>
<linearGradient id="paint62_linear_759_29223" x1="40.2133" y1="6.64245" x2="44.0308" y2="6.37953" gradientUnits="userSpaceOnUse">
<stop stop-color="#BFD7FF"/>
<stop offset="1"/>
</linearGradient>
<linearGradient id="paint63_linear_759_29223" x1="11.3582" y1="42.7962" x2="16.5849" y2="42.7962" gradientUnits="userSpaceOnUse">
<stop stop-color="#86759D"/>
<stop offset="0.39" stop-color="#98ABD2"/>
<stop offset="1" stop-color="#DAE1EF"/>
</linearGradient>
<linearGradient id="paint64_linear_759_29223" x1="17.4198" y1="46.1589" x2="11.5745" y2="40.1667" gradientUnits="userSpaceOnUse">
<stop stop-color="#8980EB"/>
<stop offset="1" stop-color="#705AB8"/>
</linearGradient>
<linearGradient id="paint65_linear_759_29223" x1="14.1901" y1="43.0992" x2="14.0387" y2="38.7083" gradientUnits="userSpaceOnUse">
<stop stop-color="#4D3FB8"/>
<stop offset="0.56" stop-color="#6A80E1"/>
<stop offset="1" stop-color="#80AFFF"/>
</linearGradient>
<linearGradient id="paint66_linear_759_29223" x1="13.8581" y1="42.1091" x2="14.1417" y2="38.1971" gradientUnits="userSpaceOnUse">
<stop stop-color="#BFD7FF"/>
<stop offset="1"/>
</linearGradient>
<linearGradient id="paint67_linear_759_29223" x1="16.1584" y1="43.9989" x2="14.0764" y2="46.2862" gradientUnits="userSpaceOnUse">
<stop stop-color="#BFD7FF"/>
<stop offset="1"/>
</linearGradient>
<linearGradient id="paint68_linear_759_29223" x1="14.3242" y1="39.9191" x2="10.8475" y2="40.9906" gradientUnits="userSpaceOnUse">
<stop stop-color="#8980EB"/>
<stop offset="1" stop-color="#705AB8"/>
</linearGradient>
<linearGradient id="paint69_linear_759_29223" x1="15.4944" y1="43.3558" x2="12.1876" y2="40.9232" gradientUnits="userSpaceOnUse">
<stop stop-color="#8980EB"/>
<stop offset="1" stop-color="#705AB8"/>
</linearGradient>
<linearGradient id="paint70_linear_759_29223" x1="4.07666" y1="36.8042" x2="13.1499" y2="36.8042" gradientUnits="userSpaceOnUse">
<stop stop-color="#86759D"/>
<stop offset="0.39" stop-color="#98ABD2"/>
<stop offset="1" stop-color="#DAE1EF"/>
</linearGradient>
<linearGradient id="paint71_linear_759_29223" x1="9.60481" y1="36.5012" x2="8.47914" y2="29.8664" gradientUnits="userSpaceOnUse">
<stop stop-color="#8980EB"/>
<stop offset="1" stop-color="#705AB8"/>
</linearGradient>
<linearGradient id="paint72_linear_759_29223" x1="8.68786" y1="37.0473" x2="13.1262" y2="37.3381" gradientUnits="userSpaceOnUse">
<stop stop-color="#4D3FB8"/>
<stop offset="0.56" stop-color="#6A80E1"/>
<stop offset="1" stop-color="#80AFFF"/>
</linearGradient>
<linearGradient id="paint73_linear_759_29223" x1="9.25553" y1="36.6462" x2="13.1551" y2="36.902" gradientUnits="userSpaceOnUse">
<stop stop-color="#BFD7FF"/>
<stop offset="1"/>
</linearGradient>
<linearGradient id="paint74_linear_759_29223" x1="8.21342" y1="34.2676" x2="5.08914" y2="33.281" gradientUnits="userSpaceOnUse">
<stop stop-color="#BFD7FF"/>
<stop offset="1"/>
</linearGradient>
<linearGradient id="paint75_linear_759_29223" x1="12.7926" y1="37.026" x2="9.23232" y2="33.8305" gradientUnits="userSpaceOnUse">
<stop stop-color="#8980EB"/>
<stop offset="1" stop-color="#705AB8"/>
</linearGradient>
<linearGradient id="paint76_linear_759_29223" x1="10.0807" y1="32.6114" x2="10.2877" y2="33.8501" gradientUnits="userSpaceOnUse">
<stop stop-color="#8980EB"/>
<stop offset="1" stop-color="#705AB8"/>
</linearGradient>
<linearGradient id="paint77_linear_759_29223" x1="12.2271" y1="42.7162" x2="7.21813" y2="39.5856" gradientUnits="userSpaceOnUse">
<stop stop-color="#86759D"/>
<stop offset="0.39" stop-color="#98ABD2"/>
<stop offset="1" stop-color="#DAE1EF"/>
</linearGradient>
<linearGradient id="paint78_linear_759_29223" x1="5.79255" y1="44.3759" x2="6.94045" y2="38.767" gradientUnits="userSpaceOnUse">
<stop stop-color="#705AB8"/>
<stop offset="1" stop-color="white"/>
</linearGradient>
<linearGradient id="paint79_linear_759_29223" x1="9.89397" y1="41.1705" x2="13.5626" y2="37.856" gradientUnits="userSpaceOnUse">
<stop stop-color="#4D3FB8"/>
<stop offset="0.56" stop-color="#6A80E1"/>
<stop offset="1" stop-color="#80AFFF"/>
</linearGradient>
<linearGradient id="paint80_linear_759_29223" x1="10.0862" y1="40.5907" x2="13.3613" y2="37.6315" gradientUnits="userSpaceOnUse">
<stop stop-color="#BFD7FF"/>
<stop offset="1"/>
</linearGradient>
<linearGradient id="paint81_linear_759_29223" x1="10.8349" y1="43.8604" x2="7.01743" y2="44.1234" gradientUnits="userSpaceOnUse">
<stop stop-color="#BFD7FF"/>
<stop offset="1"/>
</linearGradient>
<linearGradient id="paint82_linear_759_29223" x1="34.4186" y1="42.7962" x2="39.6452" y2="42.7962" gradientUnits="userSpaceOnUse">
<stop stop-color="#86759D"/>
<stop offset="0.39" stop-color="#98ABD2"/>
<stop offset="1" stop-color="#DAE1EF"/>
</linearGradient>
<linearGradient id="paint83_linear_759_29223" x1="39.2811" y1="46.7107" x2="45.1094" y2="40.6677" gradientUnits="userSpaceOnUse">
<stop stop-color="#8980EB"/>
<stop offset="1" stop-color="#705AB8"/>
</linearGradient>
<linearGradient id="paint84_linear_759_29223" x1="42.5028" y1="43.6241" x2="42.6299" y2="39.2199" gradientUnits="userSpaceOnUse">
<stop stop-color="#4D3FB8"/>
<stop offset="0.56" stop-color="#6A80E1"/>
<stop offset="1" stop-color="#80AFFF"/>
</linearGradient>
<linearGradient id="paint85_linear_759_29223" x1="35.121" y1="41.5903" x2="34.8483" y2="37.6844" gradientUnits="userSpaceOnUse">
<stop stop-color="#BFD7FF"/>
<stop offset="1"/>
</linearGradient>
<linearGradient id="paint86_linear_759_29223" x1="32.8199" y1="43.4707" x2="34.8928" y2="45.7602" gradientUnits="userSpaceOnUse">
<stop stop-color="#BFD7FF"/>
<stop offset="1"/>
</linearGradient>
<linearGradient id="paint87_linear_759_29223" x1="42.3513" y1="40.436" x2="45.843" y2="41.4908" gradientUnits="userSpaceOnUse">
<stop stop-color="#8980EB"/>
<stop offset="1" stop-color="#705AB8"/>
</linearGradient>
<linearGradient id="paint88_linear_759_29223" x1="41.1967" y1="43.8879" x2="44.4999" y2="41.4309" gradientUnits="userSpaceOnUse">
<stop stop-color="#8980EB"/>
<stop offset="1" stop-color="#705AB8"/>
</linearGradient>
<linearGradient id="paint89_linear_759_29223" x1="37.8538" y1="36.8042" x2="46.928" y2="36.8042" gradientUnits="userSpaceOnUse">
<stop stop-color="#86759D"/>
<stop offset="0.39" stop-color="#98ABD2"/>
<stop offset="1" stop-color="#DAE1EF"/>
</linearGradient>
<linearGradient id="paint90_linear_759_29223" x1="37.7842" y1="38.2953" x2="38.9108" y2="31.6602" gradientUnits="userSpaceOnUse">
<stop stop-color="#8980EB"/>
<stop offset="1" stop-color="#705AB8"/>
</linearGradient>
<linearGradient id="paint91_linear_759_29223" x1="45.1028" y1="31.9947" x2="40.6735" y2="32.3054" gradientUnits="userSpaceOnUse">
<stop stop-color="#4D3FB8"/>
<stop offset="0.56" stop-color="#6A80E1"/>
<stop offset="1" stop-color="#80AFFF"/>
</linearGradient>
<linearGradient id="paint92_linear_759_29223" x1="44.5337" y1="31.5973" x2="40.6421" y2="31.8695" gradientUnits="userSpaceOnUse">
<stop stop-color="#BFD7FF"/>
<stop offset="1"/>
</linearGradient>
<linearGradient id="paint93_linear_759_29223" x1="39.1755" y1="36.0617" x2="42.2998" y2="35.0751" gradientUnits="userSpaceOnUse">
<stop stop-color="#BFD7FF"/>
<stop offset="1"/>
</linearGradient>
<linearGradient id="paint94_linear_759_29223" x1="41.0051" y1="31.9924" x2="44.5452" y2="28.7871" gradientUnits="userSpaceOnUse">
<stop stop-color="#8980EB"/>
<stop offset="1" stop-color="#705AB8"/>
</linearGradient>
<linearGradient id="paint95_linear_759_29223" x1="37.3082" y1="34.4055" x2="37.1013" y2="35.6442" gradientUnits="userSpaceOnUse">
<stop stop-color="#8980EB"/>
<stop offset="1" stop-color="#705AB8"/>
</linearGradient>
<linearGradient id="paint96_linear_759_29223" x1="39.7176" y1="43.7057" x2="42.945" y2="38.3117" gradientUnits="userSpaceOnUse">
<stop stop-color="#86759D"/>
<stop offset="0.39" stop-color="#98ABD2"/>
<stop offset="1" stop-color="#DAE1EF"/>
</linearGradient>
<linearGradient id="paint97_linear_759_29223" x1="46.8958" y1="40.2088" x2="45.7488" y2="34.5998" gradientUnits="userSpaceOnUse">
<stop stop-color="#705AB8"/>
<stop offset="1" stop-color="white"/>
</linearGradient>
<linearGradient id="paint98_linear_759_29223" x1="41.1505" y1="43.8418" x2="37.4766" y2="40.5151" gradientUnits="userSpaceOnUse">
<stop stop-color="#4D3FB8"/>
<stop offset="0.56" stop-color="#6A80E1"/>
<stop offset="1" stop-color="#80AFFF"/>
</linearGradient>
<linearGradient id="paint99_linear_759_29223" x1="40.9587" y1="43.2604" x2="37.6789" y2="40.2903" gradientUnits="userSpaceOnUse">
<stop stop-color="#BFD7FF"/>
<stop offset="1"/>
</linearGradient>
<linearGradient id="paint100_linear_759_29223" x1="40.2055" y1="46.5365" x2="44.032" y2="46.8043" gradientUnits="userSpaceOnUse">
<stop stop-color="#BFD7FF"/>
<stop offset="1"/>
</linearGradient>
<linearGradient id="paint101_linear_759_29223" x1="25.4854" y1="47.2035" x2="25.4854" y2="6.18317" gradientUnits="userSpaceOnUse">
<stop stop-color="#86759D"/>
<stop offset="0.39" stop-color="#98ABD2"/>
<stop offset="1" stop-color="#DAE1EF"/>
</linearGradient>
<linearGradient id="paint102_linear_759_29223" x1="19.8949" y1="39.7639" x2="17.6469" y2="44.8378" gradientUnits="userSpaceOnUse">
<stop stop-color="#4D3FB8"/>
<stop offset="0.56" stop-color="#6A80E1"/>
<stop offset="1" stop-color="#80AFFF"/>
</linearGradient>
<linearGradient id="paint103_linear_759_29223" x1="19.3177" y1="44.6153" x2="19.3177" y2="36.9632" gradientUnits="userSpaceOnUse">
<stop stop-color="#86759D"/>
<stop offset="0.39" stop-color="#98ABD2"/>
<stop offset="1" stop-color="#DAE1EF"/>
</linearGradient>
<linearGradient id="paint104_linear_759_29223" x1="17.5955" y1="44.7172" x2="19.7099" y2="40.213" gradientUnits="userSpaceOnUse">
<stop stop-color="#8980EB"/>
<stop offset="1" stop-color="#705AB8"/>
</linearGradient>
<linearGradient id="paint105_linear_759_29223" x1="30.9973" y1="39.4987" x2="33.58" y2="45.6508" gradientUnits="userSpaceOnUse">
<stop stop-color="#4D3FB8"/>
<stop offset="0.56" stop-color="#6A80E1"/>
<stop offset="1" stop-color="#80AFFF"/>
</linearGradient>
<linearGradient id="paint106_linear_759_29223" x1="31.6522" y1="44.6147" x2="31.6522" y2="36.9627" gradientUnits="userSpaceOnUse">
<stop stop-color="#86759D"/>
<stop offset="0.39" stop-color="#98ABD2"/>
<stop offset="1" stop-color="#DAE1EF"/>
</linearGradient>
<linearGradient id="paint107_linear_759_29223" x1="32.8549" y1="44.5913" x2="31.2169" y2="39.6792" gradientUnits="userSpaceOnUse">
<stop stop-color="#8980EB"/>
<stop offset="1" stop-color="#705AB8"/>
</linearGradient>
<linearGradient id="paint108_linear_759_29223" x1="18.414" y1="7.51998" x2="20.1004" y2="11.2285" gradientUnits="userSpaceOnUse">
<stop stop-color="#4D3FB8"/>
<stop offset="0.56" stop-color="#6A80E1"/>
<stop offset="1" stop-color="#80AFFF"/>
</linearGradient>
<linearGradient id="paint109_linear_759_29223" x1="17.9129" y1="5.75803" x2="19.3899" y2="9.48299" gradientUnits="userSpaceOnUse">
<stop stop-color="#86759D"/>
<stop offset="0.39" stop-color="#98ABD2"/>
<stop offset="1" stop-color="#DAE1EF"/>
</linearGradient>
<linearGradient id="paint110_linear_759_29223" x1="19.9708" y1="10.8215" x2="17.0808" y2="5.04246" gradientUnits="userSpaceOnUse">
<stop stop-color="#8980EB"/>
<stop offset="1" stop-color="#705AB8"/>
</linearGradient>
<linearGradient id="paint111_linear_759_29223" x1="16.2549" y1="2.32835" x2="18.4014" y2="8.51711" gradientUnits="userSpaceOnUse">
<stop stop-color="#BFD7FF"/>
<stop offset="1"/>
</linearGradient>
<linearGradient id="paint112_linear_759_29223" x1="32.5605" y1="7.51998" x2="30.875" y2="11.2285" gradientUnits="userSpaceOnUse">
<stop stop-color="#4D3FB8"/>
<stop offset="0.56" stop-color="#6A80E1"/>
<stop offset="1" stop-color="#80AFFF"/>
</linearGradient>
<linearGradient id="paint113_linear_759_29223" x1="33.0623" y1="5.75803" x2="31.5854" y2="9.48299" gradientUnits="userSpaceOnUse">
<stop stop-color="#86759D"/>
<stop offset="0.39" stop-color="#98ABD2"/>
<stop offset="1" stop-color="#DAE1EF"/>
</linearGradient>
<linearGradient id="paint114_linear_759_29223" x1="31.0046" y1="10.8215" x2="33.8946" y2="5.04246" gradientUnits="userSpaceOnUse">
<stop stop-color="#8980EB"/>
<stop offset="1" stop-color="#705AB8"/>
</linearGradient>
<linearGradient id="paint115_linear_759_29223" x1="34.7197" y1="2.32835" x2="32.5741" y2="8.51711" gradientUnits="userSpaceOnUse">
<stop stop-color="#BFD7FF"/>
<stop offset="1"/>
</linearGradient>
<linearGradient id="paint116_linear_759_29223" x1="46.9529" y1="21.0706" x2="43.1231" y2="22.507" gradientUnits="userSpaceOnUse">
<stop stop-color="#4D3FB8"/>
<stop offset="0.56" stop-color="#6A80E1"/>
<stop offset="1" stop-color="#80AFFF"/>
</linearGradient>
<linearGradient id="paint117_linear_759_29223" x1="48.56" y1="20.1768" x2="44.8666" y2="21.7729" gradientUnits="userSpaceOnUse">
<stop stop-color="#86759D"/>
<stop offset="0.39" stop-color="#98ABD2"/>
<stop offset="1" stop-color="#DAE1EF"/>
</linearGradient>
<linearGradient id="paint118_linear_759_29223" x1="43.5044" y1="22.31" x2="49.6588" y2="20.2581" gradientUnits="userSpaceOnUse">
<stop stop-color="#8980EB"/>
<stop offset="1" stop-color="#705AB8"/>
</linearGradient>
<linearGradient id="paint119_linear_759_29223" x1="43.0353" y1="17.5788" x2="37.609" y2="20.259" gradientUnits="userSpaceOnUse">
<stop stop-color="#BFD7FF"/>
<stop offset="1"/>
</linearGradient>
<linearGradient id="paint120_linear_759_29223" x1="48.2451" y1="33.1999" x2="44.416" y2="31.7643" gradientUnits="userSpaceOnUse">
<stop stop-color="#4D3FB8"/>
<stop offset="0.56" stop-color="#6A80E1"/>
<stop offset="1" stop-color="#80AFFF"/>
</linearGradient>
<linearGradient id="paint121_linear_759_29223" x1="49.8522" y1="34.0949" x2="46.1595" y2="32.4995" gradientUnits="userSpaceOnUse">
<stop stop-color="#86759D"/>
<stop offset="0.39" stop-color="#98ABD2"/>
<stop offset="1" stop-color="#DAE1EF"/>
</linearGradient>
<linearGradient id="paint122_linear_759_29223" x1="44.7972" y1="31.9622" x2="50.9522" y2="34.0135" gradientUnits="userSpaceOnUse">
<stop stop-color="#8980EB"/>
<stop offset="1" stop-color="#705AB8"/>
</linearGradient>
<linearGradient id="paint123_linear_759_29223" x1="45.7119" y1="30.2319" x2="40.285" y2="27.551" gradientUnits="userSpaceOnUse">
<stop stop-color="#BFD7FF"/>
<stop offset="1"/>
</linearGradient>
<linearGradient id="paint124_linear_759_29223" x1="8.21686" y1="19.5876" x2="12.0466" y2="21.0239" gradientUnits="userSpaceOnUse">
<stop stop-color="#4D3FB8"/>
<stop offset="0.56" stop-color="#6A80E1"/>
<stop offset="1" stop-color="#80AFFF"/>
</linearGradient>
<linearGradient id="paint125_linear_759_29223" x1="6.6111" y1="18.6937" x2="10.3032" y2="20.2898" gradientUnits="userSpaceOnUse">
<stop stop-color="#86759D"/>
<stop offset="0.39" stop-color="#98ABD2"/>
<stop offset="1" stop-color="#DAE1EF"/>
</linearGradient>
<linearGradient id="paint126_linear_759_29223" x1="11.6655" y1="20.8269" x2="5.5111" y2="18.775" gradientUnits="userSpaceOnUse">
<stop stop-color="#8980EB"/>
<stop offset="1" stop-color="#705AB8"/>
</linearGradient>
<linearGradient id="paint127_linear_759_29223" x1="4.67286" y1="14.5393" x2="10.1948" y2="17.266" gradientUnits="userSpaceOnUse">
<stop stop-color="#BFD7FF"/>
<stop offset="1"/>
</linearGradient>
<linearGradient id="paint128_linear_759_29223" x1="6.9247" y1="34.6847" x2="10.7544" y2="33.2484" gradientUnits="userSpaceOnUse">
<stop stop-color="#4D3FB8"/>
<stop offset="0.56" stop-color="#6A80E1"/>
<stop offset="1" stop-color="#80AFFF"/>
</linearGradient>
<linearGradient id="paint129_linear_759_29223" x1="5.31764" y1="35.578" x2="9.01038" y2="33.9826" gradientUnits="userSpaceOnUse">
<stop stop-color="#86759D"/>
<stop offset="0.39" stop-color="#98ABD2"/>
<stop offset="1" stop-color="#DAE1EF"/>
</linearGradient>
<linearGradient id="paint130_linear_759_29223" x1="10.3726" y1="33.4461" x2="4.21764" y2="35.4973" gradientUnits="userSpaceOnUse">
<stop stop-color="#8980EB"/>
<stop offset="1" stop-color="#705AB8"/>
</linearGradient>
<linearGradient id="paint131_linear_759_29223" x1="2.04466" y1="33.3013" x2="7.47155" y2="30.6218" gradientUnits="userSpaceOnUse">
<stop stop-color="#BFD7FF"/>
<stop offset="1"/>
</linearGradient>
<linearGradient id="paint132_linear_759_29223" x1="25.7093" y1="29.0385" x2="25.7093" y2="44.4999" gradientUnits="userSpaceOnUse">
<stop stop-color="#8980EB"/>
<stop offset="1" stop-color="#3B80F4"/>
</linearGradient>
<linearGradient id="paint133_linear_759_29223" x1="25.7395" y1="28.654" x2="25.7395" y2="46.366" gradientUnits="userSpaceOnUse">
<stop stop-color="#8980EB"/>
<stop offset="1" stop-color="#705AB5"/>
</linearGradient>
<linearGradient id="paint134_linear_759_29223" x1="25.6994" y1="8.35424" x2="25.6994" y2="15.7968" gradientUnits="userSpaceOnUse">
<stop stop-color="#BFD7FF"/>
<stop offset="1"/>
</linearGradient>
<linearGradient id="paint135_linear_759_29223" x1="25.4854" y1="43.3912" x2="25.4854" y2="35.1547" gradientUnits="userSpaceOnUse">
<stop stop-color="#BFD7FF"/>
<stop offset="1"/>
</linearGradient>
<linearGradient id="paint136_linear_759_29223" x1="25.4854" y1="39.8171" x2="25.4854" y2="33.4089" gradientUnits="userSpaceOnUse">
<stop stop-color="white"/>
<stop offset="1" stop-color="#FFF7C4"/>
</linearGradient>
<radialGradient id="paint137_radial_759_29223" cx="0" cy="0" r="1" gradientUnits="userSpaceOnUse" gradientTransform="translate(28.2299 9.97233) scale(5.04557 5.04557)">
<stop stop-color="#8980EB"/>
<stop offset="0.07" stop-color="#6D65BA"/>
<stop offset="0.13" stop-color="#534E8F"/>
<stop offset="0.21" stop-color="#3D3968"/>
<stop offset="0.29" stop-color="#2A2748"/>
<stop offset="0.37" stop-color="#1B192E"/>
<stop offset="0.46" stop-color="#0F0E19"/>
<stop offset="0.57" stop-color="#06060B"/>
<stop offset="0.69" stop-color="#010103"/>
<stop offset="0.9"/>
</radialGradient>
<radialGradient id="paint138_radial_759_29223" cx="0" cy="0" r="1" gradientUnits="userSpaceOnUse" gradientTransform="translate(19.6576 40.9377) rotate(14.79) scale(3.07007 2.03133)">
<stop stop-color="#8980EB"/>
<stop offset="0.07" stop-color="#6D65BA"/>
<stop offset="0.13" stop-color="#534E8F"/>
<stop offset="0.21" stop-color="#3D3968"/>
<stop offset="0.29" stop-color="#2A2748"/>
<stop offset="0.37" stop-color="#1B192E"/>
<stop offset="0.46" stop-color="#0F0E19"/>
<stop offset="0.57" stop-color="#06060B"/>
<stop offset="0.69" stop-color="#010103"/>
<stop offset="0.9"/>
</radialGradient>
<linearGradient id="paint139_linear_759_29223" x1="44.5546" y1="28.446" x2="44.5546" y2="19.3901" gradientUnits="userSpaceOnUse">
<stop stop-color="#8980EB"/>
<stop offset="1" stop-color="#705AB8"/>
</linearGradient>
<linearGradient id="paint140_linear_759_29223" x1="44.5528" y1="26.1021" x2="44.5528" y2="34.9705" gradientUnits="userSpaceOnUse">
<stop stop-color="#BFD7FF"/>
<stop offset="1"/>
</linearGradient>
<linearGradient id="paint141_linear_759_29223" x1="6.38227" y1="26.1039" x2="6.38227" y2="34.8827" gradientUnits="userSpaceOnUse">
<stop stop-color="#BFD7FF"/>
<stop offset="1"/>
</linearGradient>
<linearGradient id="paint142_linear_759_29223" x1="6.38039" y1="28.4462" x2="6.38039" y2="19.3903" gradientUnits="userSpaceOnUse">
<stop stop-color="#8980EB"/>
<stop offset="1" stop-color="#705AB8"/>
</linearGradient>
<linearGradient id="paint143_linear_759_29223" x1="20.4455" y1="51.0611" x2="20.4455" y2="37.6996" gradientUnits="userSpaceOnUse">
<stop stop-color="#705AB8"/>
<stop offset="1" stop-color="#181D3B"/>
</linearGradient>
<linearGradient id="paint144_linear_759_29223" x1="30.5246" y1="51.0626" x2="30.5246" y2="37.701" gradientUnits="userSpaceOnUse">
<stop stop-color="#705AB8"/>
<stop offset="1" stop-color="#181D3B"/>
</linearGradient>
</defs>
</svg>
