<svg width="50" height="50" viewBox="0 0 50 50" fill="none" xmlns="http://www.w3.org/2000/svg">
<g clip-path="url(#clip0_762_30819)">
<path d="M25.4467 49.0968C38.669 49.0968 49.3878 38.5249 49.3878 25.4837C49.3878 12.4426 38.669 1.87061 25.4467 1.87061C12.2244 1.87061 1.50562 12.4426 1.50562 25.4837C1.50562 38.5249 12.2244 49.0968 25.4467 49.0968Z" fill="url(#paint0_radial_762_30819)" style="mix-blend-mode:screen"/>
<path d="M6.75293 3.98089L11.9862 0.558594L21.1832 16.3043L19.0921 17.6125L6.75293 3.98089Z" fill="url(#paint1_linear_762_30819)" fill-opacity="0.5"/>
<path d="M-9.64502 2.5155L-8.50798 0.558594L16.5918 19.515L16.0752 20.2362L-9.64502 2.5155Z" fill="url(#paint2_linear_762_30819)" fill-opacity="0.8"/>
<path d="M12.9458 55L11.3445 54.5134L21.234 34.6665L21.8392 34.9129L12.9458 55Z" fill="url(#paint3_linear_762_30819)" fill-opacity="0.8"/>
<path d="M37.5812 53.6446L36.2329 54.3447L29.0542 34.2335L29.6063 34.0112L37.5812 53.6446Z" fill="url(#paint4_linear_762_30819)" fill-opacity="0.8"/>
<path d="M51.4693 -6L53.3232 -4.67815L31.6955 18.269L31.022 17.6851L51.4693 -6Z" fill="url(#paint5_linear_762_30819)" fill-opacity="0.8"/>
<path d="M0.0859375 14.9873L2.78575 9.04102L17.1399 21.156L16.0349 23.4713L0.0859375 14.9873Z" fill="url(#paint6_linear_762_30819)" fill-opacity="0.5"/>
<path d="M42.1726 2.80197L37.4153 -0.751953L29.0542 15.5987L30.9551 16.9579L42.1726 2.80197Z" fill="url(#paint7_linear_762_30819)" fill-opacity="0.5"/>
<path d="M50.6996 13.5661L47.8953 8.43066L32.9897 18.8936L34.1372 20.8931L50.6996 13.5661Z" fill="url(#paint8_linear_762_30819)" fill-opacity="0.5"/>
<path d="M0.193848 36.7478L2.89425 41.8829L17.2478 31.4194L16.1428 29.4204L0.193848 36.7478Z" fill="url(#paint9_linear_762_30819)" fill-opacity="0.5"/>
<path d="M42.1727 46.9861L37.6536 50.4084L29.7102 34.6627L31.5161 33.3545L42.1727 46.9861Z" fill="url(#paint10_linear_762_30819)" fill-opacity="0.5"/>
<path d="M50.6997 36.09L47.9993 41.2257L33.6458 30.7622L34.7507 28.7632L50.6997 36.09Z" fill="url(#paint11_linear_762_30819)" fill-opacity="0.5"/>
<circle cx="26" cy="25" r="14" fill="url(#paint12_linear_762_30819)"/>
<path d="M39.5842 21.3371C39.2502 21.1461 38.7361 20.8329 37.9821 20.3279C37.9821 20.3279 33.2312 16.2685 25.9541 16.2685C17.9511 16.2685 13.6727 20.7696 13.6727 20.7696C12.9839 21.4873 12.3801 22.0648 12 22.3182C12.6472 19.2048 14.32 16.3984 16.7508 14.3481C19.1815 12.2978 22.2298 11.122 25.4077 11.009C28.5857 10.896 31.7098 11.8522 34.2801 13.7246C36.8504 15.597 38.7183 18.2775 39.5851 21.3371H39.5842Z" fill="#302067" fill-opacity="0.8"/>
<path opacity="0.5" d="M12.0102 24.044C12.5461 23.1335 12.6891 18.7944 12.0102 18.4776C11.3314 18.1608 7.16246 18.4549 7.25569 19.609C7.34892 20.763 7.39417 23.1516 7.97978 23.4738C8.56539 23.796 11.641 24.6731 12.0102 24.044Z" fill="#51385B"/>
<path d="M46.0668 32.9051C46.2478 32.4788 43.7579 27.85 42.7297 25.9692C42.773 25.2784 42.773 24.5855 42.7297 23.8947C43.7579 22.0139 46.0786 17.4358 46.0668 16.9588C46.0668 16.9145 46.103 16.1705 46.0668 16.0836C45.8912 15.6654 40.6216 14.1774 38.5236 13.6C37.9252 12.9129 37.2736 12.274 36.5749 11.6893C36.049 9.76772 34.4651 4.10806 34.0315 3.92613C33.5102 3.708 26.7273 7.46421 26.3272 7.68597C26.0527 7.67269 25.7766 7.66605 25.499 7.66605C25.2215 7.66605 24.9451 7.67269 24.67 7.68597C24.2708 7.46421 17.487 3.708 16.9666 3.92613C16.533 4.10716 14.9491 9.76772 14.4223 11.6893C13.724 12.2742 13.0728 12.9131 12.4745 13.6C10.3755 14.1774 5.10597 15.6654 4.93129 16.0836C4.89418 16.1741 4.93129 16.9145 4.93129 16.9588C4.91771 17.5806 7.24023 22.0139 8.26753 23.8947C8.20344 24.5847 8.20344 25.2792 8.26753 25.9692C7.24023 27.8473 4.7557 32.4761 4.93129 32.9051C4.94758 32.9458 4.89418 33.6934 4.93129 33.7803C5.10597 34.1985 10.3755 35.6865 12.4745 36.264C13.0728 36.9508 13.724 37.5897 14.4223 38.1746C14.9491 40.0962 16.533 45.7559 16.9666 45.9378C17.487 46.1559 24.2708 42.3997 24.67 42.178C24.9451 42.1918 25.2215 42.1985 25.499 42.1979C25.7766 42.1973 26.0527 42.1906 26.3272 42.178C26.7273 42.3997 33.5102 46.1604 34.0315 45.9378C34.4651 45.7568 36.049 40.0962 36.5749 38.1746C37.2736 37.5899 37.9252 36.951 38.5236 36.264C40.6216 35.6865 45.8912 34.1985 46.0668 33.7803C46.103 33.6907 46.0496 32.9431 46.0668 32.9051ZM38.5164 24.9292C38.5171 27.5031 37.7545 30.0194 36.3252 32.1599C34.8958 34.3004 32.8638 35.9689 30.4861 36.9546C28.1085 37.9402 25.4919 38.1986 22.9674 37.6972C20.4428 37.1958 18.1237 35.957 16.3032 34.1375C14.4826 32.318 13.2426 29.9995 12.7397 27.4753C12.2369 24.951 12.4939 22.3343 13.4782 19.9561C14.4625 17.5779 16.1299 15.5449 18.2696 14.1144C20.4093 12.6838 22.9252 11.9199 25.499 11.9192C27.208 11.9187 28.9004 12.2548 30.4794 12.9084C32.0585 13.562 33.4934 14.5201 34.7022 15.7282C35.9109 16.9363 36.8699 18.3707 37.5244 19.9494C38.1788 21.5281 38.5159 23.2203 38.5164 24.9292Z" fill="#71647E"/>
<mask id="mask0_762_30819" style="mask-type:luminance" maskUnits="userSpaceOnUse" x="4" y="3" width="43" height="43">
<path d="M46.0668 32.9051C46.2478 32.4788 43.7579 27.85 42.7297 25.9692C42.773 25.2784 42.773 24.5855 42.7297 23.8947C43.7579 22.0139 46.0786 17.4358 46.0668 16.9588C46.0668 16.9145 46.103 16.1705 46.0668 16.0836C45.8912 15.6654 40.6216 14.1774 38.5236 13.6C37.9252 12.9129 37.2736 12.274 36.5749 11.6893C36.049 9.76772 34.4651 4.10806 34.0315 3.92613C33.5102 3.708 26.7273 7.46421 26.3272 7.68597C26.0527 7.67269 25.7766 7.66605 25.499 7.66605C25.2215 7.66605 24.9451 7.67269 24.67 7.68597C24.2708 7.46421 17.487 3.708 16.9666 3.92613C16.533 4.10716 14.9491 9.76772 14.4223 11.6893C13.724 12.2742 13.0728 12.9131 12.4745 13.6C10.3755 14.1774 5.10597 15.6654 4.93129 16.0836C4.89418 16.1741 4.93129 16.9145 4.93129 16.9588C4.91771 17.5806 7.24023 22.0139 8.26753 23.8947C8.20344 24.5847 8.20344 25.2792 8.26753 25.9692C7.24023 27.8473 4.7557 32.4761 4.93129 32.9051C4.94758 32.9458 4.89418 33.6934 4.93129 33.7803C5.10597 34.1985 10.3755 35.6865 12.4745 36.264C13.0728 36.9508 13.724 37.5897 14.4223 38.1746C14.9491 40.0962 16.533 45.7559 16.9666 45.9378C17.487 46.1559 24.2708 42.3997 24.67 42.178C24.9451 42.1918 25.2215 42.1985 25.499 42.1979C25.7766 42.1973 26.0527 42.1906 26.3272 42.178C26.7273 42.3997 33.5102 46.1604 34.0315 45.9378C34.4651 45.7568 36.049 40.0962 36.5749 38.1746C37.2736 37.5899 37.9252 36.951 38.5236 36.264C40.6216 35.6865 45.8912 34.1985 46.0668 33.7803C46.103 33.6907 46.0496 32.9431 46.0668 32.9051ZM38.5164 24.9292C38.5171 27.5031 37.7545 30.0194 36.3252 32.1599C34.8958 34.3004 32.8638 35.9689 30.4861 36.9546C28.1085 37.9402 25.4919 38.1986 22.9674 37.6972C20.4428 37.1958 18.1237 35.957 16.3032 34.1375C14.4826 32.318 13.2426 29.9995 12.7397 27.4753C12.2369 24.951 12.4939 22.3343 13.4782 19.9561C14.4625 17.5779 16.1299 15.5449 18.2696 14.1144C20.4093 12.6838 22.9252 11.9199 25.499 11.9192C27.208 11.9187 28.9004 12.2548 30.4794 12.9084C32.0585 13.562 33.4934 14.5201 34.7022 15.7282C35.9109 16.9363 36.8699 18.3707 37.5244 19.9494C38.1788 21.5281 38.5159 23.2203 38.5164 24.9292Z" fill="white"/>
</mask>
<g mask="url(#mask0_762_30819)">
<path d="M41.3964 23.3671C41.6435 24.2261 48.9884 24.1301 48.9884 24.1301L48.9278 24.7357C48.9278 24.7357 42.592 23.654 41.5557 23.9944C40.5193 24.3347 42.2282 32.7866 42.2282 32.7866L41.4914 32.3793C41.4914 32.3793 41.1294 26.0082 40.8415 22.8114C40.8415 22.8114 40.6958 20.7061 40.5075 20.7215C40.1645 20.7495 32.9797 20.2988 32.9797 20.2988L33.0241 19.858C33.0241 19.858 38.4421 20.8247 40.4351 20.2146C41.0687 20.02 40.7583 12.0225 40.7583 12.0225L41.1656 12.3963C41.1656 12.3963 40.8623 21.5116 41.3964 23.3671Z" fill="#542C4A"/>
<path d="M29.4789 8.53765C30.3261 8.36477 30.7949 1.27051 30.7949 1.27051L31.3751 1.3746C31.3751 1.3746 29.8473 7.40807 30.0962 8.43447C30.3451 9.46086 38.6323 8.45709 38.6323 8.45709L38.1797 9.13683C38.1797 9.13683 32.0042 8.99744 28.8978 9.03365C28.8978 9.03365 26.855 9.01283 26.8559 9.19566C26.8559 9.52874 25.872 16.4275 25.872 16.4275L25.4512 16.3506C25.4512 16.3506 26.7971 11.1969 26.3608 9.22644C26.2214 8.60101 18.48 8.28874 18.48 8.28874L18.8719 7.9267C18.8719 7.9267 27.647 8.91236 29.4789 8.53765Z" fill="#542C4A"/>
<path d="M9.33918 20.6226C9.1844 19.8651 2.84229 19.446 2.84229 19.446L2.9328 18.9283C2.9328 18.9283 8.32636 20.2932 9.24142 20.0705C10.1565 19.8479 9.26224 12.4404 9.26224 12.4404L9.86957 12.8423C9.86957 12.8423 9.74557 18.3635 9.77906 21.1404C9.77906 21.1404 9.76096 22.9651 9.92388 22.9651C10.2217 22.9651 16.3882 23.8439 16.3882 23.8439L16.3203 24.2205C16.3203 24.2205 11.7124 23.0176 9.95193 23.4059C9.39258 23.5299 9.11381 30.4503 9.11381 30.4503L8.78796 30.1001C8.78796 30.1001 9.67316 22.26 9.33918 20.6226Z" fill="#542C4A"/>
<path d="M37.1586 33.2203C37.0427 32.6509 32.271 32.3351 32.271 32.3351L32.3416 31.9459C32.3416 31.9459 36.3983 32.9732 37.0871 32.8057C37.7759 32.6383 37.1025 27.0664 37.1025 27.0664L37.5596 27.3687C37.5596 27.3687 37.469 31.5205 37.4899 33.6095C37.4899 33.6095 37.4763 34.9825 37.5985 34.9825C37.822 34.9825 42.4607 35.6441 42.4607 35.6441L42.4101 35.9275C42.4101 35.9275 38.9444 35.0223 37.6193 35.3156C37.1993 35.4061 36.9857 40.6141 36.9857 40.6141L36.7404 40.3507C36.7404 40.3507 37.4111 34.4521 37.1586 33.2203Z" fill="#542C4A"/>
<path d="M26.3696 40.1678C27.2575 39.9289 27.2928 32.3604 27.2928 32.3604L27.9146 32.4346C27.9146 32.4346 26.6864 38.9432 27.0213 40.0149C27.3562 41.0865 36.0905 39.4827 36.0905 39.4827L35.6551 40.2348C35.6551 40.2348 29.0849 40.4892 25.7894 40.7299C25.7894 40.7299 23.6172 40.8412 23.6298 41.0358C23.6525 41.3888 23.0569 48.7818 23.0569 48.7818L22.6043 48.7284C22.6043 48.7284 23.6986 43.1647 23.1067 41.101C22.9184 40.4457 14.6729 40.6186 14.6729 40.6186L15.0657 40.2059C15.0657 40.2059 24.4471 40.6874 26.3696 40.1678Z" fill="#542C4A"/>
<path d="M13.0447 35.6911C13.1615 36.2614 19.4529 36.2342 19.4529 36.2342L19.7244 36.4858C19.7244 36.4858 13.7661 36.0668 13.0773 36.2342C12.3885 36.4016 13.0909 41.6567 13.0909 41.6567L12.6338 41.3544C12.6338 41.3544 12.7243 37.2018 12.7035 35.1091C12.7035 35.1091 12.717 33.7361 12.5939 33.7361C12.3704 33.7361 7.73169 33.0754 7.73169 33.0754L7.78328 32.7921C7.78328 32.7921 11.249 33.6972 12.5731 33.403C12.994 33.3125 13.2067 28.1045 13.2067 28.1045L13.4511 28.3679C13.4511 28.3679 12.794 34.4593 13.0447 35.6911Z" fill="#542C4A"/>
<path d="M16.0054 11.7527C15.7864 11.2142 11.0391 11.7808 11.0391 11.7808V11.3852C11.0391 11.3852 15.2152 11.6486 15.8615 11.3572C16.5077 11.0657 14.8215 5.71289 14.8215 5.71289L15.3266 5.9265C15.3266 5.9265 15.9973 10.0248 16.4055 12.074C16.4055 12.074 16.6444 13.4263 16.7675 13.4036C16.9875 13.362 21.6687 13.1592 21.6687 13.1592V13.4444C21.6687 13.4444 18.0962 13.1918 16.8481 13.724C16.448 13.8969 17.1993 19.056 17.1993 19.056L16.9096 18.8415C16.9096 18.8415 16.4788 12.9167 16.0054 11.7527Z" fill="#542C4A"/>
<path opacity="0.8" d="M25.4991 9.26562C22.6797 8.90358 17.049 8.26547 16.6869 9.44212C16.3249 10.6188 16.076 12.7005 16.9585 12.9494C17.8409 13.1983 25.4339 13.3794 25.7109 12.8363C25.9879 12.2932 26.7581 9.42854 25.4991 9.26562Z" fill="url(#paint13_linear_762_30819)"/>
<path opacity="0.5" d="M29.4651 8.12941C29.3592 8.62088 21.8196 8.21992 19.5578 7.66328C18.9695 7.51936 19.1505 3.24271 19.8972 2.94855C20.6439 2.65439 30.2879 2.54125 30.2969 3.10695C30.306 3.67264 29.6 7.51755 29.4651 8.12941Z" fill="#51385B"/>
<path opacity="0.8" d="M31.3949 3.08486C30.4898 5.17748 30.0581 8.37705 30.4446 8.44312C30.8311 8.50919 36.373 8.86128 37.5044 8.17159C38.6358 7.48189 37.7533 3.54104 36.8709 3.33739C35.9884 3.13374 31.6248 2.55265 31.3949 3.08486Z" fill="url(#paint14_linear_762_30819)"/>
<path opacity="0.5" d="M15.4425 11.9185C13.8603 11.2678 10.5096 11.9538 10.306 12.61C10.1023 13.2663 9.87605 22.3853 10.125 22.6115C10.3739 22.8378 15.9783 23.8787 16.3892 23.2677C16.8002 22.6568 16.7323 12.4489 15.4425 11.9185Z" fill="#51385B"/>
<path opacity="0.8" d="M10.1475 23.7886C9.72029 25.0748 8.97086 31.8215 9.084 32.2514C9.19714 32.6814 12.3334 33.7675 12.4854 33.0434C12.6375 32.3193 13.3833 24.4901 13.0665 23.9923C12.7497 23.4945 10.3747 23.1044 10.1475 23.7886Z" fill="url(#paint15_linear_762_30819)"/>
<path opacity="0.5" d="M8.90385 20.8465C8.48388 20.2754 5.07885 19.6156 4.58104 20.1224C4.08323 20.6293 4.03797 29.7664 4.80732 30.1511C5.57666 30.5357 8.6993 30.3366 8.75632 29.3048C8.81334 28.2729 9.49127 21.6466 8.90385 20.8465Z" fill="#51385B"/>
<path opacity="0.5" d="M13.1441 35.2158C13.5713 35.9743 17.5086 36.3065 17.6371 35.8494C17.7656 35.3923 18.3892 29.5815 17.9222 29.1742C17.4552 28.7669 13.8782 27.6826 13.5867 28.7669C13.2953 29.8512 12.9269 34.8312 13.1441 35.2158Z" fill="#51385B"/>
<path opacity="0.8" d="M13.4738 36.3435C12.7923 36.263 12.9525 39.0091 13.1335 39.5829C13.2693 40.0129 25.5625 40.1034 25.9789 39.5829C26.3952 39.0625 26.9166 36.7309 25.9644 36.7309C23.4753 36.7336 15.1908 36.5472 13.4738 36.3435Z" fill="url(#paint16_linear_762_30819)"/>
<path opacity="0.5" d="M13.1444 40.6166C12.8728 41.2393 13.3607 48.5255 14.4016 48.7825C15.4424 49.0396 22.4236 48.8595 22.4399 48.4069C22.4561 47.9544 23.1766 41.4249 22.7032 41.1823C22.2299 40.9397 13.2828 40.2944 13.1444 40.6166Z" fill="#51385B"/>
<path opacity="0.8" d="M23.9874 41.3781C23.8535 41.9212 22.7058 48.4308 23.6109 48.5891C24.516 48.7475 34.8488 49.1322 35.0108 46.9373C35.1728 44.7424 35.8182 40.702 34.6488 40.6178C33.4793 40.5337 24.125 40.8251 23.9874 41.3781Z" fill="url(#paint17_linear_762_30819)"/>
<path opacity="0.5" d="M27.3447 39.6242C27.6633 40.0622 36.6447 39.5834 36.69 39.13C36.7352 38.6765 37.2186 33.931 36.7805 33.5183C36.3424 33.1056 28.725 32.0746 28.2905 32.7833C27.8561 33.492 26.9148 39.0322 27.3447 39.6242Z" fill="#51385B"/>
<path opacity="0.8" d="M37.6474 34.6068C37.6347 34.8566 41.2434 35.0068 41.4145 34.3416C41.5855 33.6763 40.7175 21.336 40.3102 20.9676C39.9029 20.5993 37.5487 20.6861 37.3677 21.2292C37.1867 21.7723 38.0176 27.5704 37.6474 34.6068Z" fill="url(#paint18_linear_762_30819)"/>
<path opacity="0.5" d="M37.708 35.6002C37.173 36.5117 37.0291 40.8499 37.708 41.1667C38.3868 41.4835 42.5566 41.1893 42.4625 40.0353C42.3684 38.8813 42.324 36.4927 41.7384 36.1714C41.1528 35.8501 38.0773 34.9712 37.708 35.6002Z" fill="#51385B"/>
<path opacity="0.5" d="M41.6126 24.3055C41.485 25.0722 42.0815 31.9338 42.3467 32.361C42.6119 32.7882 48.1847 33.7703 48.5467 31.7546C48.9087 29.7389 49.2934 25.3039 48.2978 25.0323C47.3022 24.7608 41.7022 23.7679 41.6126 24.3055Z" fill="#51385B"/>
<path opacity="0.5" d="M41.6126 22.8393C41.9421 23.3208 47.4153 23.8123 47.8452 23.3824C48.2751 22.9524 48.0715 14.5575 47.4153 14.2181C46.7591 13.8787 41.7611 13.3601 41.4416 13.924C41.1221 14.4878 41.2397 22.2962 41.6126 22.8393Z" fill="#51385B"/>
<path d="M39.7048 24.2158C39.7048 24.2158 39.0224 24.9499 39.5645 26.9312C39.5645 26.9312 41.5521 25.8323 39.7048 24.2158Z" fill="#542C4A"/>
<path d="M11.7974 28.6885C11.7974 28.6885 10.9593 30.5195 12.5858 30.8535C12.5858 30.8535 12.5795 29.284 11.7974 28.6885Z" fill="#542C4A"/>
<path d="M22.4397 8.33348C22.4397 8.33348 23.0977 10.1138 25.165 8.49911C25.165 8.49911 23.0389 8.08457 22.4397 8.33348Z" fill="#542C4A"/>
</g>
<path d="M22.5184 41.9506L22.6994 41.9823C22.1943 42.3417 21.661 42.6595 21.1046 42.9327L21.0965 42.9372C20.7932 43.0875 20.4946 43.2214 20.2076 43.3409L20.1814 43.3508C19.3584 43.6933 18.5055 43.9587 17.6335 44.1437C17.0125 42.9185 16.5316 41.6272 16.1998 40.2943C16.1998 40.2898 16.1998 40.2861 16.1998 40.2816C16.1998 40.2771 16.1935 40.2536 16.1898 40.24C16.1084 39.9141 16.0432 39.6182 15.9907 39.3584C16.036 39.3892 16.0812 39.419 16.1283 39.4489C16.2034 39.4978 16.2785 39.5458 16.3546 39.5928C16.417 39.6326 16.4804 39.6716 16.5428 39.7096C18.3217 40.7911 20.2824 41.5401 22.3292 41.9199L22.5184 41.9506Z" fill="#51385B"/>
<path d="M22.4397 41.9369C21.5201 42.5397 19.7524 43.5407 17.7784 43.8376C17.7784 43.8376 16.9538 42.5442 16.3501 39.5908C16.4126 39.6306 16.4759 39.6696 16.5384 39.7076C18.3172 40.7891 20.2779 41.5381 22.3247 41.9179L22.4397 41.9369Z" fill="url(#paint19_linear_762_30819)"/>
<path opacity="0.5" d="M22.5187 41.9499C22.0875 42.3299 21.6144 42.6594 21.1085 42.9319L21.1003 42.9365C20.8113 43.0865 20.5147 43.2212 20.2115 43.3402L20.1853 43.3501C19.3545 43.6705 18.5033 43.9354 17.6374 44.143C17.5867 44.0525 16.7667 42.5618 16.2037 40.2935C16.2037 40.289 16.2037 40.2854 16.2037 40.2809C16.2037 40.2763 16.1974 40.2528 16.1937 40.2392C16.1444 39.9783 16.1238 39.7127 16.1322 39.4473C16.2073 39.4961 16.2824 39.5441 16.3585 39.5912C16.4209 39.631 16.4843 39.6699 16.5467 39.7079C16.8744 40.5596 17.412 41.7535 18.0963 42.5509C18.0963 42.5509 20.0649 42.8858 22.3331 41.9173L22.5187 41.9499Z" fill="#542C4A"/>
<path d="M35.011 39.3525C34.9594 39.6123 34.8933 39.9083 34.8119 40.2341C34.8119 40.2477 34.8055 40.2622 34.8019 40.2758V40.2884C34.4698 41.6212 33.9888 42.9125 33.3682 44.1379C32.4955 43.9521 31.6417 43.6864 30.8176 43.3441L30.795 43.335C30.5045 43.2146 30.2021 43.0789 29.8953 42.9259C29.34 42.6523 28.8076 42.3345 28.3032 41.9755C28.3648 41.9665 28.4263 41.9556 28.4842 41.9448L28.677 41.9095C30.7242 41.5297 32.6852 40.7807 34.4643 39.6992C34.5268 39.6612 34.5901 39.6223 34.6526 39.5824C34.715 39.5426 34.8037 39.4874 34.8789 39.4385C34.9205 39.4132 34.9658 39.3833 35.011 39.3525Z" fill="#51385B"/>
<path d="M34.6479 39.5869C34.0442 42.5403 33.2196 43.8337 33.2196 43.8337C31.2456 43.5395 29.477 42.5385 28.5574 41.933L28.6723 41.9112C30.7195 41.5314 32.6805 40.7825 34.4596 39.701C34.5221 39.6657 34.5854 39.6267 34.6479 39.5869Z" fill="url(#paint20_linear_762_30819)"/>
<path opacity="0.5" d="M34.8118 40.2371C34.8118 40.2507 34.8055 40.2651 34.8019 40.2787V40.2914C34.2389 42.5596 33.4188 44.0503 33.3682 44.1408C32.5013 43.9329 31.6493 43.6677 30.8175 43.347L30.7949 43.338C30.4916 43.2189 30.1946 43.0841 29.9052 42.9343L29.8952 42.9289C29.3904 42.6562 28.9183 42.327 28.4878 41.9477L28.6806 41.9124C30.9497 42.88 32.9183 42.546 32.9183 42.546C33.6026 41.7486 34.1402 40.5548 34.4679 39.7031C34.5303 39.665 34.5937 39.6261 34.6561 39.5863C34.7186 39.5465 34.8073 39.4913 34.8824 39.4424C34.8885 39.7091 34.8648 39.9756 34.8118 40.2371Z" fill="#542C4A"/>
<path d="M22.5184 7.92941L22.6994 7.89864C22.1946 7.53869 21.6612 7.22054 21.1046 6.94737L21.0965 6.94284C20.7932 6.79259 20.4946 6.65864 20.2076 6.54007L20.1814 6.5292C19.3584 6.18673 18.5055 5.9213 17.6335 5.73633V5.74085C17.0126 6.96612 16.5317 8.2574 16.1998 9.59029C16.1998 9.59482 16.1998 9.59934 16.1998 9.60296C16.1998 9.60658 16.1935 9.63102 16.1898 9.6455C16.1084 9.97044 16.0432 10.2664 15.9907 10.5262C16.036 10.4963 16.0812 10.4655 16.1283 10.4357C16.2034 10.3868 16.2785 10.3388 16.3546 10.2918L16.5428 10.175C18.3217 9.09346 20.2824 8.34451 22.3292 7.96471L22.5184 7.92941Z" fill="#51385B"/>
<path d="M22.4397 7.94175C21.5201 7.33895 19.7524 6.33789 17.7784 6.04102C17.7784 6.04102 16.9538 7.33351 16.3501 10.2869L16.5384 10.1701C18.3172 9.0886 20.2779 8.33965 22.3247 7.95985L22.4397 7.94175Z" fill="url(#paint21_linear_762_30819)"/>
<path opacity="0.5" d="M22.5186 7.92941C22.0875 7.54942 21.6144 7.21994 21.1085 6.94737L21.1003 6.94284C20.8115 6.79277 20.5148 6.65832 20.2115 6.54007L20.1853 6.5292C19.3544 6.20883 18.5033 5.94395 17.6374 5.73633V5.74085C17.5867 5.83136 16.7667 7.32208 16.2037 9.59029C16.2037 9.59482 16.2037 9.59934 16.2037 9.60296C16.2037 9.60659 16.1973 9.63102 16.1937 9.6455C16.1445 9.90617 16.1238 10.1714 16.1322 10.4366C16.2073 10.3877 16.2824 10.3397 16.3585 10.2927L16.5467 10.1759C16.8744 9.32419 17.412 8.13125 18.0963 7.33294C18.0963 7.33294 20.0649 6.99805 22.3331 7.96652L22.5186 7.92941Z" fill="#542C4A"/>
<path style="mix-blend-mode:color-dodge" opacity="0.5" d="M20.7028 5.5561C18.9831 4.92253 17.1584 4.3514 17.1584 4.3514C16.5999 5.21307 15.3979 8.2995 15.3418 8.44341C15.9754 6.29739 16.6949 4.03823 16.9665 3.92419C17.219 3.81829 18.945 4.64828 20.701 5.55339L20.7028 5.5561Z" fill="url(#paint22_linear_762_30819)"/>
<path d="M28.4842 7.92941L28.3032 7.89864C28.8082 7.53888 29.3415 7.22074 29.898 6.94737L29.9062 6.94284C30.2094 6.79259 30.5081 6.65864 30.795 6.54007L30.8212 6.5292C31.6442 6.18673 32.4972 5.9213 33.3691 5.73633V5.74085C33.9909 6.96572 34.4727 8.2567 34.8055 9.58939C34.8058 9.59361 34.8058 9.59784 34.8055 9.60206C34.8055 9.61654 34.8119 9.63012 34.8155 9.6446C34.897 9.96953 34.963 10.2655 35.0146 10.5253C34.9694 10.4954 34.9241 10.4646 34.877 10.4348C34.8028 10.3859 34.7268 10.3379 34.6517 10.2908C34.5766 10.2438 34.5259 10.2121 34.4625 10.1741C32.6837 9.09256 30.723 8.34361 28.6761 7.96381L28.4842 7.92941Z" fill="#51385B"/>
<path d="M28.5601 7.94175C29.4797 7.33895 31.2482 6.33789 33.2214 6.04102C33.2214 6.04102 34.0459 7.33351 34.6506 10.2869C34.5872 10.248 34.5247 10.2081 34.4614 10.1701C32.6826 9.0886 30.7219 8.33965 28.675 7.95985L28.5601 7.94175Z" fill="url(#paint23_linear_762_30819)"/>
<path opacity="0.5" d="M28.4841 7.92941C28.9156 7.54982 29.3886 7.22037 29.8943 6.94737L29.9024 6.94284C30.1913 6.79277 30.488 6.65832 30.7913 6.54007L30.8175 6.5292C31.6483 6.20883 32.4995 5.94395 33.3654 5.73633V5.74085C33.4161 5.83136 34.2361 7.32208 34.7991 9.59029C34.7994 9.59451 34.7994 9.59875 34.7991 9.60296C34.7991 9.61745 34.8054 9.63102 34.8091 9.6455C34.8588 9.90611 34.8794 10.1714 34.8706 10.4366C34.7964 10.3877 34.7203 10.3397 34.6452 10.2927C34.5701 10.2456 34.5194 10.2139 34.4561 10.1759C34.1284 9.32419 33.5908 8.13125 32.9065 7.33294C32.9065 7.33294 30.9379 6.99805 28.6697 7.96652L28.4841 7.92941Z" fill="#542C4A"/>
<path style="mix-blend-mode:color-dodge" opacity="0.5" d="M30.2998 5.5561C32.0195 4.92253 33.8443 4.3514 33.8443 4.3514C34.4027 5.21307 35.6047 8.2995 35.6608 8.44341C35.0272 6.29739 34.3031 4.03823 34.0316 3.92419C33.7791 3.81829 32.053 4.64828 30.2971 5.55339L30.2998 5.5561Z" fill="url(#paint24_linear_762_30819)"/>
<path d="M39.5644 14.9391C39.5291 14.8884 39.4929 14.8377 39.4558 14.7861C40.0674 14.8884 40.6697 15.0397 41.257 15.2387H41.2651C41.5855 15.3464 41.8924 15.4623 42.1802 15.5808L42.2055 15.5917C43.0298 15.9308 43.8212 16.345 44.5697 16.829C44.5699 16.8305 44.5699 16.832 44.5697 16.8335C44.1441 18.1396 43.5727 19.3935 42.8663 20.5716L42.859 20.5834L42.8373 20.6196C42.6653 20.9074 42.5024 21.1626 42.3558 21.3844C42.3449 21.331 42.3341 21.2767 42.3223 21.2242C42.3033 21.1337 42.2843 21.0495 42.2635 20.9626C42.2472 20.8902 42.23 20.8178 42.2128 20.7463C41.7173 18.7245 40.8586 16.8096 39.6785 15.0948L39.5644 14.9391Z" fill="#51385B"/>
<path d="M39.6106 15.0049C40.6877 15.2275 42.6463 15.767 44.2511 16.9527C44.2511 16.9527 43.9226 18.4506 42.2644 20.9687C42.2481 20.8963 42.2309 20.8238 42.2137 20.7523C41.7182 18.7306 40.8595 16.8156 39.6794 15.1008L39.6106 15.0049Z" fill="url(#paint25_linear_762_30819)"/>
<path opacity="0.5" d="M39.5645 14.9404C40.1382 14.9761 40.706 15.077 41.257 15.2409H41.2652C41.5761 15.3385 41.8815 15.4527 42.1802 15.5831L42.2056 15.5939C43.0201 15.9537 43.8099 16.367 44.5697 16.8312C44.5699 16.8327 44.5699 16.8342 44.5697 16.8357C44.5408 16.9362 44.0692 18.5699 42.8663 20.5738L42.8591 20.5856L42.8373 20.6218C42.688 20.8414 42.5154 21.0441 42.3223 21.2264C42.3033 21.1359 42.2843 21.0517 42.2635 20.9649C42.2472 20.8924 42.23 20.82 42.2128 20.7485C42.5812 19.914 43.0437 18.6894 43.1225 17.6422C43.1225 17.6422 41.9648 16.013 39.6758 15.097L39.5645 14.9404Z" fill="#542C4A"/>
<path style="mix-blend-mode:color-dodge" opacity="0.5" d="M42.4626 14.7314C44.0113 15.4311 45.5898 16.2339 45.5898 16.2339C45.4015 17.1662 44.1941 19.9883 44.1416 20.1205C45.1164 18.2903 46.1039 16.3272 45.998 16.0755C45.8994 15.8411 44.2195 15.2709 42.4681 14.7314H42.4626Z" fill="url(#paint26_linear_762_30819)"/>
<path d="M39.5644 34.9062C39.5291 34.9578 39.4929 35.0084 39.4558 35.0591C40.0673 34.9565 40.6696 34.8051 41.257 34.6066H41.2651C41.5855 34.4989 41.8924 34.3821 42.1802 34.2635L42.2055 34.2527C43.0298 33.9136 43.8212 33.4994 44.5697 33.0154C44.5699 33.0136 44.5699 33.0118 44.5697 33.01C44.1441 31.7039 43.5727 30.4499 42.8663 29.2718L42.859 29.261L42.8373 29.2239C42.6653 28.936 42.5024 28.6808 42.3558 28.46C42.3449 28.5125 42.3341 28.5668 42.3223 28.6202C42.3033 28.7107 42.2843 28.7949 42.2635 28.8817C42.2472 28.9532 42.23 29.0257 42.2128 29.0972C41.7173 31.1189 40.8586 33.0339 39.6785 34.7487L39.5644 34.9062Z" fill="#51385B"/>
<path d="M39.6106 34.8408C40.6877 34.6181 42.6463 34.0787 44.2511 32.893C44.2511 32.893 43.9226 31.395 42.2644 28.8779C42.2481 28.9494 42.2309 29.0218 42.2137 29.0933C41.7182 31.1151 40.8595 33.0301 39.6794 34.7449L39.6106 34.8408Z" fill="url(#paint27_linear_762_30819)"/>
<path opacity="0.5" d="M39.5645 34.9051C40.1381 34.8694 40.7059 34.7689 41.257 34.6055H41.2652C41.5761 34.5076 41.8815 34.3931 42.1802 34.2625L42.2056 34.2516C43.0201 33.8919 43.8099 33.4786 44.5697 33.0144C44.5699 33.0126 44.5699 33.0107 44.5697 33.0089C44.5408 32.9085 44.0692 31.2747 42.8663 29.2708L42.8591 29.26L42.8373 29.2228C42.6882 29.0034 42.5155 28.801 42.3223 28.6191C42.3033 28.7097 42.2843 28.7938 42.2635 28.8807C42.2472 28.9522 42.23 29.0246 42.2128 29.0961C42.5812 29.9306 43.0437 31.1553 43.1225 32.2034C43.1225 32.2034 41.9648 33.8326 39.6758 34.7476L39.5645 34.9051Z" fill="#542C4A"/>
<path style="mix-blend-mode:color-dodge" opacity="0.5" d="M42.4626 35.1136C44.0113 34.414 45.5898 33.6121 45.5898 33.6121C45.4015 32.6789 44.1941 29.8568 44.1416 29.7246C45.1164 31.5547 46.1039 33.5179 45.998 33.7696C45.8994 34.004 44.2195 34.5751 42.4681 35.1136H42.4626Z" fill="url(#paint28_linear_762_30819)"/>
<path d="M11.3531 14.9391C11.3884 14.8884 11.4246 14.8377 11.4617 14.7861C10.8501 14.8883 10.2478 15.0396 9.66052 15.2387H9.65147C9.33106 15.3464 9.02513 15.4623 8.7373 15.5808L8.71106 15.5917C7.88699 15.9307 7.0959 16.3449 6.34781 16.829C6.3476 16.8305 6.3476 16.832 6.34781 16.8335C6.77302 18.1397 7.34445 19.3937 8.05123 20.5716L8.05757 20.5834L8.08019 20.6196C8.25216 20.9074 8.41508 21.1626 8.56081 21.3844C8.57167 21.331 8.58344 21.2767 8.5952 21.2242C8.6133 21.1337 8.63322 21.0495 8.65313 20.9626L8.70472 20.7463C9.19979 18.7244 10.0585 16.8093 11.239 15.0948L11.3531 14.9391Z" fill="#51385B"/>
<path d="M11.306 15.0049C10.2299 15.2275 8.27029 15.767 6.66553 16.9527C6.66553 16.9527 6.99499 18.4506 8.65225 20.9687L8.70384 20.7523C9.1989 18.7304 10.0577 16.8154 11.2382 15.1008L11.306 15.0049Z" fill="url(#paint29_linear_762_30819)"/>
<path opacity="0.5" d="M11.3531 14.9404C10.7793 14.9761 10.2115 15.077 9.66052 15.2409H9.65147C9.3409 15.3387 9.03575 15.4529 8.73731 15.5831L8.71106 15.5939C7.89693 15.9539 7.10747 16.3672 6.34781 16.8312C6.3476 16.8327 6.3476 16.8342 6.34781 16.8357C6.37587 16.9362 6.84743 18.5699 8.05123 20.5738L8.05757 20.5856L8.08019 20.6218C8.22923 20.8416 8.40193 21.0443 8.5952 21.2264C8.6133 21.1359 8.63322 21.0517 8.65313 20.9649L8.70472 20.7485C8.33544 19.914 7.87293 18.6894 7.79961 17.6422C7.79961 17.6422 8.95634 16.013 11.2454 15.097L11.3531 14.9404Z" fill="#542C4A"/>
<path style="mix-blend-mode:color-dodge" opacity="0.5" d="M8.45395 14.7314C6.90621 15.4311 5.32679 16.2339 5.32679 16.2339C5.51596 17.1662 6.72247 19.9883 6.77949 20.1205C5.80469 18.2903 4.81721 16.3272 4.92311 16.0755C5.02086 15.8411 6.70165 15.2709 8.45304 14.7314H8.45395Z" fill="url(#paint30_linear_762_30819)"/>
<path d="M11.3531 34.9062C11.3884 34.9578 11.4246 35.0084 11.4617 35.0591C10.8502 34.9566 10.2479 34.8052 9.66051 34.6066C9.65751 34.6061 9.65445 34.6061 9.65146 34.6066C9.33105 34.4989 9.02512 34.3821 8.73729 34.2635L8.71105 34.2527C7.88698 33.9137 7.09589 33.4995 6.3478 33.0154C6.34761 33.0136 6.34761 33.0118 6.3478 33.01C6.77301 31.7037 7.34444 30.4498 8.05122 29.2718L8.05755 29.261L8.08018 29.2239C8.25215 28.936 8.41507 28.6808 8.5608 28.46C8.57166 28.5125 8.58342 28.5668 8.59519 28.6202C8.61329 28.7107 8.63321 28.7949 8.65312 28.8817L8.70471 29.0972C9.19977 31.1191 10.0585 33.0341 11.239 34.7487L11.3531 34.9062Z" fill="#51385B"/>
<path d="M11.306 34.8408C10.2299 34.6181 8.27029 34.0787 6.66553 32.893C6.66553 32.893 6.99499 31.395 8.65225 28.8779L8.70384 29.0933C9.1989 31.1153 10.0577 33.0303 11.2382 34.7449L11.306 34.8408Z" fill="url(#paint31_linear_762_30819)"/>
<path opacity="0.5" d="M11.3531 34.9062C10.7795 34.8704 10.2117 34.7699 9.66058 34.6066C9.65759 34.6061 9.65453 34.6061 9.65153 34.6066C9.34129 34.5088 9.03644 34.3946 8.73827 34.2645L8.71203 34.2536C7.8979 33.8936 7.10843 33.4803 6.34878 33.0163C6.34858 33.0145 6.34858 33.0127 6.34878 33.0109C6.37684 32.9104 6.8484 31.2767 8.0522 29.2728L8.05854 29.2619L8.08116 29.2248C8.22999 29.0051 8.40271 28.8027 8.59617 28.6211C8.61427 28.7116 8.63419 28.7958 8.6541 28.8827L8.70569 29.0981C8.33641 29.9326 7.87389 31.1572 7.80058 32.2053C7.80058 32.2053 8.95731 33.8345 11.2463 34.7496L11.3531 34.9062Z" fill="#542C4A"/>
<path style="mix-blend-mode:color-dodge" opacity="0.5" d="M8.45395 35.1136C6.90621 34.414 5.32679 33.6121 5.32679 33.6121C5.51596 32.6789 6.72247 29.8568 6.77949 29.7246C5.80469 31.5547 4.81721 33.5179 4.92311 33.7696C5.02086 34.004 6.70165 34.5751 8.45304 35.1136H8.45395Z" fill="url(#paint32_linear_762_30819)"/>
<path style="mix-blend-mode:multiply" opacity="0.5" d="M41.5521 31.2832C40.3122 34.4119 38.185 37.1101 35.4322 39.0461C32.6793 40.982 29.4207 42.0714 26.057 42.1801C22.6933 42.2889 19.3712 41.4123 16.499 39.6582C13.6268 37.9041 11.3298 35.349 9.89038 32.3069C16.2506 38.1702 29.1937 43.6461 41.5521 31.2832Z" fill="url(#paint33_linear_762_30819)"/>
<path opacity="0.7" d="M40.5294 35.6995C39.7501 35.9231 39.0405 36.1204 38.5237 36.2625C37.9253 36.9496 37.2737 37.5885 36.575 38.1732C36.4247 38.7235 36.1876 39.5788 35.9152 40.5265C33.8958 41.9683 31.5453 43.1142 29.2173 43.7423C27.7574 42.9694 26.4929 42.2697 26.3264 42.1774C26.0518 42.1913 25.7758 42.1979 25.4982 42.1973C25.2207 42.1967 24.9443 42.1904 24.6691 42.1783C24.5008 42.2688 23.201 42.9929 21.714 43.7767C19.3376 43.167 17.0996 42.109 15.1202 40.6595C14.8324 39.6639 14.5771 38.7498 14.4215 38.1741C13.723 37.5894 13.0717 36.9505 12.4737 36.2634C12.041 36.1448 11.478 35.9874 10.8445 35.8109C10.2854 34.7235 9.95988 33.5313 9.88867 32.3108C14.4722 39.8902 29.8518 48.9151 41.5504 31.2871C41.7748 32.7317 41.3712 34.2423 40.5294 35.6995Z" fill="#451F47"/>
<path style="mix-blend-mode:color-dodge" opacity="0.5" d="M25.4989 7.66406C21.7847 7.66442 18.1696 8.86217 15.19 11.0796C12.2103 13.297 10.0249 16.4159 8.95801 19.9736C11.7829 13.7283 18.1974 10.7206 25.4989 10.7206C33.4639 10.7206 40.0884 14.5502 42.4625 21.7168C40.96 13.7174 33.9355 7.66406 25.4989 7.66406Z" fill="url(#paint34_linear_762_30819)"/>
<path opacity="0.7" d="M25.4991 10.7217C22.6898 10.7226 19.9439 11.5564 17.6085 13.1177C15.2731 14.6789 13.453 16.8976 12.3783 19.4932C11.3037 22.0888 11.0228 24.9447 11.571 27.6999C12.1193 30.4551 13.4722 32.9859 15.4586 34.9724C17.445 36.9588 19.9759 38.3117 22.7311 38.8599C25.4863 39.4082 28.3422 39.1273 30.9378 38.0526C33.5334 36.978 35.752 35.1579 37.3133 32.8225C38.8746 30.4871 39.7084 27.7412 39.7093 24.9319C39.7093 21.1631 38.2122 17.5487 35.5472 14.8838C32.8823 12.2188 29.2678 10.7217 25.4991 10.7217ZM25.4991 37.9411C22.9251 37.9406 20.4091 37.1768 18.2692 35.7464C16.1293 34.3159 14.4616 32.2831 13.477 29.9049C12.4924 27.5267 12.2351 24.9099 12.7376 22.3855C13.2402 19.861 14.48 17.5423 16.3003 15.7225C18.1207 13.9027 20.4397 12.6635 22.9643 12.1617C25.4889 11.6598 28.1056 11.9178 30.4835 12.9031C32.8614 13.8884 34.8938 15.5566 36.3236 17.6969C37.7535 19.8372 38.5165 22.3534 38.5164 24.9274C38.5164 26.6367 38.1796 28.3292 37.5254 29.9084C36.8712 31.4875 35.9123 32.9223 34.7035 34.1308C33.4946 35.3392 32.0596 36.2977 30.4803 36.9515C28.901 37.6053 27.2083 37.9416 25.4991 37.9411Z" fill="#51385B"/>
<path opacity="0.8" d="M14.0649 33.3574C14.0649 33.3574 17.8718 37.94 25.4992 37.94C33.1266 37.94 36.9326 33.3574 36.9326 33.3574C36.9326 33.3574 33.2216 39.3375 25.4992 39.3375C17.7768 39.3375 14.0649 33.3574 14.0649 33.3574Z" fill="url(#paint35_linear_762_30819)"/>
<path d="M14.0649 33.3574C14.0649 33.3574 17.8718 39.1311 25.4992 39.1311C33.1266 39.1311 36.9326 33.3574 36.9326 33.3574C36.9326 33.3574 33.2216 39.3375 25.4992 39.3375C17.7768 39.3375 14.0649 33.3574 14.0649 33.3574Z" fill="url(#paint36_linear_762_30819)"/>
<path d="M24.4935 39.3032C24.1658 38.6949 27.7166 38.0822 28.2153 38.5275C28.714 38.9728 27.8252 39.1493 27.8252 39.1493L24.4935 39.3032Z" fill="white"/>
<path d="M30.4655 10.9749C30.365 10.2906 33.9112 10.9278 34.2289 11.5179C34.5466 12.1081 33.6487 11.9705 33.6487 11.9705L30.4655 10.9749Z" fill="white"/>
<path style="mix-blend-mode:color-dodge" opacity="0.8" d="M22.3847 41.3917C22.6666 40.3241 21.5822 39.1119 19.9626 38.6843C18.343 38.2567 16.8016 38.7756 16.5197 39.8432C16.2378 40.9109 17.3222 42.123 18.9418 42.5506C20.5614 42.9782 22.1029 42.4594 22.3847 41.3917Z" fill="url(#paint37_radial_762_30819)"/>
<path opacity="0.5" d="M46.0668 16.9568C46.0794 17.4338 43.7578 22.0118 42.7296 23.8926L42.6599 22.773C42.6599 22.773 45.5834 18.2285 45.9943 16.0752L46.0849 16.2562C46.0867 16.5033 46.0668 16.9233 46.0668 16.9568Z" fill="#542C4A"/>
<path style="mix-blend-mode:color-dodge" opacity="0.5" d="M46.0668 33.777C46.0545 33.8018 46.0365 33.8232 46.0142 33.8395C46.007 33.8168 46.0007 33.7933 45.9943 33.7698C45.2938 31.2128 42.6599 27.0783 42.6599 27.0783L42.7296 25.9668C43.7578 27.8467 46.246 32.4755 46.0668 32.9027C46.0496 32.9425 46.1039 33.691 46.0668 33.777Z" fill="url(#paint38_linear_762_30819)"/>
<path style="mix-blend-mode:color-dodge" opacity="0.5" d="M8.26857 25.9668V27.2539C8.26857 27.2539 6.22754 30.1747 4.92599 33.7598C4.89974 33.6177 4.94771 32.9407 4.93142 32.9027C4.75583 32.4755 7.24036 27.8467 8.26857 25.9668Z" fill="url(#paint39_linear_762_30819)"/>
<path opacity="0.5" d="M8.26836 22.537V23.8947C7.24015 22.0139 4.91945 17.5806 4.93122 16.9588C4.93122 16.9154 4.89592 16.2058 4.93122 16.0908C6.41831 20.2489 8.26836 22.537 8.26836 22.537Z" fill="#542C4A"/>
<path d="M23.9024 42.1152L24.67 42.1768C24.2708 42.3976 17.4879 46.1538 16.9665 45.9357C16.8398 45.8823 16.6172 45.3664 16.3511 44.6142C16.3809 44.6758 16.857 45.6533 17.1114 45.6533C17.3657 45.6533 23.9024 42.1152 23.9024 42.1152Z" fill="url(#paint40_radial_762_30819)"/>
<path d="M34.6451 44.6192C34.3799 45.3686 34.1573 45.8863 34.0315 45.9352C33.5101 46.1533 26.7272 42.3971 26.3271 42.1754L27.2893 42.0957C27.2893 42.0957 31.861 44.9613 33.7219 45.5351C34.1935 45.679 34.6098 44.7042 34.6451 44.6192Z" fill="url(#paint41_radial_762_30819)"/>
<path d="M26.944 19.8V31H24.352V21.88H22.112V19.8H26.944Z" fill="white"/>
</g>
<defs>
<radialGradient id="paint0_radial_762_30819" cx="0" cy="0" r="1" gradientUnits="userSpaceOnUse" gradientTransform="translate(25.4467 25.4837) scale(23.9411 23.6131)">
<stop stop-color="#1D1C40" stop-opacity="0.5"/>
<stop offset="0.2" stop-color="#1D1C40" stop-opacity="0.5"/>
<stop offset="0.28" stop-color="#161526" stop-opacity="0.5"/>
<stop offset="0.33" stop-color="#23213C" stop-opacity="0.5"/>
<stop offset="0.37" stop-color="#323057" stop-opacity="0.5"/>
<stop offset="0.41" stop-color="#454278" stop-opacity="0.5"/>
<stop offset="0.44" stop-color="#5B579E" stop-opacity="0.5"/>
<stop offset="0.47" stop-color="#5B579E" stop-opacity="0.5"/>
<stop offset="0.5" stop-color="#5B579E" stop-opacity="0.5"/>
<stop offset="0.53" stop-color="#736EC7" stop-opacity="0.5"/>
<stop offset="0.581895" stop-color="#8680E8" stop-opacity="0.5"/>
<stop offset="0.64" stop-color="#5E5AA3" stop-opacity="0.5"/>
<stop offset="0.643084" stop-color="#5E5AA3" stop-opacity="0.5"/>
<stop offset="0.786982" stop-color="#3D3A69" stop-opacity="0.4"/>
<stop offset="0.89" stop-color="#23213C" stop-opacity="0.2"/>
<stop offset="0.96" stop-color="#1D1C40" stop-opacity="0"/>
<stop offset="1" stop-color="#1D1C40" stop-opacity="0"/>
</radialGradient>
<linearGradient id="paint1_linear_762_30819" x1="9.42086" y1="0.136639" x2="18.8764" y2="15.2966" gradientUnits="userSpaceOnUse">
<stop stop-color="#1D1C40" stop-opacity="0"/>
<stop offset="0.13" stop-color="#1D1C40" stop-opacity="0"/>
<stop offset="0.35" stop-color="#272159"/>
<stop offset="0.52" stop-color="#403883"/>
<stop offset="0.61" stop-color="#5951A3"/>
</linearGradient>
<linearGradient id="paint2_linear_762_30819" x1="-4.99685" y1="1.35861" x2="20.3202" y2="19.1294" gradientUnits="userSpaceOnUse">
<stop stop-color="#1D1C40" stop-opacity="0"/>
<stop offset="0.12" stop-color="#1D1C40" stop-opacity="0"/>
<stop offset="0.441228" stop-color="#1E2153"/>
<stop offset="0.67" stop-color="#3442A6"/>
<stop offset="1" stop-color="#3F5BE2"/>
</linearGradient>
<linearGradient id="paint3_linear_762_30819" x1="12.652" y1="56.5488" x2="20.9623" y2="36.4422" gradientUnits="userSpaceOnUse">
<stop stop-color="#1D1C40" stop-opacity="0"/>
<stop offset="0.12" stop-color="#1D1C40" stop-opacity="0"/>
<stop offset="0.550687" stop-color="#1E2153"/>
<stop offset="0.67" stop-color="#3442A6"/>
<stop offset="1" stop-color="#3F5BE2"/>
</linearGradient>
<linearGradient id="paint4_linear_762_30819" x1="34.261" y1="51.2997" x2="26.143" y2="31.9395" gradientUnits="userSpaceOnUse">
<stop offset="0.199414" stop-color="#1D1C40" stop-opacity="0"/>
<stop offset="0.397908" stop-color="#3E59DE" stop-opacity="0.5"/>
<stop offset="0.606404" stop-color="#3442A6" stop-opacity="0.8"/>
<stop offset="0.775955" stop-color="#1D1C40" stop-opacity="0"/>
<stop offset="0.993301" stop-color="#1E2153"/>
</linearGradient>
<linearGradient id="paint5_linear_762_30819" x1="52.0797" y1="-7.61683" x2="32.081" y2="16.0383" gradientUnits="userSpaceOnUse">
<stop stop-color="#1D1C40" stop-opacity="0"/>
<stop offset="0.25" stop-color="#1D1C40" stop-opacity="0"/>
<stop offset="0.5" stop-color="#1E2153"/>
<stop offset="0.75" stop-color="#3442A6"/>
<stop offset="1" stop-color="#3F5BE2"/>
</linearGradient>
<linearGradient id="paint6_linear_762_30819" x1="4.04672" y1="13.5692" x2="20.236" y2="21.2064" gradientUnits="userSpaceOnUse">
<stop stop-color="#1D1C40" stop-opacity="0"/>
<stop offset="0.13" stop-color="#1D1C40" stop-opacity="0"/>
<stop offset="0.35" stop-color="#5951A3"/>
<stop offset="0.52" stop-color="#403883"/>
<stop offset="0.61" stop-color="#272159"/>
</linearGradient>
<linearGradient id="paint7_linear_762_30819" x1="39.7176" y1="-1.19649" x2="29.3833" y2="13.3077" gradientUnits="userSpaceOnUse">
<stop stop-color="#1D1C40" stop-opacity="0"/>
<stop offset="0.13" stop-color="#1D1C40" stop-opacity="0"/>
<stop offset="0.35" stop-color="#272159"/>
<stop offset="0.52" stop-color="#403883"/>
<stop offset="0.61" stop-color="#5951A3"/>
</linearGradient>
<linearGradient id="paint8_linear_762_30819" x1="46.8079" y1="12.6721" x2="31.2579" y2="21.4927" gradientUnits="userSpaceOnUse">
<stop stop-color="#1D1C40" stop-opacity="0"/>
<stop offset="0.13" stop-color="#1D1C40" stop-opacity="0"/>
<stop offset="0.35" stop-color="#5951A3"/>
<stop offset="0.52" stop-color="#403883"/>
<stop offset="0.61" stop-color="#272159"/>
</linearGradient>
<linearGradient id="paint9_linear_762_30819" x1="1.46222" y1="40.5498" x2="16.7064" y2="32.2233" gradientUnits="userSpaceOnUse">
<stop stop-color="#1D1C40" stop-opacity="0"/>
<stop offset="0.13" stop-color="#1D1C40" stop-opacity="0"/>
<stop offset="0.35" stop-color="#272159"/>
<stop offset="0.52" stop-color="#403883"/>
<stop offset="0.61" stop-color="#5951A3"/>
</linearGradient>
<linearGradient id="paint10_linear_762_30819" x1="39.9094" y1="48.577" x2="29.9147" y2="34.7376" gradientUnits="userSpaceOnUse">
<stop stop-color="#1D1C40" stop-opacity="0"/>
<stop offset="0.13" stop-color="#1D1C40" stop-opacity="0"/>
<stop offset="0.35" stop-color="#272159"/>
<stop offset="0.52" stop-color="#403883"/>
<stop offset="0.61" stop-color="#5951A3"/>
</linearGradient>
<linearGradient id="paint11_linear_762_30819" x1="49.6349" y1="39.5508" x2="34.3907" y2="31.2244" gradientUnits="userSpaceOnUse">
<stop stop-color="#1D1C40" stop-opacity="0"/>
<stop offset="0.13" stop-color="#1D1C40" stop-opacity="0"/>
<stop offset="0.35" stop-color="#272159"/>
<stop offset="0.52" stop-color="#403883"/>
<stop offset="0.61" stop-color="#5951A3"/>
</linearGradient>
<linearGradient id="paint12_linear_762_30819" x1="26" y1="11" x2="26" y2="39" gradientUnits="userSpaceOnUse">
<stop stop-color="#6D63CF"/>
<stop offset="1" stop-color="#5244DF"/>
</linearGradient>
<linearGradient id="paint13_linear_762_30819" x1="16.3557" y1="10.9772" x2="26.1978" y2="10.9772" gradientUnits="userSpaceOnUse">
<stop stop-color="#A3849F"/>
<stop offset="1" stop-color="#9A95A5"/>
</linearGradient>
<linearGradient id="paint14_linear_762_30819" x1="39.1409" y1="50.8214" x2="33.7102" y2="3.12197" gradientUnits="userSpaceOnUse">
<stop stop-color="#A3849F"/>
<stop offset="1" stop-color="#9A95A5"/>
</linearGradient>
<linearGradient id="paint15_linear_762_30819" x1="13.9978" y1="53.6827" x2="8.56718" y2="5.98328" gradientUnits="userSpaceOnUse">
<stop stop-color="#A3849F"/>
<stop offset="1" stop-color="#9A95A5"/>
</linearGradient>
<linearGradient id="paint16_linear_762_30819" x1="21.4271" y1="52.8365" x2="15.9964" y2="5.13712" gradientUnits="userSpaceOnUse">
<stop stop-color="#A3849F"/>
<stop offset="1" stop-color="#9A95A5"/>
</linearGradient>
<linearGradient id="paint17_linear_762_30819" x1="30.0942" y1="51.8512" x2="24.6636" y2="4.15088" gradientUnits="userSpaceOnUse">
<stop stop-color="#A3849F"/>
<stop offset="1" stop-color="#9A95A5"/>
</linearGradient>
<linearGradient id="paint18_linear_762_30819" x1="41.6308" y1="50.5367" x2="36.2001" y2="2.83735" gradientUnits="userSpaceOnUse">
<stop stop-color="#A3849F"/>
<stop offset="1" stop-color="#9A95A5"/>
</linearGradient>
<linearGradient id="paint19_linear_762_30819" x1="19.3949" y1="43.8584" x2="19.3949" y2="37.2086" gradientUnits="userSpaceOnUse">
<stop stop-color="#A3849F"/>
<stop offset="1" stop-color="#9A95A5"/>
</linearGradient>
<linearGradient id="paint20_linear_762_30819" x1="31.6022" y1="43.8572" x2="31.6022" y2="37.2074" gradientUnits="userSpaceOnUse">
<stop stop-color="#A3849F"/>
<stop offset="1" stop-color="#9A95A5"/>
</linearGradient>
<linearGradient id="paint21_linear_762_30819" x1="16.3501" y1="8.16712" x2="22.4397" y2="8.16712" gradientUnits="userSpaceOnUse">
<stop stop-color="#A3849F"/>
<stop offset="1" stop-color="#9A95A5"/>
</linearGradient>
<linearGradient id="paint22_linear_762_30819" x1="16.3646" y1="2.21715" x2="18.488" y2="8.34204" gradientUnits="userSpaceOnUse">
<stop stop-color="#95A8CF"/>
<stop offset="1"/>
</linearGradient>
<linearGradient id="paint23_linear_762_30819" x1="28.5628" y1="8.16712" x2="34.6533" y2="8.16712" gradientUnits="userSpaceOnUse">
<stop stop-color="#A3849F"/>
<stop offset="1" stop-color="#9A95A5"/>
</linearGradient>
<linearGradient id="paint24_linear_762_30819" x1="34.6389" y1="2.21715" x2="32.5146" y2="8.34204" gradientUnits="userSpaceOnUse">
<stop stop-color="#95A8CF"/>
<stop offset="1"/>
</linearGradient>
<linearGradient id="paint25_linear_762_30819" x1="39.6106" y1="17.9863" x2="44.2511" y2="17.9863" gradientUnits="userSpaceOnUse">
<stop stop-color="#A3849F"/>
<stop offset="1" stop-color="#9A95A5"/>
</linearGradient>
<linearGradient id="paint26_linear_762_30819" x1="43.2118" y1="16.9746" x2="37.8409" y2="19.6265" gradientUnits="userSpaceOnUse">
<stop stop-color="#95A8CF"/>
<stop offset="1"/>
</linearGradient>
<linearGradient id="paint27_linear_762_30819" x1="39.6106" y1="31.8594" x2="44.2511" y2="31.8594" gradientUnits="userSpaceOnUse">
<stop stop-color="#A3849F"/>
<stop offset="1" stop-color="#9A95A5"/>
</linearGradient>
<linearGradient id="paint28_linear_762_30819" x1="45.8598" y1="30.1687" x2="40.4895" y2="27.5162" gradientUnits="userSpaceOnUse">
<stop stop-color="#95A8CF"/>
<stop offset="1"/>
</linearGradient>
<linearGradient id="paint29_linear_762_30819" x1="6.66553" y1="17.9863" x2="11.306" y2="17.9863" gradientUnits="userSpaceOnUse">
<stop stop-color="#A3849F"/>
<stop offset="1" stop-color="#9A95A5"/>
</linearGradient>
<linearGradient id="paint30_linear_762_30819" x1="5.2923" y1="14.6093" x2="10.6625" y2="17.2618" gradientUnits="userSpaceOnUse">
<stop stop-color="#95A8CF"/>
<stop offset="1"/>
</linearGradient>
<linearGradient id="paint31_linear_762_30819" x1="6.66553" y1="31.8594" x2="11.306" y2="31.8594" gradientUnits="userSpaceOnUse">
<stop stop-color="#A3849F"/>
<stop offset="1" stop-color="#9A95A5"/>
</linearGradient>
<linearGradient id="paint32_linear_762_30819" x1="2.64432" y1="32.534" x2="8.01456" y2="29.8814" gradientUnits="userSpaceOnUse">
<stop stop-color="#95A8CF"/>
<stop offset="1"/>
</linearGradient>
<linearGradient id="paint33_linear_762_30819" x1="9.89038" y1="36.7356" x2="41.5521" y2="36.7356" gradientUnits="userSpaceOnUse">
<stop stop-color="#662D87"/>
<stop offset="1" stop-color="#D01C5C"/>
</linearGradient>
<linearGradient id="paint34_linear_762_30819" x1="25.7107" y1="8.18179" x2="25.7107" y2="15.5467" gradientUnits="userSpaceOnUse">
<stop stop-color="#95A8CF"/>
<stop offset="1"/>
</linearGradient>
<linearGradient id="paint35_linear_762_30819" x1="25.4992" y1="42.8557" x2="25.4992" y2="34.7033" gradientUnits="userSpaceOnUse">
<stop stop-color="#A3849F"/>
<stop offset="1" stop-color="#9A95A5"/>
</linearGradient>
<linearGradient id="paint36_linear_762_30819" x1="25.4992" y1="39.3185" x2="25.4992" y2="32.9764" gradientUnits="userSpaceOnUse">
<stop stop-color="white"/>
<stop offset="1" stop-color="#FFF7C4"/>
</linearGradient>
<radialGradient id="paint37_radial_762_30819" cx="0" cy="0" r="1" gradientUnits="userSpaceOnUse" gradientTransform="translate(19.5404 40.5351) rotate(14.79) scale(3.03839 2.01036)">
<stop stop-color="#705AB5"/>
<stop offset="0.14" stop-color="#5C4A95"/>
<stop offset="0.44" stop-color="#352A55"/>
<stop offset="0.69" stop-color="#181327"/>
<stop offset="0.89" stop-color="#07050B"/>
<stop offset="1"/>
</radialGradient>
<linearGradient id="paint38_linear_762_30819" x1="44.3697" y1="25.7441" x2="44.3697" y2="34.521" gradientUnits="userSpaceOnUse">
<stop stop-color="#95A8CF"/>
<stop offset="1"/>
</linearGradient>
<linearGradient id="paint39_linear_762_30819" x1="6.59321" y1="25.7469" x2="6.59321" y2="34.435" gradientUnits="userSpaceOnUse">
<stop stop-color="#95A8CF"/>
<stop offset="1"/>
</linearGradient>
<radialGradient id="paint40_radial_762_30819" cx="0" cy="0" r="1" gradientUnits="userSpaceOnUse" gradientTransform="translate(20.511 44.0295) scale(3.23759)">
<stop offset="0.02" stop-color="#5A4153"/>
<stop offset="0.95" stop-color="#3E2645"/>
</radialGradient>
<radialGradient id="paint41_radial_762_30819" cx="0" cy="0" r="1" gradientUnits="userSpaceOnUse" gradientTransform="translate(30.4861 44.02) scale(3.2403 3.2403)">
<stop offset="0.02" stop-color="#5A4153"/>
<stop offset="0.95" stop-color="#3E2645"/>
</radialGradient>
<clipPath id="clip0_762_30819">
<rect width="50" height="50" fill="white"/>
</clipPath>
</defs>
</svg>
