<svg width="12" height="24" viewBox="0 0 12 24" fill="none" xmlns="http://www.w3.org/2000/svg">
<g clip-path="url(#clip0_65_1300)">
<path d="M8.04074 10.6464C8.1364 10.6464 8.23206 10.6656 8.31709 10.6944C9.17271 7.6992 10.023 4.6992 10.8786 1.6992C11.0062 1.2576 11.1284 0.816 11.256 0.3744C11.3091 0.1872 11.155 0 10.9424 0C10.8361 0 10.7298 0 10.6289 0C9.42249 0 8.21612 0 7.00974 0C6.96722 0 6.92471 0.0048 6.89282 0.0192C6.88751 0.0192 6.88219 0.024 6.87688 0.024C6.79185 0.0528 6.72807 0.1152 6.7015 0.216C6.47298 1.0704 6.24446 1.9248 6.01062 2.7792C5.7821 1.9248 5.55358 1.0704 5.32506 0.216C5.27723 0.0912 5.13374 0 4.99557 0C3.78919 0 2.58281 0 1.37643 0C1.27015 0 1.16386 0 1.05757 0C0.844991 0 0.690873 0.192 0.744017 0.3744C1.64216 3.504 2.5403 6.6288 3.43312 9.7536C3.52347 10.0656 3.6085 10.3776 3.69884 10.6848C3.77856 10.6608 3.86891 10.6416 3.95925 10.6416H8.04074V10.6464Z" fill="white"/>
<path d="M5.99999 14.1792C3.31088 14.1792 1.12665 16.152 1.12665 18.5808C1.12665 21.0096 3.31088 22.9824 5.99999 22.9824C8.68909 22.9824 10.8733 21.0096 10.8733 18.5808C10.8733 16.152 8.68378 14.1792 5.99999 14.1792ZM7.82815 21.12L5.99999 20.256L4.17182 21.12L4.52257 19.2816L3.04516 17.9808L5.0859 17.712L5.99999 16.0416L6.91407 17.712L8.95481 17.9808L7.4774 19.2816L7.82815 21.12Z" fill="white"/>
<path d="M6.5899 13.1904V12.7632H8.04074C8.48716 12.7632 8.84854 12.4368 8.84854 12.0336V11.7024C8.84854 11.3856 8.62533 11.1216 8.31709 11.0208C8.23206 10.992 8.1364 10.9728 8.04074 10.9728H3.95926C3.86891 10.9728 3.78388 10.9872 3.69885 11.016C3.37998 11.112 3.15146 11.3856 3.15146 11.7024V12.0336C3.15146 12.4368 3.51284 12.7632 3.95926 12.7632H5.4101V13.1904C2.37555 13.4592 0 15.7728 0 18.5808C0 21.5712 2.68911 24 6 24C9.30558 24 12 21.5712 12 18.5808C12 15.7728 9.61913 13.4592 6.5899 13.1904ZM3.95926 12.048C3.94863 12.048 3.938 12.0384 3.938 12.0288V11.6976C3.938 11.688 3.94863 11.6784 3.95926 11.6784H8.04074C8.05137 11.6784 8.062 11.688 8.062 11.6976V12.0288C8.062 12.0384 8.05137 12.048 8.04074 12.048H3.95926ZM6 23.2896C3.12489 23.2896 0.786537 21.1776 0.786537 18.5808C0.786537 15.984 3.12489 13.872 6 13.872C8.87511 13.872 11.2135 15.984 11.2135 18.5808C11.2135 21.1776 8.87511 23.2896 6 23.2896Z" fill="white"/>
</g>
<defs>
<clipPath id="clip0_65_1300">
<rect width="12" height="24" fill="white"/>
</clipPath>
</defs>
</svg>
