<svg width="33" height="33" viewBox="0 0 33 33" fill="none" xmlns="http://www.w3.org/2000/svg">
<g clip-path="url(#clip0_764_27293)">
<path d="M28.1725 4.8275C21.7345 -1.60917 11.2645 -1.60917 4.82643 4.8275C-1.60881 11.2642 -1.60881 21.7369 4.82643 28.1736C8.04544 31.3912 12.2728 32.9993 16.5002 32.9993C20.7276 32.9993 24.9535 31.3912 28.1725 28.1736C34.6092 21.737 34.6092 11.2642 28.1725 4.8275ZM23.3082 21.3641C23.8461 21.902 23.8461 22.7714 23.3082 23.3093C23.0399 23.5775 22.6878 23.7123 22.3356 23.7123C21.9835 23.7123 21.6312 23.5775 21.363 23.3093L16.5001 18.445L11.6386 23.3078C11.369 23.5761 11.0168 23.7109 10.666 23.7109C10.3138 23.7109 9.96163 23.5761 9.69338 23.3078C9.15552 22.77 9.15552 21.8992 9.69338 21.3627L14.5549 16.4998L9.69202 11.6369C9.15417 11.0991 9.15417 10.2283 9.69202 9.6918C10.2285 9.15394 11.0993 9.15394 11.6372 9.6918L16.5 14.5547L21.3629 9.6918C21.9008 9.15394 22.7702 9.15394 23.3081 9.6918C23.8459 10.2283 23.8459 11.0991 23.3081 11.6369L18.4452 16.4998L23.3082 21.3641Z" fill="#EC5A50"/>
</g>
<defs>
<clipPath id="clip0_764_27293">
<rect width="33" height="33" fill="white"/>
</clipPath>
</defs>
</svg>
