<svg width="33" height="33" viewBox="0 0 33 33" fill="none" xmlns="http://www.w3.org/2000/svg">
<g clip-path="url(#clip0_764_27264)">
<path fill-rule="evenodd" clip-rule="evenodd" d="M33.0174 16.5009C33.0174 25.6227 25.6227 33.0174 16.5009 33.0174C7.37907 33.0174 -0.015625 25.6227 -0.015625 16.5009C-0.015625 7.37907 7.37907 -0.015625 16.5009 -0.015625C25.6227 -0.015625 33.0174 7.37907 33.0174 16.5009ZM14.2156 22.1606C14.4168 22.2428 14.6323 22.2844 14.8497 22.2832C15.0671 22.2844 15.2825 22.2428 15.4838 22.1606C15.685 22.0784 15.868 21.9573 16.0224 21.8042L24.2806 13.5459C24.5916 13.2349 24.7664 12.8131 24.7664 12.3733C24.7664 11.9334 24.5916 11.5116 24.2806 11.2006C23.9696 10.8896 23.5478 10.7148 23.108 10.7148C22.6681 10.7148 22.2463 10.8896 21.9353 11.2006L14.8497 18.3027L11.0674 14.5039C10.7564 14.1929 10.3346 14.0181 9.89474 14.0181C9.4549 14.0181 9.03308 14.1929 8.72206 14.5039C8.41105 14.8149 8.23633 15.2367 8.23633 15.6766C8.23633 15.8943 8.27922 16.11 8.36257 16.3112C8.44591 16.5124 8.56807 16.6952 8.72206 16.8492L13.677 21.8042C13.8314 21.9573 14.0144 22.0784 14.2156 22.1606Z" fill="#95DC95"/>
</g>
<defs>
<clipPath id="clip0_764_27264">
<rect width="33" height="33" fill="white"/>
</clipPath>
</defs>
</svg>
