<svg width="33" height="33" viewBox="0 0 33 33" fill="none" xmlns="http://www.w3.org/2000/svg">
<g clip-path="url(#clip0_764_27318)">
<g clip-path="url(#clip1_764_27318)">
<path fill-rule="evenodd" clip-rule="evenodd" d="M16.5 33C25.6128 33 33 25.6128 33 16.5C33 7.38731 25.6128 0 16.5 0C7.38731 0 0 7.38731 0 16.5C0 25.6128 7.38731 33 16.5 33ZM18.3333 6.41667C18.3333 5.40415 17.5126 4.58333 16.5 4.58333C15.4875 4.58333 14.6667 5.40415 14.6667 6.41667V16.0417C14.6667 17.3074 15.6926 18.3333 16.9583 18.3333H22.9167C23.9292 18.3333 24.75 17.5126 24.75 16.5C24.75 15.4875 23.9292 14.6667 22.9167 14.6667H18.3333V6.41667Z" fill="#8082FF"/>
</g>
</g>
<defs>
<clipPath id="clip0_764_27318">
<rect width="33" height="33" fill="white"/>
</clipPath>
<clipPath id="clip1_764_27318">
<rect width="33" height="33" fill="white"/>
</clipPath>
</defs>
</svg>
