<svg width="27" height="36" viewBox="0 0 27 36" fill="none" xmlns="http://www.w3.org/2000/svg">
<path d="M4.5 36H7.695C8.36631 35.9936 9.01649 35.7645 9.54346 35.3485C10.0704 34.9326 10.4443 34.3535 10.6065 33.702C10.7802 33.0677 11.1574 32.5081 11.6802 32.1092C12.203 31.7103 12.8424 31.4942 13.5 31.4942C14.1576 31.4942 14.797 31.7103 15.3198 32.1092C15.8426 32.5081 16.2198 33.0677 16.3935 33.702C16.5557 34.3535 16.9296 34.9326 17.4565 35.3485C17.9835 35.7645 18.6337 35.9936 19.305 36L22.5 36C23.6935 36 24.8381 35.5259 25.682 34.682C26.5259 33.8381 27 32.6935 27 31.5V25.5H21C20.6022 25.5 20.2206 25.342 19.9393 25.0607C19.658 24.7794 19.5 24.3978 19.5 24C19.5 23.6022 19.658 23.2206 19.9393 22.9393C20.2206 22.658 20.6022 22.5 21 22.5H27L27 7.5C26.9976 5.51161 26.2067 3.60534 24.8007 2.19933C23.3947 0.793323 21.4884 0.00238179 19.5 0L19.305 0C18.6337 0.00637772 17.9835 0.23552 17.4565 0.651449C16.9296 1.06738 16.5557 1.64654 16.3935 2.298C16.2198 2.93226 15.8426 3.49188 15.3198 3.89078C14.797 4.28968 14.1576 4.50575 13.5 4.50575C12.8424 4.50575 12.203 4.28968 11.6802 3.89078C11.1574 3.49188 10.7802 2.93226 10.6065 2.298C10.4443 1.64654 10.0704 1.06738 9.54346 0.651449C9.01649 0.23552 8.36631 0.00637772 7.695 0L7.5 0C5.51161 0.00238179 3.60534 0.793323 2.19933 2.19933C0.793323 3.60534 0.00238179 5.51161 0 7.5L0 22.5H6C6.39782 22.5 6.77936 22.658 7.06066 22.9393C7.34196 23.2206 7.5 23.6022 7.5 24C7.5 24.3978 7.34196 24.7794 7.06066 25.0607C6.77936 25.342 6.39782 25.5 6 25.5H0L0 31.5C0 32.6935 0.474106 33.8381 1.31802 34.682C2.16193 35.5259 3.30653 36 4.5 36ZM12 22.5H15C15.3978 22.5 15.7794 22.658 16.0607 22.9393C16.342 23.2206 16.5 23.6022 16.5 24C16.5 24.3978 16.342 24.7794 16.0607 25.0607C15.7794 25.342 15.3978 25.5 15 25.5H12C11.6022 25.5 11.2206 25.342 10.9393 25.0607C10.658 24.7794 10.5 24.3978 10.5 24C10.5 23.6022 10.658 23.2206 10.9393 22.9393C11.2206 22.658 11.6022 22.5 12 22.5Z" fill="url(#paint0_linear_65_1488)"/>
<defs>
<linearGradient id="paint0_linear_65_1488" x1="1.37004e-06" y1="1.9572" x2="27" y2="34.0428" gradientUnits="userSpaceOnUse">
<stop stop-color="#6D63CF"/>
<stop offset="1" stop-color="#5244DF"/>
</linearGradient>
</defs>
</svg>
