<svg width="40" height="40" viewBox="0 0 40 40" fill="none" xmlns="http://www.w3.org/2000/svg">
<g clip-path="url(#clip0_65_1281)">
<mask id="mask0_65_1281" style="mask-type:luminance" maskUnits="userSpaceOnUse" x="1" y="1" width="38" height="38">
<path d="M39 1H1V39H39V1Z" fill="white"/>
</mask>
<g mask="url(#mask0_65_1281)">
<path d="M10.5 5.75H29.5V8.125H31.875V15.25H34.25V20H31.875V27.125H29.5V29.5H22.375V31.875H31.875V34.25H34.25V39H5.75V34.25H8.125V31.875H17.625V29.5H10.5V27.125H8.125V20H5.75V15.25H8.125V8.125H10.5V5.75Z" fill="#E0B687"/>
<path d="M10.5 5.75H29.5V8.125H31.875V15.25H34.25V20H31.875V27.125H29.5V29.5H10.5V27.125H8.125V20H5.75V15.25H8.125V8.125H10.5V5.75Z" fill="white" fill-opacity="0.1"/>
<path d="M12.875 31.875H8.125V34.25H5.75V39H34.25V34.25H31.875V31.875H27.125V34.25H12.875V31.875Z" fill="#AE0001"/>
<path d="M10.5 12.875H17.625V17.625H10.5V12.875ZM22.375 12.875H29.5V17.625H22.375V12.875Z" fill="white"/>
<path d="M27.125 12.875H24.75V15.25H22.375V17.625H29.5V15.25H27.125V12.875Z" fill="#876658"/>
<path d="M22.375 15.25H24.75V17.625H22.375V15.25ZM24.75 12.875H27.125V15.25H24.75V12.875ZM27.125 15.25H29.5V17.625H27.125V15.25Z" fill="white" fill-opacity="0.5"/>
<path d="M15.25 12.875H12.875V15.25H10.5V17.625H17.625V15.25H15.25V12.875Z" fill="#876658"/>
<path d="M10.5 15.25H12.875V17.625H10.5V15.25ZM12.875 12.875H15.25V15.25H12.875V12.875ZM15.25 15.25H17.625V17.625H15.25V15.25Z" fill="white" fill-opacity="0.5"/>
<path d="M5.75 12.875H17.625V15.25H10.5V17.625H8.125V15.25H5.75V12.875ZM17.625 17.625V20H10.5V17.625H17.625ZM22.375 17.625H17.625V15.25H22.375V17.625ZM29.5 17.625H22.375V20H29.5V17.625ZM29.5 15.25H22.375V12.875H34.25V15.25H31.875V17.625H29.5V15.25Z" fill="#4B4B4B"/>
<path d="M10.5 15.25H17.625V17.625H10.5V15.25ZM22.375 15.25H29.5V17.625H22.375V15.25Z" fill="white" fill-opacity="0.3"/>
<path d="M29.5 12.875H34.25V15.25H29.5V12.875ZM5.75 12.875H10.5V15.25H5.75V12.875ZM17.625 15.25H22.375V17.625H17.625V15.25Z" fill="white" fill-opacity="0.2"/>
<path d="M24.75 27.125V24.75H17.625V22.375H15.25V24.75H17.625V27.125H24.75Z" fill="#D29985"/>
<path d="M15.25 5.75H24.75V8.125H15.25V5.75ZM17.625 8.125H22.375V10.5H17.625V8.125Z" fill="#603A14"/>
</g>
</g>
<defs>
<clipPath id="clip0_65_1281">
<rect width="38" height="38" fill="white" transform="translate(1 1)"/>
</clipPath>
</defs>
</svg>
