<svg width="531" height="411" viewBox="0 0 531 411" fill="none" xmlns="http://www.w3.org/2000/svg">
<g clip-path="url(#clip0_464_25708)">
<path fill-rule="evenodd" clip-rule="evenodd" d="M266.446 191.871L828 115.5V261L266.451 192.117L266.35 192.355L828 427L760 566L266.257 192.573L266.15 192.827L559.5 566H424L266 193.18L265.731 193.816L313 566H221.5L265.116 195.266L108 566H-27.5L265.324 193.496L265.402 192.83L-228 566L-296 427L265.448 192.439L265.485 192.124L-296 261V115.5L265.483 191.862L265.446 191.563L-264.5 -28L-183 -154L265.394 191.149L265.3 190.389L53 -94.5H146.5L265.078 188.605L232 -77.5H303L265.749 190.208L266 190.806L385.5 -94.5H479L266.14 191.141L266.256 191.418L715 -154L796.5 -28L266.352 191.647L266.446 191.871ZM266.264 191.683L266.408 191.877L266.35 191.884L266.15 191.731L266.264 191.683ZM266.135 191.511L266 191.329L265.865 191.511L266 191.615L266.135 191.511ZM265.85 191.731L265.736 191.683L265.592 191.877L265.65 191.884L265.85 191.731ZM266.253 191.898L266 191.793L265.747 191.898L266 191.932L266.253 191.898ZM265.554 191.871L265.648 191.647L265.555 191.608L265.519 191.867L265.554 191.871ZM265.597 191.305L265.744 191.418L265.86 191.141L265.657 190.869L265.597 191.305ZM265.727 192.095L266 192.061L266.273 192.095L266 192.209L265.727 192.095ZM265.515 192.121L265.55 192.397L265.65 192.355L265.549 192.117L265.515 192.121ZM265.747 192.314L265.588 192.112L265.64 192.106L265.856 192.269L265.747 192.314ZM265.743 192.573L265.588 192.69L265.639 193.095L265.85 192.827L265.743 192.573ZM266 192.636L265.873 192.474L266 192.378L266.127 192.474L266 192.636ZM266.253 192.314L266.412 192.112L266.36 192.106L266.144 192.269L266.253 192.314Z" fill="url(#paint0_radial_464_25708)" fill-opacity="0.2"/>
</g>
<defs>
<radialGradient id="paint0_radial_464_25708" cx="0" cy="0" r="1" gradientUnits="userSpaceOnUse" gradientTransform="translate(266 206) rotate(90) scale(324.5 506.578)">
<stop stop-color="white" stop-opacity="0.1"/>
<stop offset="1" stop-color="#242347"/>
</radialGradient>
<clipPath id="clip0_464_25708">
<rect width="531" height="411" fill="white"/>
</clipPath>
</defs>
</svg>
