<svg width="604" height="426" viewBox="0 0 604 426" fill="none" xmlns="http://www.w3.org/2000/svg">
<g clip-path="url(#clip0_764_27253)">
<path fill-rule="evenodd" clip-rule="evenodd" d="M302.153 169.319L799.489 101.681V230.543L302.157 169.537L302.067 169.748L799.489 377.56L739.265 500.664L301.985 169.941L301.89 170.166L561.693 500.664H441.688L301.757 170.48L301.518 171.044L343.382 500.664H262.345L300.973 172.331L161.826 500.664H41.821L301.157 170.76L301.227 170.17L-135.751 500.664L-195.975 377.56L301.268 169.823L301.3 169.544L-195.975 230.543V101.681L301.298 169.31L301.265 169.046L-168.077 -25.4088L-95.8968 -137L301.22 168.678L301.136 168.004L113.115 -84.3041H195.923L300.939 166.421L271.644 -69.2482H334.525L301.535 167.843L301.757 168.374L407.591 -84.3041H490.399L301.881 168.671L301.984 168.917L699.411 -137L771.591 -25.4088L302.069 169.12L302.153 169.319ZM301.991 169.152L302.119 169.324L302.067 169.331L301.89 169.194L301.991 169.152ZM301.877 168.999L301.757 168.838L301.637 168.999L301.757 169.092L301.877 168.999ZM301.624 169.194L301.523 169.152L301.395 169.324L301.447 169.331L301.624 169.194ZM301.981 169.342L301.757 169.249L301.533 169.342L301.757 169.373L301.981 169.342ZM301.361 169.319L301.445 169.12L301.362 169.086L301.33 169.315L301.361 169.319ZM301.399 168.816L301.53 168.917L301.633 168.671L301.453 168.43L301.399 168.816ZM301.515 169.517L301.757 169.488L301.999 169.517L301.757 169.618L301.515 169.517ZM301.327 169.54L301.358 169.785L301.447 169.748L301.357 169.537L301.327 169.54ZM301.533 169.712L301.391 169.532L301.437 169.527L301.629 169.672L301.533 169.712ZM301.529 169.941L301.391 170.045L301.437 170.405L301.624 170.166L301.529 169.941ZM301.757 169.997L301.644 169.854L301.757 169.769L301.87 169.854L301.757 169.997ZM301.981 169.712L302.123 169.532L302.077 169.527L301.885 169.672L301.981 169.712Z" fill="url(#paint0_radial_764_27253)" fill-opacity="0.2"/>
</g>
<defs>
<radialGradient id="paint0_radial_764_27253" cx="0" cy="0" r="1" gradientUnits="userSpaceOnUse" gradientTransform="translate(243.731 181.832) rotate(90) scale(287.392 448.647)">
<stop stop-color="white" stop-opacity="0.1"/>
<stop offset="1" stop-color="#242347"/>
</radialGradient>
<clipPath id="clip0_764_27253">
<rect width="604" height="426" fill="white"/>
</clipPath>
</defs>
</svg>
