<svg width="18" height="18" viewBox="0 0 18 18" fill="none" xmlns="http://www.w3.org/2000/svg">
<path fill-rule="evenodd" clip-rule="evenodd" d="M18 9C18 13.9706 13.9706 18 9 18C4.02944 18 0 13.9706 0 9C0 4.02944 4.02944 0 9 0C13.9706 0 18 4.02944 18 9ZM12.3882 5.61177C12.6323 5.85585 12.6323 6.25157 12.3882 6.49565L9.88388 9L12.3882 11.5043C12.6323 11.7484 12.6323 12.1442 12.3882 12.3882C12.1442 12.6323 11.7484 12.6323 11.5043 12.3882L9 9.88388L6.49567 12.3882C6.2516 12.6323 5.85587 12.6323 5.61179 12.3882C5.36771 12.1441 5.36771 11.7484 5.61179 11.5043L8.11612 9L5.61179 6.49567C5.36771 6.2516 5.36771 5.85587 5.61179 5.61179C5.85587 5.36771 6.2516 5.36771 6.49568 5.61179L9 8.11612L11.5043 5.61177C11.7484 5.36769 12.1442 5.36769 12.3882 5.61177Z" fill="white"/>
</svg>
