<svg width="470" height="364" viewBox="0 0 470 364" fill="none" xmlns="http://www.w3.org/2000/svg">
<g clip-path="url(#clip0_587_36990)">
<path fill-rule="evenodd" clip-rule="evenodd" d="M235.128 169.319L732.464 101.681V230.543L235.132 169.537L235.043 169.748L732.464 377.56L672.24 500.664L234.961 169.941L234.865 170.166L494.669 500.664H374.664L234.733 170.48L234.494 171.044L276.357 500.664H195.321L233.948 172.331L94.8015 500.664H-25.2034L234.133 170.76L234.202 170.17L-202.775 500.664L-262.999 377.56L234.243 169.823L234.276 169.544L-262.999 230.543V101.681L234.274 169.31L234.241 169.046L-235.101 -25.4088L-162.921 -137L234.195 168.678L234.111 168.004L46.091 -84.3041H128.899L233.915 166.421L204.62 -69.2482H267.501L234.51 167.843L234.733 168.374L340.566 -84.3041H423.374L234.857 168.671L234.96 168.917L632.386 -137L704.566 -25.4088L235.045 169.12L235.128 169.319ZM234.967 169.152L235.095 169.324L235.043 169.331L234.866 169.194L234.967 169.152ZM234.853 168.999L234.733 168.838L234.612 168.999L234.733 169.092L234.853 168.999ZM234.599 169.194L234.498 169.152L234.371 169.324L234.422 169.331L234.599 169.194ZM234.957 169.342L234.733 169.249L234.508 169.342L234.733 169.373L234.957 169.342ZM234.337 169.319L234.42 169.12L234.337 169.086L234.306 169.315L234.337 169.319ZM234.375 168.816L234.505 168.917L234.608 168.671L234.429 168.43L234.375 168.816ZM234.49 169.517L234.733 169.488L234.975 169.517L234.733 169.618L234.49 169.517ZM234.303 169.54L234.334 169.785L234.422 169.748L234.333 169.537L234.303 169.54ZM234.508 169.712L234.367 169.532L234.413 169.527L234.605 169.672L234.508 169.712ZM234.504 169.941L234.367 170.045L234.412 170.405L234.6 170.166L234.504 169.941ZM234.733 169.997L234.62 169.854L234.733 169.769L234.845 169.854L234.733 169.997ZM234.957 169.712L235.098 169.532L235.052 169.527L234.861 169.672L234.957 169.712Z" fill="url(#paint0_radial_587_36990)" fill-opacity="0.2"/>
</g>
<defs>
<radialGradient id="paint0_radial_587_36990" cx="0" cy="0" r="1" gradientUnits="userSpaceOnUse" gradientTransform="translate(190.733 181.832) rotate(90) scale(287.392 448.647)">
<stop stop-color="white" stop-opacity="0.1"/>
<stop offset="1" stop-color="#242347"/>
</radialGradient>
<clipPath id="clip0_587_36990">
<rect width="470" height="364" fill="white"/>
</clipPath>
</defs>
</svg>
